M48
;DRILL file {Pcbnew (2013-07-07 BZR 4022)-stable} date 6/15/2016 8:06:18 PM
;FORMAT={-:-/ absolute / metric / decimal}
FMAT,2
METRIC,TZ
T1C0.635
T2C0.813
T3C0.991
T4C3.048
%
G90
G05
M71
T1
X77.724Y-107.696
X80.01Y-103.632
X81.28Y-120.142
X92.71Y-92.075
X116.84Y-96.52
X129.54Y-63.754
X147.32Y-77.47
X151.765Y-91.44
X154.94Y-77.47
X163.195Y-77.47
T2
X61.468Y-124.714
X64.262Y-119.38
X64.77Y-92.7
X64.77Y-95.25
X64.77Y-97.79
X64.77Y-101.6
X66.802Y-119.38
X69.342Y-119.38
X69.85Y-62.23
X69.85Y-64.77
X69.85Y-67.31
X69.85Y-69.85
X69.85Y-72.39
X69.85Y-74.93
X69.85Y-77.47
X69.85Y-82.55
X69.85Y-85.09
X69.85Y-87.63
X70.612Y-109.22
X72.39Y-101.6
X72.898Y-114.3
X75.438Y-114.3
X75.702Y-109.22
X76.2Y-72.39
X76.2Y-80.01
X76.2Y-82.55
X76.2Y-87.63
X76.962Y-119.38
X77.47Y-76.835
X78.74Y-72.39
X78.74Y-87.63
X79.756Y-109.22
X79.756Y-111.76
X79.756Y-114.3
X79.756Y-116.84
X79.756Y-119.38
X79.756Y-121.92
X79.756Y-124.46
X79.756Y-127.
X79.756Y-129.54
X79.756Y-132.08
X79.756Y-134.62
X79.756Y-147.32
X79.756Y-149.86
X81.28Y-72.39
X81.28Y-87.63
X83.82Y-72.39
X83.82Y-87.63
X85.09Y-76.835
X86.36Y-63.5
X86.36Y-72.39
X86.36Y-87.63
X87.63Y-130.175
X88.265Y-75.565
X88.265Y-83.185
X88.9Y-63.5
X88.9Y-72.39
X88.9Y-87.63
X90.17Y-130.175
X91.44Y-72.39
X91.44Y-87.63
X92.447Y-67.047
X92.71Y-63.5
X93.98Y-72.39
X93.98Y-75.565
X93.98Y-83.185
X93.98Y-87.63
X93.98Y-115.57
X93.98Y-130.175
X93.98Y-144.78
X94.243Y-68.843
X95.25Y-63.5
X96.52Y-72.39
X96.52Y-87.63
X96.52Y-115.57
X96.52Y-121.92
X96.52Y-123.825
X96.52Y-130.175
X96.52Y-144.78
X97.79Y-63.5
X99.06Y-72.39
X99.06Y-79.375
X99.06Y-87.63
X99.06Y-115.57
X99.06Y-130.175
X99.06Y-144.78
X101.6Y-63.5
X101.6Y-72.39
X101.6Y-87.63
X101.6Y-115.57
X101.6Y-130.175
X101.6Y-133.985
X101.6Y-136.525
X101.6Y-144.78
X104.14Y-63.5
X104.14Y-72.39
X104.14Y-87.63
X104.14Y-115.57
X104.14Y-121.92
X104.14Y-123.825
X104.14Y-130.175
X104.14Y-144.78
X106.68Y-63.5
X106.68Y-72.39
X106.68Y-79.375
X106.68Y-87.63
X109.22Y-63.5
X109.22Y-72.39
X109.22Y-87.63
X109.22Y-133.985
X109.22Y-136.525
X111.76Y-63.5
X111.76Y-72.39
X111.76Y-87.63
X111.76Y-94.615
X112.395Y-79.375
X114.3Y-63.5
X114.3Y-72.39
X114.3Y-87.63
X114.935Y-79.375
X116.84Y-63.5
X116.84Y-68.58
X116.84Y-72.39
X116.84Y-87.63
X119.38Y-68.58
X119.38Y-72.39
X119.38Y-87.63
X119.38Y-94.615
X120.65Y-63.5
X121.92Y-68.58
X121.92Y-72.39
X121.92Y-87.63
X123.19Y-63.5
X124.46Y-68.58
X124.46Y-72.39
X124.46Y-87.63
X125.857Y-138.684
X127.635Y-64.77
X127.635Y-72.39
X128.397Y-138.684
X130.81Y-66.04
X130.937Y-138.684
X133.35Y-66.04
X135.9Y-66.04
X143.51Y-69.215
X143.51Y-76.835
X144.145Y-66.04
X146.685Y-66.04
X151.13Y-69.215
X151.13Y-76.835
X151.765Y-66.04
X154.305Y-66.04
X158.75Y-69.215
X158.75Y-76.835
X158.75Y-84.455
X159.385Y-66.04
X161.29Y-89.535
X161.925Y-66.04
X163.83Y-89.535
X166.37Y-69.215
X166.37Y-76.835
X166.37Y-84.455
X167.005Y-66.04
X168.91Y-89.535
X169.545Y-66.04
X171.45Y-85.725
X171.45Y-89.535
X173.99Y-89.535
X175.26Y-71.12
X176.53Y-89.535
X177.8Y-71.12
X179.07Y-85.725
X179.07Y-89.535
X180.34Y-71.12
X199.39Y-81.28
X199.39Y-83.82
X199.39Y-86.36
T3
X68.58Y-95.25
X71.12Y-92.71
X71.12Y-97.79
X130.81Y-72.39
X133.35Y-69.85
X135.89Y-72.39
X146.685Y-69.84
X146.685Y-72.39
X146.685Y-74.94
X154.305Y-69.84
X154.305Y-72.39
X154.305Y-74.94
X161.925Y-69.84
X161.925Y-72.39
X161.925Y-74.94
X169.545Y-69.84
X169.545Y-72.39
X169.545Y-74.94
T4
X60.96Y-56.515
X60.96Y-158.75
X116.84Y-102.108
X116.84Y-156.972
X197.485Y-158.75
X209.804Y-102.108
X209.804Y-156.972
X210.82Y-56.515
T0
M30
