G04 (created by PCBNEW (2013-07-07 BZR 4022)-stable) date 12/12/2015 1:25:57 PM*
%MOIN*%
G04 Gerber Fmt 3.4, Leading zero omitted, Abs format*
%FSLAX34Y34*%
G01*
G70*
G90*
G04 APERTURE LIST*
%ADD10C,0.00590551*%
%ADD11C,0.00787402*%
%ADD12C,0.011811*%
%ADD13C,0.012*%
%ADD14C,0.008*%
%ADD15C,0.003*%
%ADD16C,0.01*%
%ADD17C,0.006*%
%ADD18C,0.015*%
%ADD19C,0.0107*%
%ADD20C,0.0106*%
%ADD21C,0.0035*%
%ADD22C,0.01125*%
G04 APERTURE END LIST*
G54D10*
G54D11*
X53000Y-50650D02*
X53000Y-51650D01*
X48000Y-51650D02*
X48000Y-50650D01*
X53000Y-52650D02*
X53000Y-51650D01*
X48000Y-52650D02*
X53000Y-52650D01*
X48000Y-51650D02*
X48000Y-52650D01*
X45000Y-39150D02*
X48000Y-39150D01*
X48000Y-39150D02*
X65500Y-39150D01*
X45000Y-62772D02*
X45000Y-58441D01*
X45000Y-39150D02*
X45000Y-43480D01*
X83582Y-39150D02*
X45000Y-39150D01*
X83582Y-62772D02*
X83582Y-39150D01*
X45000Y-62772D02*
X83582Y-62772D01*
X45000Y-39150D02*
X45000Y-62772D01*
X33250Y-57500D02*
X24250Y-57500D01*
X33250Y-57500D02*
X32500Y-57500D01*
X33250Y-57500D02*
X33250Y-42500D01*
X24250Y-42500D02*
X24250Y-57500D01*
X33250Y-42500D02*
X24250Y-42500D01*
G54D12*
X54143Y-51332D02*
X54115Y-51360D01*
X54031Y-51389D01*
X53975Y-51389D01*
X53890Y-51360D01*
X53834Y-51304D01*
X53806Y-51248D01*
X53778Y-51135D01*
X53778Y-51051D01*
X53806Y-50939D01*
X53834Y-50882D01*
X53890Y-50826D01*
X53975Y-50798D01*
X54031Y-50798D01*
X54115Y-50826D01*
X54143Y-50854D01*
X54678Y-51389D02*
X54397Y-51389D01*
X54397Y-50798D01*
X55212Y-51332D02*
X55184Y-51360D01*
X55100Y-51389D01*
X55043Y-51389D01*
X54959Y-51360D01*
X54903Y-51304D01*
X54875Y-51248D01*
X54847Y-51135D01*
X54847Y-51051D01*
X54875Y-50939D01*
X54903Y-50882D01*
X54959Y-50826D01*
X55043Y-50798D01*
X55100Y-50798D01*
X55184Y-50826D01*
X55212Y-50854D01*
X55465Y-51389D02*
X55465Y-50798D01*
X55606Y-50798D01*
X55690Y-50826D01*
X55746Y-50882D01*
X55775Y-50939D01*
X55803Y-51051D01*
X55803Y-51135D01*
X55775Y-51248D01*
X55746Y-51304D01*
X55690Y-51360D01*
X55606Y-51389D01*
X55465Y-51389D01*
X56056Y-51164D02*
X56506Y-51164D01*
X57040Y-50995D02*
X57040Y-51389D01*
X56899Y-50770D02*
X56759Y-51192D01*
X57124Y-51192D01*
X57321Y-50854D02*
X57349Y-50826D01*
X57406Y-50798D01*
X57546Y-50798D01*
X57602Y-50826D01*
X57631Y-50854D01*
X57659Y-50910D01*
X57659Y-50967D01*
X57631Y-51051D01*
X57293Y-51389D01*
X57659Y-51389D01*
X58024Y-50798D02*
X58080Y-50798D01*
X58137Y-50826D01*
X58165Y-50854D01*
X58193Y-50910D01*
X58221Y-51023D01*
X58221Y-51164D01*
X58193Y-51276D01*
X58165Y-51332D01*
X58137Y-51360D01*
X58080Y-51389D01*
X58024Y-51389D01*
X57968Y-51360D01*
X57940Y-51332D01*
X57912Y-51276D01*
X57884Y-51164D01*
X57884Y-51023D01*
X57912Y-50910D01*
X57940Y-50854D01*
X57968Y-50826D01*
X58024Y-50798D01*
X24981Y-49239D02*
X24784Y-48957D01*
X24644Y-49239D02*
X24644Y-48648D01*
X24869Y-48648D01*
X24925Y-48676D01*
X24953Y-48704D01*
X24981Y-48760D01*
X24981Y-48845D01*
X24953Y-48901D01*
X24925Y-48929D01*
X24869Y-48957D01*
X24644Y-48957D01*
X25459Y-49210D02*
X25403Y-49239D01*
X25291Y-49239D01*
X25234Y-49210D01*
X25206Y-49154D01*
X25206Y-48929D01*
X25234Y-48873D01*
X25291Y-48845D01*
X25403Y-48845D01*
X25459Y-48873D01*
X25487Y-48929D01*
X25487Y-48985D01*
X25206Y-49042D01*
X25741Y-49239D02*
X25741Y-48845D01*
X25741Y-48901D02*
X25769Y-48873D01*
X25825Y-48845D01*
X25909Y-48845D01*
X25965Y-48873D01*
X25994Y-48929D01*
X25994Y-49239D01*
X25994Y-48929D02*
X26022Y-48873D01*
X26078Y-48845D01*
X26162Y-48845D01*
X26219Y-48873D01*
X26247Y-48929D01*
X26247Y-49239D01*
X26612Y-49239D02*
X26556Y-49210D01*
X26528Y-49182D01*
X26500Y-49126D01*
X26500Y-48957D01*
X26528Y-48901D01*
X26556Y-48873D01*
X26612Y-48845D01*
X26697Y-48845D01*
X26753Y-48873D01*
X26781Y-48901D01*
X26809Y-48957D01*
X26809Y-49126D01*
X26781Y-49182D01*
X26753Y-49210D01*
X26697Y-49239D01*
X26612Y-49239D01*
X26978Y-48845D02*
X27203Y-48845D01*
X27062Y-48648D02*
X27062Y-49154D01*
X27090Y-49210D01*
X27147Y-49239D01*
X27203Y-49239D01*
X27625Y-49210D02*
X27568Y-49239D01*
X27456Y-49239D01*
X27400Y-49210D01*
X27372Y-49154D01*
X27372Y-48929D01*
X27400Y-48873D01*
X27456Y-48845D01*
X27568Y-48845D01*
X27625Y-48873D01*
X27653Y-48929D01*
X27653Y-48985D01*
X27372Y-49042D01*
X28356Y-49239D02*
X28356Y-48648D01*
X28693Y-49239D02*
X28440Y-48901D01*
X28693Y-48648D02*
X28356Y-48985D01*
X28946Y-49239D02*
X28946Y-48845D01*
X28946Y-48648D02*
X28918Y-48676D01*
X28946Y-48704D01*
X28974Y-48676D01*
X28946Y-48648D01*
X28946Y-48704D01*
X29312Y-49239D02*
X29256Y-49210D01*
X29228Y-49154D01*
X29228Y-48648D01*
X29621Y-49239D02*
X29565Y-49210D01*
X29537Y-49154D01*
X29537Y-48648D01*
X30268Y-49210D02*
X30352Y-49239D01*
X30493Y-49239D01*
X30549Y-49210D01*
X30577Y-49182D01*
X30606Y-49126D01*
X30606Y-49070D01*
X30577Y-49014D01*
X30549Y-48985D01*
X30493Y-48957D01*
X30381Y-48929D01*
X30324Y-48901D01*
X30296Y-48873D01*
X30268Y-48817D01*
X30268Y-48760D01*
X30296Y-48704D01*
X30324Y-48676D01*
X30381Y-48648D01*
X30521Y-48648D01*
X30606Y-48676D01*
X30802Y-48845D02*
X30915Y-49239D01*
X31027Y-48957D01*
X31140Y-49239D01*
X31252Y-48845D01*
X31477Y-49239D02*
X31477Y-48845D01*
X31477Y-48648D02*
X31449Y-48676D01*
X31477Y-48704D01*
X31505Y-48676D01*
X31477Y-48648D01*
X31477Y-48704D01*
X31674Y-48845D02*
X31899Y-48845D01*
X31758Y-48648D02*
X31758Y-49154D01*
X31787Y-49210D01*
X31843Y-49239D01*
X31899Y-49239D01*
X32349Y-49210D02*
X32293Y-49239D01*
X32180Y-49239D01*
X32124Y-49210D01*
X32096Y-49182D01*
X32068Y-49126D01*
X32068Y-48957D01*
X32096Y-48901D01*
X32124Y-48873D01*
X32180Y-48845D01*
X32293Y-48845D01*
X32349Y-48873D01*
X32602Y-49239D02*
X32602Y-48648D01*
X32855Y-49239D02*
X32855Y-48929D01*
X32827Y-48873D01*
X32771Y-48845D01*
X32687Y-48845D01*
X32630Y-48873D01*
X32602Y-48901D01*
G54D13*
X24250Y-43500D02*
X24250Y-42500D01*
X24250Y-42500D02*
X33250Y-42500D01*
X33250Y-42500D02*
X33250Y-43500D01*
X24250Y-43500D02*
X33250Y-43500D01*
X32250Y-43500D02*
X32250Y-42500D01*
X46500Y-25500D02*
X46500Y-25500D01*
X46500Y-25500D02*
X39500Y-25500D01*
X39500Y-25500D02*
X39500Y-24500D01*
X39500Y-24500D02*
X46500Y-24500D01*
X46500Y-24500D02*
X46500Y-25500D01*
X45500Y-24500D02*
X45500Y-24500D01*
X45500Y-24500D02*
X45500Y-25500D01*
X28000Y-24000D02*
X28000Y-24000D01*
X28000Y-24000D02*
X28000Y-31000D01*
X28000Y-31000D02*
X27000Y-31000D01*
X27000Y-31000D02*
X27000Y-24000D01*
X27000Y-24000D02*
X28000Y-24000D01*
X27000Y-25000D02*
X27000Y-25000D01*
X27000Y-25000D02*
X28000Y-25000D01*
X36500Y-51750D02*
X36500Y-50750D01*
X36500Y-50750D02*
X41500Y-50750D01*
X41500Y-50750D02*
X41500Y-51750D01*
X41500Y-51750D02*
X36500Y-51750D01*
X37500Y-51750D02*
X37500Y-50750D01*
X36500Y-46000D02*
X36500Y-45000D01*
X36500Y-45000D02*
X41500Y-45000D01*
X41500Y-45000D02*
X41500Y-46000D01*
X41500Y-46000D02*
X36500Y-46000D01*
X37500Y-46000D02*
X37500Y-45000D01*
X36500Y-57500D02*
X36500Y-56500D01*
X36500Y-56500D02*
X41500Y-56500D01*
X41500Y-56500D02*
X41500Y-57500D01*
X41500Y-57500D02*
X36500Y-57500D01*
X37500Y-57500D02*
X37500Y-56500D01*
X71000Y-34750D02*
X71000Y-35750D01*
X71000Y-35750D02*
X66000Y-35750D01*
X66000Y-35750D02*
X66000Y-34750D01*
X66000Y-34750D02*
X71000Y-34750D01*
X70000Y-34750D02*
X70000Y-35750D01*
X45500Y-26500D02*
X45500Y-26500D01*
X45500Y-27500D02*
X45500Y-26500D01*
X45500Y-26500D02*
X45500Y-26500D01*
X45500Y-26500D02*
X49500Y-26500D01*
X49500Y-26500D02*
X49500Y-27500D01*
X49500Y-27500D02*
X45500Y-27500D01*
X46500Y-27500D02*
X46500Y-26500D01*
X52000Y-51150D02*
X52000Y-52150D01*
X52000Y-52150D02*
X49000Y-52150D01*
X49000Y-52150D02*
X49000Y-51150D01*
X49000Y-51150D02*
X52000Y-51150D01*
X51000Y-52150D02*
X51000Y-51150D01*
X58250Y-30000D02*
X57250Y-30000D01*
X57250Y-30000D02*
X57250Y-27000D01*
X57250Y-27000D02*
X58250Y-27000D01*
X58250Y-27000D02*
X58250Y-30000D01*
X57250Y-29000D02*
X58250Y-29000D01*
X61250Y-30000D02*
X60250Y-30000D01*
X60250Y-30000D02*
X60250Y-27000D01*
X60250Y-27000D02*
X61250Y-27000D01*
X61250Y-27000D02*
X61250Y-30000D01*
X60250Y-29000D02*
X61250Y-29000D01*
X78000Y-31500D02*
X79000Y-31500D01*
X79000Y-31500D02*
X79000Y-34500D01*
X79000Y-34500D02*
X78000Y-34500D01*
X78000Y-34500D02*
X78000Y-31500D01*
X79000Y-32500D02*
X78000Y-32500D01*
X64250Y-30000D02*
X63250Y-30000D01*
X63250Y-30000D02*
X63250Y-27000D01*
X63250Y-27000D02*
X64250Y-27000D01*
X64250Y-27000D02*
X64250Y-30000D01*
X63250Y-29000D02*
X64250Y-29000D01*
X67250Y-30000D02*
X66250Y-30000D01*
X66250Y-30000D02*
X66250Y-27000D01*
X66250Y-27000D02*
X67250Y-27000D01*
X67250Y-27000D02*
X67250Y-30000D01*
X66250Y-29000D02*
X67250Y-29000D01*
X26000Y-39000D02*
X25000Y-39000D01*
X25000Y-39000D02*
X25000Y-36000D01*
X25000Y-36000D02*
X26000Y-36000D01*
X26000Y-36000D02*
X26000Y-39000D01*
X25000Y-38000D02*
X26000Y-38000D01*
X27000Y-32000D02*
X28000Y-32000D01*
X28000Y-32000D02*
X28000Y-35000D01*
X28000Y-35000D02*
X27000Y-35000D01*
X27000Y-35000D02*
X27000Y-32000D01*
X28000Y-33000D02*
X27000Y-33000D01*
X51000Y-26500D02*
X51000Y-25500D01*
X51000Y-25500D02*
X54000Y-25500D01*
X54000Y-25500D02*
X54000Y-26500D01*
X54000Y-26500D02*
X51000Y-26500D01*
X52000Y-25500D02*
X52000Y-26500D01*
X68500Y-28500D02*
X68500Y-27500D01*
X68500Y-27500D02*
X71500Y-27500D01*
X71500Y-27500D02*
X71500Y-28500D01*
X71500Y-28500D02*
X68500Y-28500D01*
X69500Y-27500D02*
X69500Y-28500D01*
X36000Y-25500D02*
X36000Y-24500D01*
X36000Y-24500D02*
X39000Y-24500D01*
X39000Y-24500D02*
X39000Y-25500D01*
X39000Y-25500D02*
X36000Y-25500D01*
X37000Y-24500D02*
X37000Y-25500D01*
X62250Y-26500D02*
X62250Y-25500D01*
X62250Y-25500D02*
X64250Y-25500D01*
X64250Y-25500D02*
X64250Y-26500D01*
X64250Y-26500D02*
X62250Y-26500D01*
X65250Y-26500D02*
X65250Y-25500D01*
X65250Y-25500D02*
X67250Y-25500D01*
X67250Y-25500D02*
X67250Y-26500D01*
X67250Y-26500D02*
X65250Y-26500D01*
X59250Y-26500D02*
X59250Y-25500D01*
X59250Y-25500D02*
X61250Y-25500D01*
X61250Y-25500D02*
X61250Y-26500D01*
X61250Y-26500D02*
X59250Y-26500D01*
X56250Y-26500D02*
X56250Y-25500D01*
X56250Y-25500D02*
X58250Y-25500D01*
X58250Y-25500D02*
X58250Y-26500D01*
X58250Y-26500D02*
X56250Y-26500D01*
X33500Y-25500D02*
X33500Y-24500D01*
X33500Y-24500D02*
X35500Y-24500D01*
X35500Y-24500D02*
X35500Y-25500D01*
X35500Y-25500D02*
X33500Y-25500D01*
X31000Y-57500D02*
X31000Y-56500D01*
X31000Y-56500D02*
X33000Y-56500D01*
X33000Y-56500D02*
X33000Y-57500D01*
X33000Y-57500D02*
X31000Y-57500D01*
G54D14*
X29050Y-37500D02*
G75*
G03X29050Y-37500I-1400J0D01*
G74*
G01*
X53900Y-28150D02*
G75*
G03X53900Y-28150I-1400J0D01*
G74*
G01*
X62500Y-27250D02*
X62500Y-27450D01*
X62500Y-30250D02*
X62500Y-30050D01*
X62500Y-30050D02*
X62900Y-30050D01*
X62900Y-30050D02*
X62900Y-27450D01*
X62900Y-27450D02*
X62100Y-27450D01*
X62100Y-27450D02*
X62100Y-30050D01*
X62100Y-30050D02*
X62500Y-30050D01*
X62700Y-27450D02*
X62900Y-27650D01*
X59500Y-27250D02*
X59500Y-27450D01*
X59500Y-30250D02*
X59500Y-30050D01*
X59500Y-30050D02*
X59900Y-30050D01*
X59900Y-30050D02*
X59900Y-27450D01*
X59900Y-27450D02*
X59100Y-27450D01*
X59100Y-27450D02*
X59100Y-30050D01*
X59100Y-30050D02*
X59500Y-30050D01*
X59700Y-27450D02*
X59900Y-27650D01*
X65500Y-27250D02*
X65500Y-27450D01*
X65500Y-30250D02*
X65500Y-30050D01*
X65500Y-30050D02*
X65900Y-30050D01*
X65900Y-30050D02*
X65900Y-27450D01*
X65900Y-27450D02*
X65100Y-27450D01*
X65100Y-27450D02*
X65100Y-30050D01*
X65100Y-30050D02*
X65500Y-30050D01*
X65700Y-27450D02*
X65900Y-27650D01*
X56500Y-27250D02*
X56500Y-27450D01*
X56500Y-30250D02*
X56500Y-30050D01*
X56500Y-30050D02*
X56900Y-30050D01*
X56900Y-30050D02*
X56900Y-27450D01*
X56900Y-27450D02*
X56100Y-27450D01*
X56100Y-27450D02*
X56100Y-30050D01*
X56100Y-30050D02*
X56500Y-30050D01*
X56700Y-27450D02*
X56900Y-27650D01*
X34750Y-32750D02*
X34750Y-32550D01*
X34750Y-29750D02*
X34750Y-29950D01*
X34750Y-29950D02*
X34350Y-29950D01*
X34350Y-29950D02*
X34350Y-32550D01*
X34350Y-32550D02*
X35150Y-32550D01*
X35150Y-32550D02*
X35150Y-29950D01*
X35150Y-29950D02*
X34750Y-29950D01*
X34550Y-32550D02*
X34350Y-32350D01*
X40000Y-52750D02*
X40200Y-52750D01*
X43000Y-52750D02*
X42800Y-52750D01*
X42800Y-52750D02*
X42800Y-52350D01*
X42800Y-52350D02*
X40200Y-52350D01*
X40200Y-52350D02*
X40200Y-53150D01*
X40200Y-53150D02*
X42800Y-53150D01*
X42800Y-53150D02*
X42800Y-52750D01*
X40200Y-52550D02*
X40400Y-52350D01*
X38000Y-48000D02*
X38200Y-48000D01*
X41000Y-48000D02*
X40800Y-48000D01*
X40800Y-48000D02*
X40800Y-47600D01*
X40800Y-47600D02*
X38200Y-47600D01*
X38200Y-47600D02*
X38200Y-48400D01*
X38200Y-48400D02*
X40800Y-48400D01*
X40800Y-48400D02*
X40800Y-48000D01*
X38200Y-47800D02*
X38400Y-47600D01*
X38000Y-48750D02*
X38200Y-48750D01*
X41000Y-48750D02*
X40800Y-48750D01*
X40800Y-48750D02*
X40800Y-48350D01*
X40800Y-48350D02*
X38200Y-48350D01*
X38200Y-48350D02*
X38200Y-49150D01*
X38200Y-49150D02*
X40800Y-49150D01*
X40800Y-49150D02*
X40800Y-48750D01*
X38200Y-48550D02*
X38400Y-48350D01*
X37000Y-29750D02*
X37000Y-29950D01*
X37000Y-32750D02*
X37000Y-32550D01*
X37000Y-32550D02*
X37400Y-32550D01*
X37400Y-32550D02*
X37400Y-29950D01*
X37400Y-29950D02*
X36600Y-29950D01*
X36600Y-29950D02*
X36600Y-32550D01*
X36600Y-32550D02*
X37000Y-32550D01*
X37200Y-29950D02*
X37400Y-30150D01*
X65500Y-33250D02*
X65300Y-33250D01*
X62500Y-33250D02*
X62700Y-33250D01*
X62700Y-33250D02*
X62700Y-33650D01*
X62700Y-33650D02*
X65300Y-33650D01*
X65300Y-33650D02*
X65300Y-32850D01*
X65300Y-32850D02*
X62700Y-32850D01*
X62700Y-32850D02*
X62700Y-33250D01*
X65300Y-33450D02*
X65100Y-33650D01*
X40000Y-53750D02*
X40200Y-53750D01*
X43000Y-53750D02*
X42800Y-53750D01*
X42800Y-53750D02*
X42800Y-53350D01*
X42800Y-53350D02*
X40200Y-53350D01*
X40200Y-53350D02*
X40200Y-54150D01*
X40200Y-54150D02*
X42800Y-54150D01*
X42800Y-54150D02*
X42800Y-53750D01*
X40200Y-53550D02*
X40400Y-53350D01*
X47000Y-37250D02*
X46800Y-37250D01*
X44000Y-37250D02*
X44200Y-37250D01*
X44200Y-37250D02*
X44200Y-37650D01*
X44200Y-37650D02*
X46800Y-37650D01*
X46800Y-37650D02*
X46800Y-36850D01*
X46800Y-36850D02*
X44200Y-36850D01*
X44200Y-36850D02*
X44200Y-37250D01*
X46800Y-37450D02*
X46600Y-37650D01*
X50250Y-28500D02*
X50250Y-28300D01*
X50250Y-25500D02*
X50250Y-25700D01*
X50250Y-25700D02*
X49850Y-25700D01*
X49850Y-25700D02*
X49850Y-28300D01*
X49850Y-28300D02*
X50650Y-28300D01*
X50650Y-28300D02*
X50650Y-25700D01*
X50650Y-25700D02*
X50250Y-25700D01*
X50050Y-28300D02*
X49850Y-28100D01*
X33500Y-30250D02*
X33300Y-30250D01*
X30500Y-30250D02*
X30700Y-30250D01*
X30700Y-30250D02*
X30700Y-30650D01*
X30700Y-30650D02*
X33300Y-30650D01*
X33300Y-30650D02*
X33300Y-29850D01*
X33300Y-29850D02*
X30700Y-29850D01*
X30700Y-29850D02*
X30700Y-30250D01*
X33300Y-30450D02*
X33100Y-30650D01*
X25500Y-40000D02*
X25700Y-40000D01*
X28500Y-40000D02*
X28300Y-40000D01*
X28300Y-40000D02*
X28300Y-39600D01*
X28300Y-39600D02*
X25700Y-39600D01*
X25700Y-39600D02*
X25700Y-40400D01*
X25700Y-40400D02*
X28300Y-40400D01*
X28300Y-40400D02*
X28300Y-40000D01*
X25700Y-39800D02*
X25900Y-39600D01*
X42000Y-31250D02*
X41800Y-31250D01*
X39000Y-31250D02*
X39200Y-31250D01*
X39200Y-31250D02*
X39200Y-31650D01*
X39200Y-31650D02*
X41800Y-31650D01*
X41800Y-31650D02*
X41800Y-30850D01*
X41800Y-30850D02*
X39200Y-30850D01*
X39200Y-30850D02*
X39200Y-31250D01*
X41800Y-31450D02*
X41600Y-31650D01*
X36120Y-52000D02*
X36120Y-50500D01*
G54D15*
X35807Y-51250D02*
G75*
G03X35807Y-51250I-707J0D01*
G74*
G01*
G54D16*
X36099Y-50499D02*
G75*
G03X36099Y-52000I-999J-750D01*
G74*
G01*
G54D17*
X35100Y-50800D02*
G75*
G03X34650Y-51250I0J-450D01*
G74*
G01*
X35100Y-51700D02*
G75*
G03X35550Y-51250I0J450D01*
G74*
G01*
X35100Y-50600D02*
G75*
G03X34450Y-51250I0J-650D01*
G74*
G01*
X35100Y-51900D02*
G75*
G03X35750Y-51250I0J650D01*
G74*
G01*
X35100Y-50400D02*
G75*
G03X34250Y-51250I0J-850D01*
G74*
G01*
X35100Y-52100D02*
G75*
G03X35950Y-51250I0J850D01*
G74*
G01*
G54D14*
X65120Y-36000D02*
X65120Y-34500D01*
G54D15*
X64807Y-35250D02*
G75*
G03X64807Y-35250I-707J0D01*
G74*
G01*
G54D16*
X65099Y-34499D02*
G75*
G03X65099Y-36000I-999J-750D01*
G74*
G01*
G54D17*
X64100Y-34800D02*
G75*
G03X63650Y-35250I0J-450D01*
G74*
G01*
X64100Y-35700D02*
G75*
G03X64550Y-35250I0J450D01*
G74*
G01*
X64100Y-34600D02*
G75*
G03X63450Y-35250I0J-650D01*
G74*
G01*
X64100Y-35900D02*
G75*
G03X64750Y-35250I0J650D01*
G74*
G01*
X64100Y-34400D02*
G75*
G03X63250Y-35250I0J-850D01*
G74*
G01*
X64100Y-36100D02*
G75*
G03X64950Y-35250I0J850D01*
G74*
G01*
G54D18*
X50000Y-32000D02*
X49500Y-32000D01*
X49500Y-32000D02*
X49500Y-31000D01*
X49500Y-31000D02*
X50000Y-31000D01*
X50000Y-34000D02*
X29000Y-34000D01*
X29000Y-34000D02*
X29000Y-29000D01*
X29000Y-29000D02*
X50000Y-29000D01*
X50000Y-29000D02*
X50000Y-34000D01*
G54D13*
X70500Y-33750D02*
X70200Y-33750D01*
X70200Y-33750D02*
X70200Y-33350D01*
X70200Y-33350D02*
X67800Y-33350D01*
X67800Y-33350D02*
X67800Y-33750D01*
X67800Y-33750D02*
X67500Y-33750D01*
X67800Y-33750D02*
X67800Y-34150D01*
X67800Y-34150D02*
X70200Y-34150D01*
X70200Y-34150D02*
X70200Y-33750D01*
X70000Y-33350D02*
X70000Y-34150D01*
X69900Y-34150D02*
X69900Y-33350D01*
X36410Y-25703D02*
X37810Y-27103D01*
X37810Y-27103D02*
X37103Y-27810D01*
X37103Y-27810D02*
X35689Y-26396D01*
X35689Y-26396D02*
X36396Y-25689D01*
X36219Y-25866D02*
X36573Y-25866D01*
X30500Y-31020D02*
X30500Y-33000D01*
X30500Y-33000D02*
X29500Y-33000D01*
X29500Y-33000D02*
X29500Y-31000D01*
X29500Y-31000D02*
X30500Y-31000D01*
X30250Y-31000D02*
X30500Y-31250D01*
X45730Y-31750D02*
X43750Y-31750D01*
X43750Y-31750D02*
X43750Y-30750D01*
X43750Y-30750D02*
X45750Y-30750D01*
X45750Y-30750D02*
X45750Y-31750D01*
X45750Y-31500D02*
X45500Y-31750D01*
X47020Y-24500D02*
X49000Y-24500D01*
X49000Y-24500D02*
X49000Y-25500D01*
X49000Y-25500D02*
X47000Y-25500D01*
X47000Y-25500D02*
X47000Y-24500D01*
X47000Y-24750D02*
X47250Y-24500D01*
G54D18*
X83500Y-61800D02*
G75*
G03X83500Y-61800I-900J0D01*
G74*
G01*
X46900Y-61800D02*
G75*
G03X46900Y-61800I-900J0D01*
G74*
G01*
X46900Y-40200D02*
G75*
G03X46900Y-40200I-900J0D01*
G74*
G01*
X83500Y-40200D02*
G75*
G03X83500Y-40200I-900J0D01*
G74*
G01*
G54D19*
X31423Y-44275D02*
X31423Y-43594D01*
X31423Y-43918D02*
X31668Y-43918D01*
X31668Y-44275D02*
X31668Y-43594D01*
X31892Y-44275D02*
X31974Y-44275D01*
X32014Y-44243D01*
X32035Y-44210D01*
X32076Y-44113D01*
X32096Y-43983D01*
X32096Y-43724D01*
X32076Y-43659D01*
X32055Y-43627D01*
X32014Y-43594D01*
X31933Y-43594D01*
X31892Y-43627D01*
X31872Y-43659D01*
X31851Y-43724D01*
X31851Y-43886D01*
X31872Y-43951D01*
X31892Y-43983D01*
X31933Y-44016D01*
X32014Y-44016D01*
X32055Y-43983D01*
X32076Y-43951D01*
X32096Y-43886D01*
G54D13*
G54D16*
X24121Y-44242D02*
X23988Y-43957D01*
X23892Y-44242D02*
X23892Y-43642D01*
X24045Y-43642D01*
X24083Y-43671D01*
X24102Y-43700D01*
X24121Y-43757D01*
X24121Y-43842D01*
X24102Y-43900D01*
X24083Y-43928D01*
X24045Y-43957D01*
X23892Y-43957D01*
X24445Y-44214D02*
X24407Y-44242D01*
X24330Y-44242D01*
X24292Y-44214D01*
X24273Y-44157D01*
X24273Y-43928D01*
X24292Y-43871D01*
X24330Y-43842D01*
X24407Y-43842D01*
X24445Y-43871D01*
X24464Y-43928D01*
X24464Y-43985D01*
X24273Y-44042D01*
X24635Y-44242D02*
X24635Y-43842D01*
X24635Y-43900D02*
X24654Y-43871D01*
X24692Y-43842D01*
X24750Y-43842D01*
X24788Y-43871D01*
X24807Y-43928D01*
X24807Y-44242D01*
X24807Y-43928D02*
X24826Y-43871D01*
X24864Y-43842D01*
X24921Y-43842D01*
X24959Y-43871D01*
X24978Y-43928D01*
X24978Y-44242D01*
X25226Y-44242D02*
X25188Y-44214D01*
X25169Y-44185D01*
X25150Y-44128D01*
X25150Y-43957D01*
X25169Y-43900D01*
X25188Y-43871D01*
X25226Y-43842D01*
X25283Y-43842D01*
X25321Y-43871D01*
X25340Y-43900D01*
X25359Y-43957D01*
X25359Y-44128D01*
X25340Y-44185D01*
X25321Y-44214D01*
X25283Y-44242D01*
X25226Y-44242D01*
X25473Y-43842D02*
X25626Y-43842D01*
X25530Y-43642D02*
X25530Y-44157D01*
X25550Y-44214D01*
X25588Y-44242D01*
X25626Y-44242D01*
X25911Y-44214D02*
X25873Y-44242D01*
X25797Y-44242D01*
X25759Y-44214D01*
X25740Y-44157D01*
X25740Y-43928D01*
X25759Y-43871D01*
X25797Y-43842D01*
X25873Y-43842D01*
X25911Y-43871D01*
X25930Y-43928D01*
X25930Y-43985D01*
X25740Y-44042D01*
X26407Y-44242D02*
X26407Y-43642D01*
X26635Y-44242D02*
X26464Y-43900D01*
X26635Y-43642D02*
X26407Y-43985D01*
X26807Y-44242D02*
X26807Y-43842D01*
X26807Y-43642D02*
X26788Y-43671D01*
X26807Y-43700D01*
X26826Y-43671D01*
X26807Y-43642D01*
X26807Y-43700D01*
X27054Y-44242D02*
X27016Y-44214D01*
X26997Y-44157D01*
X26997Y-43642D01*
X27264Y-44242D02*
X27226Y-44214D01*
X27207Y-44157D01*
X27207Y-43642D01*
X27835Y-44471D02*
X27816Y-44442D01*
X27778Y-44357D01*
X27759Y-44300D01*
X27740Y-44214D01*
X27721Y-44071D01*
X27721Y-43957D01*
X27740Y-43814D01*
X27759Y-43728D01*
X27778Y-43671D01*
X27816Y-43585D01*
X27835Y-43557D01*
X28121Y-43928D02*
X27988Y-43928D01*
X27988Y-44242D02*
X27988Y-43642D01*
X28178Y-43642D01*
X28330Y-44242D02*
X28330Y-43842D01*
X28330Y-43957D02*
X28350Y-43900D01*
X28369Y-43871D01*
X28407Y-43842D01*
X28445Y-43842D01*
X28635Y-44242D02*
X28597Y-44214D01*
X28578Y-44185D01*
X28559Y-44128D01*
X28559Y-43957D01*
X28578Y-43900D01*
X28597Y-43871D01*
X28635Y-43842D01*
X28692Y-43842D01*
X28730Y-43871D01*
X28749Y-43900D01*
X28769Y-43957D01*
X28769Y-44128D01*
X28749Y-44185D01*
X28730Y-44214D01*
X28692Y-44242D01*
X28635Y-44242D01*
X28940Y-43842D02*
X28940Y-44242D01*
X28940Y-43900D02*
X28959Y-43871D01*
X28997Y-43842D01*
X29054Y-43842D01*
X29092Y-43871D01*
X29111Y-43928D01*
X29111Y-44242D01*
X29245Y-43842D02*
X29397Y-43842D01*
X29302Y-43642D02*
X29302Y-44157D01*
X29321Y-44214D01*
X29359Y-44242D01*
X29397Y-44242D01*
X29492Y-44471D02*
X29511Y-44442D01*
X29549Y-44357D01*
X29569Y-44300D01*
X29588Y-44214D01*
X29607Y-44071D01*
X29607Y-43957D01*
X29588Y-43814D01*
X29569Y-43728D01*
X29549Y-43671D01*
X29511Y-43585D01*
X29492Y-43557D01*
G54D13*
G54D19*
X44423Y-24275D02*
X44423Y-23594D01*
X44423Y-23918D02*
X44668Y-23918D01*
X44668Y-24275D02*
X44668Y-23594D01*
X45055Y-23821D02*
X45055Y-24275D01*
X44953Y-23562D02*
X44851Y-24048D01*
X45116Y-24048D01*
G54D13*
G54D19*
X28775Y-30576D02*
X28094Y-30576D01*
X28418Y-30576D02*
X28418Y-30331D01*
X28775Y-30331D02*
X28094Y-30331D01*
X28159Y-30148D02*
X28127Y-30127D01*
X28094Y-30086D01*
X28094Y-29985D01*
X28127Y-29944D01*
X28159Y-29923D01*
X28224Y-29903D01*
X28289Y-29903D01*
X28386Y-29923D01*
X28775Y-30168D01*
X28775Y-29903D01*
G54D13*
G54D19*
X38429Y-52493D02*
X38490Y-52525D01*
X38592Y-52525D01*
X38633Y-52493D01*
X38653Y-52460D01*
X38673Y-52395D01*
X38673Y-52331D01*
X38653Y-52266D01*
X38633Y-52233D01*
X38592Y-52201D01*
X38510Y-52168D01*
X38470Y-52136D01*
X38449Y-52104D01*
X38429Y-52039D01*
X38429Y-51974D01*
X38449Y-51909D01*
X38470Y-51877D01*
X38510Y-51844D01*
X38612Y-51844D01*
X38673Y-51877D01*
X38816Y-51844D02*
X38918Y-52525D01*
X39000Y-52039D01*
X39081Y-52525D01*
X39183Y-51844D01*
X39570Y-52525D02*
X39326Y-52525D01*
X39448Y-52525D02*
X39448Y-51844D01*
X39407Y-51941D01*
X39366Y-52006D01*
X39326Y-52039D01*
G54D13*
G54D19*
X37705Y-47025D02*
X37705Y-46344D01*
X37848Y-46831D01*
X37991Y-46344D01*
X37991Y-47025D01*
X38317Y-46344D02*
X38317Y-46831D01*
X38296Y-46928D01*
X38256Y-46993D01*
X38194Y-47025D01*
X38154Y-47025D01*
X38724Y-47025D02*
X38521Y-47025D01*
X38521Y-46344D01*
X38765Y-47090D02*
X39091Y-47090D01*
X39173Y-46993D02*
X39234Y-47025D01*
X39336Y-47025D01*
X39377Y-46993D01*
X39397Y-46960D01*
X39417Y-46895D01*
X39417Y-46831D01*
X39397Y-46766D01*
X39377Y-46733D01*
X39336Y-46701D01*
X39254Y-46668D01*
X39214Y-46636D01*
X39193Y-46604D01*
X39173Y-46539D01*
X39173Y-46474D01*
X39193Y-46409D01*
X39214Y-46377D01*
X39254Y-46344D01*
X39356Y-46344D01*
X39417Y-46377D01*
X39560Y-46344D02*
X39662Y-47025D01*
X39743Y-46539D01*
X39825Y-47025D01*
X39927Y-46344D01*
X40049Y-46344D02*
X40314Y-46344D01*
X40171Y-46604D01*
X40233Y-46604D01*
X40273Y-46636D01*
X40294Y-46668D01*
X40314Y-46733D01*
X40314Y-46895D01*
X40294Y-46960D01*
X40273Y-46993D01*
X40233Y-47025D01*
X40110Y-47025D01*
X40070Y-46993D01*
X40049Y-46960D01*
G54D13*
G54D19*
X37705Y-58275D02*
X37705Y-57594D01*
X37848Y-58081D01*
X37991Y-57594D01*
X37991Y-58275D01*
X38317Y-57594D02*
X38317Y-58081D01*
X38296Y-58178D01*
X38256Y-58243D01*
X38194Y-58275D01*
X38154Y-58275D01*
X38724Y-58275D02*
X38521Y-58275D01*
X38521Y-57594D01*
X38765Y-58340D02*
X39091Y-58340D01*
X39173Y-58243D02*
X39234Y-58275D01*
X39336Y-58275D01*
X39377Y-58243D01*
X39397Y-58210D01*
X39417Y-58145D01*
X39417Y-58081D01*
X39397Y-58016D01*
X39377Y-57983D01*
X39336Y-57951D01*
X39254Y-57918D01*
X39214Y-57886D01*
X39193Y-57854D01*
X39173Y-57789D01*
X39173Y-57724D01*
X39193Y-57659D01*
X39214Y-57627D01*
X39254Y-57594D01*
X39356Y-57594D01*
X39417Y-57627D01*
X39560Y-57594D02*
X39662Y-58275D01*
X39743Y-57789D01*
X39825Y-58275D01*
X39927Y-57594D01*
X40070Y-57659D02*
X40090Y-57627D01*
X40131Y-57594D01*
X40233Y-57594D01*
X40273Y-57627D01*
X40294Y-57659D01*
X40314Y-57724D01*
X40314Y-57789D01*
X40294Y-57886D01*
X40049Y-58275D01*
X40314Y-58275D01*
G54D13*
G54D19*
X66705Y-37525D02*
X66705Y-36844D01*
X66848Y-37331D01*
X66991Y-36844D01*
X66991Y-37525D01*
X67317Y-36844D02*
X67317Y-37331D01*
X67296Y-37428D01*
X67256Y-37493D01*
X67194Y-37525D01*
X67154Y-37525D01*
X67724Y-37525D02*
X67521Y-37525D01*
X67521Y-36844D01*
X67765Y-37590D02*
X68091Y-37590D01*
X68173Y-37493D02*
X68234Y-37525D01*
X68336Y-37525D01*
X68377Y-37493D01*
X68397Y-37460D01*
X68417Y-37395D01*
X68417Y-37331D01*
X68397Y-37266D01*
X68377Y-37233D01*
X68336Y-37201D01*
X68254Y-37168D01*
X68214Y-37136D01*
X68193Y-37104D01*
X68173Y-37039D01*
X68173Y-36974D01*
X68193Y-36909D01*
X68214Y-36877D01*
X68254Y-36844D01*
X68356Y-36844D01*
X68417Y-36877D01*
X68560Y-36844D02*
X68662Y-37525D01*
X68743Y-37039D01*
X68825Y-37525D01*
X68927Y-36844D01*
X69314Y-37525D02*
X69070Y-37525D01*
X69192Y-37525D02*
X69192Y-36844D01*
X69151Y-36941D01*
X69110Y-37006D01*
X69070Y-37039D01*
G54D13*
G54D19*
X44673Y-27276D02*
X44673Y-26593D01*
X44673Y-26918D02*
X44918Y-26918D01*
X44918Y-27276D02*
X44918Y-26593D01*
X45305Y-26593D02*
X45224Y-26593D01*
X45183Y-26625D01*
X45163Y-26658D01*
X45122Y-26756D01*
X45101Y-26886D01*
X45101Y-27146D01*
X45122Y-27211D01*
X45142Y-27243D01*
X45183Y-27276D01*
X45264Y-27276D01*
X45305Y-27243D01*
X45326Y-27211D01*
X45346Y-27146D01*
X45346Y-26983D01*
X45326Y-26918D01*
X45305Y-26886D01*
X45264Y-26853D01*
X45183Y-26853D01*
X45142Y-26886D01*
X45122Y-26918D01*
X45101Y-26983D01*
G54D13*
G54D20*
X48176Y-51935D02*
X48176Y-51230D01*
X48176Y-51566D02*
X48419Y-51566D01*
X48419Y-51935D02*
X48419Y-51230D01*
X48580Y-51230D02*
X48863Y-51230D01*
X48681Y-51935D01*
G54D13*
G54D20*
X58352Y-33540D02*
X58318Y-33580D01*
X58251Y-33621D01*
X58151Y-33681D01*
X58117Y-33722D01*
X58117Y-33762D01*
X58285Y-33742D02*
X58251Y-33782D01*
X58184Y-33823D01*
X58050Y-33843D01*
X57815Y-33843D01*
X57681Y-33823D01*
X57613Y-33782D01*
X57580Y-33742D01*
X57580Y-33661D01*
X57613Y-33621D01*
X57681Y-33580D01*
X57815Y-33560D01*
X58050Y-33560D01*
X58184Y-33580D01*
X58251Y-33621D01*
X58285Y-33661D01*
X58285Y-33742D01*
X58285Y-33156D02*
X58285Y-33399D01*
X58285Y-33277D02*
X57580Y-33277D01*
X57681Y-33318D01*
X57748Y-33358D01*
X57781Y-33399D01*
G54D13*
G54D20*
X61352Y-33540D02*
X61318Y-33580D01*
X61251Y-33621D01*
X61151Y-33681D01*
X61117Y-33722D01*
X61117Y-33762D01*
X61285Y-33742D02*
X61251Y-33782D01*
X61184Y-33823D01*
X61050Y-33843D01*
X60815Y-33843D01*
X60681Y-33823D01*
X60613Y-33782D01*
X60580Y-33742D01*
X60580Y-33661D01*
X60613Y-33621D01*
X60681Y-33580D01*
X60815Y-33560D01*
X61050Y-33560D01*
X61184Y-33580D01*
X61251Y-33621D01*
X61285Y-33661D01*
X61285Y-33742D01*
X60647Y-33399D02*
X60613Y-33378D01*
X60580Y-33338D01*
X60580Y-33237D01*
X60613Y-33197D01*
X60647Y-33176D01*
X60714Y-33156D01*
X60781Y-33156D01*
X60882Y-33176D01*
X61285Y-33419D01*
X61285Y-33156D01*
G54D13*
G54D20*
X78785Y-35323D02*
X78080Y-35323D01*
X78416Y-35323D02*
X78416Y-35080D01*
X78785Y-35080D02*
X78080Y-35080D01*
X78785Y-34656D02*
X78785Y-34899D01*
X78785Y-34777D02*
X78080Y-34777D01*
X78181Y-34818D01*
X78248Y-34858D01*
X78281Y-34899D01*
G54D13*
G54D20*
X63709Y-30852D02*
X63669Y-30818D01*
X63628Y-30751D01*
X63568Y-30651D01*
X63527Y-30617D01*
X63487Y-30617D01*
X63507Y-30785D02*
X63467Y-30751D01*
X63426Y-30684D01*
X63406Y-30550D01*
X63406Y-30315D01*
X63426Y-30181D01*
X63467Y-30113D01*
X63507Y-30080D01*
X63588Y-30080D01*
X63628Y-30113D01*
X63669Y-30181D01*
X63689Y-30315D01*
X63689Y-30550D01*
X63669Y-30684D01*
X63628Y-30751D01*
X63588Y-30785D01*
X63507Y-30785D01*
X63830Y-30080D02*
X64093Y-30080D01*
X63951Y-30348D01*
X64012Y-30348D01*
X64052Y-30382D01*
X64073Y-30416D01*
X64093Y-30483D01*
X64093Y-30651D01*
X64073Y-30718D01*
X64052Y-30751D01*
X64012Y-30785D01*
X63891Y-30785D01*
X63850Y-30751D01*
X63830Y-30718D01*
G54D13*
G54D20*
X68102Y-27040D02*
X68068Y-27080D01*
X68001Y-27121D01*
X67901Y-27181D01*
X67867Y-27222D01*
X67867Y-27262D01*
X68035Y-27242D02*
X68001Y-27282D01*
X67934Y-27323D01*
X67800Y-27343D01*
X67565Y-27343D01*
X67431Y-27323D01*
X67363Y-27282D01*
X67330Y-27242D01*
X67330Y-27161D01*
X67363Y-27121D01*
X67431Y-27080D01*
X67565Y-27060D01*
X67800Y-27060D01*
X67934Y-27080D01*
X68001Y-27121D01*
X68035Y-27161D01*
X68035Y-27242D01*
X67565Y-26697D02*
X68035Y-26697D01*
X67296Y-26798D02*
X67800Y-26899D01*
X67800Y-26636D01*
G54D13*
G54D20*
X25785Y-35812D02*
X25080Y-35812D01*
X25785Y-35570D02*
X25382Y-35752D01*
X25080Y-35570D02*
X25483Y-35812D01*
X25785Y-35166D02*
X25785Y-35409D01*
X25785Y-35288D02*
X25080Y-35288D01*
X25181Y-35328D01*
X25248Y-35368D01*
X25281Y-35409D01*
G54D13*
G54D20*
X27785Y-35823D02*
X27080Y-35823D01*
X27416Y-35823D02*
X27416Y-35580D01*
X27785Y-35580D02*
X27080Y-35580D01*
X27382Y-35318D02*
X27348Y-35358D01*
X27315Y-35378D01*
X27248Y-35399D01*
X27214Y-35399D01*
X27147Y-35378D01*
X27113Y-35358D01*
X27080Y-35318D01*
X27080Y-35237D01*
X27113Y-35197D01*
X27147Y-35176D01*
X27214Y-35156D01*
X27248Y-35156D01*
X27315Y-35176D01*
X27348Y-35197D01*
X27382Y-35237D01*
X27382Y-35318D01*
X27416Y-35358D01*
X27449Y-35378D01*
X27516Y-35399D01*
X27651Y-35399D01*
X27718Y-35378D01*
X27751Y-35358D01*
X27785Y-35318D01*
X27785Y-35237D01*
X27751Y-35197D01*
X27718Y-35176D01*
X27651Y-35156D01*
X27516Y-35156D01*
X27449Y-35176D01*
X27416Y-35197D01*
X27382Y-35237D01*
G54D13*
G54D20*
X54437Y-26285D02*
X54437Y-25580D01*
X54679Y-26285D02*
X54497Y-25882D01*
X54679Y-25580D02*
X54437Y-25983D01*
X54840Y-25647D02*
X54861Y-25613D01*
X54901Y-25580D01*
X55002Y-25580D01*
X55042Y-25613D01*
X55062Y-25647D01*
X55083Y-25714D01*
X55083Y-25781D01*
X55062Y-25882D01*
X54820Y-26285D01*
X55083Y-26285D01*
G54D13*
G54D20*
X71687Y-28285D02*
X71687Y-27580D01*
X71929Y-28285D02*
X71747Y-27882D01*
X71929Y-27580D02*
X71687Y-27983D01*
X72070Y-27580D02*
X72333Y-27580D01*
X72191Y-27848D01*
X72252Y-27848D01*
X72292Y-27882D01*
X72312Y-27916D01*
X72333Y-27983D01*
X72333Y-28151D01*
X72312Y-28218D01*
X72292Y-28251D01*
X72252Y-28285D01*
X72131Y-28285D01*
X72090Y-28251D01*
X72070Y-28218D01*
G54D13*
G54D20*
X38676Y-26285D02*
X38676Y-25580D01*
X38676Y-25916D02*
X38919Y-25916D01*
X38919Y-26285D02*
X38919Y-25580D01*
X39080Y-25580D02*
X39343Y-25580D01*
X39201Y-25848D01*
X39262Y-25848D01*
X39302Y-25882D01*
X39323Y-25916D01*
X39343Y-25983D01*
X39343Y-26151D01*
X39323Y-26218D01*
X39302Y-26251D01*
X39262Y-26285D01*
X39141Y-26285D01*
X39100Y-26251D01*
X39080Y-26218D01*
G54D13*
G54D19*
X62025Y-26529D02*
X61344Y-26529D01*
X61668Y-26529D02*
X61668Y-26285D01*
X62025Y-26285D02*
X61344Y-26285D01*
X62025Y-25857D02*
X62025Y-26101D01*
X62025Y-25979D02*
X61344Y-25979D01*
X61441Y-26020D01*
X61506Y-26061D01*
X61539Y-26101D01*
X61344Y-25714D02*
X61344Y-25449D01*
X61604Y-25592D01*
X61604Y-25531D01*
X61636Y-25490D01*
X61668Y-25470D01*
X61733Y-25449D01*
X61895Y-25449D01*
X61960Y-25470D01*
X61993Y-25490D01*
X62025Y-25531D01*
X62025Y-25653D01*
X61993Y-25694D01*
X61960Y-25714D01*
G54D13*
G54D19*
X65025Y-26529D02*
X64344Y-26529D01*
X64668Y-26529D02*
X64668Y-26285D01*
X65025Y-26285D02*
X64344Y-26285D01*
X65025Y-25857D02*
X65025Y-26101D01*
X65025Y-25979D02*
X64344Y-25979D01*
X64441Y-26020D01*
X64506Y-26061D01*
X64539Y-26101D01*
X64571Y-25490D02*
X65025Y-25490D01*
X64312Y-25592D02*
X64798Y-25694D01*
X64798Y-25429D01*
G54D13*
G54D19*
X59025Y-26529D02*
X58344Y-26529D01*
X58668Y-26529D02*
X58668Y-26285D01*
X59025Y-26285D02*
X58344Y-26285D01*
X59025Y-25857D02*
X59025Y-26101D01*
X59025Y-25979D02*
X58344Y-25979D01*
X58441Y-26020D01*
X58506Y-26061D01*
X58539Y-26101D01*
X58409Y-25694D02*
X58377Y-25673D01*
X58344Y-25633D01*
X58344Y-25531D01*
X58377Y-25490D01*
X58409Y-25470D01*
X58474Y-25449D01*
X58539Y-25449D01*
X58636Y-25470D01*
X59025Y-25714D01*
X59025Y-25449D01*
G54D13*
G54D19*
X56025Y-26529D02*
X55344Y-26529D01*
X55668Y-26529D02*
X55668Y-26285D01*
X56025Y-26285D02*
X55344Y-26285D01*
X56025Y-25857D02*
X56025Y-26101D01*
X56025Y-25979D02*
X55344Y-25979D01*
X55441Y-26020D01*
X55506Y-26061D01*
X55539Y-26101D01*
X56025Y-25449D02*
X56025Y-25694D01*
X56025Y-25572D02*
X55344Y-25572D01*
X55441Y-25612D01*
X55506Y-25653D01*
X55539Y-25694D01*
G54D13*
G54D19*
X32673Y-25275D02*
X32673Y-24594D01*
X32673Y-24918D02*
X32918Y-24918D01*
X32918Y-25275D02*
X32918Y-24594D01*
X33326Y-24594D02*
X33122Y-24594D01*
X33101Y-24918D01*
X33122Y-24886D01*
X33163Y-24854D01*
X33264Y-24854D01*
X33305Y-24886D01*
X33326Y-24918D01*
X33346Y-24983D01*
X33346Y-25145D01*
X33326Y-25210D01*
X33305Y-25243D01*
X33264Y-25275D01*
X33163Y-25275D01*
X33122Y-25243D01*
X33101Y-25210D01*
G54D13*
G54D19*
X29720Y-57525D02*
X29720Y-56844D01*
X29720Y-57168D02*
X29964Y-57168D01*
X29964Y-57525D02*
X29964Y-56844D01*
X30392Y-57525D02*
X30148Y-57525D01*
X30270Y-57525D02*
X30270Y-56844D01*
X30229Y-56941D01*
X30188Y-57006D01*
X30148Y-57039D01*
X30657Y-56844D02*
X30698Y-56844D01*
X30739Y-56877D01*
X30759Y-56909D01*
X30779Y-56974D01*
X30800Y-57104D01*
X30800Y-57266D01*
X30779Y-57395D01*
X30759Y-57460D01*
X30739Y-57493D01*
X30698Y-57525D01*
X30657Y-57525D01*
X30616Y-57493D01*
X30596Y-57460D01*
X30576Y-57395D01*
X30555Y-57266D01*
X30555Y-57104D01*
X30576Y-56974D01*
X30596Y-56909D01*
X30616Y-56877D01*
X30657Y-56844D01*
G54D13*
G54D14*
X28972Y-37583D02*
X28710Y-37750D01*
X28972Y-37869D02*
X28422Y-37869D01*
X28422Y-37678D01*
X28448Y-37630D01*
X28475Y-37607D01*
X28527Y-37583D01*
X28605Y-37583D01*
X28658Y-37607D01*
X28684Y-37630D01*
X28710Y-37678D01*
X28710Y-37869D01*
X28422Y-37416D02*
X28422Y-37107D01*
X28632Y-37273D01*
X28632Y-37202D01*
X28658Y-37154D01*
X28684Y-37130D01*
X28736Y-37107D01*
X28867Y-37107D01*
X28920Y-37130D01*
X28946Y-37154D01*
X28972Y-37202D01*
X28972Y-37345D01*
X28946Y-37392D01*
X28920Y-37416D01*
X29222Y-40945D02*
X29222Y-41183D01*
X29484Y-41207D01*
X29458Y-41183D01*
X29432Y-41135D01*
X29432Y-41016D01*
X29458Y-40969D01*
X29484Y-40945D01*
X29536Y-40921D01*
X29667Y-40921D01*
X29720Y-40945D01*
X29746Y-40969D01*
X29772Y-41016D01*
X29772Y-41135D01*
X29746Y-41183D01*
X29720Y-41207D01*
X29772Y-40707D02*
X29222Y-40707D01*
X29772Y-40421D02*
X29458Y-40635D01*
X29222Y-40421D02*
X29536Y-40707D01*
X29484Y-39659D02*
X29510Y-39588D01*
X29536Y-39564D01*
X29589Y-39540D01*
X29667Y-39540D01*
X29720Y-39564D01*
X29746Y-39588D01*
X29772Y-39635D01*
X29772Y-39826D01*
X29222Y-39826D01*
X29222Y-39659D01*
X29248Y-39611D01*
X29275Y-39588D01*
X29327Y-39564D01*
X29379Y-39564D01*
X29432Y-39588D01*
X29458Y-39611D01*
X29484Y-39659D01*
X29484Y-39826D01*
X29772Y-39254D02*
X29746Y-39302D01*
X29720Y-39326D01*
X29667Y-39350D01*
X29510Y-39350D01*
X29458Y-39326D01*
X29432Y-39302D01*
X29405Y-39254D01*
X29405Y-39183D01*
X29432Y-39135D01*
X29458Y-39111D01*
X29510Y-39088D01*
X29667Y-39088D01*
X29720Y-39111D01*
X29746Y-39135D01*
X29772Y-39183D01*
X29772Y-39254D01*
X29405Y-38659D02*
X29772Y-38659D01*
X29405Y-38873D02*
X29694Y-38873D01*
X29746Y-38850D01*
X29772Y-38802D01*
X29772Y-38730D01*
X29746Y-38683D01*
X29720Y-38659D01*
X29772Y-38421D02*
X29405Y-38421D01*
X29510Y-38421D02*
X29458Y-38397D01*
X29432Y-38373D01*
X29405Y-38326D01*
X29405Y-38278D01*
X29405Y-38111D02*
X29772Y-38111D01*
X29458Y-38111D02*
X29432Y-38088D01*
X29405Y-38040D01*
X29405Y-37969D01*
X29432Y-37921D01*
X29484Y-37897D01*
X29772Y-37897D01*
X29746Y-37683D02*
X29772Y-37635D01*
X29772Y-37540D01*
X29746Y-37492D01*
X29694Y-37469D01*
X29667Y-37469D01*
X29615Y-37492D01*
X29589Y-37540D01*
X29589Y-37611D01*
X29563Y-37659D01*
X29510Y-37683D01*
X29484Y-37683D01*
X29432Y-37659D01*
X29405Y-37611D01*
X29405Y-37540D01*
X29432Y-37492D01*
X29222Y-36921D02*
X29222Y-36611D01*
X29432Y-36778D01*
X29432Y-36707D01*
X29458Y-36659D01*
X29484Y-36635D01*
X29536Y-36611D01*
X29667Y-36611D01*
X29720Y-36635D01*
X29746Y-36659D01*
X29772Y-36707D01*
X29772Y-36850D01*
X29746Y-36897D01*
X29720Y-36921D01*
X29275Y-36421D02*
X29248Y-36397D01*
X29222Y-36350D01*
X29222Y-36230D01*
X29248Y-36183D01*
X29275Y-36159D01*
X29327Y-36135D01*
X29379Y-36135D01*
X29458Y-36159D01*
X29772Y-36445D01*
X29772Y-36135D01*
X29563Y-35921D02*
X29563Y-35540D01*
X29222Y-35088D02*
X29222Y-35183D01*
X29248Y-35230D01*
X29275Y-35254D01*
X29353Y-35302D01*
X29458Y-35326D01*
X29667Y-35326D01*
X29720Y-35302D01*
X29746Y-35278D01*
X29772Y-35230D01*
X29772Y-35135D01*
X29746Y-35088D01*
X29720Y-35064D01*
X29667Y-35040D01*
X29536Y-35040D01*
X29484Y-35064D01*
X29458Y-35088D01*
X29432Y-35135D01*
X29432Y-35230D01*
X29458Y-35278D01*
X29484Y-35302D01*
X29536Y-35326D01*
X29222Y-34611D02*
X29222Y-34707D01*
X29248Y-34754D01*
X29275Y-34778D01*
X29353Y-34826D01*
X29458Y-34849D01*
X29667Y-34849D01*
X29720Y-34826D01*
X29746Y-34802D01*
X29772Y-34754D01*
X29772Y-34659D01*
X29746Y-34611D01*
X29720Y-34588D01*
X29667Y-34564D01*
X29536Y-34564D01*
X29484Y-34588D01*
X29458Y-34611D01*
X29432Y-34659D01*
X29432Y-34754D01*
X29458Y-34802D01*
X29484Y-34826D01*
X29536Y-34849D01*
X29222Y-34397D02*
X29772Y-34278D01*
X29379Y-34183D01*
X29772Y-34088D01*
X29222Y-33969D01*
X52416Y-28722D02*
X52250Y-28460D01*
X52130Y-28722D02*
X52130Y-28172D01*
X52321Y-28172D01*
X52369Y-28198D01*
X52392Y-28225D01*
X52416Y-28277D01*
X52416Y-28355D01*
X52392Y-28408D01*
X52369Y-28434D01*
X52321Y-28460D01*
X52130Y-28460D01*
X52869Y-28172D02*
X52630Y-28172D01*
X52607Y-28434D01*
X52630Y-28408D01*
X52678Y-28382D01*
X52797Y-28382D01*
X52845Y-28408D01*
X52869Y-28434D01*
X52892Y-28486D01*
X52892Y-28617D01*
X52869Y-28670D01*
X52845Y-28696D01*
X52797Y-28722D01*
X52678Y-28722D01*
X52630Y-28696D01*
X52607Y-28670D01*
X49054Y-29722D02*
X48816Y-29722D01*
X48792Y-29984D01*
X48816Y-29958D01*
X48864Y-29932D01*
X48983Y-29932D01*
X49030Y-29958D01*
X49054Y-29984D01*
X49078Y-30036D01*
X49078Y-30167D01*
X49054Y-30220D01*
X49030Y-30246D01*
X48983Y-30272D01*
X48864Y-30272D01*
X48816Y-30246D01*
X48792Y-30220D01*
X49292Y-30272D02*
X49292Y-29722D01*
X49578Y-30272D02*
X49364Y-29958D01*
X49578Y-29722D02*
X49292Y-30036D01*
X50340Y-29984D02*
X50411Y-30010D01*
X50435Y-30036D01*
X50459Y-30089D01*
X50459Y-30167D01*
X50435Y-30220D01*
X50411Y-30246D01*
X50364Y-30272D01*
X50173Y-30272D01*
X50173Y-29722D01*
X50340Y-29722D01*
X50388Y-29748D01*
X50411Y-29775D01*
X50435Y-29827D01*
X50435Y-29879D01*
X50411Y-29932D01*
X50388Y-29958D01*
X50340Y-29984D01*
X50173Y-29984D01*
X50745Y-30272D02*
X50697Y-30246D01*
X50673Y-30220D01*
X50650Y-30167D01*
X50650Y-30010D01*
X50673Y-29958D01*
X50697Y-29932D01*
X50745Y-29905D01*
X50816Y-29905D01*
X50864Y-29932D01*
X50888Y-29958D01*
X50911Y-30010D01*
X50911Y-30167D01*
X50888Y-30220D01*
X50864Y-30246D01*
X50816Y-30272D01*
X50745Y-30272D01*
X51340Y-29905D02*
X51340Y-30272D01*
X51126Y-29905D02*
X51126Y-30194D01*
X51150Y-30246D01*
X51197Y-30272D01*
X51269Y-30272D01*
X51316Y-30246D01*
X51340Y-30220D01*
X51578Y-30272D02*
X51578Y-29905D01*
X51578Y-30010D02*
X51602Y-29958D01*
X51626Y-29932D01*
X51673Y-29905D01*
X51721Y-29905D01*
X51888Y-29905D02*
X51888Y-30272D01*
X51888Y-29958D02*
X51911Y-29932D01*
X51959Y-29905D01*
X52030Y-29905D01*
X52078Y-29932D01*
X52102Y-29984D01*
X52102Y-30272D01*
X52316Y-30246D02*
X52364Y-30272D01*
X52459Y-30272D01*
X52507Y-30246D01*
X52530Y-30194D01*
X52530Y-30167D01*
X52507Y-30115D01*
X52459Y-30089D01*
X52388Y-30089D01*
X52340Y-30063D01*
X52316Y-30010D01*
X52316Y-29984D01*
X52340Y-29932D01*
X52388Y-29905D01*
X52459Y-29905D01*
X52507Y-29932D01*
X53078Y-29722D02*
X53388Y-29722D01*
X53221Y-29932D01*
X53292Y-29932D01*
X53340Y-29958D01*
X53364Y-29984D01*
X53388Y-30036D01*
X53388Y-30167D01*
X53364Y-30220D01*
X53340Y-30246D01*
X53292Y-30272D01*
X53150Y-30272D01*
X53102Y-30246D01*
X53078Y-30220D01*
X53578Y-29775D02*
X53602Y-29748D01*
X53650Y-29722D01*
X53769Y-29722D01*
X53816Y-29748D01*
X53840Y-29775D01*
X53864Y-29827D01*
X53864Y-29879D01*
X53840Y-29958D01*
X53554Y-30272D01*
X53864Y-30272D01*
X54078Y-30063D02*
X54459Y-30063D01*
X54911Y-29722D02*
X54816Y-29722D01*
X54769Y-29748D01*
X54745Y-29775D01*
X54697Y-29853D01*
X54673Y-29958D01*
X54673Y-30167D01*
X54697Y-30220D01*
X54721Y-30246D01*
X54769Y-30272D01*
X54864Y-30272D01*
X54911Y-30246D01*
X54935Y-30220D01*
X54959Y-30167D01*
X54959Y-30036D01*
X54935Y-29984D01*
X54911Y-29958D01*
X54864Y-29932D01*
X54769Y-29932D01*
X54721Y-29958D01*
X54697Y-29984D01*
X54673Y-30036D01*
X55388Y-29722D02*
X55292Y-29722D01*
X55245Y-29748D01*
X55221Y-29775D01*
X55173Y-29853D01*
X55150Y-29958D01*
X55150Y-30167D01*
X55173Y-30220D01*
X55197Y-30246D01*
X55245Y-30272D01*
X55340Y-30272D01*
X55388Y-30246D01*
X55411Y-30220D01*
X55435Y-30167D01*
X55435Y-30036D01*
X55411Y-29984D01*
X55388Y-29958D01*
X55340Y-29932D01*
X55245Y-29932D01*
X55197Y-29958D01*
X55173Y-29984D01*
X55150Y-30036D01*
X55602Y-29722D02*
X55721Y-30272D01*
X55816Y-29879D01*
X55911Y-30272D01*
X56030Y-29722D01*
X62672Y-29095D02*
X62672Y-29380D01*
X62672Y-29238D02*
X62122Y-29238D01*
X62201Y-29285D01*
X62253Y-29333D01*
X62279Y-29380D01*
X62122Y-28785D02*
X62122Y-28738D01*
X62148Y-28690D01*
X62175Y-28666D01*
X62227Y-28642D01*
X62332Y-28619D01*
X62463Y-28619D01*
X62567Y-28642D01*
X62620Y-28666D01*
X62646Y-28690D01*
X62672Y-28738D01*
X62672Y-28785D01*
X62646Y-28833D01*
X62620Y-28857D01*
X62567Y-28880D01*
X62463Y-28904D01*
X62332Y-28904D01*
X62227Y-28880D01*
X62175Y-28857D01*
X62148Y-28833D01*
X62122Y-28785D01*
X62672Y-28404D02*
X62122Y-28404D01*
X62672Y-28119D02*
X62358Y-28333D01*
X62122Y-28119D02*
X62436Y-28404D01*
X59672Y-29095D02*
X59672Y-29380D01*
X59672Y-29238D02*
X59122Y-29238D01*
X59201Y-29285D01*
X59253Y-29333D01*
X59279Y-29380D01*
X59122Y-28785D02*
X59122Y-28738D01*
X59148Y-28690D01*
X59175Y-28666D01*
X59227Y-28642D01*
X59332Y-28619D01*
X59463Y-28619D01*
X59567Y-28642D01*
X59620Y-28666D01*
X59646Y-28690D01*
X59672Y-28738D01*
X59672Y-28785D01*
X59646Y-28833D01*
X59620Y-28857D01*
X59567Y-28880D01*
X59463Y-28904D01*
X59332Y-28904D01*
X59227Y-28880D01*
X59175Y-28857D01*
X59148Y-28833D01*
X59122Y-28785D01*
X59672Y-28404D02*
X59122Y-28404D01*
X59672Y-28119D02*
X59358Y-28333D01*
X59122Y-28119D02*
X59436Y-28404D01*
X65672Y-29095D02*
X65672Y-29380D01*
X65672Y-29238D02*
X65122Y-29238D01*
X65201Y-29285D01*
X65253Y-29333D01*
X65279Y-29380D01*
X65122Y-28785D02*
X65122Y-28738D01*
X65148Y-28690D01*
X65175Y-28666D01*
X65227Y-28642D01*
X65332Y-28619D01*
X65463Y-28619D01*
X65567Y-28642D01*
X65620Y-28666D01*
X65646Y-28690D01*
X65672Y-28738D01*
X65672Y-28785D01*
X65646Y-28833D01*
X65620Y-28857D01*
X65567Y-28880D01*
X65463Y-28904D01*
X65332Y-28904D01*
X65227Y-28880D01*
X65175Y-28857D01*
X65148Y-28833D01*
X65122Y-28785D01*
X65672Y-28404D02*
X65122Y-28404D01*
X65672Y-28119D02*
X65358Y-28333D01*
X65122Y-28119D02*
X65436Y-28404D01*
X56672Y-29095D02*
X56672Y-29380D01*
X56672Y-29238D02*
X56122Y-29238D01*
X56201Y-29285D01*
X56253Y-29333D01*
X56279Y-29380D01*
X56122Y-28785D02*
X56122Y-28738D01*
X56148Y-28690D01*
X56175Y-28666D01*
X56227Y-28642D01*
X56332Y-28619D01*
X56463Y-28619D01*
X56567Y-28642D01*
X56620Y-28666D01*
X56646Y-28690D01*
X56672Y-28738D01*
X56672Y-28785D01*
X56646Y-28833D01*
X56620Y-28857D01*
X56567Y-28880D01*
X56463Y-28904D01*
X56332Y-28904D01*
X56227Y-28880D01*
X56175Y-28857D01*
X56148Y-28833D01*
X56122Y-28785D01*
X56672Y-28404D02*
X56122Y-28404D01*
X56672Y-28119D02*
X56358Y-28333D01*
X56122Y-28119D02*
X56436Y-28404D01*
X35022Y-31595D02*
X35022Y-31880D01*
X35022Y-31738D02*
X34472Y-31738D01*
X34551Y-31785D01*
X34603Y-31833D01*
X34629Y-31880D01*
X34472Y-31285D02*
X34472Y-31238D01*
X34498Y-31190D01*
X34525Y-31166D01*
X34577Y-31142D01*
X34682Y-31119D01*
X34813Y-31119D01*
X34917Y-31142D01*
X34970Y-31166D01*
X34996Y-31190D01*
X35022Y-31238D01*
X35022Y-31285D01*
X34996Y-31333D01*
X34970Y-31357D01*
X34917Y-31380D01*
X34813Y-31404D01*
X34682Y-31404D01*
X34577Y-31380D01*
X34525Y-31357D01*
X34498Y-31333D01*
X34472Y-31285D01*
X35022Y-30904D02*
X34472Y-30904D01*
X35022Y-30619D02*
X34708Y-30833D01*
X34472Y-30619D02*
X34786Y-30904D01*
X40916Y-53022D02*
X40630Y-53022D01*
X40773Y-53022D02*
X40773Y-52472D01*
X40726Y-52551D01*
X40678Y-52603D01*
X40630Y-52629D01*
X41226Y-52472D02*
X41273Y-52472D01*
X41321Y-52498D01*
X41345Y-52525D01*
X41369Y-52577D01*
X41392Y-52682D01*
X41392Y-52813D01*
X41369Y-52917D01*
X41345Y-52970D01*
X41321Y-52996D01*
X41273Y-53022D01*
X41226Y-53022D01*
X41178Y-52996D01*
X41154Y-52970D01*
X41130Y-52917D01*
X41107Y-52813D01*
X41107Y-52682D01*
X41130Y-52577D01*
X41154Y-52525D01*
X41178Y-52498D01*
X41226Y-52472D01*
X41702Y-52472D02*
X41750Y-52472D01*
X41797Y-52498D01*
X41821Y-52525D01*
X41845Y-52577D01*
X41869Y-52682D01*
X41869Y-52813D01*
X41845Y-52917D01*
X41821Y-52970D01*
X41797Y-52996D01*
X41750Y-53022D01*
X41702Y-53022D01*
X41654Y-52996D01*
X41630Y-52970D01*
X41607Y-52917D01*
X41583Y-52813D01*
X41583Y-52682D01*
X41607Y-52577D01*
X41630Y-52525D01*
X41654Y-52498D01*
X41702Y-52472D01*
X42083Y-53022D02*
X42083Y-52472D01*
X42369Y-53022D02*
X42154Y-52708D01*
X42369Y-52472D02*
X42083Y-52786D01*
X39392Y-48272D02*
X39107Y-48272D01*
X39250Y-48272D02*
X39250Y-47722D01*
X39202Y-47801D01*
X39154Y-47853D01*
X39107Y-47879D01*
X39607Y-48272D02*
X39607Y-47722D01*
X39892Y-48272D02*
X39678Y-47958D01*
X39892Y-47722D02*
X39607Y-48036D01*
X39392Y-49022D02*
X39107Y-49022D01*
X39250Y-49022D02*
X39250Y-48472D01*
X39202Y-48551D01*
X39154Y-48603D01*
X39107Y-48629D01*
X39607Y-49022D02*
X39607Y-48472D01*
X39892Y-49022D02*
X39678Y-48708D01*
X39892Y-48472D02*
X39607Y-48786D01*
X37172Y-31595D02*
X37172Y-31880D01*
X37172Y-31738D02*
X36622Y-31738D01*
X36701Y-31785D01*
X36753Y-31833D01*
X36779Y-31880D01*
X36622Y-31285D02*
X36622Y-31238D01*
X36648Y-31190D01*
X36675Y-31166D01*
X36727Y-31142D01*
X36832Y-31119D01*
X36963Y-31119D01*
X37067Y-31142D01*
X37120Y-31166D01*
X37146Y-31190D01*
X37172Y-31238D01*
X37172Y-31285D01*
X37146Y-31333D01*
X37120Y-31357D01*
X37067Y-31380D01*
X36963Y-31404D01*
X36832Y-31404D01*
X36727Y-31380D01*
X36675Y-31357D01*
X36648Y-31333D01*
X36622Y-31285D01*
X37172Y-30904D02*
X36622Y-30904D01*
X37172Y-30619D02*
X36858Y-30833D01*
X36622Y-30619D02*
X36936Y-30904D01*
X63666Y-33422D02*
X63380Y-33422D01*
X63523Y-33422D02*
X63523Y-32872D01*
X63476Y-32951D01*
X63428Y-33003D01*
X63380Y-33029D01*
X63833Y-32872D02*
X64166Y-32872D01*
X63952Y-33422D01*
X64452Y-32872D02*
X64500Y-32872D01*
X64547Y-32898D01*
X64571Y-32925D01*
X64595Y-32977D01*
X64619Y-33082D01*
X64619Y-33213D01*
X64595Y-33317D01*
X64571Y-33370D01*
X64547Y-33396D01*
X64500Y-33422D01*
X64452Y-33422D01*
X64404Y-33396D01*
X64380Y-33370D01*
X64357Y-33317D01*
X64333Y-33213D01*
X64333Y-33082D01*
X64357Y-32977D01*
X64380Y-32925D01*
X64404Y-32898D01*
X64452Y-32872D01*
X40916Y-54022D02*
X40630Y-54022D01*
X40773Y-54022D02*
X40773Y-53472D01*
X40726Y-53551D01*
X40678Y-53603D01*
X40630Y-53629D01*
X41226Y-53472D02*
X41273Y-53472D01*
X41321Y-53498D01*
X41345Y-53525D01*
X41369Y-53577D01*
X41392Y-53682D01*
X41392Y-53813D01*
X41369Y-53917D01*
X41345Y-53970D01*
X41321Y-53996D01*
X41273Y-54022D01*
X41226Y-54022D01*
X41178Y-53996D01*
X41154Y-53970D01*
X41130Y-53917D01*
X41107Y-53813D01*
X41107Y-53682D01*
X41130Y-53577D01*
X41154Y-53525D01*
X41178Y-53498D01*
X41226Y-53472D01*
X41702Y-53472D02*
X41750Y-53472D01*
X41797Y-53498D01*
X41821Y-53525D01*
X41845Y-53577D01*
X41869Y-53682D01*
X41869Y-53813D01*
X41845Y-53917D01*
X41821Y-53970D01*
X41797Y-53996D01*
X41750Y-54022D01*
X41702Y-54022D01*
X41654Y-53996D01*
X41630Y-53970D01*
X41607Y-53917D01*
X41583Y-53813D01*
X41583Y-53682D01*
X41607Y-53577D01*
X41630Y-53525D01*
X41654Y-53498D01*
X41702Y-53472D01*
X42083Y-54022D02*
X42083Y-53472D01*
X42369Y-54022D02*
X42154Y-53708D01*
X42369Y-53472D02*
X42083Y-53786D01*
X45154Y-37422D02*
X44869Y-37422D01*
X45011Y-37422D02*
X45011Y-36872D01*
X44964Y-36951D01*
X44916Y-37003D01*
X44869Y-37029D01*
X45464Y-36872D02*
X45511Y-36872D01*
X45559Y-36898D01*
X45583Y-36925D01*
X45607Y-36977D01*
X45630Y-37082D01*
X45630Y-37213D01*
X45607Y-37317D01*
X45583Y-37370D01*
X45559Y-37396D01*
X45511Y-37422D01*
X45464Y-37422D01*
X45416Y-37396D01*
X45392Y-37370D01*
X45369Y-37317D01*
X45345Y-37213D01*
X45345Y-37082D01*
X45369Y-36977D01*
X45392Y-36925D01*
X45416Y-36898D01*
X45464Y-36872D01*
X45845Y-37422D02*
X45845Y-36872D01*
X46130Y-37422D02*
X45916Y-37108D01*
X46130Y-36872D02*
X45845Y-37186D01*
X50025Y-27619D02*
X49998Y-27595D01*
X49972Y-27547D01*
X49972Y-27428D01*
X49998Y-27380D01*
X50025Y-27357D01*
X50077Y-27333D01*
X50129Y-27333D01*
X50208Y-27357D01*
X50522Y-27642D01*
X50522Y-27333D01*
X50025Y-27142D02*
X49998Y-27119D01*
X49972Y-27071D01*
X49972Y-26952D01*
X49998Y-26904D01*
X50025Y-26880D01*
X50077Y-26857D01*
X50129Y-26857D01*
X50208Y-26880D01*
X50522Y-27166D01*
X50522Y-26857D01*
X49972Y-26547D02*
X49972Y-26500D01*
X49998Y-26452D01*
X50025Y-26428D01*
X50077Y-26404D01*
X50182Y-26380D01*
X50313Y-26380D01*
X50417Y-26404D01*
X50470Y-26428D01*
X50496Y-26452D01*
X50522Y-26500D01*
X50522Y-26547D01*
X50496Y-26595D01*
X50470Y-26619D01*
X50417Y-26642D01*
X50313Y-26666D01*
X50182Y-26666D01*
X50077Y-26642D01*
X50025Y-26619D01*
X49998Y-26595D01*
X49972Y-26547D01*
X31892Y-30422D02*
X31607Y-30422D01*
X31750Y-30422D02*
X31750Y-29872D01*
X31702Y-29951D01*
X31654Y-30003D01*
X31607Y-30029D01*
X32107Y-30422D02*
X32107Y-29872D01*
X32392Y-30422D02*
X32178Y-30108D01*
X32392Y-29872D02*
X32107Y-30186D01*
X26380Y-39775D02*
X26404Y-39748D01*
X26452Y-39722D01*
X26571Y-39722D01*
X26619Y-39748D01*
X26642Y-39775D01*
X26666Y-39827D01*
X26666Y-39879D01*
X26642Y-39958D01*
X26357Y-40272D01*
X26666Y-40272D01*
X26857Y-39775D02*
X26880Y-39748D01*
X26928Y-39722D01*
X27047Y-39722D01*
X27095Y-39748D01*
X27119Y-39775D01*
X27142Y-39827D01*
X27142Y-39879D01*
X27119Y-39958D01*
X26833Y-40272D01*
X27142Y-40272D01*
X27452Y-39722D02*
X27500Y-39722D01*
X27547Y-39748D01*
X27571Y-39775D01*
X27595Y-39827D01*
X27619Y-39932D01*
X27619Y-40063D01*
X27595Y-40167D01*
X27571Y-40220D01*
X27547Y-40246D01*
X27500Y-40272D01*
X27452Y-40272D01*
X27404Y-40246D01*
X27380Y-40220D01*
X27357Y-40167D01*
X27333Y-40063D01*
X27333Y-39932D01*
X27357Y-39827D01*
X27380Y-39775D01*
X27404Y-39748D01*
X27452Y-39722D01*
X40392Y-31422D02*
X40107Y-31422D01*
X40250Y-31422D02*
X40250Y-30872D01*
X40202Y-30951D01*
X40154Y-31003D01*
X40107Y-31029D01*
X40607Y-31422D02*
X40607Y-30872D01*
X40892Y-31422D02*
X40678Y-31108D01*
X40892Y-30872D02*
X40607Y-31186D01*
G54D21*
X34778Y-49871D02*
X34778Y-49571D01*
X34850Y-49571D01*
X34892Y-49585D01*
X34921Y-49614D01*
X34935Y-49642D01*
X34950Y-49700D01*
X34950Y-49742D01*
X34935Y-49800D01*
X34921Y-49828D01*
X34892Y-49857D01*
X34850Y-49871D01*
X34778Y-49871D01*
X35050Y-49571D02*
X35235Y-49571D01*
X35135Y-49685D01*
X35178Y-49685D01*
X35207Y-49700D01*
X35221Y-49714D01*
X35235Y-49742D01*
X35235Y-49814D01*
X35221Y-49842D01*
X35207Y-49857D01*
X35178Y-49871D01*
X35092Y-49871D01*
X35064Y-49857D01*
X35050Y-49842D01*
X34828Y-52871D02*
X34728Y-52728D01*
X34657Y-52871D02*
X34657Y-52571D01*
X34771Y-52571D01*
X34800Y-52585D01*
X34814Y-52600D01*
X34828Y-52628D01*
X34828Y-52671D01*
X34814Y-52700D01*
X34800Y-52714D01*
X34771Y-52728D01*
X34657Y-52728D01*
X35071Y-52857D02*
X35042Y-52871D01*
X34985Y-52871D01*
X34957Y-52857D01*
X34942Y-52828D01*
X34942Y-52714D01*
X34957Y-52685D01*
X34985Y-52671D01*
X35042Y-52671D01*
X35071Y-52685D01*
X35085Y-52714D01*
X35085Y-52742D01*
X34942Y-52771D01*
X35342Y-52871D02*
X35342Y-52571D01*
X35342Y-52857D02*
X35314Y-52871D01*
X35257Y-52871D01*
X35228Y-52857D01*
X35214Y-52842D01*
X35200Y-52814D01*
X35200Y-52728D01*
X35214Y-52700D01*
X35228Y-52685D01*
X35257Y-52671D01*
X35314Y-52671D01*
X35342Y-52685D01*
X62778Y-36371D02*
X62778Y-36071D01*
X62850Y-36071D01*
X62892Y-36085D01*
X62921Y-36114D01*
X62935Y-36142D01*
X62950Y-36200D01*
X62950Y-36242D01*
X62935Y-36300D01*
X62921Y-36328D01*
X62892Y-36357D01*
X62850Y-36371D01*
X62778Y-36371D01*
X63235Y-36371D02*
X63064Y-36371D01*
X63150Y-36371D02*
X63150Y-36071D01*
X63121Y-36114D01*
X63092Y-36142D01*
X63064Y-36157D01*
X63592Y-36585D02*
X63564Y-36571D01*
X63521Y-36571D01*
X63478Y-36585D01*
X63450Y-36614D01*
X63435Y-36642D01*
X63421Y-36700D01*
X63421Y-36742D01*
X63435Y-36800D01*
X63450Y-36828D01*
X63478Y-36857D01*
X63521Y-36871D01*
X63550Y-36871D01*
X63592Y-36857D01*
X63607Y-36842D01*
X63607Y-36742D01*
X63550Y-36742D01*
X63735Y-36871D02*
X63735Y-36671D01*
X63735Y-36728D02*
X63750Y-36700D01*
X63764Y-36685D01*
X63792Y-36671D01*
X63821Y-36671D01*
X64035Y-36857D02*
X64007Y-36871D01*
X63950Y-36871D01*
X63921Y-36857D01*
X63907Y-36828D01*
X63907Y-36714D01*
X63921Y-36685D01*
X63950Y-36671D01*
X64007Y-36671D01*
X64035Y-36685D01*
X64050Y-36714D01*
X64050Y-36742D01*
X63907Y-36771D01*
X64292Y-36857D02*
X64264Y-36871D01*
X64207Y-36871D01*
X64178Y-36857D01*
X64164Y-36828D01*
X64164Y-36714D01*
X64178Y-36685D01*
X64207Y-36671D01*
X64264Y-36671D01*
X64292Y-36685D01*
X64307Y-36714D01*
X64307Y-36742D01*
X64164Y-36771D01*
X64435Y-36671D02*
X64435Y-36871D01*
X64435Y-36700D02*
X64450Y-36685D01*
X64478Y-36671D01*
X64521Y-36671D01*
X64550Y-36685D01*
X64564Y-36714D01*
X64564Y-36871D01*
G54D22*
X37560Y-33783D02*
X37560Y-33083D01*
X38032Y-33716D02*
X38010Y-33750D01*
X37946Y-33783D01*
X37903Y-33783D01*
X37839Y-33750D01*
X37796Y-33683D01*
X37775Y-33616D01*
X37753Y-33483D01*
X37753Y-33383D01*
X37775Y-33250D01*
X37796Y-33183D01*
X37839Y-33116D01*
X37903Y-33083D01*
X37946Y-33083D01*
X38010Y-33116D01*
X38032Y-33150D01*
X38460Y-33783D02*
X38203Y-33783D01*
X38332Y-33783D02*
X38332Y-33083D01*
X38289Y-33183D01*
X38246Y-33250D01*
X38203Y-33283D01*
G54D13*
X39366Y-33416D02*
X39466Y-33450D01*
X39500Y-33483D01*
X39533Y-33550D01*
X39533Y-33650D01*
X39500Y-33716D01*
X39466Y-33750D01*
X39400Y-33783D01*
X39133Y-33783D01*
X39133Y-33083D01*
X39366Y-33083D01*
X39433Y-33116D01*
X39466Y-33150D01*
X39500Y-33216D01*
X39500Y-33283D01*
X39466Y-33350D01*
X39433Y-33383D01*
X39366Y-33416D01*
X39133Y-33416D01*
X39800Y-33750D02*
X39900Y-33783D01*
X40066Y-33783D01*
X40133Y-33750D01*
X40166Y-33716D01*
X40200Y-33650D01*
X40200Y-33583D01*
X40166Y-33516D01*
X40133Y-33483D01*
X40066Y-33450D01*
X39933Y-33416D01*
X39866Y-33383D01*
X39833Y-33350D01*
X39800Y-33283D01*
X39800Y-33216D01*
X39833Y-33150D01*
X39866Y-33116D01*
X39933Y-33083D01*
X40100Y-33083D01*
X40200Y-33116D01*
X40466Y-33150D02*
X40500Y-33116D01*
X40566Y-33083D01*
X40733Y-33083D01*
X40800Y-33116D01*
X40833Y-33150D01*
X40866Y-33216D01*
X40866Y-33283D01*
X40833Y-33383D01*
X40433Y-33783D01*
X40866Y-33783D01*
X41166Y-33783D02*
X41166Y-33083D01*
X41433Y-33083D01*
X41500Y-33116D01*
X41533Y-33150D01*
X41566Y-33216D01*
X41566Y-33316D01*
X41533Y-33383D01*
X41500Y-33416D01*
X41433Y-33450D01*
X41166Y-33450D01*
X42166Y-33316D02*
X42166Y-33783D01*
X42000Y-33050D02*
X41833Y-33550D01*
X42266Y-33550D01*
X42666Y-33083D02*
X42733Y-33083D01*
X42800Y-33116D01*
X42833Y-33150D01*
X42866Y-33216D01*
X42900Y-33350D01*
X42900Y-33516D01*
X42866Y-33650D01*
X42833Y-33716D01*
X42800Y-33750D01*
X42733Y-33783D01*
X42666Y-33783D01*
X42600Y-33750D01*
X42566Y-33716D01*
X42533Y-33650D01*
X42500Y-33516D01*
X42500Y-33350D01*
X42533Y-33216D01*
X42566Y-33150D01*
X42600Y-33116D01*
X42666Y-33083D01*
G54D14*
X68704Y-33161D02*
X68704Y-32761D01*
X68800Y-32761D01*
X68857Y-32780D01*
X68895Y-32819D01*
X68914Y-32857D01*
X68933Y-32933D01*
X68933Y-32990D01*
X68914Y-33066D01*
X68895Y-33104D01*
X68857Y-33142D01*
X68800Y-33161D01*
X68704Y-33161D01*
X69085Y-32800D02*
X69104Y-32780D01*
X69142Y-32761D01*
X69238Y-32761D01*
X69276Y-32780D01*
X69295Y-32800D01*
X69314Y-32838D01*
X69314Y-32876D01*
X69295Y-32933D01*
X69066Y-33161D01*
X69314Y-33161D01*
X35865Y-27290D02*
X35838Y-27290D01*
X35784Y-27263D01*
X35757Y-27236D01*
X35730Y-27182D01*
X35730Y-27128D01*
X35744Y-27088D01*
X35784Y-27021D01*
X35824Y-26980D01*
X35892Y-26940D01*
X35932Y-26926D01*
X35986Y-26926D01*
X36040Y-26953D01*
X36067Y-26980D01*
X36094Y-27034D01*
X36094Y-27061D01*
X36107Y-27586D02*
X35946Y-27425D01*
X36026Y-27505D02*
X36309Y-27223D01*
X36242Y-27236D01*
X36188Y-27236D01*
X36148Y-27223D01*
X31023Y-32166D02*
X31042Y-32185D01*
X31061Y-32242D01*
X31061Y-32280D01*
X31042Y-32338D01*
X31004Y-32376D01*
X30966Y-32395D01*
X30890Y-32414D01*
X30833Y-32414D01*
X30757Y-32395D01*
X30719Y-32376D01*
X30680Y-32338D01*
X30661Y-32280D01*
X30661Y-32242D01*
X30680Y-32185D01*
X30700Y-32166D01*
X30795Y-31823D02*
X31061Y-31823D01*
X30642Y-31919D02*
X30928Y-32014D01*
X30928Y-31766D01*
X44583Y-32273D02*
X44564Y-32292D01*
X44507Y-32311D01*
X44469Y-32311D01*
X44411Y-32292D01*
X44373Y-32254D01*
X44354Y-32216D01*
X44335Y-32140D01*
X44335Y-32083D01*
X44354Y-32007D01*
X44373Y-31969D01*
X44411Y-31930D01*
X44469Y-31911D01*
X44507Y-31911D01*
X44564Y-31930D01*
X44583Y-31950D01*
X44716Y-31911D02*
X44964Y-31911D01*
X44830Y-32064D01*
X44888Y-32064D01*
X44926Y-32083D01*
X44945Y-32102D01*
X44964Y-32140D01*
X44964Y-32235D01*
X44945Y-32273D01*
X44926Y-32292D01*
X44888Y-32311D01*
X44773Y-32311D01*
X44735Y-32292D01*
X44716Y-32273D01*
X47183Y-24373D02*
X47164Y-24392D01*
X47107Y-24411D01*
X47069Y-24411D01*
X47011Y-24392D01*
X46973Y-24354D01*
X46954Y-24316D01*
X46935Y-24240D01*
X46935Y-24183D01*
X46954Y-24107D01*
X46973Y-24069D01*
X47011Y-24030D01*
X47069Y-24011D01*
X47107Y-24011D01*
X47164Y-24030D01*
X47183Y-24050D01*
X47335Y-24050D02*
X47354Y-24030D01*
X47392Y-24011D01*
X47488Y-24011D01*
X47526Y-24030D01*
X47545Y-24050D01*
X47564Y-24088D01*
X47564Y-24126D01*
X47545Y-24183D01*
X47316Y-24411D01*
X47564Y-24411D01*
G54D16*
X80804Y-61961D02*
X80804Y-61561D01*
X80957Y-61561D01*
X80995Y-61580D01*
X81014Y-61600D01*
X81033Y-61638D01*
X81033Y-61695D01*
X81014Y-61733D01*
X80995Y-61752D01*
X80957Y-61771D01*
X80804Y-61771D01*
X81414Y-61961D02*
X81185Y-61961D01*
X81300Y-61961D02*
X81300Y-61561D01*
X81261Y-61619D01*
X81223Y-61657D01*
X81185Y-61676D01*
X47204Y-61961D02*
X47204Y-61561D01*
X47357Y-61561D01*
X47395Y-61580D01*
X47414Y-61600D01*
X47433Y-61638D01*
X47433Y-61695D01*
X47414Y-61733D01*
X47395Y-61752D01*
X47357Y-61771D01*
X47204Y-61771D01*
X47585Y-61600D02*
X47604Y-61580D01*
X47642Y-61561D01*
X47738Y-61561D01*
X47776Y-61580D01*
X47795Y-61600D01*
X47814Y-61638D01*
X47814Y-61676D01*
X47795Y-61733D01*
X47566Y-61961D01*
X47814Y-61961D01*
X46954Y-41111D02*
X46954Y-40711D01*
X47107Y-40711D01*
X47145Y-40730D01*
X47164Y-40750D01*
X47183Y-40788D01*
X47183Y-40845D01*
X47164Y-40883D01*
X47145Y-40902D01*
X47107Y-40921D01*
X46954Y-40921D01*
X47316Y-40711D02*
X47564Y-40711D01*
X47430Y-40864D01*
X47488Y-40864D01*
X47526Y-40883D01*
X47545Y-40902D01*
X47564Y-40940D01*
X47564Y-41035D01*
X47545Y-41073D01*
X47526Y-41092D01*
X47488Y-41111D01*
X47373Y-41111D01*
X47335Y-41092D01*
X47316Y-41073D01*
X80804Y-40361D02*
X80804Y-39961D01*
X80957Y-39961D01*
X80995Y-39980D01*
X81014Y-40000D01*
X81033Y-40038D01*
X81033Y-40095D01*
X81014Y-40133D01*
X80995Y-40152D01*
X80957Y-40171D01*
X80804Y-40171D01*
X81376Y-40095D02*
X81376Y-40361D01*
X81280Y-39942D02*
X81185Y-40228D01*
X81433Y-40228D01*
M02*
