G04 (created by PCBNEW (2013-07-07 BZR 4022)-stable) date 12/12/2015 1:25:57 PM*
%MOIN*%
G04 Gerber Fmt 3.4, Leading zero omitted, Abs format*
%FSLAX34Y34*%
G01*
G70*
G90*
G04 APERTURE LIST*
%ADD10C,0.00590551*%
%ADD11R,0.055X0.055*%
%ADD12C,0.055*%
%ADD13C,0.06*%
%ADD14C,0.066*%
%ADD15C,0.16*%
%ADD16C,0.035*%
%ADD17C,0.01*%
G04 APERTURE END LIST*
G54D10*
G54D11*
X32750Y-43000D03*
G54D12*
X31750Y-43000D03*
X30750Y-43000D03*
X29750Y-43000D03*
X28750Y-43000D03*
X27750Y-43000D03*
X26750Y-43000D03*
X25750Y-43000D03*
X24750Y-43000D03*
G54D11*
X46000Y-25000D03*
G54D12*
X45000Y-25000D03*
X44000Y-25000D03*
X43000Y-25000D03*
X42000Y-25000D03*
X41000Y-25000D03*
X40000Y-25000D03*
G54D11*
X27500Y-24500D03*
G54D12*
X27500Y-25500D03*
X27500Y-26500D03*
X27500Y-27500D03*
X27500Y-28500D03*
X27500Y-29500D03*
X27500Y-30500D03*
G54D11*
X37000Y-51250D03*
G54D12*
X38000Y-51250D03*
X39000Y-51250D03*
X40000Y-51250D03*
X41000Y-51250D03*
G54D11*
X37000Y-45500D03*
G54D12*
X38000Y-45500D03*
X39000Y-45500D03*
X40000Y-45500D03*
X41000Y-45500D03*
G54D11*
X37000Y-57000D03*
G54D12*
X38000Y-57000D03*
X39000Y-57000D03*
X40000Y-57000D03*
X41000Y-57000D03*
G54D11*
X70500Y-35250D03*
G54D12*
X69500Y-35250D03*
X68500Y-35250D03*
X67500Y-35250D03*
X66500Y-35250D03*
G54D11*
X46000Y-27000D03*
G54D12*
X47000Y-27000D03*
X48000Y-27000D03*
X49000Y-27000D03*
G54D11*
X51500Y-51650D03*
G54D12*
X50500Y-51650D03*
X49500Y-51650D03*
G54D11*
X57750Y-29500D03*
G54D12*
X57750Y-28500D03*
X57750Y-27500D03*
G54D11*
X60750Y-29500D03*
G54D12*
X60750Y-28500D03*
X60750Y-27500D03*
G54D11*
X78500Y-32000D03*
G54D12*
X78500Y-33000D03*
X78500Y-34000D03*
G54D11*
X63750Y-29500D03*
G54D12*
X63750Y-28500D03*
X63750Y-27500D03*
G54D11*
X66750Y-29500D03*
G54D12*
X66750Y-28500D03*
X66750Y-27500D03*
G54D11*
X25500Y-38500D03*
G54D12*
X25500Y-37500D03*
X25500Y-36500D03*
G54D11*
X27500Y-32500D03*
G54D12*
X27500Y-33500D03*
X27500Y-34500D03*
G54D11*
X51500Y-26000D03*
G54D12*
X52500Y-26000D03*
X53500Y-26000D03*
G54D11*
X69000Y-28000D03*
G54D12*
X70000Y-28000D03*
X71000Y-28000D03*
G54D11*
X36500Y-25000D03*
G54D12*
X37500Y-25000D03*
X38500Y-25000D03*
G54D11*
X62750Y-26000D03*
G54D12*
X63750Y-26000D03*
G54D11*
X65750Y-26000D03*
G54D12*
X66750Y-26000D03*
G54D11*
X59750Y-26000D03*
G54D12*
X60750Y-26000D03*
G54D11*
X56750Y-26000D03*
G54D12*
X57750Y-26000D03*
G54D11*
X34000Y-25000D03*
G54D12*
X35000Y-25000D03*
G54D11*
X31500Y-57000D03*
G54D12*
X32500Y-57000D03*
G54D13*
X28000Y-38500D03*
X27000Y-37500D03*
X28000Y-36500D03*
X51500Y-28500D03*
X52500Y-27500D03*
X53500Y-28500D03*
G54D12*
X62500Y-27250D03*
X62500Y-30250D03*
X59500Y-27250D03*
X59500Y-30250D03*
X65500Y-27250D03*
X65500Y-30250D03*
X56500Y-27250D03*
X56500Y-30250D03*
X34750Y-32750D03*
X34750Y-29750D03*
X40000Y-52750D03*
X43000Y-52750D03*
X38000Y-48000D03*
X41000Y-48000D03*
X38000Y-48750D03*
X41000Y-48750D03*
X37000Y-29750D03*
X37000Y-32750D03*
X65500Y-33250D03*
X62500Y-33250D03*
X40000Y-53750D03*
X43000Y-53750D03*
X47000Y-37250D03*
X44000Y-37250D03*
X50250Y-28500D03*
X50250Y-25500D03*
X33500Y-30250D03*
X30500Y-30250D03*
X25500Y-40000D03*
X28500Y-40000D03*
X42000Y-31250D03*
X39000Y-31250D03*
G54D14*
X34500Y-51250D03*
X35500Y-51250D03*
X63500Y-35250D03*
X64500Y-35250D03*
G54D11*
X49000Y-28500D03*
G54D12*
X48000Y-28500D03*
X47000Y-28500D03*
X46000Y-28500D03*
X45000Y-28500D03*
X44000Y-28500D03*
X43000Y-28500D03*
X42000Y-28500D03*
X41000Y-28500D03*
X40000Y-28500D03*
X39000Y-28500D03*
X38000Y-28500D03*
X37000Y-28500D03*
X36000Y-28500D03*
X35000Y-28500D03*
X34000Y-28500D03*
X33000Y-28500D03*
X32000Y-28500D03*
X31000Y-28500D03*
X30000Y-28500D03*
X30000Y-34500D03*
X31000Y-34500D03*
X32000Y-34500D03*
X33000Y-34500D03*
X34000Y-34500D03*
X35000Y-34500D03*
X36000Y-34500D03*
X37000Y-34500D03*
X38000Y-34500D03*
X39000Y-34500D03*
X40000Y-34500D03*
X41000Y-34500D03*
X42000Y-34500D03*
X43000Y-34500D03*
X44000Y-34500D03*
X45000Y-34500D03*
X46000Y-34500D03*
X47000Y-34500D03*
X48000Y-34500D03*
X49000Y-34500D03*
G54D11*
X70500Y-33750D03*
G54D12*
X67500Y-33750D03*
X36396Y-26396D03*
X37103Y-27103D03*
X30000Y-31500D03*
X30000Y-32500D03*
X45250Y-31250D03*
X44250Y-31250D03*
X47500Y-25000D03*
X48500Y-25000D03*
G54D15*
X82600Y-61800D03*
X46000Y-61800D03*
X46000Y-40200D03*
X82600Y-40200D03*
G54D16*
X36500Y-36250D03*
X59750Y-36000D03*
X64250Y-30500D03*
X61000Y-30500D03*
X58000Y-30500D03*
X46000Y-38000D03*
X26500Y-39250D03*
G54D17*
X25500Y-36500D02*
X25500Y-34000D01*
X51250Y-23750D02*
X53500Y-26000D01*
X26750Y-23750D02*
X51250Y-23750D01*
X26000Y-24500D02*
X26750Y-23750D01*
X26000Y-33500D02*
X26000Y-24500D01*
X25500Y-34000D02*
X26000Y-33500D01*
X56750Y-26000D02*
X54250Y-26000D01*
X54250Y-26000D02*
X53500Y-26000D01*
X62750Y-26000D02*
X62800Y-26000D01*
X62800Y-26000D02*
X63550Y-26750D01*
X59750Y-26000D02*
X60500Y-26750D01*
X56750Y-26000D02*
X57500Y-26750D01*
X65000Y-26750D02*
X65750Y-26000D01*
X63550Y-26750D02*
X65000Y-26750D01*
X57500Y-26750D02*
X60500Y-26750D01*
X60500Y-26750D02*
X63550Y-26750D01*
X34500Y-51250D02*
X34500Y-48750D01*
X69500Y-35000D02*
X69500Y-35250D01*
X36500Y-36250D02*
X34500Y-38250D01*
X34500Y-48750D02*
X34500Y-44500D01*
X61250Y-34500D02*
X59750Y-36000D01*
X69000Y-34500D02*
X61250Y-34500D01*
X69500Y-35000D02*
X69000Y-34500D01*
X34500Y-38250D02*
X34500Y-44500D01*
X48000Y-27000D02*
X48000Y-28500D01*
X49000Y-27000D02*
X49000Y-28500D01*
X65500Y-27250D02*
X65000Y-27250D01*
X64750Y-30000D02*
X64250Y-30500D01*
X64750Y-27500D02*
X64750Y-30000D01*
X65000Y-27250D02*
X64750Y-27500D01*
X62500Y-27250D02*
X61750Y-27250D01*
X61500Y-30000D02*
X61000Y-30500D01*
X61500Y-27500D02*
X61500Y-30000D01*
X61750Y-27250D02*
X61500Y-27500D01*
X49000Y-51750D02*
X49400Y-51750D01*
X44750Y-39000D02*
X44000Y-39750D01*
X44000Y-39750D02*
X44000Y-48250D01*
X44000Y-48250D02*
X45000Y-49250D01*
X45000Y-49250D02*
X47500Y-51750D01*
X47500Y-51750D02*
X49000Y-51750D01*
X44750Y-34750D02*
X44750Y-39000D01*
X45000Y-34500D02*
X44750Y-34750D01*
X49400Y-51750D02*
X49500Y-51650D01*
X38000Y-57000D02*
X38000Y-55250D01*
X38000Y-53500D02*
X38000Y-55250D01*
X37500Y-35000D02*
X37000Y-34500D01*
X37500Y-53000D02*
X37500Y-41250D01*
X38000Y-53500D02*
X37500Y-53000D01*
X37500Y-35000D02*
X37500Y-41250D01*
X59500Y-27250D02*
X58750Y-27250D01*
X58250Y-30500D02*
X58000Y-30500D01*
X58500Y-30250D02*
X58250Y-30500D01*
X58500Y-27500D02*
X58500Y-30250D01*
X58750Y-27250D02*
X58500Y-27500D01*
X30500Y-30250D02*
X30000Y-30750D01*
X30000Y-29500D02*
X30000Y-30750D01*
X30000Y-30750D02*
X30000Y-31500D01*
X27500Y-32500D02*
X27500Y-32000D01*
X30000Y-29500D02*
X30000Y-28500D01*
X27500Y-32000D02*
X30000Y-29500D01*
X47000Y-28500D02*
X47000Y-27000D01*
X47500Y-25000D02*
X47500Y-26000D01*
X47000Y-26500D02*
X47000Y-28500D01*
X47500Y-26000D02*
X47000Y-26500D01*
X27000Y-37500D02*
X27000Y-38500D01*
X27000Y-38500D02*
X28500Y-40000D01*
X25500Y-37500D02*
X27000Y-37500D01*
X38000Y-51250D02*
X38000Y-52750D01*
X39000Y-53750D02*
X40000Y-53750D01*
X38000Y-52750D02*
X39000Y-53750D01*
X40000Y-51250D02*
X40000Y-52750D01*
X25500Y-40000D02*
X25500Y-38500D01*
X44000Y-37250D02*
X43500Y-36750D01*
X43500Y-35000D02*
X44000Y-34500D01*
X43500Y-36750D02*
X43500Y-35000D01*
X46000Y-34500D02*
X46000Y-38000D01*
X46000Y-34500D02*
X46500Y-35000D01*
X71000Y-30500D02*
X71000Y-28000D01*
X70250Y-31250D02*
X71000Y-30500D01*
X50500Y-31250D02*
X70250Y-31250D01*
X49750Y-32000D02*
X50500Y-31250D01*
X49750Y-34750D02*
X49750Y-32000D01*
X49500Y-35000D02*
X49750Y-34750D01*
X46500Y-35000D02*
X49500Y-35000D01*
X37000Y-29750D02*
X40500Y-29750D01*
X40500Y-29750D02*
X42000Y-31250D01*
X34750Y-29750D02*
X37000Y-29750D01*
X33500Y-30250D02*
X34250Y-30250D01*
X34250Y-30250D02*
X34750Y-29750D01*
X26250Y-42500D02*
X25750Y-43000D01*
X26250Y-39500D02*
X26250Y-42500D01*
X26500Y-39250D02*
X26250Y-39500D01*
X66250Y-51250D02*
X65850Y-51650D01*
X66250Y-51250D02*
X66250Y-38000D01*
X66250Y-38000D02*
X64500Y-36250D01*
X64500Y-35250D02*
X64500Y-36250D01*
X65850Y-51650D02*
X51500Y-51650D01*
X40000Y-45500D02*
X40000Y-47250D01*
X40000Y-47250D02*
X40000Y-48750D01*
X40000Y-48750D02*
X39000Y-49750D01*
X39000Y-49750D02*
X39000Y-51250D01*
X46000Y-30000D02*
X46100Y-30000D01*
X47100Y-31000D02*
X65000Y-31000D01*
X46100Y-30000D02*
X47100Y-31000D01*
X65500Y-30250D02*
X65500Y-30500D01*
X65500Y-30500D02*
X65000Y-31000D01*
X70000Y-30500D02*
X70000Y-28000D01*
X69500Y-31000D02*
X70000Y-30500D01*
X65000Y-31000D02*
X69500Y-31000D01*
X30000Y-32500D02*
X30000Y-33000D01*
X30000Y-33000D02*
X29500Y-33500D01*
X37500Y-25000D02*
X37103Y-25396D01*
X37103Y-25396D02*
X37103Y-27103D01*
X46000Y-30500D02*
X45250Y-31250D01*
X37500Y-25000D02*
X38000Y-24500D01*
X44500Y-24500D02*
X45000Y-25000D01*
X38000Y-24500D02*
X44500Y-24500D01*
X29500Y-33500D02*
X29000Y-33500D01*
X28500Y-38000D02*
X28000Y-38500D01*
X28500Y-34000D02*
X28500Y-38000D01*
X29000Y-33500D02*
X28500Y-34000D01*
X46000Y-28500D02*
X46000Y-30000D01*
X46000Y-30000D02*
X46000Y-30500D01*
X46000Y-30500D02*
X46000Y-32100D01*
X46000Y-32100D02*
X46000Y-32500D01*
X46000Y-32500D02*
X47000Y-33500D01*
X27500Y-33500D02*
X29500Y-33500D01*
X29500Y-33500D02*
X47000Y-33500D01*
X47000Y-33500D02*
X48000Y-34500D01*
X51500Y-28500D02*
X51500Y-28000D01*
X51500Y-28000D02*
X48500Y-25000D01*
X48500Y-25000D02*
X48000Y-24500D01*
X48000Y-24500D02*
X45500Y-24500D01*
X45500Y-24500D02*
X45000Y-25000D01*
X46000Y-28500D02*
X46000Y-27000D01*
X46000Y-27000D02*
X45000Y-26000D01*
X45000Y-26000D02*
X45000Y-25000D01*
G54D10*
G36*
X83730Y-63230D02*
X83651Y-63230D01*
X83651Y-62001D01*
X83651Y-40401D01*
X83648Y-39983D01*
X83494Y-39611D01*
X83347Y-39523D01*
X83276Y-39594D01*
X83276Y-39452D01*
X83188Y-39305D01*
X82801Y-39148D01*
X82383Y-39151D01*
X82011Y-39305D01*
X81923Y-39452D01*
X82600Y-40129D01*
X83276Y-39452D01*
X83276Y-39594D01*
X82670Y-40200D01*
X83347Y-40876D01*
X83494Y-40788D01*
X83651Y-40401D01*
X83651Y-62001D01*
X83648Y-61583D01*
X83494Y-61211D01*
X83347Y-61123D01*
X83276Y-61194D01*
X83276Y-61052D01*
X83276Y-40947D01*
X82600Y-40270D01*
X82529Y-40341D01*
X82529Y-40200D01*
X81852Y-39523D01*
X81705Y-39611D01*
X81548Y-39998D01*
X81551Y-40416D01*
X81705Y-40788D01*
X81852Y-40876D01*
X82529Y-40200D01*
X82529Y-40341D01*
X81923Y-40947D01*
X82011Y-41094D01*
X82398Y-41251D01*
X82816Y-41248D01*
X83188Y-41094D01*
X83276Y-40947D01*
X83276Y-61052D01*
X83188Y-60905D01*
X82801Y-60748D01*
X82383Y-60751D01*
X82011Y-60905D01*
X81923Y-61052D01*
X82600Y-61729D01*
X83276Y-61052D01*
X83276Y-61194D01*
X82670Y-61800D01*
X83347Y-62476D01*
X83494Y-62388D01*
X83651Y-62001D01*
X83651Y-63230D01*
X83276Y-63230D01*
X83276Y-62547D01*
X82600Y-61870D01*
X82529Y-61941D01*
X82529Y-61800D01*
X81852Y-61123D01*
X81705Y-61211D01*
X81548Y-61598D01*
X81551Y-62016D01*
X81705Y-62388D01*
X81852Y-62476D01*
X82529Y-61800D01*
X82529Y-61941D01*
X81923Y-62547D01*
X82011Y-62694D01*
X82398Y-62851D01*
X82816Y-62848D01*
X83188Y-62694D01*
X83276Y-62547D01*
X83276Y-63230D01*
X79025Y-63230D01*
X79025Y-33896D01*
X78945Y-33703D01*
X78797Y-33555D01*
X78664Y-33499D01*
X78797Y-33445D01*
X78944Y-33297D01*
X79024Y-33104D01*
X79025Y-32896D01*
X78945Y-32703D01*
X78797Y-32555D01*
X78725Y-32525D01*
X78725Y-32525D01*
X78824Y-32524D01*
X78916Y-32486D01*
X78987Y-32416D01*
X79025Y-32324D01*
X79025Y-31675D01*
X78987Y-31583D01*
X78916Y-31513D01*
X78824Y-31475D01*
X78725Y-31474D01*
X78612Y-31475D01*
X78550Y-31537D01*
X78550Y-31950D01*
X78962Y-31950D01*
X79025Y-31887D01*
X79025Y-31675D01*
X79025Y-32324D01*
X79025Y-32112D01*
X78962Y-32050D01*
X78550Y-32050D01*
X78550Y-32057D01*
X78450Y-32057D01*
X78450Y-32050D01*
X78450Y-31950D01*
X78450Y-31537D01*
X78387Y-31475D01*
X78274Y-31474D01*
X78175Y-31475D01*
X78083Y-31513D01*
X78012Y-31583D01*
X77974Y-31675D01*
X77975Y-31887D01*
X78037Y-31950D01*
X78450Y-31950D01*
X78450Y-32050D01*
X78037Y-32050D01*
X77975Y-32112D01*
X77974Y-32324D01*
X78012Y-32416D01*
X78083Y-32486D01*
X78175Y-32524D01*
X78274Y-32525D01*
X78274Y-32525D01*
X78203Y-32554D01*
X78055Y-32702D01*
X77975Y-32895D01*
X77974Y-33103D01*
X78054Y-33297D01*
X78202Y-33444D01*
X78335Y-33500D01*
X78203Y-33554D01*
X78055Y-33702D01*
X77975Y-33895D01*
X77974Y-34103D01*
X78054Y-34297D01*
X78202Y-34444D01*
X78395Y-34524D01*
X78603Y-34525D01*
X78797Y-34445D01*
X78944Y-34297D01*
X79024Y-34104D01*
X79025Y-33896D01*
X79025Y-63230D01*
X71525Y-63230D01*
X71525Y-27896D01*
X71445Y-27703D01*
X71297Y-27555D01*
X71104Y-27475D01*
X70896Y-27474D01*
X70703Y-27554D01*
X70555Y-27702D01*
X70502Y-27828D01*
X70460Y-27727D01*
X70367Y-27702D01*
X70297Y-27773D01*
X70297Y-27632D01*
X70272Y-27539D01*
X70075Y-27470D01*
X69867Y-27481D01*
X69727Y-27539D01*
X69702Y-27632D01*
X70000Y-27929D01*
X70297Y-27632D01*
X70297Y-27773D01*
X70070Y-28000D01*
X70367Y-28297D01*
X70460Y-28272D01*
X70499Y-28162D01*
X70554Y-28297D01*
X70700Y-28442D01*
X70700Y-30375D01*
X70297Y-30778D01*
X70297Y-28367D01*
X70000Y-28070D01*
X69929Y-28141D01*
X69929Y-28000D01*
X69632Y-27702D01*
X69539Y-27727D01*
X69525Y-27768D01*
X69525Y-27675D01*
X69487Y-27583D01*
X69416Y-27513D01*
X69324Y-27475D01*
X69225Y-27474D01*
X68675Y-27474D01*
X68583Y-27512D01*
X68513Y-27583D01*
X68475Y-27675D01*
X68474Y-27774D01*
X68474Y-28324D01*
X68512Y-28416D01*
X68583Y-28486D01*
X68675Y-28524D01*
X68774Y-28525D01*
X69324Y-28525D01*
X69416Y-28487D01*
X69486Y-28416D01*
X69524Y-28324D01*
X69525Y-28237D01*
X69539Y-28272D01*
X69632Y-28297D01*
X69929Y-28000D01*
X69929Y-28141D01*
X69702Y-28367D01*
X69727Y-28460D01*
X69924Y-28529D01*
X70132Y-28518D01*
X70272Y-28460D01*
X70297Y-28367D01*
X70297Y-30778D01*
X70125Y-30950D01*
X67275Y-30950D01*
X67275Y-28396D01*
X67195Y-28203D01*
X67047Y-28055D01*
X66914Y-27999D01*
X67047Y-27945D01*
X67194Y-27797D01*
X67274Y-27604D01*
X67275Y-27396D01*
X67275Y-25896D01*
X67195Y-25703D01*
X67047Y-25555D01*
X66854Y-25475D01*
X66646Y-25474D01*
X66453Y-25554D01*
X66305Y-25702D01*
X66275Y-25774D01*
X66275Y-25675D01*
X66237Y-25583D01*
X66166Y-25513D01*
X66074Y-25475D01*
X65975Y-25474D01*
X65425Y-25474D01*
X65333Y-25512D01*
X65263Y-25583D01*
X65225Y-25675D01*
X65224Y-25774D01*
X65224Y-26100D01*
X64875Y-26450D01*
X64035Y-26450D01*
X64047Y-26445D01*
X64194Y-26297D01*
X64274Y-26104D01*
X64275Y-25896D01*
X64195Y-25703D01*
X64047Y-25555D01*
X63854Y-25475D01*
X63646Y-25474D01*
X63453Y-25554D01*
X63305Y-25702D01*
X63275Y-25774D01*
X63275Y-25675D01*
X63237Y-25583D01*
X63166Y-25513D01*
X63074Y-25475D01*
X62975Y-25474D01*
X62425Y-25474D01*
X62333Y-25512D01*
X62263Y-25583D01*
X62225Y-25675D01*
X62224Y-25774D01*
X62224Y-26324D01*
X62262Y-26416D01*
X62296Y-26450D01*
X61035Y-26450D01*
X61047Y-26445D01*
X61194Y-26297D01*
X61274Y-26104D01*
X61275Y-25896D01*
X61195Y-25703D01*
X61047Y-25555D01*
X60854Y-25475D01*
X60646Y-25474D01*
X60453Y-25554D01*
X60305Y-25702D01*
X60275Y-25774D01*
X60275Y-25675D01*
X60237Y-25583D01*
X60166Y-25513D01*
X60074Y-25475D01*
X59975Y-25474D01*
X59425Y-25474D01*
X59333Y-25512D01*
X59263Y-25583D01*
X59225Y-25675D01*
X59224Y-25774D01*
X59224Y-26324D01*
X59262Y-26416D01*
X59296Y-26450D01*
X58035Y-26450D01*
X58047Y-26445D01*
X58194Y-26297D01*
X58274Y-26104D01*
X58275Y-25896D01*
X58195Y-25703D01*
X58047Y-25555D01*
X57854Y-25475D01*
X57646Y-25474D01*
X57453Y-25554D01*
X57305Y-25702D01*
X57275Y-25774D01*
X57275Y-25675D01*
X57237Y-25583D01*
X57166Y-25513D01*
X57074Y-25475D01*
X56975Y-25474D01*
X56425Y-25474D01*
X56333Y-25512D01*
X56263Y-25583D01*
X56225Y-25675D01*
X56225Y-25700D01*
X54250Y-25700D01*
X53942Y-25700D01*
X53797Y-25555D01*
X53604Y-25475D01*
X53399Y-25474D01*
X51462Y-23537D01*
X51364Y-23472D01*
X51250Y-23450D01*
X26750Y-23450D01*
X26635Y-23472D01*
X26537Y-23537D01*
X25787Y-24287D01*
X25722Y-24385D01*
X25700Y-24500D01*
X25700Y-33375D01*
X25287Y-33787D01*
X25222Y-33885D01*
X25200Y-34000D01*
X25200Y-36057D01*
X25055Y-36202D01*
X24975Y-36395D01*
X24974Y-36603D01*
X25054Y-36797D01*
X25202Y-36944D01*
X25335Y-37000D01*
X25203Y-37054D01*
X25055Y-37202D01*
X24975Y-37395D01*
X24974Y-37603D01*
X25054Y-37797D01*
X25202Y-37944D01*
X25274Y-37974D01*
X25175Y-37974D01*
X25083Y-38012D01*
X25013Y-38083D01*
X24975Y-38175D01*
X24974Y-38274D01*
X24974Y-38824D01*
X25012Y-38916D01*
X25083Y-38986D01*
X25175Y-39024D01*
X25200Y-39024D01*
X25200Y-39557D01*
X25055Y-39702D01*
X24975Y-39895D01*
X24974Y-40103D01*
X25054Y-40297D01*
X25202Y-40444D01*
X25395Y-40524D01*
X25603Y-40525D01*
X25797Y-40445D01*
X25944Y-40297D01*
X25950Y-40285D01*
X25950Y-42375D01*
X25850Y-42475D01*
X25646Y-42474D01*
X25453Y-42554D01*
X25305Y-42702D01*
X25252Y-42828D01*
X25210Y-42727D01*
X25117Y-42702D01*
X25047Y-42773D01*
X25047Y-42632D01*
X25022Y-42539D01*
X24825Y-42470D01*
X24617Y-42481D01*
X24477Y-42539D01*
X24452Y-42632D01*
X24750Y-42929D01*
X25047Y-42632D01*
X25047Y-42773D01*
X24820Y-43000D01*
X25117Y-43297D01*
X25210Y-43272D01*
X25249Y-43162D01*
X25304Y-43297D01*
X25452Y-43444D01*
X25645Y-43524D01*
X25853Y-43525D01*
X26047Y-43445D01*
X26194Y-43297D01*
X26250Y-43164D01*
X26304Y-43297D01*
X26452Y-43444D01*
X26645Y-43524D01*
X26853Y-43525D01*
X27047Y-43445D01*
X27194Y-43297D01*
X27250Y-43164D01*
X27304Y-43297D01*
X27452Y-43444D01*
X27645Y-43524D01*
X27853Y-43525D01*
X28047Y-43445D01*
X28194Y-43297D01*
X28250Y-43164D01*
X28304Y-43297D01*
X28452Y-43444D01*
X28645Y-43524D01*
X28853Y-43525D01*
X29047Y-43445D01*
X29194Y-43297D01*
X29250Y-43164D01*
X29304Y-43297D01*
X29452Y-43444D01*
X29645Y-43524D01*
X29853Y-43525D01*
X30047Y-43445D01*
X30194Y-43297D01*
X30250Y-43164D01*
X30304Y-43297D01*
X30452Y-43444D01*
X30645Y-43524D01*
X30853Y-43525D01*
X31047Y-43445D01*
X31194Y-43297D01*
X31250Y-43164D01*
X31304Y-43297D01*
X31452Y-43444D01*
X31645Y-43524D01*
X31853Y-43525D01*
X32047Y-43445D01*
X32194Y-43297D01*
X32224Y-43225D01*
X32224Y-43324D01*
X32262Y-43416D01*
X32333Y-43486D01*
X32425Y-43524D01*
X32524Y-43525D01*
X33074Y-43525D01*
X33166Y-43487D01*
X33236Y-43416D01*
X33274Y-43324D01*
X33275Y-43225D01*
X33275Y-42675D01*
X33237Y-42583D01*
X33166Y-42513D01*
X33074Y-42475D01*
X32975Y-42474D01*
X32425Y-42474D01*
X32333Y-42512D01*
X32263Y-42583D01*
X32225Y-42675D01*
X32224Y-42774D01*
X32224Y-42774D01*
X32195Y-42703D01*
X32047Y-42555D01*
X31854Y-42475D01*
X31646Y-42474D01*
X31453Y-42554D01*
X31305Y-42702D01*
X31249Y-42835D01*
X31195Y-42703D01*
X31047Y-42555D01*
X30854Y-42475D01*
X30646Y-42474D01*
X30453Y-42554D01*
X30305Y-42702D01*
X30249Y-42835D01*
X30195Y-42703D01*
X30047Y-42555D01*
X29854Y-42475D01*
X29646Y-42474D01*
X29453Y-42554D01*
X29305Y-42702D01*
X29249Y-42835D01*
X29195Y-42703D01*
X29047Y-42555D01*
X28854Y-42475D01*
X28646Y-42474D01*
X28453Y-42554D01*
X28305Y-42702D01*
X28249Y-42835D01*
X28195Y-42703D01*
X28047Y-42555D01*
X27854Y-42475D01*
X27646Y-42474D01*
X27453Y-42554D01*
X27305Y-42702D01*
X27249Y-42835D01*
X27195Y-42703D01*
X27047Y-42555D01*
X26854Y-42475D01*
X26646Y-42474D01*
X26546Y-42515D01*
X26549Y-42500D01*
X26550Y-42500D01*
X26550Y-39675D01*
X26584Y-39675D01*
X26740Y-39610D01*
X26860Y-39491D01*
X26924Y-39334D01*
X26925Y-39165D01*
X26860Y-39009D01*
X26741Y-38889D01*
X26584Y-38825D01*
X26415Y-38824D01*
X26259Y-38889D01*
X26139Y-39008D01*
X26075Y-39165D01*
X26074Y-39250D01*
X26037Y-39287D01*
X25972Y-39385D01*
X25950Y-39500D01*
X25950Y-39714D01*
X25945Y-39703D01*
X25800Y-39557D01*
X25800Y-39025D01*
X25824Y-39025D01*
X25916Y-38987D01*
X25986Y-38916D01*
X26024Y-38824D01*
X26025Y-38725D01*
X26025Y-38175D01*
X25987Y-38083D01*
X25916Y-38013D01*
X25824Y-37975D01*
X25725Y-37974D01*
X25725Y-37974D01*
X25797Y-37945D01*
X25942Y-37800D01*
X26528Y-37800D01*
X26533Y-37811D01*
X26688Y-37965D01*
X26700Y-37970D01*
X26700Y-38500D01*
X26722Y-38614D01*
X26787Y-38712D01*
X27975Y-39899D01*
X27974Y-40103D01*
X28054Y-40297D01*
X28202Y-40444D01*
X28395Y-40524D01*
X28603Y-40525D01*
X28797Y-40445D01*
X28944Y-40297D01*
X29024Y-40104D01*
X29025Y-39896D01*
X28945Y-39703D01*
X28797Y-39555D01*
X28604Y-39475D01*
X28554Y-39475D01*
X28554Y-38581D01*
X28550Y-38488D01*
X28550Y-36391D01*
X28466Y-36188D01*
X28311Y-36034D01*
X28109Y-35950D01*
X28029Y-35950D01*
X28029Y-33575D01*
X28018Y-33367D01*
X27960Y-33227D01*
X27867Y-33202D01*
X27570Y-33500D01*
X27867Y-33797D01*
X27960Y-33772D01*
X28029Y-33575D01*
X28029Y-35950D01*
X28025Y-35950D01*
X28025Y-34396D01*
X27945Y-34203D01*
X27797Y-34055D01*
X27671Y-34002D01*
X27772Y-33960D01*
X27797Y-33867D01*
X27500Y-33570D01*
X27429Y-33641D01*
X27429Y-33500D01*
X27132Y-33202D01*
X27039Y-33227D01*
X26970Y-33424D01*
X26981Y-33632D01*
X27039Y-33772D01*
X27132Y-33797D01*
X27429Y-33500D01*
X27429Y-33641D01*
X27202Y-33867D01*
X27227Y-33960D01*
X27337Y-33999D01*
X27203Y-34054D01*
X27055Y-34202D01*
X26975Y-34395D01*
X26974Y-34603D01*
X27054Y-34797D01*
X27202Y-34944D01*
X27395Y-35024D01*
X27603Y-35025D01*
X27797Y-34945D01*
X27944Y-34797D01*
X28024Y-34604D01*
X28025Y-34396D01*
X28025Y-35950D01*
X27891Y-35949D01*
X27688Y-36033D01*
X27534Y-36188D01*
X27450Y-36390D01*
X27449Y-36608D01*
X27533Y-36811D01*
X27688Y-36965D01*
X27890Y-37049D01*
X28108Y-37050D01*
X28311Y-36966D01*
X28465Y-36811D01*
X28549Y-36609D01*
X28550Y-36391D01*
X28550Y-38488D01*
X28543Y-38363D01*
X28481Y-38212D01*
X28385Y-38184D01*
X28315Y-38255D01*
X28315Y-38114D01*
X28287Y-38018D01*
X28081Y-37945D01*
X27863Y-37956D01*
X27712Y-38018D01*
X27684Y-38114D01*
X28000Y-38429D01*
X28315Y-38114D01*
X28315Y-38255D01*
X28070Y-38500D01*
X28385Y-38815D01*
X28481Y-38787D01*
X28554Y-38581D01*
X28554Y-39475D01*
X28399Y-39474D01*
X27976Y-39051D01*
X28136Y-39043D01*
X28287Y-38981D01*
X28315Y-38885D01*
X28000Y-38570D01*
X27994Y-38576D01*
X27923Y-38505D01*
X27929Y-38500D01*
X27614Y-38184D01*
X27518Y-38212D01*
X27445Y-38418D01*
X27450Y-38526D01*
X27300Y-38375D01*
X27300Y-37971D01*
X27311Y-37966D01*
X27465Y-37811D01*
X27549Y-37609D01*
X27550Y-37391D01*
X27466Y-37188D01*
X27311Y-37034D01*
X27109Y-36950D01*
X26891Y-36949D01*
X26688Y-37033D01*
X26534Y-37188D01*
X26529Y-37200D01*
X25942Y-37200D01*
X25797Y-37055D01*
X25664Y-36999D01*
X25797Y-36945D01*
X25944Y-36797D01*
X26024Y-36604D01*
X26025Y-36396D01*
X25945Y-36203D01*
X25800Y-36057D01*
X25800Y-34124D01*
X26212Y-33712D01*
X26212Y-33712D01*
X26277Y-33614D01*
X26299Y-33500D01*
X26300Y-33500D01*
X26300Y-24624D01*
X26874Y-24050D01*
X27046Y-24050D01*
X27013Y-24083D01*
X26975Y-24175D01*
X26974Y-24274D01*
X26974Y-24824D01*
X27012Y-24916D01*
X27083Y-24986D01*
X27175Y-25024D01*
X27262Y-25025D01*
X27227Y-25039D01*
X27202Y-25132D01*
X27500Y-25429D01*
X27797Y-25132D01*
X27772Y-25039D01*
X27731Y-25025D01*
X27824Y-25025D01*
X27916Y-24987D01*
X27986Y-24916D01*
X28024Y-24824D01*
X28025Y-24725D01*
X28025Y-24175D01*
X27987Y-24083D01*
X27953Y-24050D01*
X51125Y-24050D01*
X52550Y-25475D01*
X52396Y-25474D01*
X52203Y-25554D01*
X52055Y-25702D01*
X52025Y-25774D01*
X52025Y-25675D01*
X51987Y-25583D01*
X51916Y-25513D01*
X51824Y-25475D01*
X51725Y-25474D01*
X51175Y-25474D01*
X51083Y-25512D01*
X51013Y-25583D01*
X50975Y-25675D01*
X50974Y-25774D01*
X50974Y-26324D01*
X51012Y-26416D01*
X51083Y-26486D01*
X51175Y-26524D01*
X51274Y-26525D01*
X51824Y-26525D01*
X51916Y-26487D01*
X51986Y-26416D01*
X52024Y-26324D01*
X52025Y-26225D01*
X52025Y-26225D01*
X52054Y-26297D01*
X52202Y-26444D01*
X52395Y-26524D01*
X52603Y-26525D01*
X52797Y-26445D01*
X52944Y-26297D01*
X53000Y-26164D01*
X53054Y-26297D01*
X53202Y-26444D01*
X53395Y-26524D01*
X53603Y-26525D01*
X53797Y-26445D01*
X53942Y-26300D01*
X54250Y-26300D01*
X56224Y-26300D01*
X56224Y-26324D01*
X56262Y-26416D01*
X56333Y-26486D01*
X56425Y-26524D01*
X56524Y-26525D01*
X56850Y-26525D01*
X57287Y-26962D01*
X57287Y-26962D01*
X57385Y-27027D01*
X57475Y-27045D01*
X57453Y-27054D01*
X57305Y-27202D01*
X57225Y-27395D01*
X57224Y-27603D01*
X57304Y-27797D01*
X57452Y-27944D01*
X57585Y-28000D01*
X57453Y-28054D01*
X57305Y-28202D01*
X57225Y-28395D01*
X57224Y-28603D01*
X57304Y-28797D01*
X57452Y-28944D01*
X57524Y-28974D01*
X57524Y-28974D01*
X57425Y-28975D01*
X57333Y-29013D01*
X57262Y-29083D01*
X57224Y-29175D01*
X57225Y-29387D01*
X57287Y-29450D01*
X57700Y-29450D01*
X57700Y-29442D01*
X57800Y-29442D01*
X57800Y-29450D01*
X57807Y-29450D01*
X57807Y-29550D01*
X57800Y-29550D01*
X57800Y-29962D01*
X57862Y-30025D01*
X57975Y-30025D01*
X58074Y-30024D01*
X58166Y-29986D01*
X58200Y-29953D01*
X58200Y-30122D01*
X58084Y-30075D01*
X57915Y-30074D01*
X57759Y-30139D01*
X57700Y-30198D01*
X57700Y-29962D01*
X57700Y-29550D01*
X57287Y-29550D01*
X57225Y-29612D01*
X57224Y-29824D01*
X57262Y-29916D01*
X57333Y-29986D01*
X57425Y-30024D01*
X57524Y-30025D01*
X57637Y-30025D01*
X57700Y-29962D01*
X57700Y-30198D01*
X57639Y-30258D01*
X57575Y-30415D01*
X57574Y-30584D01*
X57639Y-30740D01*
X57758Y-30860D01*
X57915Y-30924D01*
X58084Y-30925D01*
X58240Y-30860D01*
X58313Y-30787D01*
X58364Y-30777D01*
X58364Y-30777D01*
X58462Y-30712D01*
X58712Y-30462D01*
X58712Y-30462D01*
X58777Y-30364D01*
X58799Y-30250D01*
X58800Y-30250D01*
X58800Y-27624D01*
X58874Y-27550D01*
X59057Y-27550D01*
X59202Y-27694D01*
X59395Y-27774D01*
X59603Y-27775D01*
X59797Y-27695D01*
X59944Y-27547D01*
X60024Y-27354D01*
X60025Y-27146D01*
X59985Y-27050D01*
X60464Y-27050D01*
X60453Y-27054D01*
X60305Y-27202D01*
X60225Y-27395D01*
X60224Y-27603D01*
X60304Y-27797D01*
X60452Y-27944D01*
X60585Y-28000D01*
X60453Y-28054D01*
X60305Y-28202D01*
X60225Y-28395D01*
X60224Y-28603D01*
X60304Y-28797D01*
X60452Y-28944D01*
X60524Y-28974D01*
X60524Y-28974D01*
X60425Y-28975D01*
X60333Y-29013D01*
X60262Y-29083D01*
X60224Y-29175D01*
X60225Y-29387D01*
X60287Y-29450D01*
X60700Y-29450D01*
X60700Y-29442D01*
X60800Y-29442D01*
X60800Y-29450D01*
X60807Y-29450D01*
X60807Y-29550D01*
X60800Y-29550D01*
X60800Y-29962D01*
X60862Y-30025D01*
X60975Y-30025D01*
X61050Y-30024D01*
X61000Y-30075D01*
X60915Y-30074D01*
X60759Y-30139D01*
X60700Y-30198D01*
X60700Y-29962D01*
X60700Y-29550D01*
X60287Y-29550D01*
X60225Y-29612D01*
X60224Y-29824D01*
X60262Y-29916D01*
X60333Y-29986D01*
X60425Y-30024D01*
X60524Y-30025D01*
X60637Y-30025D01*
X60700Y-29962D01*
X60700Y-30198D01*
X60639Y-30258D01*
X60575Y-30415D01*
X60574Y-30584D01*
X60639Y-30740D01*
X60758Y-30860D01*
X60915Y-30924D01*
X61084Y-30925D01*
X61240Y-30860D01*
X61360Y-30741D01*
X61424Y-30584D01*
X61425Y-30499D01*
X61712Y-30212D01*
X61712Y-30212D01*
X61777Y-30114D01*
X61799Y-30000D01*
X61800Y-30000D01*
X61800Y-27624D01*
X61874Y-27550D01*
X62057Y-27550D01*
X62202Y-27694D01*
X62395Y-27774D01*
X62603Y-27775D01*
X62797Y-27695D01*
X62944Y-27547D01*
X63024Y-27354D01*
X63025Y-27146D01*
X62985Y-27050D01*
X63464Y-27050D01*
X63453Y-27054D01*
X63305Y-27202D01*
X63225Y-27395D01*
X63224Y-27603D01*
X63304Y-27797D01*
X63452Y-27944D01*
X63585Y-28000D01*
X63453Y-28054D01*
X63305Y-28202D01*
X63225Y-28395D01*
X63224Y-28603D01*
X63304Y-28797D01*
X63452Y-28944D01*
X63524Y-28974D01*
X63524Y-28974D01*
X63425Y-28975D01*
X63333Y-29013D01*
X63262Y-29083D01*
X63224Y-29175D01*
X63225Y-29387D01*
X63287Y-29450D01*
X63700Y-29450D01*
X63700Y-29442D01*
X63800Y-29442D01*
X63800Y-29450D01*
X64212Y-29450D01*
X64275Y-29387D01*
X64275Y-29175D01*
X64237Y-29083D01*
X64166Y-29013D01*
X64074Y-28975D01*
X63975Y-28974D01*
X63975Y-28974D01*
X64047Y-28945D01*
X64194Y-28797D01*
X64274Y-28604D01*
X64275Y-28396D01*
X64195Y-28203D01*
X64047Y-28055D01*
X63914Y-27999D01*
X64047Y-27945D01*
X64194Y-27797D01*
X64274Y-27604D01*
X64275Y-27396D01*
X64195Y-27203D01*
X64047Y-27055D01*
X64035Y-27050D01*
X64775Y-27050D01*
X64537Y-27287D01*
X64472Y-27385D01*
X64450Y-27500D01*
X64450Y-29875D01*
X64275Y-30050D01*
X64275Y-29824D01*
X64275Y-29612D01*
X64212Y-29550D01*
X63800Y-29550D01*
X63800Y-29962D01*
X63862Y-30025D01*
X63975Y-30025D01*
X64074Y-30024D01*
X64166Y-29986D01*
X64237Y-29916D01*
X64275Y-29824D01*
X64275Y-30050D01*
X64250Y-30075D01*
X64165Y-30074D01*
X64009Y-30139D01*
X63889Y-30258D01*
X63825Y-30415D01*
X63824Y-30584D01*
X63889Y-30740D01*
X64008Y-30860D01*
X64165Y-30924D01*
X64334Y-30925D01*
X64490Y-30860D01*
X64610Y-30741D01*
X64674Y-30584D01*
X64675Y-30499D01*
X64962Y-30212D01*
X64962Y-30212D01*
X64971Y-30198D01*
X64981Y-30382D01*
X65039Y-30522D01*
X65132Y-30547D01*
X65429Y-30250D01*
X65132Y-29952D01*
X65050Y-29974D01*
X65050Y-27624D01*
X65090Y-27583D01*
X65202Y-27694D01*
X65395Y-27774D01*
X65603Y-27775D01*
X65797Y-27695D01*
X65944Y-27547D01*
X66024Y-27354D01*
X66025Y-27146D01*
X65945Y-26953D01*
X65797Y-26805D01*
X65604Y-26725D01*
X65449Y-26724D01*
X65649Y-26525D01*
X66074Y-26525D01*
X66166Y-26487D01*
X66236Y-26416D01*
X66274Y-26324D01*
X66275Y-26225D01*
X66275Y-26225D01*
X66304Y-26297D01*
X66452Y-26444D01*
X66645Y-26524D01*
X66853Y-26525D01*
X67047Y-26445D01*
X67194Y-26297D01*
X67274Y-26104D01*
X67275Y-25896D01*
X67275Y-27396D01*
X67195Y-27203D01*
X67047Y-27055D01*
X66854Y-26975D01*
X66646Y-26974D01*
X66453Y-27054D01*
X66305Y-27202D01*
X66225Y-27395D01*
X66224Y-27603D01*
X66304Y-27797D01*
X66452Y-27944D01*
X66585Y-28000D01*
X66453Y-28054D01*
X66305Y-28202D01*
X66225Y-28395D01*
X66224Y-28603D01*
X66304Y-28797D01*
X66452Y-28944D01*
X66524Y-28974D01*
X66524Y-28974D01*
X66425Y-28975D01*
X66333Y-29013D01*
X66262Y-29083D01*
X66224Y-29175D01*
X66225Y-29387D01*
X66287Y-29450D01*
X66700Y-29450D01*
X66700Y-29442D01*
X66800Y-29442D01*
X66800Y-29450D01*
X67212Y-29450D01*
X67275Y-29387D01*
X67275Y-29175D01*
X67237Y-29083D01*
X67166Y-29013D01*
X67074Y-28975D01*
X66975Y-28974D01*
X66975Y-28974D01*
X67047Y-28945D01*
X67194Y-28797D01*
X67274Y-28604D01*
X67275Y-28396D01*
X67275Y-30950D01*
X67275Y-30950D01*
X67275Y-29824D01*
X67275Y-29612D01*
X67212Y-29550D01*
X66800Y-29550D01*
X66800Y-29962D01*
X66862Y-30025D01*
X66975Y-30025D01*
X67074Y-30024D01*
X67166Y-29986D01*
X67237Y-29916D01*
X67275Y-29824D01*
X67275Y-30950D01*
X66700Y-30950D01*
X66700Y-29962D01*
X66700Y-29550D01*
X66287Y-29550D01*
X66225Y-29612D01*
X66224Y-29824D01*
X66262Y-29916D01*
X66333Y-29986D01*
X66425Y-30024D01*
X66524Y-30025D01*
X66637Y-30025D01*
X66700Y-29962D01*
X66700Y-30950D01*
X66029Y-30950D01*
X66029Y-30325D01*
X66018Y-30117D01*
X65960Y-29977D01*
X65867Y-29952D01*
X65797Y-30023D01*
X65797Y-29882D01*
X65772Y-29789D01*
X65575Y-29720D01*
X65367Y-29731D01*
X65227Y-29789D01*
X65202Y-29882D01*
X65500Y-30179D01*
X65797Y-29882D01*
X65797Y-30023D01*
X65570Y-30250D01*
X65867Y-30547D01*
X65960Y-30522D01*
X66029Y-30325D01*
X66029Y-30950D01*
X65797Y-30950D01*
X65797Y-30617D01*
X65500Y-30320D01*
X65202Y-30617D01*
X65227Y-30710D01*
X65424Y-30779D01*
X65632Y-30768D01*
X65772Y-30710D01*
X65797Y-30617D01*
X65797Y-30950D01*
X63700Y-30950D01*
X63700Y-29962D01*
X63700Y-29550D01*
X63287Y-29550D01*
X63225Y-29612D01*
X63224Y-29824D01*
X63262Y-29916D01*
X63333Y-29986D01*
X63425Y-30024D01*
X63524Y-30025D01*
X63637Y-30025D01*
X63700Y-29962D01*
X63700Y-30950D01*
X63029Y-30950D01*
X63029Y-30325D01*
X63018Y-30117D01*
X62960Y-29977D01*
X62867Y-29952D01*
X62797Y-30023D01*
X62797Y-29882D01*
X62772Y-29789D01*
X62575Y-29720D01*
X62367Y-29731D01*
X62227Y-29789D01*
X62202Y-29882D01*
X62500Y-30179D01*
X62797Y-29882D01*
X62797Y-30023D01*
X62570Y-30250D01*
X62867Y-30547D01*
X62960Y-30522D01*
X63029Y-30325D01*
X63029Y-30950D01*
X62797Y-30950D01*
X62797Y-30617D01*
X62500Y-30320D01*
X62429Y-30391D01*
X62429Y-30250D01*
X62132Y-29952D01*
X62039Y-29977D01*
X61970Y-30174D01*
X61981Y-30382D01*
X62039Y-30522D01*
X62132Y-30547D01*
X62429Y-30250D01*
X62429Y-30391D01*
X62202Y-30617D01*
X62227Y-30710D01*
X62424Y-30779D01*
X62632Y-30768D01*
X62772Y-30710D01*
X62797Y-30617D01*
X62797Y-30950D01*
X60029Y-30950D01*
X60029Y-30325D01*
X60018Y-30117D01*
X59960Y-29977D01*
X59867Y-29952D01*
X59797Y-30023D01*
X59797Y-29882D01*
X59772Y-29789D01*
X59575Y-29720D01*
X59367Y-29731D01*
X59227Y-29789D01*
X59202Y-29882D01*
X59500Y-30179D01*
X59797Y-29882D01*
X59797Y-30023D01*
X59570Y-30250D01*
X59867Y-30547D01*
X59960Y-30522D01*
X60029Y-30325D01*
X60029Y-30950D01*
X59797Y-30950D01*
X59797Y-30617D01*
X59500Y-30320D01*
X59429Y-30391D01*
X59429Y-30250D01*
X59132Y-29952D01*
X59039Y-29977D01*
X58970Y-30174D01*
X58981Y-30382D01*
X59039Y-30522D01*
X59132Y-30547D01*
X59429Y-30250D01*
X59429Y-30391D01*
X59202Y-30617D01*
X59227Y-30710D01*
X59424Y-30779D01*
X59632Y-30768D01*
X59772Y-30710D01*
X59797Y-30617D01*
X59797Y-30950D01*
X57029Y-30950D01*
X57029Y-30325D01*
X57025Y-30237D01*
X57025Y-27146D01*
X56945Y-26953D01*
X56797Y-26805D01*
X56604Y-26725D01*
X56396Y-26724D01*
X56203Y-26804D01*
X56055Y-26952D01*
X55975Y-27145D01*
X55974Y-27353D01*
X56054Y-27547D01*
X56202Y-27694D01*
X56395Y-27774D01*
X56603Y-27775D01*
X56797Y-27695D01*
X56944Y-27547D01*
X57024Y-27354D01*
X57025Y-27146D01*
X57025Y-30237D01*
X57018Y-30117D01*
X56960Y-29977D01*
X56867Y-29952D01*
X56797Y-30023D01*
X56797Y-29882D01*
X56772Y-29789D01*
X56575Y-29720D01*
X56367Y-29731D01*
X56227Y-29789D01*
X56202Y-29882D01*
X56500Y-30179D01*
X56797Y-29882D01*
X56797Y-30023D01*
X56570Y-30250D01*
X56867Y-30547D01*
X56960Y-30522D01*
X57029Y-30325D01*
X57029Y-30950D01*
X56797Y-30950D01*
X56797Y-30617D01*
X56500Y-30320D01*
X56429Y-30391D01*
X56429Y-30250D01*
X56132Y-29952D01*
X56039Y-29977D01*
X55970Y-30174D01*
X55981Y-30382D01*
X56039Y-30522D01*
X56132Y-30547D01*
X56429Y-30250D01*
X56429Y-30391D01*
X56202Y-30617D01*
X56227Y-30710D01*
X56424Y-30779D01*
X56632Y-30768D01*
X56772Y-30710D01*
X56797Y-30617D01*
X56797Y-30950D01*
X54050Y-30950D01*
X54050Y-28391D01*
X53966Y-28188D01*
X53811Y-28034D01*
X53609Y-27950D01*
X53391Y-27949D01*
X53188Y-28033D01*
X53050Y-28171D01*
X53050Y-27391D01*
X52966Y-27188D01*
X52811Y-27034D01*
X52609Y-26950D01*
X52391Y-26949D01*
X52188Y-27033D01*
X52034Y-27188D01*
X51950Y-27390D01*
X51949Y-27608D01*
X52033Y-27811D01*
X52188Y-27965D01*
X52390Y-28049D01*
X52608Y-28050D01*
X52811Y-27966D01*
X52965Y-27811D01*
X53049Y-27609D01*
X53050Y-27391D01*
X53050Y-28171D01*
X53034Y-28188D01*
X52950Y-28390D01*
X52949Y-28608D01*
X53033Y-28811D01*
X53188Y-28965D01*
X53390Y-29049D01*
X53608Y-29050D01*
X53811Y-28966D01*
X53965Y-28811D01*
X54049Y-28609D01*
X54050Y-28391D01*
X54050Y-30950D01*
X52054Y-30950D01*
X52054Y-28581D01*
X52043Y-28363D01*
X51981Y-28212D01*
X51885Y-28184D01*
X51815Y-28255D01*
X51815Y-28114D01*
X51787Y-28018D01*
X51581Y-27945D01*
X51363Y-27956D01*
X51212Y-28018D01*
X51184Y-28114D01*
X51500Y-28429D01*
X51815Y-28114D01*
X51815Y-28255D01*
X51570Y-28500D01*
X51885Y-28815D01*
X51981Y-28787D01*
X52054Y-28581D01*
X52054Y-30950D01*
X51815Y-30950D01*
X51815Y-28885D01*
X51500Y-28570D01*
X51429Y-28641D01*
X51429Y-28500D01*
X51114Y-28184D01*
X51018Y-28212D01*
X50945Y-28418D01*
X50956Y-28636D01*
X51018Y-28787D01*
X51114Y-28815D01*
X51429Y-28500D01*
X51429Y-28641D01*
X51184Y-28885D01*
X51212Y-28981D01*
X51418Y-29054D01*
X51636Y-29043D01*
X51787Y-28981D01*
X51815Y-28885D01*
X51815Y-30950D01*
X50775Y-30950D01*
X50775Y-28396D01*
X50775Y-25396D01*
X50695Y-25203D01*
X50547Y-25055D01*
X50354Y-24975D01*
X50146Y-24974D01*
X49953Y-25054D01*
X49805Y-25202D01*
X49725Y-25395D01*
X49724Y-25603D01*
X49804Y-25797D01*
X49952Y-25944D01*
X50145Y-26024D01*
X50353Y-26025D01*
X50547Y-25945D01*
X50694Y-25797D01*
X50774Y-25604D01*
X50775Y-25396D01*
X50775Y-28396D01*
X50695Y-28203D01*
X50547Y-28055D01*
X50354Y-27975D01*
X50146Y-27974D01*
X49953Y-28054D01*
X49805Y-28202D01*
X49725Y-28395D01*
X49724Y-28603D01*
X49804Y-28797D01*
X49952Y-28944D01*
X50145Y-29024D01*
X50353Y-29025D01*
X50547Y-28945D01*
X50694Y-28797D01*
X50774Y-28604D01*
X50775Y-28396D01*
X50775Y-30950D01*
X50500Y-30950D01*
X50385Y-30972D01*
X50287Y-31037D01*
X49537Y-31787D01*
X49525Y-31806D01*
X49525Y-26896D01*
X49445Y-26703D01*
X49297Y-26555D01*
X49104Y-26475D01*
X49029Y-26475D01*
X49029Y-25075D01*
X49018Y-24867D01*
X48960Y-24727D01*
X48867Y-24702D01*
X48797Y-24773D01*
X48797Y-24632D01*
X48772Y-24539D01*
X48575Y-24470D01*
X48367Y-24481D01*
X48227Y-24539D01*
X48202Y-24632D01*
X48500Y-24929D01*
X48797Y-24632D01*
X48797Y-24773D01*
X48570Y-25000D01*
X48867Y-25297D01*
X48960Y-25272D01*
X49029Y-25075D01*
X49029Y-26475D01*
X48896Y-26474D01*
X48797Y-26515D01*
X48797Y-25367D01*
X48500Y-25070D01*
X48202Y-25367D01*
X48227Y-25460D01*
X48424Y-25529D01*
X48632Y-25518D01*
X48772Y-25460D01*
X48797Y-25367D01*
X48797Y-26515D01*
X48703Y-26554D01*
X48555Y-26702D01*
X48499Y-26835D01*
X48445Y-26703D01*
X48297Y-26555D01*
X48104Y-26475D01*
X47896Y-26474D01*
X47703Y-26554D01*
X47555Y-26702D01*
X47499Y-26835D01*
X47445Y-26703D01*
X47333Y-26590D01*
X47712Y-26212D01*
X47712Y-26212D01*
X47777Y-26114D01*
X47799Y-26000D01*
X47800Y-26000D01*
X47800Y-25442D01*
X47944Y-25297D01*
X47997Y-25171D01*
X48039Y-25272D01*
X48132Y-25297D01*
X48429Y-25000D01*
X48132Y-24702D01*
X48039Y-24727D01*
X48000Y-24837D01*
X47945Y-24703D01*
X47797Y-24555D01*
X47604Y-24475D01*
X47396Y-24474D01*
X47203Y-24554D01*
X47055Y-24702D01*
X46975Y-24895D01*
X46974Y-25103D01*
X47054Y-25297D01*
X47200Y-25442D01*
X47200Y-25875D01*
X46787Y-26287D01*
X46722Y-26385D01*
X46700Y-26500D01*
X46700Y-26557D01*
X46555Y-26702D01*
X46525Y-26774D01*
X46525Y-26774D01*
X46525Y-25225D01*
X46525Y-24675D01*
X46487Y-24583D01*
X46416Y-24513D01*
X46324Y-24475D01*
X46225Y-24474D01*
X45675Y-24474D01*
X45583Y-24512D01*
X45513Y-24583D01*
X45475Y-24675D01*
X45474Y-24762D01*
X45460Y-24727D01*
X45367Y-24702D01*
X45297Y-24773D01*
X45297Y-24632D01*
X45272Y-24539D01*
X45075Y-24470D01*
X44867Y-24481D01*
X44727Y-24539D01*
X44702Y-24632D01*
X45000Y-24929D01*
X45297Y-24632D01*
X45297Y-24773D01*
X45070Y-25000D01*
X45367Y-25297D01*
X45460Y-25272D01*
X45474Y-25231D01*
X45474Y-25324D01*
X45512Y-25416D01*
X45583Y-25486D01*
X45675Y-25524D01*
X45774Y-25525D01*
X46324Y-25525D01*
X46416Y-25487D01*
X46486Y-25416D01*
X46524Y-25324D01*
X46525Y-25225D01*
X46525Y-26774D01*
X46524Y-26675D01*
X46486Y-26583D01*
X46416Y-26512D01*
X46324Y-26474D01*
X46112Y-26475D01*
X46050Y-26537D01*
X46050Y-26950D01*
X46057Y-26950D01*
X46057Y-27050D01*
X46050Y-27050D01*
X46050Y-27462D01*
X46112Y-27525D01*
X46324Y-27525D01*
X46416Y-27487D01*
X46486Y-27416D01*
X46524Y-27324D01*
X46525Y-27225D01*
X46525Y-27225D01*
X46554Y-27297D01*
X46700Y-27442D01*
X46700Y-28057D01*
X46555Y-28202D01*
X46502Y-28328D01*
X46460Y-28227D01*
X46367Y-28202D01*
X46297Y-28273D01*
X46297Y-28132D01*
X46272Y-28039D01*
X46075Y-27970D01*
X45950Y-27976D01*
X45950Y-27462D01*
X45950Y-27050D01*
X45950Y-26950D01*
X45950Y-26537D01*
X45887Y-26475D01*
X45675Y-26474D01*
X45583Y-26512D01*
X45513Y-26583D01*
X45475Y-26675D01*
X45474Y-26774D01*
X45475Y-26887D01*
X45537Y-26950D01*
X45950Y-26950D01*
X45950Y-27050D01*
X45537Y-27050D01*
X45475Y-27112D01*
X45474Y-27225D01*
X45475Y-27324D01*
X45513Y-27416D01*
X45583Y-27487D01*
X45675Y-27525D01*
X45887Y-27525D01*
X45950Y-27462D01*
X45950Y-27976D01*
X45867Y-27981D01*
X45727Y-28039D01*
X45702Y-28132D01*
X46000Y-28429D01*
X46297Y-28132D01*
X46297Y-28273D01*
X46070Y-28500D01*
X46367Y-28797D01*
X46460Y-28772D01*
X46499Y-28662D01*
X46554Y-28797D01*
X46702Y-28944D01*
X46895Y-29024D01*
X47103Y-29025D01*
X47297Y-28945D01*
X47444Y-28797D01*
X47500Y-28664D01*
X47554Y-28797D01*
X47702Y-28944D01*
X47895Y-29024D01*
X48103Y-29025D01*
X48297Y-28945D01*
X48444Y-28797D01*
X48474Y-28725D01*
X48474Y-28824D01*
X48512Y-28916D01*
X48583Y-28986D01*
X48675Y-29024D01*
X48774Y-29025D01*
X49324Y-29025D01*
X49416Y-28987D01*
X49486Y-28916D01*
X49524Y-28824D01*
X49525Y-28725D01*
X49525Y-28175D01*
X49487Y-28083D01*
X49416Y-28013D01*
X49324Y-27975D01*
X49300Y-27975D01*
X49300Y-27442D01*
X49444Y-27297D01*
X49524Y-27104D01*
X49525Y-26896D01*
X49525Y-31806D01*
X49472Y-31885D01*
X49450Y-32000D01*
X49450Y-34214D01*
X49445Y-34203D01*
X49297Y-34055D01*
X49104Y-33975D01*
X48896Y-33974D01*
X48703Y-34054D01*
X48555Y-34202D01*
X48502Y-34328D01*
X48460Y-34227D01*
X48367Y-34202D01*
X48297Y-34273D01*
X48297Y-34132D01*
X48272Y-34039D01*
X48075Y-33970D01*
X47867Y-33981D01*
X47727Y-34039D01*
X47702Y-34132D01*
X48000Y-34429D01*
X48297Y-34132D01*
X48297Y-34273D01*
X48070Y-34500D01*
X48076Y-34505D01*
X48005Y-34576D01*
X48000Y-34570D01*
X47994Y-34576D01*
X47923Y-34505D01*
X47929Y-34500D01*
X47632Y-34202D01*
X47539Y-34227D01*
X47500Y-34337D01*
X47445Y-34203D01*
X47297Y-34055D01*
X47104Y-33975D01*
X46896Y-33974D01*
X46703Y-34054D01*
X46555Y-34202D01*
X46499Y-34335D01*
X46445Y-34203D01*
X46297Y-34055D01*
X46297Y-34054D01*
X46297Y-28867D01*
X46000Y-28570D01*
X45929Y-28641D01*
X45929Y-28500D01*
X45632Y-28202D01*
X45539Y-28227D01*
X45500Y-28337D01*
X45445Y-28203D01*
X45297Y-28055D01*
X45297Y-28054D01*
X45297Y-25367D01*
X45000Y-25070D01*
X44929Y-25141D01*
X44929Y-25000D01*
X44632Y-24702D01*
X44539Y-24727D01*
X44500Y-24837D01*
X44445Y-24703D01*
X44297Y-24555D01*
X44104Y-24475D01*
X43896Y-24474D01*
X43703Y-24554D01*
X43555Y-24702D01*
X43499Y-24835D01*
X43445Y-24703D01*
X43297Y-24555D01*
X43104Y-24475D01*
X42896Y-24474D01*
X42703Y-24554D01*
X42555Y-24702D01*
X42499Y-24835D01*
X42445Y-24703D01*
X42297Y-24555D01*
X42104Y-24475D01*
X41896Y-24474D01*
X41703Y-24554D01*
X41555Y-24702D01*
X41499Y-24835D01*
X41445Y-24703D01*
X41297Y-24555D01*
X41104Y-24475D01*
X40896Y-24474D01*
X40703Y-24554D01*
X40555Y-24702D01*
X40499Y-24835D01*
X40445Y-24703D01*
X40297Y-24555D01*
X40104Y-24475D01*
X39896Y-24474D01*
X39703Y-24554D01*
X39555Y-24702D01*
X39475Y-24895D01*
X39474Y-25103D01*
X39554Y-25297D01*
X39702Y-25444D01*
X39895Y-25524D01*
X40103Y-25525D01*
X40297Y-25445D01*
X40444Y-25297D01*
X40500Y-25164D01*
X40554Y-25297D01*
X40702Y-25444D01*
X40895Y-25524D01*
X41103Y-25525D01*
X41297Y-25445D01*
X41444Y-25297D01*
X41500Y-25164D01*
X41554Y-25297D01*
X41702Y-25444D01*
X41895Y-25524D01*
X42103Y-25525D01*
X42297Y-25445D01*
X42444Y-25297D01*
X42500Y-25164D01*
X42554Y-25297D01*
X42702Y-25444D01*
X42895Y-25524D01*
X43103Y-25525D01*
X43297Y-25445D01*
X43444Y-25297D01*
X43500Y-25164D01*
X43554Y-25297D01*
X43702Y-25444D01*
X43895Y-25524D01*
X44103Y-25525D01*
X44297Y-25445D01*
X44444Y-25297D01*
X44497Y-25171D01*
X44539Y-25272D01*
X44632Y-25297D01*
X44929Y-25000D01*
X44929Y-25141D01*
X44702Y-25367D01*
X44727Y-25460D01*
X44924Y-25529D01*
X45132Y-25518D01*
X45272Y-25460D01*
X45297Y-25367D01*
X45297Y-28054D01*
X45104Y-27975D01*
X44896Y-27974D01*
X44703Y-28054D01*
X44555Y-28202D01*
X44499Y-28335D01*
X44445Y-28203D01*
X44297Y-28055D01*
X44104Y-27975D01*
X43896Y-27974D01*
X43703Y-28054D01*
X43555Y-28202D01*
X43499Y-28335D01*
X43445Y-28203D01*
X43297Y-28055D01*
X43104Y-27975D01*
X42896Y-27974D01*
X42703Y-28054D01*
X42555Y-28202D01*
X42499Y-28335D01*
X42445Y-28203D01*
X42297Y-28055D01*
X42104Y-27975D01*
X41896Y-27974D01*
X41703Y-28054D01*
X41555Y-28202D01*
X41499Y-28335D01*
X41445Y-28203D01*
X41297Y-28055D01*
X41104Y-27975D01*
X40896Y-27974D01*
X40703Y-28054D01*
X40555Y-28202D01*
X40499Y-28335D01*
X40445Y-28203D01*
X40297Y-28055D01*
X40104Y-27975D01*
X39896Y-27974D01*
X39703Y-28054D01*
X39555Y-28202D01*
X39499Y-28335D01*
X39445Y-28203D01*
X39297Y-28055D01*
X39104Y-27975D01*
X39025Y-27975D01*
X39025Y-24896D01*
X38945Y-24703D01*
X38797Y-24555D01*
X38604Y-24475D01*
X38396Y-24474D01*
X38203Y-24554D01*
X38055Y-24702D01*
X38002Y-24828D01*
X37960Y-24727D01*
X37867Y-24702D01*
X37797Y-24773D01*
X37797Y-24632D01*
X37772Y-24539D01*
X37575Y-24470D01*
X37367Y-24481D01*
X37227Y-24539D01*
X37202Y-24632D01*
X37500Y-24929D01*
X37797Y-24632D01*
X37797Y-24773D01*
X37570Y-25000D01*
X37867Y-25297D01*
X37960Y-25272D01*
X37999Y-25162D01*
X38054Y-25297D01*
X38202Y-25444D01*
X38395Y-25524D01*
X38603Y-25525D01*
X38797Y-25445D01*
X38944Y-25297D01*
X39024Y-25104D01*
X39025Y-24896D01*
X39025Y-27975D01*
X38896Y-27974D01*
X38703Y-28054D01*
X38555Y-28202D01*
X38499Y-28335D01*
X38445Y-28203D01*
X38297Y-28055D01*
X38104Y-27975D01*
X37896Y-27974D01*
X37797Y-28015D01*
X37797Y-25367D01*
X37500Y-25070D01*
X37429Y-25141D01*
X37429Y-25000D01*
X37132Y-24702D01*
X37039Y-24727D01*
X37025Y-24768D01*
X37025Y-24675D01*
X36987Y-24583D01*
X36916Y-24513D01*
X36824Y-24475D01*
X36725Y-24474D01*
X36175Y-24474D01*
X36083Y-24512D01*
X36013Y-24583D01*
X35975Y-24675D01*
X35974Y-24774D01*
X35974Y-25324D01*
X36012Y-25416D01*
X36083Y-25486D01*
X36175Y-25524D01*
X36274Y-25525D01*
X36824Y-25525D01*
X36916Y-25487D01*
X36986Y-25416D01*
X37024Y-25324D01*
X37025Y-25237D01*
X37039Y-25272D01*
X37132Y-25297D01*
X37429Y-25000D01*
X37429Y-25141D01*
X37202Y-25367D01*
X37227Y-25460D01*
X37424Y-25529D01*
X37632Y-25518D01*
X37772Y-25460D01*
X37797Y-25367D01*
X37797Y-28015D01*
X37703Y-28054D01*
X37622Y-28135D01*
X37622Y-27236D01*
X37622Y-26970D01*
X37531Y-26782D01*
X37376Y-26643D01*
X37236Y-26584D01*
X37153Y-26633D01*
X37153Y-27053D01*
X37573Y-27053D01*
X37622Y-26970D01*
X37622Y-27236D01*
X37573Y-27153D01*
X37153Y-27153D01*
X37153Y-27573D01*
X37236Y-27622D01*
X37424Y-27531D01*
X37564Y-27376D01*
X37622Y-27236D01*
X37622Y-28135D01*
X37555Y-28202D01*
X37499Y-28335D01*
X37445Y-28203D01*
X37297Y-28055D01*
X37104Y-27975D01*
X37097Y-27975D01*
X37097Y-27027D01*
X37053Y-26982D01*
X37053Y-26633D01*
X36970Y-26584D01*
X36865Y-26635D01*
X36921Y-26501D01*
X36921Y-26292D01*
X36841Y-26099D01*
X36694Y-25951D01*
X36501Y-25871D01*
X36292Y-25871D01*
X36099Y-25951D01*
X35951Y-26098D01*
X35871Y-26291D01*
X35871Y-26500D01*
X35951Y-26693D01*
X36098Y-26841D01*
X36291Y-26921D01*
X36500Y-26921D01*
X36627Y-26869D01*
X36584Y-26970D01*
X36633Y-27053D01*
X36982Y-27053D01*
X37027Y-27097D01*
X37053Y-27071D01*
X37097Y-27027D01*
X37097Y-27975D01*
X37053Y-27975D01*
X37053Y-27573D01*
X37053Y-27153D01*
X36633Y-27153D01*
X36584Y-27236D01*
X36675Y-27424D01*
X36830Y-27564D01*
X36970Y-27622D01*
X37053Y-27573D01*
X37053Y-27975D01*
X36896Y-27974D01*
X36703Y-28054D01*
X36555Y-28202D01*
X36499Y-28335D01*
X36445Y-28203D01*
X36297Y-28055D01*
X36104Y-27975D01*
X35896Y-27974D01*
X35703Y-28054D01*
X35555Y-28202D01*
X35525Y-28274D01*
X35525Y-24896D01*
X35445Y-24703D01*
X35297Y-24555D01*
X35104Y-24475D01*
X34896Y-24474D01*
X34703Y-24554D01*
X34555Y-24702D01*
X34525Y-24774D01*
X34525Y-24675D01*
X34487Y-24583D01*
X34416Y-24513D01*
X34324Y-24475D01*
X34225Y-24474D01*
X33675Y-24474D01*
X33583Y-24512D01*
X33513Y-24583D01*
X33475Y-24675D01*
X33474Y-24774D01*
X33474Y-25324D01*
X33512Y-25416D01*
X33583Y-25486D01*
X33675Y-25524D01*
X33774Y-25525D01*
X34324Y-25525D01*
X34416Y-25487D01*
X34486Y-25416D01*
X34524Y-25324D01*
X34525Y-25225D01*
X34525Y-25225D01*
X34554Y-25297D01*
X34702Y-25444D01*
X34895Y-25524D01*
X35103Y-25525D01*
X35297Y-25445D01*
X35444Y-25297D01*
X35524Y-25104D01*
X35525Y-24896D01*
X35525Y-28274D01*
X35499Y-28335D01*
X35445Y-28203D01*
X35297Y-28055D01*
X35104Y-27975D01*
X34896Y-27974D01*
X34703Y-28054D01*
X34555Y-28202D01*
X34499Y-28335D01*
X34445Y-28203D01*
X34297Y-28055D01*
X34104Y-27975D01*
X33896Y-27974D01*
X33703Y-28054D01*
X33555Y-28202D01*
X33499Y-28335D01*
X33445Y-28203D01*
X33297Y-28055D01*
X33104Y-27975D01*
X32896Y-27974D01*
X32703Y-28054D01*
X32555Y-28202D01*
X32499Y-28335D01*
X32445Y-28203D01*
X32297Y-28055D01*
X32104Y-27975D01*
X31896Y-27974D01*
X31703Y-28054D01*
X31555Y-28202D01*
X31499Y-28335D01*
X31445Y-28203D01*
X31297Y-28055D01*
X31104Y-27975D01*
X30896Y-27974D01*
X30703Y-28054D01*
X30555Y-28202D01*
X30499Y-28335D01*
X30445Y-28203D01*
X30297Y-28055D01*
X30104Y-27975D01*
X29896Y-27974D01*
X29703Y-28054D01*
X29555Y-28202D01*
X29475Y-28395D01*
X29474Y-28603D01*
X29554Y-28797D01*
X29700Y-28942D01*
X29700Y-29375D01*
X28029Y-31045D01*
X28029Y-25575D01*
X28018Y-25367D01*
X27960Y-25227D01*
X27867Y-25202D01*
X27570Y-25500D01*
X27867Y-25797D01*
X27960Y-25772D01*
X28029Y-25575D01*
X28029Y-31045D01*
X28025Y-31050D01*
X28025Y-30396D01*
X27945Y-30203D01*
X27797Y-30055D01*
X27664Y-29999D01*
X27797Y-29945D01*
X27944Y-29797D01*
X28024Y-29604D01*
X28025Y-29396D01*
X27945Y-29203D01*
X27797Y-29055D01*
X27664Y-28999D01*
X27797Y-28945D01*
X27944Y-28797D01*
X28024Y-28604D01*
X28025Y-28396D01*
X27945Y-28203D01*
X27797Y-28055D01*
X27664Y-27999D01*
X27797Y-27945D01*
X27944Y-27797D01*
X28024Y-27604D01*
X28025Y-27396D01*
X27945Y-27203D01*
X27797Y-27055D01*
X27664Y-26999D01*
X27797Y-26945D01*
X27944Y-26797D01*
X28024Y-26604D01*
X28025Y-26396D01*
X27945Y-26203D01*
X27797Y-26055D01*
X27671Y-26002D01*
X27772Y-25960D01*
X27797Y-25867D01*
X27500Y-25570D01*
X27429Y-25641D01*
X27429Y-25500D01*
X27132Y-25202D01*
X27039Y-25227D01*
X26970Y-25424D01*
X26981Y-25632D01*
X27039Y-25772D01*
X27132Y-25797D01*
X27429Y-25500D01*
X27429Y-25641D01*
X27202Y-25867D01*
X27227Y-25960D01*
X27337Y-25999D01*
X27203Y-26054D01*
X27055Y-26202D01*
X26975Y-26395D01*
X26974Y-26603D01*
X27054Y-26797D01*
X27202Y-26944D01*
X27335Y-27000D01*
X27203Y-27054D01*
X27055Y-27202D01*
X26975Y-27395D01*
X26974Y-27603D01*
X27054Y-27797D01*
X27202Y-27944D01*
X27335Y-28000D01*
X27203Y-28054D01*
X27055Y-28202D01*
X26975Y-28395D01*
X26974Y-28603D01*
X27054Y-28797D01*
X27202Y-28944D01*
X27335Y-29000D01*
X27203Y-29054D01*
X27055Y-29202D01*
X26975Y-29395D01*
X26974Y-29603D01*
X27054Y-29797D01*
X27202Y-29944D01*
X27335Y-30000D01*
X27203Y-30054D01*
X27055Y-30202D01*
X26975Y-30395D01*
X26974Y-30603D01*
X27054Y-30797D01*
X27202Y-30944D01*
X27395Y-31024D01*
X27603Y-31025D01*
X27797Y-30945D01*
X27944Y-30797D01*
X28024Y-30604D01*
X28025Y-30396D01*
X28025Y-31050D01*
X27287Y-31787D01*
X27222Y-31885D01*
X27204Y-31974D01*
X27175Y-31974D01*
X27083Y-32012D01*
X27013Y-32083D01*
X26975Y-32175D01*
X26974Y-32274D01*
X26974Y-32824D01*
X27012Y-32916D01*
X27083Y-32986D01*
X27175Y-33024D01*
X27262Y-33025D01*
X27227Y-33039D01*
X27202Y-33132D01*
X27500Y-33429D01*
X27797Y-33132D01*
X27772Y-33039D01*
X27731Y-33025D01*
X27824Y-33025D01*
X27916Y-32987D01*
X27986Y-32916D01*
X28024Y-32824D01*
X28025Y-32725D01*
X28025Y-32175D01*
X27987Y-32083D01*
X27916Y-32013D01*
X27912Y-32011D01*
X29700Y-30224D01*
X29700Y-30750D01*
X29700Y-31057D01*
X29555Y-31202D01*
X29475Y-31395D01*
X29474Y-31603D01*
X29554Y-31797D01*
X29702Y-31944D01*
X29828Y-31997D01*
X29727Y-32039D01*
X29702Y-32132D01*
X30000Y-32429D01*
X30297Y-32132D01*
X30272Y-32039D01*
X30162Y-32000D01*
X30297Y-31945D01*
X30444Y-31797D01*
X30524Y-31604D01*
X30525Y-31396D01*
X30445Y-31203D01*
X30300Y-31057D01*
X30300Y-30874D01*
X30399Y-30774D01*
X30603Y-30775D01*
X30797Y-30695D01*
X30944Y-30547D01*
X31024Y-30354D01*
X31025Y-30146D01*
X30945Y-29953D01*
X30797Y-29805D01*
X30604Y-29725D01*
X30396Y-29724D01*
X30300Y-29764D01*
X30300Y-29500D01*
X30300Y-28942D01*
X30444Y-28797D01*
X30500Y-28664D01*
X30554Y-28797D01*
X30702Y-28944D01*
X30895Y-29024D01*
X31103Y-29025D01*
X31297Y-28945D01*
X31444Y-28797D01*
X31500Y-28664D01*
X31554Y-28797D01*
X31702Y-28944D01*
X31895Y-29024D01*
X32103Y-29025D01*
X32297Y-28945D01*
X32444Y-28797D01*
X32500Y-28664D01*
X32554Y-28797D01*
X32702Y-28944D01*
X32895Y-29024D01*
X33103Y-29025D01*
X33297Y-28945D01*
X33444Y-28797D01*
X33500Y-28664D01*
X33554Y-28797D01*
X33702Y-28944D01*
X33895Y-29024D01*
X34103Y-29025D01*
X34297Y-28945D01*
X34444Y-28797D01*
X34500Y-28664D01*
X34554Y-28797D01*
X34702Y-28944D01*
X34895Y-29024D01*
X35103Y-29025D01*
X35297Y-28945D01*
X35444Y-28797D01*
X35500Y-28664D01*
X35554Y-28797D01*
X35702Y-28944D01*
X35895Y-29024D01*
X36103Y-29025D01*
X36297Y-28945D01*
X36444Y-28797D01*
X36500Y-28664D01*
X36554Y-28797D01*
X36702Y-28944D01*
X36895Y-29024D01*
X37103Y-29025D01*
X37297Y-28945D01*
X37444Y-28797D01*
X37500Y-28664D01*
X37554Y-28797D01*
X37702Y-28944D01*
X37895Y-29024D01*
X38103Y-29025D01*
X38297Y-28945D01*
X38444Y-28797D01*
X38500Y-28664D01*
X38554Y-28797D01*
X38702Y-28944D01*
X38895Y-29024D01*
X39103Y-29025D01*
X39297Y-28945D01*
X39444Y-28797D01*
X39500Y-28664D01*
X39554Y-28797D01*
X39702Y-28944D01*
X39895Y-29024D01*
X40103Y-29025D01*
X40297Y-28945D01*
X40444Y-28797D01*
X40500Y-28664D01*
X40554Y-28797D01*
X40702Y-28944D01*
X40895Y-29024D01*
X41103Y-29025D01*
X41297Y-28945D01*
X41444Y-28797D01*
X41500Y-28664D01*
X41554Y-28797D01*
X41702Y-28944D01*
X41895Y-29024D01*
X42103Y-29025D01*
X42297Y-28945D01*
X42444Y-28797D01*
X42500Y-28664D01*
X42554Y-28797D01*
X42702Y-28944D01*
X42895Y-29024D01*
X43103Y-29025D01*
X43297Y-28945D01*
X43444Y-28797D01*
X43500Y-28664D01*
X43554Y-28797D01*
X43702Y-28944D01*
X43895Y-29024D01*
X44103Y-29025D01*
X44297Y-28945D01*
X44444Y-28797D01*
X44500Y-28664D01*
X44554Y-28797D01*
X44702Y-28944D01*
X44895Y-29024D01*
X45103Y-29025D01*
X45297Y-28945D01*
X45444Y-28797D01*
X45497Y-28671D01*
X45539Y-28772D01*
X45632Y-28797D01*
X45929Y-28500D01*
X45929Y-28641D01*
X45702Y-28867D01*
X45727Y-28960D01*
X45924Y-29029D01*
X46132Y-29018D01*
X46272Y-28960D01*
X46297Y-28867D01*
X46297Y-34054D01*
X46104Y-33975D01*
X45896Y-33974D01*
X45779Y-34022D01*
X45779Y-31325D01*
X45768Y-31117D01*
X45710Y-30977D01*
X45617Y-30952D01*
X45547Y-31023D01*
X45547Y-30882D01*
X45522Y-30789D01*
X45325Y-30720D01*
X45117Y-30731D01*
X44977Y-30789D01*
X44952Y-30882D01*
X45250Y-31179D01*
X45547Y-30882D01*
X45547Y-31023D01*
X45320Y-31250D01*
X45617Y-31547D01*
X45710Y-31522D01*
X45779Y-31325D01*
X45779Y-34022D01*
X45703Y-34054D01*
X45555Y-34202D01*
X45547Y-34221D01*
X45547Y-31617D01*
X45250Y-31320D01*
X45179Y-31391D01*
X45179Y-31250D01*
X44882Y-30952D01*
X44789Y-30977D01*
X44750Y-31087D01*
X44695Y-30953D01*
X44547Y-30805D01*
X44354Y-30725D01*
X44146Y-30724D01*
X43953Y-30804D01*
X43805Y-30952D01*
X43725Y-31145D01*
X43724Y-31353D01*
X43804Y-31547D01*
X43952Y-31694D01*
X44145Y-31774D01*
X44353Y-31775D01*
X44547Y-31695D01*
X44694Y-31547D01*
X44747Y-31421D01*
X44789Y-31522D01*
X44882Y-31547D01*
X45179Y-31250D01*
X45179Y-31391D01*
X44952Y-31617D01*
X44977Y-31710D01*
X45174Y-31779D01*
X45382Y-31768D01*
X45522Y-31710D01*
X45547Y-31617D01*
X45547Y-34221D01*
X45499Y-34335D01*
X45445Y-34203D01*
X45297Y-34055D01*
X45104Y-33975D01*
X44896Y-33974D01*
X44703Y-34054D01*
X44555Y-34202D01*
X44499Y-34335D01*
X44445Y-34203D01*
X44297Y-34055D01*
X44104Y-33975D01*
X43896Y-33974D01*
X43703Y-34054D01*
X43555Y-34202D01*
X43499Y-34335D01*
X43445Y-34203D01*
X43297Y-34055D01*
X43104Y-33975D01*
X42896Y-33974D01*
X42703Y-34054D01*
X42555Y-34202D01*
X42525Y-34274D01*
X42525Y-31146D01*
X42445Y-30953D01*
X42297Y-30805D01*
X42104Y-30725D01*
X41899Y-30724D01*
X40712Y-29537D01*
X40614Y-29472D01*
X40500Y-29450D01*
X37442Y-29450D01*
X37297Y-29305D01*
X37104Y-29225D01*
X36896Y-29224D01*
X36703Y-29304D01*
X36557Y-29450D01*
X35192Y-29450D01*
X35047Y-29305D01*
X34854Y-29225D01*
X34646Y-29224D01*
X34453Y-29304D01*
X34305Y-29452D01*
X34225Y-29645D01*
X34224Y-29850D01*
X34125Y-29950D01*
X33942Y-29950D01*
X33797Y-29805D01*
X33604Y-29725D01*
X33396Y-29724D01*
X33203Y-29804D01*
X33055Y-29952D01*
X32975Y-30145D01*
X32974Y-30353D01*
X33054Y-30547D01*
X33202Y-30694D01*
X33395Y-30774D01*
X33603Y-30775D01*
X33797Y-30695D01*
X33942Y-30550D01*
X34250Y-30550D01*
X34250Y-30549D01*
X34364Y-30527D01*
X34364Y-30527D01*
X34462Y-30462D01*
X34649Y-30274D01*
X34853Y-30275D01*
X35047Y-30195D01*
X35192Y-30050D01*
X36557Y-30050D01*
X36702Y-30194D01*
X36895Y-30274D01*
X37103Y-30275D01*
X37297Y-30195D01*
X37442Y-30050D01*
X40375Y-30050D01*
X41475Y-31149D01*
X41474Y-31353D01*
X41554Y-31547D01*
X41702Y-31694D01*
X41895Y-31774D01*
X42103Y-31775D01*
X42297Y-31695D01*
X42444Y-31547D01*
X42524Y-31354D01*
X42525Y-31146D01*
X42525Y-34274D01*
X42499Y-34335D01*
X42445Y-34203D01*
X42297Y-34055D01*
X42104Y-33975D01*
X41896Y-33974D01*
X41703Y-34054D01*
X41555Y-34202D01*
X41499Y-34335D01*
X41445Y-34203D01*
X41297Y-34055D01*
X41104Y-33975D01*
X40896Y-33974D01*
X40703Y-34054D01*
X40555Y-34202D01*
X40499Y-34335D01*
X40445Y-34203D01*
X40297Y-34055D01*
X40104Y-33975D01*
X39896Y-33974D01*
X39703Y-34054D01*
X39555Y-34202D01*
X39525Y-34274D01*
X39525Y-31146D01*
X39445Y-30953D01*
X39297Y-30805D01*
X39104Y-30725D01*
X38896Y-30724D01*
X38703Y-30804D01*
X38555Y-30952D01*
X38475Y-31145D01*
X38474Y-31353D01*
X38554Y-31547D01*
X38702Y-31694D01*
X38895Y-31774D01*
X39103Y-31775D01*
X39297Y-31695D01*
X39444Y-31547D01*
X39524Y-31354D01*
X39525Y-31146D01*
X39525Y-34274D01*
X39499Y-34335D01*
X39445Y-34203D01*
X39297Y-34055D01*
X39104Y-33975D01*
X38896Y-33974D01*
X38703Y-34054D01*
X38555Y-34202D01*
X38499Y-34335D01*
X38445Y-34203D01*
X38297Y-34055D01*
X38104Y-33975D01*
X37896Y-33974D01*
X37703Y-34054D01*
X37555Y-34202D01*
X37525Y-34274D01*
X37525Y-32646D01*
X37445Y-32453D01*
X37297Y-32305D01*
X37104Y-32225D01*
X36896Y-32224D01*
X36703Y-32304D01*
X36555Y-32452D01*
X36475Y-32645D01*
X36474Y-32853D01*
X36554Y-33047D01*
X36702Y-33194D01*
X36895Y-33274D01*
X37103Y-33275D01*
X37297Y-33195D01*
X37444Y-33047D01*
X37524Y-32854D01*
X37525Y-32646D01*
X37525Y-34274D01*
X37499Y-34335D01*
X37445Y-34203D01*
X37297Y-34055D01*
X37104Y-33975D01*
X36896Y-33974D01*
X36703Y-34054D01*
X36555Y-34202D01*
X36499Y-34335D01*
X36445Y-34203D01*
X36297Y-34055D01*
X36104Y-33975D01*
X35896Y-33974D01*
X35703Y-34054D01*
X35555Y-34202D01*
X35499Y-34335D01*
X35445Y-34203D01*
X35297Y-34055D01*
X35275Y-34045D01*
X35275Y-32646D01*
X35195Y-32453D01*
X35047Y-32305D01*
X34854Y-32225D01*
X34646Y-32224D01*
X34453Y-32304D01*
X34305Y-32452D01*
X34225Y-32645D01*
X34224Y-32853D01*
X34304Y-33047D01*
X34452Y-33194D01*
X34645Y-33274D01*
X34853Y-33275D01*
X35047Y-33195D01*
X35194Y-33047D01*
X35274Y-32854D01*
X35275Y-32646D01*
X35275Y-34045D01*
X35104Y-33975D01*
X34896Y-33974D01*
X34703Y-34054D01*
X34555Y-34202D01*
X34499Y-34335D01*
X34445Y-34203D01*
X34297Y-34055D01*
X34104Y-33975D01*
X33896Y-33974D01*
X33703Y-34054D01*
X33555Y-34202D01*
X33499Y-34335D01*
X33445Y-34203D01*
X33297Y-34055D01*
X33104Y-33975D01*
X32896Y-33974D01*
X32703Y-34054D01*
X32555Y-34202D01*
X32499Y-34335D01*
X32445Y-34203D01*
X32297Y-34055D01*
X32104Y-33975D01*
X31896Y-33974D01*
X31703Y-34054D01*
X31555Y-34202D01*
X31499Y-34335D01*
X31445Y-34203D01*
X31297Y-34055D01*
X31104Y-33975D01*
X30896Y-33974D01*
X30703Y-34054D01*
X30555Y-34202D01*
X30529Y-34263D01*
X30529Y-32575D01*
X30518Y-32367D01*
X30460Y-32227D01*
X30367Y-32202D01*
X30070Y-32500D01*
X30367Y-32797D01*
X30460Y-32772D01*
X30529Y-32575D01*
X30529Y-34263D01*
X30499Y-34335D01*
X30445Y-34203D01*
X30297Y-34055D01*
X30297Y-34054D01*
X30297Y-32867D01*
X30000Y-32570D01*
X29929Y-32641D01*
X29929Y-32500D01*
X29632Y-32202D01*
X29539Y-32227D01*
X29470Y-32424D01*
X29481Y-32632D01*
X29539Y-32772D01*
X29632Y-32797D01*
X29929Y-32500D01*
X29929Y-32641D01*
X29702Y-32867D01*
X29727Y-32960D01*
X29924Y-33029D01*
X30132Y-33018D01*
X30272Y-32960D01*
X30297Y-32867D01*
X30297Y-34054D01*
X30104Y-33975D01*
X29896Y-33974D01*
X29703Y-34054D01*
X29555Y-34202D01*
X29475Y-34395D01*
X29474Y-34603D01*
X29554Y-34797D01*
X29702Y-34944D01*
X29895Y-35024D01*
X30103Y-35025D01*
X30297Y-34945D01*
X30444Y-34797D01*
X30500Y-34664D01*
X30554Y-34797D01*
X30702Y-34944D01*
X30895Y-35024D01*
X31103Y-35025D01*
X31297Y-34945D01*
X31444Y-34797D01*
X31500Y-34664D01*
X31554Y-34797D01*
X31702Y-34944D01*
X31895Y-35024D01*
X32103Y-35025D01*
X32297Y-34945D01*
X32444Y-34797D01*
X32500Y-34664D01*
X32554Y-34797D01*
X32702Y-34944D01*
X32895Y-35024D01*
X33103Y-35025D01*
X33297Y-34945D01*
X33444Y-34797D01*
X33500Y-34664D01*
X33554Y-34797D01*
X33702Y-34944D01*
X33895Y-35024D01*
X34103Y-35025D01*
X34297Y-34945D01*
X34444Y-34797D01*
X34500Y-34664D01*
X34554Y-34797D01*
X34702Y-34944D01*
X34895Y-35024D01*
X35103Y-35025D01*
X35297Y-34945D01*
X35444Y-34797D01*
X35500Y-34664D01*
X35554Y-34797D01*
X35702Y-34944D01*
X35895Y-35024D01*
X36103Y-35025D01*
X36297Y-34945D01*
X36444Y-34797D01*
X36500Y-34664D01*
X36554Y-34797D01*
X36702Y-34944D01*
X36895Y-35024D01*
X37100Y-35025D01*
X37200Y-35124D01*
X37200Y-41250D01*
X37200Y-44974D01*
X36925Y-44974D01*
X36925Y-36165D01*
X36860Y-36009D01*
X36741Y-35889D01*
X36584Y-35825D01*
X36415Y-35824D01*
X36259Y-35889D01*
X36139Y-36008D01*
X36075Y-36165D01*
X36074Y-36250D01*
X34287Y-38037D01*
X34222Y-38135D01*
X34200Y-38250D01*
X34200Y-44500D01*
X34200Y-48750D01*
X34200Y-50746D01*
X34171Y-50758D01*
X34008Y-50921D01*
X33920Y-51134D01*
X33919Y-51364D01*
X34008Y-51578D01*
X34171Y-51741D01*
X34384Y-51829D01*
X34614Y-51830D01*
X34828Y-51741D01*
X34991Y-51578D01*
X34999Y-51558D01*
X35008Y-51578D01*
X35171Y-51741D01*
X35384Y-51829D01*
X35614Y-51830D01*
X35828Y-51741D01*
X35991Y-51578D01*
X36079Y-51365D01*
X36080Y-51135D01*
X35991Y-50921D01*
X35828Y-50758D01*
X35615Y-50670D01*
X35385Y-50669D01*
X35171Y-50758D01*
X35008Y-50921D01*
X35000Y-50941D01*
X34991Y-50921D01*
X34828Y-50758D01*
X34800Y-50746D01*
X34800Y-48750D01*
X34800Y-44500D01*
X34800Y-38374D01*
X36499Y-36674D01*
X36584Y-36675D01*
X36740Y-36610D01*
X36860Y-36491D01*
X36924Y-36334D01*
X36925Y-36165D01*
X36925Y-44974D01*
X36675Y-44974D01*
X36583Y-45012D01*
X36513Y-45083D01*
X36475Y-45175D01*
X36474Y-45274D01*
X36474Y-45824D01*
X36512Y-45916D01*
X36583Y-45986D01*
X36675Y-46024D01*
X36774Y-46025D01*
X37200Y-46025D01*
X37200Y-50724D01*
X36675Y-50724D01*
X36583Y-50762D01*
X36513Y-50833D01*
X36475Y-50925D01*
X36474Y-51024D01*
X36474Y-51574D01*
X36512Y-51666D01*
X36583Y-51736D01*
X36675Y-51774D01*
X36774Y-51775D01*
X37200Y-51775D01*
X37200Y-53000D01*
X37222Y-53114D01*
X37287Y-53212D01*
X37700Y-53624D01*
X37700Y-55250D01*
X37700Y-56557D01*
X37555Y-56702D01*
X37525Y-56774D01*
X37525Y-56675D01*
X37487Y-56583D01*
X37416Y-56513D01*
X37324Y-56475D01*
X37225Y-56474D01*
X36675Y-56474D01*
X36583Y-56512D01*
X36513Y-56583D01*
X36475Y-56675D01*
X36474Y-56774D01*
X36474Y-57324D01*
X36512Y-57416D01*
X36583Y-57486D01*
X36675Y-57524D01*
X36774Y-57525D01*
X37324Y-57525D01*
X37416Y-57487D01*
X37486Y-57416D01*
X37524Y-57324D01*
X37525Y-57225D01*
X37525Y-57225D01*
X37554Y-57297D01*
X37702Y-57444D01*
X37895Y-57524D01*
X38103Y-57525D01*
X38297Y-57445D01*
X38444Y-57297D01*
X38500Y-57164D01*
X38554Y-57297D01*
X38702Y-57444D01*
X38895Y-57524D01*
X39103Y-57525D01*
X39297Y-57445D01*
X39444Y-57297D01*
X39497Y-57171D01*
X39539Y-57272D01*
X39632Y-57297D01*
X39929Y-57000D01*
X39632Y-56702D01*
X39539Y-56727D01*
X39500Y-56837D01*
X39445Y-56703D01*
X39297Y-56555D01*
X39104Y-56475D01*
X38896Y-56474D01*
X38703Y-56554D01*
X38555Y-56702D01*
X38499Y-56835D01*
X38445Y-56703D01*
X38300Y-56557D01*
X38300Y-55250D01*
X38300Y-53500D01*
X38293Y-53467D01*
X38787Y-53962D01*
X38787Y-53962D01*
X38885Y-54027D01*
X39000Y-54050D01*
X39557Y-54050D01*
X39702Y-54194D01*
X39895Y-54274D01*
X40103Y-54275D01*
X40297Y-54195D01*
X40444Y-54047D01*
X40524Y-53854D01*
X40525Y-53646D01*
X40445Y-53453D01*
X40297Y-53305D01*
X40164Y-53249D01*
X40297Y-53195D01*
X40444Y-53047D01*
X40524Y-52854D01*
X40525Y-52646D01*
X40445Y-52453D01*
X40300Y-52307D01*
X40300Y-51692D01*
X40444Y-51547D01*
X40500Y-51414D01*
X40554Y-51547D01*
X40702Y-51694D01*
X40895Y-51774D01*
X41103Y-51775D01*
X41297Y-51695D01*
X41444Y-51547D01*
X41524Y-51354D01*
X41525Y-51146D01*
X41525Y-48646D01*
X41445Y-48453D01*
X41367Y-48374D01*
X41444Y-48297D01*
X41524Y-48104D01*
X41525Y-47896D01*
X41525Y-45396D01*
X41445Y-45203D01*
X41297Y-45055D01*
X41104Y-44975D01*
X40896Y-44974D01*
X40703Y-45054D01*
X40555Y-45202D01*
X40502Y-45328D01*
X40460Y-45227D01*
X40367Y-45202D01*
X40297Y-45273D01*
X40297Y-45132D01*
X40272Y-45039D01*
X40075Y-44970D01*
X39867Y-44981D01*
X39727Y-45039D01*
X39702Y-45132D01*
X40000Y-45429D01*
X40297Y-45132D01*
X40297Y-45273D01*
X40070Y-45500D01*
X40367Y-45797D01*
X40460Y-45772D01*
X40499Y-45662D01*
X40554Y-45797D01*
X40702Y-45944D01*
X40895Y-46024D01*
X41103Y-46025D01*
X41297Y-45945D01*
X41444Y-45797D01*
X41524Y-45604D01*
X41525Y-45396D01*
X41525Y-47896D01*
X41445Y-47703D01*
X41297Y-47555D01*
X41104Y-47475D01*
X40896Y-47474D01*
X40703Y-47554D01*
X40555Y-47702D01*
X40475Y-47895D01*
X40474Y-48103D01*
X40554Y-48297D01*
X40632Y-48375D01*
X40555Y-48452D01*
X40475Y-48645D01*
X40474Y-48853D01*
X40554Y-49047D01*
X40702Y-49194D01*
X40895Y-49274D01*
X41103Y-49275D01*
X41297Y-49195D01*
X41444Y-49047D01*
X41524Y-48854D01*
X41525Y-48646D01*
X41525Y-51146D01*
X41445Y-50953D01*
X41297Y-50805D01*
X41104Y-50725D01*
X40896Y-50724D01*
X40703Y-50804D01*
X40555Y-50952D01*
X40499Y-51085D01*
X40445Y-50953D01*
X40297Y-50805D01*
X40297Y-50804D01*
X40297Y-45867D01*
X40000Y-45570D01*
X39702Y-45867D01*
X39727Y-45960D01*
X39924Y-46029D01*
X40132Y-46018D01*
X40272Y-45960D01*
X40297Y-45867D01*
X40297Y-50804D01*
X40104Y-50725D01*
X39896Y-50724D01*
X39703Y-50804D01*
X39555Y-50952D01*
X39502Y-51078D01*
X39460Y-50977D01*
X39367Y-50952D01*
X39297Y-51023D01*
X39297Y-50882D01*
X39272Y-50789D01*
X39075Y-50720D01*
X38867Y-50731D01*
X38727Y-50789D01*
X38702Y-50882D01*
X39000Y-51179D01*
X39297Y-50882D01*
X39297Y-51023D01*
X39070Y-51250D01*
X39367Y-51547D01*
X39460Y-51522D01*
X39499Y-51412D01*
X39554Y-51547D01*
X39700Y-51692D01*
X39700Y-52307D01*
X39555Y-52452D01*
X39475Y-52645D01*
X39474Y-52853D01*
X39554Y-53047D01*
X39702Y-53194D01*
X39835Y-53250D01*
X39703Y-53304D01*
X39557Y-53450D01*
X39297Y-53450D01*
X39297Y-51617D01*
X39000Y-51320D01*
X38702Y-51617D01*
X38727Y-51710D01*
X38924Y-51779D01*
X39132Y-51768D01*
X39272Y-51710D01*
X39297Y-51617D01*
X39297Y-53450D01*
X39124Y-53450D01*
X38300Y-52625D01*
X38300Y-51692D01*
X38444Y-51547D01*
X38497Y-51421D01*
X38539Y-51522D01*
X38632Y-51547D01*
X38929Y-51250D01*
X38632Y-50952D01*
X38539Y-50977D01*
X38500Y-51087D01*
X38445Y-50953D01*
X38297Y-50805D01*
X38104Y-50725D01*
X37896Y-50724D01*
X37800Y-50764D01*
X37800Y-49235D01*
X37895Y-49274D01*
X38103Y-49275D01*
X38297Y-49195D01*
X38444Y-49047D01*
X38524Y-48854D01*
X38525Y-48646D01*
X38445Y-48453D01*
X38367Y-48374D01*
X38444Y-48297D01*
X38524Y-48104D01*
X38525Y-47896D01*
X38445Y-47703D01*
X38297Y-47555D01*
X38104Y-47475D01*
X37896Y-47474D01*
X37800Y-47514D01*
X37800Y-45985D01*
X37895Y-46024D01*
X38103Y-46025D01*
X38297Y-45945D01*
X38444Y-45797D01*
X38500Y-45664D01*
X38554Y-45797D01*
X38702Y-45944D01*
X38895Y-46024D01*
X39103Y-46025D01*
X39297Y-45945D01*
X39444Y-45797D01*
X39497Y-45671D01*
X39539Y-45772D01*
X39632Y-45797D01*
X39929Y-45500D01*
X39632Y-45202D01*
X39539Y-45227D01*
X39500Y-45337D01*
X39445Y-45203D01*
X39297Y-45055D01*
X39104Y-44975D01*
X38896Y-44974D01*
X38703Y-45054D01*
X38555Y-45202D01*
X38499Y-45335D01*
X38445Y-45203D01*
X38297Y-45055D01*
X38104Y-44975D01*
X37896Y-44974D01*
X37800Y-45014D01*
X37800Y-41250D01*
X37800Y-35000D01*
X37796Y-34984D01*
X37895Y-35024D01*
X38103Y-35025D01*
X38297Y-34945D01*
X38444Y-34797D01*
X38500Y-34664D01*
X38554Y-34797D01*
X38702Y-34944D01*
X38895Y-35024D01*
X39103Y-35025D01*
X39297Y-34945D01*
X39444Y-34797D01*
X39500Y-34664D01*
X39554Y-34797D01*
X39702Y-34944D01*
X39895Y-35024D01*
X40103Y-35025D01*
X40297Y-34945D01*
X40444Y-34797D01*
X40500Y-34664D01*
X40554Y-34797D01*
X40702Y-34944D01*
X40895Y-35024D01*
X41103Y-35025D01*
X41297Y-34945D01*
X41444Y-34797D01*
X41500Y-34664D01*
X41554Y-34797D01*
X41702Y-34944D01*
X41895Y-35024D01*
X42103Y-35025D01*
X42297Y-34945D01*
X42444Y-34797D01*
X42500Y-34664D01*
X42554Y-34797D01*
X42702Y-34944D01*
X42895Y-35024D01*
X43103Y-35025D01*
X43203Y-34984D01*
X43200Y-35000D01*
X43200Y-36750D01*
X43222Y-36864D01*
X43287Y-36962D01*
X43475Y-37149D01*
X43474Y-37353D01*
X43554Y-37547D01*
X43702Y-37694D01*
X43895Y-37774D01*
X44103Y-37775D01*
X44297Y-37695D01*
X44444Y-37547D01*
X44450Y-37535D01*
X44450Y-38875D01*
X43787Y-39537D01*
X43722Y-39635D01*
X43700Y-39750D01*
X43700Y-48250D01*
X43722Y-48364D01*
X43787Y-48462D01*
X44787Y-49462D01*
X44787Y-49462D01*
X44787Y-49462D01*
X47287Y-51962D01*
X47385Y-52027D01*
X47500Y-52050D01*
X49000Y-52050D01*
X49157Y-52050D01*
X49202Y-52094D01*
X49395Y-52174D01*
X49603Y-52175D01*
X49797Y-52095D01*
X49944Y-51947D01*
X50000Y-51814D01*
X50054Y-51947D01*
X50202Y-52094D01*
X50395Y-52174D01*
X50603Y-52175D01*
X50797Y-52095D01*
X50944Y-51947D01*
X50974Y-51875D01*
X50974Y-51875D01*
X50975Y-51974D01*
X51013Y-52066D01*
X51083Y-52137D01*
X51175Y-52175D01*
X51387Y-52175D01*
X51450Y-52112D01*
X51450Y-51700D01*
X51442Y-51700D01*
X51442Y-51600D01*
X51450Y-51600D01*
X51450Y-51187D01*
X51387Y-51125D01*
X51175Y-51124D01*
X51083Y-51162D01*
X51013Y-51233D01*
X50975Y-51325D01*
X50974Y-51424D01*
X50974Y-51424D01*
X50945Y-51353D01*
X50797Y-51205D01*
X50604Y-51125D01*
X50396Y-51124D01*
X50203Y-51204D01*
X50055Y-51352D01*
X49999Y-51485D01*
X49945Y-51353D01*
X49797Y-51205D01*
X49604Y-51125D01*
X49396Y-51124D01*
X49203Y-51204D01*
X49055Y-51352D01*
X49014Y-51450D01*
X49000Y-51450D01*
X47624Y-51450D01*
X47525Y-51350D01*
X47525Y-37146D01*
X47445Y-36953D01*
X47297Y-36805D01*
X47104Y-36725D01*
X46896Y-36724D01*
X46703Y-36804D01*
X46555Y-36952D01*
X46475Y-37145D01*
X46474Y-37353D01*
X46554Y-37547D01*
X46702Y-37694D01*
X46895Y-37774D01*
X47103Y-37775D01*
X47297Y-37695D01*
X47444Y-37547D01*
X47524Y-37354D01*
X47525Y-37146D01*
X47525Y-51350D01*
X47051Y-50877D01*
X47051Y-40401D01*
X47048Y-39983D01*
X46894Y-39611D01*
X46747Y-39523D01*
X46676Y-39594D01*
X46676Y-39452D01*
X46588Y-39305D01*
X46201Y-39148D01*
X45783Y-39151D01*
X45411Y-39305D01*
X45323Y-39452D01*
X46000Y-40129D01*
X46676Y-39452D01*
X46676Y-39594D01*
X46070Y-40200D01*
X46747Y-40876D01*
X46894Y-40788D01*
X47051Y-40401D01*
X47051Y-50877D01*
X46676Y-50502D01*
X46676Y-40947D01*
X46000Y-40270D01*
X45929Y-40341D01*
X45929Y-40200D01*
X45252Y-39523D01*
X45105Y-39611D01*
X44948Y-39998D01*
X44951Y-40416D01*
X45105Y-40788D01*
X45252Y-40876D01*
X45929Y-40200D01*
X45929Y-40341D01*
X45323Y-40947D01*
X45411Y-41094D01*
X45798Y-41251D01*
X46216Y-41248D01*
X46588Y-41094D01*
X46676Y-40947D01*
X46676Y-50502D01*
X45212Y-49037D01*
X45212Y-49037D01*
X45212Y-49037D01*
X44300Y-48125D01*
X44300Y-39874D01*
X44962Y-39212D01*
X44962Y-39212D01*
X45027Y-39114D01*
X45049Y-39000D01*
X45050Y-39000D01*
X45050Y-35025D01*
X45103Y-35025D01*
X45297Y-34945D01*
X45444Y-34797D01*
X45500Y-34664D01*
X45554Y-34797D01*
X45700Y-34942D01*
X45700Y-37698D01*
X45639Y-37758D01*
X45575Y-37915D01*
X45574Y-38084D01*
X45639Y-38240D01*
X45758Y-38360D01*
X45915Y-38424D01*
X46084Y-38425D01*
X46240Y-38360D01*
X46360Y-38241D01*
X46424Y-38084D01*
X46425Y-37915D01*
X46360Y-37759D01*
X46300Y-37698D01*
X46300Y-35220D01*
X46385Y-35277D01*
X46500Y-35300D01*
X49500Y-35300D01*
X49500Y-35299D01*
X49614Y-35277D01*
X49614Y-35277D01*
X49712Y-35212D01*
X49962Y-34962D01*
X49962Y-34962D01*
X50027Y-34864D01*
X50049Y-34750D01*
X50050Y-34750D01*
X50050Y-32124D01*
X50624Y-31550D01*
X70250Y-31550D01*
X70250Y-31549D01*
X70364Y-31527D01*
X70364Y-31527D01*
X70462Y-31462D01*
X71212Y-30712D01*
X71212Y-30712D01*
X71277Y-30614D01*
X71299Y-30500D01*
X71300Y-30500D01*
X71300Y-28442D01*
X71444Y-28297D01*
X71524Y-28104D01*
X71525Y-27896D01*
X71525Y-63230D01*
X71025Y-63230D01*
X71025Y-35475D01*
X71025Y-34925D01*
X71025Y-33975D01*
X71025Y-33425D01*
X70987Y-33333D01*
X70916Y-33263D01*
X70824Y-33225D01*
X70725Y-33224D01*
X70175Y-33224D01*
X70083Y-33262D01*
X70013Y-33333D01*
X69975Y-33425D01*
X69974Y-33524D01*
X69974Y-34074D01*
X70012Y-34166D01*
X70083Y-34236D01*
X70175Y-34274D01*
X70274Y-34275D01*
X70824Y-34275D01*
X70916Y-34237D01*
X70986Y-34166D01*
X71024Y-34074D01*
X71025Y-33975D01*
X71025Y-34925D01*
X70987Y-34833D01*
X70916Y-34763D01*
X70824Y-34725D01*
X70725Y-34724D01*
X70175Y-34724D01*
X70083Y-34762D01*
X70013Y-34833D01*
X69975Y-34925D01*
X69974Y-35024D01*
X69974Y-35024D01*
X69945Y-34953D01*
X69797Y-34805D01*
X69680Y-34756D01*
X69212Y-34287D01*
X69114Y-34222D01*
X69000Y-34200D01*
X67785Y-34200D01*
X67797Y-34195D01*
X67944Y-34047D01*
X68024Y-33854D01*
X68025Y-33646D01*
X67945Y-33453D01*
X67797Y-33305D01*
X67604Y-33225D01*
X67396Y-33224D01*
X67203Y-33304D01*
X67055Y-33452D01*
X66975Y-33645D01*
X66974Y-33853D01*
X67054Y-34047D01*
X67202Y-34194D01*
X67214Y-34200D01*
X66025Y-34200D01*
X66025Y-33146D01*
X65945Y-32953D01*
X65797Y-32805D01*
X65604Y-32725D01*
X65396Y-32724D01*
X65203Y-32804D01*
X65055Y-32952D01*
X64975Y-33145D01*
X64974Y-33353D01*
X65054Y-33547D01*
X65202Y-33694D01*
X65395Y-33774D01*
X65603Y-33775D01*
X65797Y-33695D01*
X65944Y-33547D01*
X66024Y-33354D01*
X66025Y-33146D01*
X66025Y-34200D01*
X63025Y-34200D01*
X63025Y-33146D01*
X62945Y-32953D01*
X62797Y-32805D01*
X62604Y-32725D01*
X62396Y-32724D01*
X62203Y-32804D01*
X62055Y-32952D01*
X61975Y-33145D01*
X61974Y-33353D01*
X62054Y-33547D01*
X62202Y-33694D01*
X62395Y-33774D01*
X62603Y-33775D01*
X62797Y-33695D01*
X62944Y-33547D01*
X63024Y-33354D01*
X63025Y-33146D01*
X63025Y-34200D01*
X61250Y-34200D01*
X61135Y-34222D01*
X61037Y-34287D01*
X59750Y-35575D01*
X59665Y-35574D01*
X59509Y-35639D01*
X59389Y-35758D01*
X59325Y-35915D01*
X59324Y-36084D01*
X59389Y-36240D01*
X59508Y-36360D01*
X59665Y-36424D01*
X59834Y-36425D01*
X59990Y-36360D01*
X60110Y-36241D01*
X60174Y-36084D01*
X60175Y-35999D01*
X61374Y-34800D01*
X63129Y-34800D01*
X63008Y-34921D01*
X62920Y-35134D01*
X62919Y-35364D01*
X63008Y-35578D01*
X63171Y-35741D01*
X63384Y-35829D01*
X63614Y-35830D01*
X63828Y-35741D01*
X63991Y-35578D01*
X64000Y-35557D01*
X64092Y-35586D01*
X64429Y-35250D01*
X64092Y-34913D01*
X64000Y-34942D01*
X63991Y-34921D01*
X63870Y-34800D01*
X64176Y-34800D01*
X64163Y-34842D01*
X64500Y-35179D01*
X64836Y-34842D01*
X64823Y-34800D01*
X66214Y-34800D01*
X66203Y-34804D01*
X66055Y-34952D01*
X65975Y-35145D01*
X65974Y-35353D01*
X66054Y-35547D01*
X66202Y-35694D01*
X66395Y-35774D01*
X66603Y-35775D01*
X66797Y-35695D01*
X66944Y-35547D01*
X67000Y-35414D01*
X67054Y-35547D01*
X67202Y-35694D01*
X67395Y-35774D01*
X67603Y-35775D01*
X67797Y-35695D01*
X67944Y-35547D01*
X68000Y-35414D01*
X68054Y-35547D01*
X68202Y-35694D01*
X68395Y-35774D01*
X68603Y-35775D01*
X68797Y-35695D01*
X68944Y-35547D01*
X69000Y-35414D01*
X69054Y-35547D01*
X69202Y-35694D01*
X69395Y-35774D01*
X69603Y-35775D01*
X69797Y-35695D01*
X69944Y-35547D01*
X69974Y-35475D01*
X69974Y-35574D01*
X70012Y-35666D01*
X70083Y-35736D01*
X70175Y-35774D01*
X70274Y-35775D01*
X70824Y-35775D01*
X70916Y-35737D01*
X70986Y-35666D01*
X71024Y-35574D01*
X71025Y-35475D01*
X71025Y-63230D01*
X65769Y-63230D01*
X65769Y-50150D01*
X65769Y-39150D01*
X65749Y-39046D01*
X65690Y-38959D01*
X65603Y-38900D01*
X65500Y-38880D01*
X65084Y-38880D01*
X65084Y-35338D01*
X65074Y-35108D01*
X65006Y-34944D01*
X64907Y-34913D01*
X64570Y-35250D01*
X64907Y-35586D01*
X65006Y-35555D01*
X65084Y-35338D01*
X65084Y-38880D01*
X64836Y-38880D01*
X64836Y-35657D01*
X64500Y-35320D01*
X64163Y-35657D01*
X64194Y-35756D01*
X64411Y-35834D01*
X64641Y-35824D01*
X64805Y-35756D01*
X64836Y-35657D01*
X64836Y-38880D01*
X48000Y-38880D01*
X47896Y-38900D01*
X47809Y-38959D01*
X47750Y-39046D01*
X47730Y-39150D01*
X47730Y-50150D01*
X47730Y-50650D01*
X47750Y-50753D01*
X47809Y-50840D01*
X47896Y-50899D01*
X48000Y-50919D01*
X53000Y-50919D01*
X53103Y-50899D01*
X53190Y-50840D01*
X53249Y-50753D01*
X53269Y-50650D01*
X53269Y-50419D01*
X54000Y-50419D01*
X65500Y-50419D01*
X65603Y-50399D01*
X65690Y-50340D01*
X65749Y-50253D01*
X65769Y-50150D01*
X65769Y-63230D01*
X52025Y-63230D01*
X52025Y-51875D01*
X52025Y-51424D01*
X52024Y-51325D01*
X51986Y-51233D01*
X51916Y-51162D01*
X51824Y-51124D01*
X51612Y-51125D01*
X51550Y-51187D01*
X51550Y-51600D01*
X51962Y-51600D01*
X52025Y-51537D01*
X52025Y-51424D01*
X52025Y-51875D01*
X52025Y-51762D01*
X51962Y-51700D01*
X51550Y-51700D01*
X51550Y-52112D01*
X51612Y-52175D01*
X51824Y-52175D01*
X51916Y-52137D01*
X51986Y-52066D01*
X52024Y-51974D01*
X52025Y-51875D01*
X52025Y-63230D01*
X47051Y-63230D01*
X47051Y-62001D01*
X47048Y-61583D01*
X46894Y-61211D01*
X46747Y-61123D01*
X46676Y-61194D01*
X46676Y-61052D01*
X46588Y-60905D01*
X46201Y-60748D01*
X45783Y-60751D01*
X45411Y-60905D01*
X45323Y-61052D01*
X46000Y-61729D01*
X46676Y-61052D01*
X46676Y-61194D01*
X46070Y-61800D01*
X46747Y-62476D01*
X46894Y-62388D01*
X47051Y-62001D01*
X47051Y-63230D01*
X46676Y-63230D01*
X46676Y-62547D01*
X46000Y-61870D01*
X45929Y-61941D01*
X45929Y-61800D01*
X45252Y-61123D01*
X45105Y-61211D01*
X44948Y-61598D01*
X44951Y-62016D01*
X45105Y-62388D01*
X45252Y-62476D01*
X45929Y-61800D01*
X45929Y-61941D01*
X45323Y-62547D01*
X45411Y-62694D01*
X45798Y-62851D01*
X46216Y-62848D01*
X46588Y-62694D01*
X46676Y-62547D01*
X46676Y-63230D01*
X43525Y-63230D01*
X43525Y-53646D01*
X43445Y-53453D01*
X43297Y-53305D01*
X43164Y-53249D01*
X43297Y-53195D01*
X43444Y-53047D01*
X43524Y-52854D01*
X43525Y-52646D01*
X43445Y-52453D01*
X43297Y-52305D01*
X43104Y-52225D01*
X42896Y-52224D01*
X42703Y-52304D01*
X42555Y-52452D01*
X42475Y-52645D01*
X42474Y-52853D01*
X42554Y-53047D01*
X42702Y-53194D01*
X42835Y-53250D01*
X42703Y-53304D01*
X42555Y-53452D01*
X42475Y-53645D01*
X42474Y-53853D01*
X42554Y-54047D01*
X42702Y-54194D01*
X42895Y-54274D01*
X43103Y-54275D01*
X43297Y-54195D01*
X43444Y-54047D01*
X43524Y-53854D01*
X43525Y-53646D01*
X43525Y-63230D01*
X41525Y-63230D01*
X41525Y-56896D01*
X41445Y-56703D01*
X41297Y-56555D01*
X41104Y-56475D01*
X40896Y-56474D01*
X40703Y-56554D01*
X40555Y-56702D01*
X40502Y-56828D01*
X40460Y-56727D01*
X40367Y-56702D01*
X40297Y-56773D01*
X40297Y-56632D01*
X40272Y-56539D01*
X40075Y-56470D01*
X39867Y-56481D01*
X39727Y-56539D01*
X39702Y-56632D01*
X40000Y-56929D01*
X40297Y-56632D01*
X40297Y-56773D01*
X40070Y-57000D01*
X40367Y-57297D01*
X40460Y-57272D01*
X40499Y-57162D01*
X40554Y-57297D01*
X40702Y-57444D01*
X40895Y-57524D01*
X41103Y-57525D01*
X41297Y-57445D01*
X41444Y-57297D01*
X41524Y-57104D01*
X41525Y-56896D01*
X41525Y-63230D01*
X40297Y-63230D01*
X40297Y-57367D01*
X40000Y-57070D01*
X39702Y-57367D01*
X39727Y-57460D01*
X39924Y-57529D01*
X40132Y-57518D01*
X40272Y-57460D01*
X40297Y-57367D01*
X40297Y-63230D01*
X33025Y-63230D01*
X33025Y-56896D01*
X32945Y-56703D01*
X32797Y-56555D01*
X32604Y-56475D01*
X32396Y-56474D01*
X32203Y-56554D01*
X32055Y-56702D01*
X32025Y-56774D01*
X32025Y-56774D01*
X32024Y-56675D01*
X31986Y-56583D01*
X31916Y-56512D01*
X31824Y-56474D01*
X31612Y-56475D01*
X31550Y-56537D01*
X31550Y-56950D01*
X31557Y-56950D01*
X31557Y-57050D01*
X31550Y-57050D01*
X31550Y-57462D01*
X31612Y-57525D01*
X31824Y-57525D01*
X31916Y-57487D01*
X31986Y-57416D01*
X32024Y-57324D01*
X32025Y-57225D01*
X32025Y-57225D01*
X32054Y-57297D01*
X32202Y-57444D01*
X32395Y-57524D01*
X32603Y-57525D01*
X32797Y-57445D01*
X32944Y-57297D01*
X33024Y-57104D01*
X33025Y-56896D01*
X33025Y-63230D01*
X31450Y-63230D01*
X31450Y-57462D01*
X31450Y-57050D01*
X31450Y-56950D01*
X31450Y-56537D01*
X31387Y-56475D01*
X31175Y-56474D01*
X31083Y-56512D01*
X31013Y-56583D01*
X30975Y-56675D01*
X30974Y-56774D01*
X30975Y-56887D01*
X31037Y-56950D01*
X31450Y-56950D01*
X31450Y-57050D01*
X31037Y-57050D01*
X30975Y-57112D01*
X30974Y-57225D01*
X30975Y-57324D01*
X31013Y-57416D01*
X31083Y-57487D01*
X31175Y-57525D01*
X31387Y-57525D01*
X31450Y-57462D01*
X31450Y-63230D01*
X25047Y-63230D01*
X25047Y-43367D01*
X24750Y-43070D01*
X24679Y-43141D01*
X24679Y-43000D01*
X24382Y-42702D01*
X24289Y-42727D01*
X24220Y-42924D01*
X24231Y-43132D01*
X24289Y-43272D01*
X24382Y-43297D01*
X24679Y-43000D01*
X24679Y-43141D01*
X24452Y-43367D01*
X24477Y-43460D01*
X24674Y-43529D01*
X24882Y-43518D01*
X25022Y-43460D01*
X25047Y-43367D01*
X25047Y-63230D01*
X23269Y-63230D01*
X23269Y-21519D01*
X83730Y-21519D01*
X83730Y-63230D01*
X83730Y-63230D01*
G37*
G54D17*
X83730Y-63230D02*
X83651Y-63230D01*
X83651Y-62001D01*
X83651Y-40401D01*
X83648Y-39983D01*
X83494Y-39611D01*
X83347Y-39523D01*
X83276Y-39594D01*
X83276Y-39452D01*
X83188Y-39305D01*
X82801Y-39148D01*
X82383Y-39151D01*
X82011Y-39305D01*
X81923Y-39452D01*
X82600Y-40129D01*
X83276Y-39452D01*
X83276Y-39594D01*
X82670Y-40200D01*
X83347Y-40876D01*
X83494Y-40788D01*
X83651Y-40401D01*
X83651Y-62001D01*
X83648Y-61583D01*
X83494Y-61211D01*
X83347Y-61123D01*
X83276Y-61194D01*
X83276Y-61052D01*
X83276Y-40947D01*
X82600Y-40270D01*
X82529Y-40341D01*
X82529Y-40200D01*
X81852Y-39523D01*
X81705Y-39611D01*
X81548Y-39998D01*
X81551Y-40416D01*
X81705Y-40788D01*
X81852Y-40876D01*
X82529Y-40200D01*
X82529Y-40341D01*
X81923Y-40947D01*
X82011Y-41094D01*
X82398Y-41251D01*
X82816Y-41248D01*
X83188Y-41094D01*
X83276Y-40947D01*
X83276Y-61052D01*
X83188Y-60905D01*
X82801Y-60748D01*
X82383Y-60751D01*
X82011Y-60905D01*
X81923Y-61052D01*
X82600Y-61729D01*
X83276Y-61052D01*
X83276Y-61194D01*
X82670Y-61800D01*
X83347Y-62476D01*
X83494Y-62388D01*
X83651Y-62001D01*
X83651Y-63230D01*
X83276Y-63230D01*
X83276Y-62547D01*
X82600Y-61870D01*
X82529Y-61941D01*
X82529Y-61800D01*
X81852Y-61123D01*
X81705Y-61211D01*
X81548Y-61598D01*
X81551Y-62016D01*
X81705Y-62388D01*
X81852Y-62476D01*
X82529Y-61800D01*
X82529Y-61941D01*
X81923Y-62547D01*
X82011Y-62694D01*
X82398Y-62851D01*
X82816Y-62848D01*
X83188Y-62694D01*
X83276Y-62547D01*
X83276Y-63230D01*
X79025Y-63230D01*
X79025Y-33896D01*
X78945Y-33703D01*
X78797Y-33555D01*
X78664Y-33499D01*
X78797Y-33445D01*
X78944Y-33297D01*
X79024Y-33104D01*
X79025Y-32896D01*
X78945Y-32703D01*
X78797Y-32555D01*
X78725Y-32525D01*
X78725Y-32525D01*
X78824Y-32524D01*
X78916Y-32486D01*
X78987Y-32416D01*
X79025Y-32324D01*
X79025Y-31675D01*
X78987Y-31583D01*
X78916Y-31513D01*
X78824Y-31475D01*
X78725Y-31474D01*
X78612Y-31475D01*
X78550Y-31537D01*
X78550Y-31950D01*
X78962Y-31950D01*
X79025Y-31887D01*
X79025Y-31675D01*
X79025Y-32324D01*
X79025Y-32112D01*
X78962Y-32050D01*
X78550Y-32050D01*
X78550Y-32057D01*
X78450Y-32057D01*
X78450Y-32050D01*
X78450Y-31950D01*
X78450Y-31537D01*
X78387Y-31475D01*
X78274Y-31474D01*
X78175Y-31475D01*
X78083Y-31513D01*
X78012Y-31583D01*
X77974Y-31675D01*
X77975Y-31887D01*
X78037Y-31950D01*
X78450Y-31950D01*
X78450Y-32050D01*
X78037Y-32050D01*
X77975Y-32112D01*
X77974Y-32324D01*
X78012Y-32416D01*
X78083Y-32486D01*
X78175Y-32524D01*
X78274Y-32525D01*
X78274Y-32525D01*
X78203Y-32554D01*
X78055Y-32702D01*
X77975Y-32895D01*
X77974Y-33103D01*
X78054Y-33297D01*
X78202Y-33444D01*
X78335Y-33500D01*
X78203Y-33554D01*
X78055Y-33702D01*
X77975Y-33895D01*
X77974Y-34103D01*
X78054Y-34297D01*
X78202Y-34444D01*
X78395Y-34524D01*
X78603Y-34525D01*
X78797Y-34445D01*
X78944Y-34297D01*
X79024Y-34104D01*
X79025Y-33896D01*
X79025Y-63230D01*
X71525Y-63230D01*
X71525Y-27896D01*
X71445Y-27703D01*
X71297Y-27555D01*
X71104Y-27475D01*
X70896Y-27474D01*
X70703Y-27554D01*
X70555Y-27702D01*
X70502Y-27828D01*
X70460Y-27727D01*
X70367Y-27702D01*
X70297Y-27773D01*
X70297Y-27632D01*
X70272Y-27539D01*
X70075Y-27470D01*
X69867Y-27481D01*
X69727Y-27539D01*
X69702Y-27632D01*
X70000Y-27929D01*
X70297Y-27632D01*
X70297Y-27773D01*
X70070Y-28000D01*
X70367Y-28297D01*
X70460Y-28272D01*
X70499Y-28162D01*
X70554Y-28297D01*
X70700Y-28442D01*
X70700Y-30375D01*
X70297Y-30778D01*
X70297Y-28367D01*
X70000Y-28070D01*
X69929Y-28141D01*
X69929Y-28000D01*
X69632Y-27702D01*
X69539Y-27727D01*
X69525Y-27768D01*
X69525Y-27675D01*
X69487Y-27583D01*
X69416Y-27513D01*
X69324Y-27475D01*
X69225Y-27474D01*
X68675Y-27474D01*
X68583Y-27512D01*
X68513Y-27583D01*
X68475Y-27675D01*
X68474Y-27774D01*
X68474Y-28324D01*
X68512Y-28416D01*
X68583Y-28486D01*
X68675Y-28524D01*
X68774Y-28525D01*
X69324Y-28525D01*
X69416Y-28487D01*
X69486Y-28416D01*
X69524Y-28324D01*
X69525Y-28237D01*
X69539Y-28272D01*
X69632Y-28297D01*
X69929Y-28000D01*
X69929Y-28141D01*
X69702Y-28367D01*
X69727Y-28460D01*
X69924Y-28529D01*
X70132Y-28518D01*
X70272Y-28460D01*
X70297Y-28367D01*
X70297Y-30778D01*
X70125Y-30950D01*
X67275Y-30950D01*
X67275Y-28396D01*
X67195Y-28203D01*
X67047Y-28055D01*
X66914Y-27999D01*
X67047Y-27945D01*
X67194Y-27797D01*
X67274Y-27604D01*
X67275Y-27396D01*
X67275Y-25896D01*
X67195Y-25703D01*
X67047Y-25555D01*
X66854Y-25475D01*
X66646Y-25474D01*
X66453Y-25554D01*
X66305Y-25702D01*
X66275Y-25774D01*
X66275Y-25675D01*
X66237Y-25583D01*
X66166Y-25513D01*
X66074Y-25475D01*
X65975Y-25474D01*
X65425Y-25474D01*
X65333Y-25512D01*
X65263Y-25583D01*
X65225Y-25675D01*
X65224Y-25774D01*
X65224Y-26100D01*
X64875Y-26450D01*
X64035Y-26450D01*
X64047Y-26445D01*
X64194Y-26297D01*
X64274Y-26104D01*
X64275Y-25896D01*
X64195Y-25703D01*
X64047Y-25555D01*
X63854Y-25475D01*
X63646Y-25474D01*
X63453Y-25554D01*
X63305Y-25702D01*
X63275Y-25774D01*
X63275Y-25675D01*
X63237Y-25583D01*
X63166Y-25513D01*
X63074Y-25475D01*
X62975Y-25474D01*
X62425Y-25474D01*
X62333Y-25512D01*
X62263Y-25583D01*
X62225Y-25675D01*
X62224Y-25774D01*
X62224Y-26324D01*
X62262Y-26416D01*
X62296Y-26450D01*
X61035Y-26450D01*
X61047Y-26445D01*
X61194Y-26297D01*
X61274Y-26104D01*
X61275Y-25896D01*
X61195Y-25703D01*
X61047Y-25555D01*
X60854Y-25475D01*
X60646Y-25474D01*
X60453Y-25554D01*
X60305Y-25702D01*
X60275Y-25774D01*
X60275Y-25675D01*
X60237Y-25583D01*
X60166Y-25513D01*
X60074Y-25475D01*
X59975Y-25474D01*
X59425Y-25474D01*
X59333Y-25512D01*
X59263Y-25583D01*
X59225Y-25675D01*
X59224Y-25774D01*
X59224Y-26324D01*
X59262Y-26416D01*
X59296Y-26450D01*
X58035Y-26450D01*
X58047Y-26445D01*
X58194Y-26297D01*
X58274Y-26104D01*
X58275Y-25896D01*
X58195Y-25703D01*
X58047Y-25555D01*
X57854Y-25475D01*
X57646Y-25474D01*
X57453Y-25554D01*
X57305Y-25702D01*
X57275Y-25774D01*
X57275Y-25675D01*
X57237Y-25583D01*
X57166Y-25513D01*
X57074Y-25475D01*
X56975Y-25474D01*
X56425Y-25474D01*
X56333Y-25512D01*
X56263Y-25583D01*
X56225Y-25675D01*
X56225Y-25700D01*
X54250Y-25700D01*
X53942Y-25700D01*
X53797Y-25555D01*
X53604Y-25475D01*
X53399Y-25474D01*
X51462Y-23537D01*
X51364Y-23472D01*
X51250Y-23450D01*
X26750Y-23450D01*
X26635Y-23472D01*
X26537Y-23537D01*
X25787Y-24287D01*
X25722Y-24385D01*
X25700Y-24500D01*
X25700Y-33375D01*
X25287Y-33787D01*
X25222Y-33885D01*
X25200Y-34000D01*
X25200Y-36057D01*
X25055Y-36202D01*
X24975Y-36395D01*
X24974Y-36603D01*
X25054Y-36797D01*
X25202Y-36944D01*
X25335Y-37000D01*
X25203Y-37054D01*
X25055Y-37202D01*
X24975Y-37395D01*
X24974Y-37603D01*
X25054Y-37797D01*
X25202Y-37944D01*
X25274Y-37974D01*
X25175Y-37974D01*
X25083Y-38012D01*
X25013Y-38083D01*
X24975Y-38175D01*
X24974Y-38274D01*
X24974Y-38824D01*
X25012Y-38916D01*
X25083Y-38986D01*
X25175Y-39024D01*
X25200Y-39024D01*
X25200Y-39557D01*
X25055Y-39702D01*
X24975Y-39895D01*
X24974Y-40103D01*
X25054Y-40297D01*
X25202Y-40444D01*
X25395Y-40524D01*
X25603Y-40525D01*
X25797Y-40445D01*
X25944Y-40297D01*
X25950Y-40285D01*
X25950Y-42375D01*
X25850Y-42475D01*
X25646Y-42474D01*
X25453Y-42554D01*
X25305Y-42702D01*
X25252Y-42828D01*
X25210Y-42727D01*
X25117Y-42702D01*
X25047Y-42773D01*
X25047Y-42632D01*
X25022Y-42539D01*
X24825Y-42470D01*
X24617Y-42481D01*
X24477Y-42539D01*
X24452Y-42632D01*
X24750Y-42929D01*
X25047Y-42632D01*
X25047Y-42773D01*
X24820Y-43000D01*
X25117Y-43297D01*
X25210Y-43272D01*
X25249Y-43162D01*
X25304Y-43297D01*
X25452Y-43444D01*
X25645Y-43524D01*
X25853Y-43525D01*
X26047Y-43445D01*
X26194Y-43297D01*
X26250Y-43164D01*
X26304Y-43297D01*
X26452Y-43444D01*
X26645Y-43524D01*
X26853Y-43525D01*
X27047Y-43445D01*
X27194Y-43297D01*
X27250Y-43164D01*
X27304Y-43297D01*
X27452Y-43444D01*
X27645Y-43524D01*
X27853Y-43525D01*
X28047Y-43445D01*
X28194Y-43297D01*
X28250Y-43164D01*
X28304Y-43297D01*
X28452Y-43444D01*
X28645Y-43524D01*
X28853Y-43525D01*
X29047Y-43445D01*
X29194Y-43297D01*
X29250Y-43164D01*
X29304Y-43297D01*
X29452Y-43444D01*
X29645Y-43524D01*
X29853Y-43525D01*
X30047Y-43445D01*
X30194Y-43297D01*
X30250Y-43164D01*
X30304Y-43297D01*
X30452Y-43444D01*
X30645Y-43524D01*
X30853Y-43525D01*
X31047Y-43445D01*
X31194Y-43297D01*
X31250Y-43164D01*
X31304Y-43297D01*
X31452Y-43444D01*
X31645Y-43524D01*
X31853Y-43525D01*
X32047Y-43445D01*
X32194Y-43297D01*
X32224Y-43225D01*
X32224Y-43324D01*
X32262Y-43416D01*
X32333Y-43486D01*
X32425Y-43524D01*
X32524Y-43525D01*
X33074Y-43525D01*
X33166Y-43487D01*
X33236Y-43416D01*
X33274Y-43324D01*
X33275Y-43225D01*
X33275Y-42675D01*
X33237Y-42583D01*
X33166Y-42513D01*
X33074Y-42475D01*
X32975Y-42474D01*
X32425Y-42474D01*
X32333Y-42512D01*
X32263Y-42583D01*
X32225Y-42675D01*
X32224Y-42774D01*
X32224Y-42774D01*
X32195Y-42703D01*
X32047Y-42555D01*
X31854Y-42475D01*
X31646Y-42474D01*
X31453Y-42554D01*
X31305Y-42702D01*
X31249Y-42835D01*
X31195Y-42703D01*
X31047Y-42555D01*
X30854Y-42475D01*
X30646Y-42474D01*
X30453Y-42554D01*
X30305Y-42702D01*
X30249Y-42835D01*
X30195Y-42703D01*
X30047Y-42555D01*
X29854Y-42475D01*
X29646Y-42474D01*
X29453Y-42554D01*
X29305Y-42702D01*
X29249Y-42835D01*
X29195Y-42703D01*
X29047Y-42555D01*
X28854Y-42475D01*
X28646Y-42474D01*
X28453Y-42554D01*
X28305Y-42702D01*
X28249Y-42835D01*
X28195Y-42703D01*
X28047Y-42555D01*
X27854Y-42475D01*
X27646Y-42474D01*
X27453Y-42554D01*
X27305Y-42702D01*
X27249Y-42835D01*
X27195Y-42703D01*
X27047Y-42555D01*
X26854Y-42475D01*
X26646Y-42474D01*
X26546Y-42515D01*
X26549Y-42500D01*
X26550Y-42500D01*
X26550Y-39675D01*
X26584Y-39675D01*
X26740Y-39610D01*
X26860Y-39491D01*
X26924Y-39334D01*
X26925Y-39165D01*
X26860Y-39009D01*
X26741Y-38889D01*
X26584Y-38825D01*
X26415Y-38824D01*
X26259Y-38889D01*
X26139Y-39008D01*
X26075Y-39165D01*
X26074Y-39250D01*
X26037Y-39287D01*
X25972Y-39385D01*
X25950Y-39500D01*
X25950Y-39714D01*
X25945Y-39703D01*
X25800Y-39557D01*
X25800Y-39025D01*
X25824Y-39025D01*
X25916Y-38987D01*
X25986Y-38916D01*
X26024Y-38824D01*
X26025Y-38725D01*
X26025Y-38175D01*
X25987Y-38083D01*
X25916Y-38013D01*
X25824Y-37975D01*
X25725Y-37974D01*
X25725Y-37974D01*
X25797Y-37945D01*
X25942Y-37800D01*
X26528Y-37800D01*
X26533Y-37811D01*
X26688Y-37965D01*
X26700Y-37970D01*
X26700Y-38500D01*
X26722Y-38614D01*
X26787Y-38712D01*
X27975Y-39899D01*
X27974Y-40103D01*
X28054Y-40297D01*
X28202Y-40444D01*
X28395Y-40524D01*
X28603Y-40525D01*
X28797Y-40445D01*
X28944Y-40297D01*
X29024Y-40104D01*
X29025Y-39896D01*
X28945Y-39703D01*
X28797Y-39555D01*
X28604Y-39475D01*
X28554Y-39475D01*
X28554Y-38581D01*
X28550Y-38488D01*
X28550Y-36391D01*
X28466Y-36188D01*
X28311Y-36034D01*
X28109Y-35950D01*
X28029Y-35950D01*
X28029Y-33575D01*
X28018Y-33367D01*
X27960Y-33227D01*
X27867Y-33202D01*
X27570Y-33500D01*
X27867Y-33797D01*
X27960Y-33772D01*
X28029Y-33575D01*
X28029Y-35950D01*
X28025Y-35950D01*
X28025Y-34396D01*
X27945Y-34203D01*
X27797Y-34055D01*
X27671Y-34002D01*
X27772Y-33960D01*
X27797Y-33867D01*
X27500Y-33570D01*
X27429Y-33641D01*
X27429Y-33500D01*
X27132Y-33202D01*
X27039Y-33227D01*
X26970Y-33424D01*
X26981Y-33632D01*
X27039Y-33772D01*
X27132Y-33797D01*
X27429Y-33500D01*
X27429Y-33641D01*
X27202Y-33867D01*
X27227Y-33960D01*
X27337Y-33999D01*
X27203Y-34054D01*
X27055Y-34202D01*
X26975Y-34395D01*
X26974Y-34603D01*
X27054Y-34797D01*
X27202Y-34944D01*
X27395Y-35024D01*
X27603Y-35025D01*
X27797Y-34945D01*
X27944Y-34797D01*
X28024Y-34604D01*
X28025Y-34396D01*
X28025Y-35950D01*
X27891Y-35949D01*
X27688Y-36033D01*
X27534Y-36188D01*
X27450Y-36390D01*
X27449Y-36608D01*
X27533Y-36811D01*
X27688Y-36965D01*
X27890Y-37049D01*
X28108Y-37050D01*
X28311Y-36966D01*
X28465Y-36811D01*
X28549Y-36609D01*
X28550Y-36391D01*
X28550Y-38488D01*
X28543Y-38363D01*
X28481Y-38212D01*
X28385Y-38184D01*
X28315Y-38255D01*
X28315Y-38114D01*
X28287Y-38018D01*
X28081Y-37945D01*
X27863Y-37956D01*
X27712Y-38018D01*
X27684Y-38114D01*
X28000Y-38429D01*
X28315Y-38114D01*
X28315Y-38255D01*
X28070Y-38500D01*
X28385Y-38815D01*
X28481Y-38787D01*
X28554Y-38581D01*
X28554Y-39475D01*
X28399Y-39474D01*
X27976Y-39051D01*
X28136Y-39043D01*
X28287Y-38981D01*
X28315Y-38885D01*
X28000Y-38570D01*
X27994Y-38576D01*
X27923Y-38505D01*
X27929Y-38500D01*
X27614Y-38184D01*
X27518Y-38212D01*
X27445Y-38418D01*
X27450Y-38526D01*
X27300Y-38375D01*
X27300Y-37971D01*
X27311Y-37966D01*
X27465Y-37811D01*
X27549Y-37609D01*
X27550Y-37391D01*
X27466Y-37188D01*
X27311Y-37034D01*
X27109Y-36950D01*
X26891Y-36949D01*
X26688Y-37033D01*
X26534Y-37188D01*
X26529Y-37200D01*
X25942Y-37200D01*
X25797Y-37055D01*
X25664Y-36999D01*
X25797Y-36945D01*
X25944Y-36797D01*
X26024Y-36604D01*
X26025Y-36396D01*
X25945Y-36203D01*
X25800Y-36057D01*
X25800Y-34124D01*
X26212Y-33712D01*
X26212Y-33712D01*
X26277Y-33614D01*
X26299Y-33500D01*
X26300Y-33500D01*
X26300Y-24624D01*
X26874Y-24050D01*
X27046Y-24050D01*
X27013Y-24083D01*
X26975Y-24175D01*
X26974Y-24274D01*
X26974Y-24824D01*
X27012Y-24916D01*
X27083Y-24986D01*
X27175Y-25024D01*
X27262Y-25025D01*
X27227Y-25039D01*
X27202Y-25132D01*
X27500Y-25429D01*
X27797Y-25132D01*
X27772Y-25039D01*
X27731Y-25025D01*
X27824Y-25025D01*
X27916Y-24987D01*
X27986Y-24916D01*
X28024Y-24824D01*
X28025Y-24725D01*
X28025Y-24175D01*
X27987Y-24083D01*
X27953Y-24050D01*
X51125Y-24050D01*
X52550Y-25475D01*
X52396Y-25474D01*
X52203Y-25554D01*
X52055Y-25702D01*
X52025Y-25774D01*
X52025Y-25675D01*
X51987Y-25583D01*
X51916Y-25513D01*
X51824Y-25475D01*
X51725Y-25474D01*
X51175Y-25474D01*
X51083Y-25512D01*
X51013Y-25583D01*
X50975Y-25675D01*
X50974Y-25774D01*
X50974Y-26324D01*
X51012Y-26416D01*
X51083Y-26486D01*
X51175Y-26524D01*
X51274Y-26525D01*
X51824Y-26525D01*
X51916Y-26487D01*
X51986Y-26416D01*
X52024Y-26324D01*
X52025Y-26225D01*
X52025Y-26225D01*
X52054Y-26297D01*
X52202Y-26444D01*
X52395Y-26524D01*
X52603Y-26525D01*
X52797Y-26445D01*
X52944Y-26297D01*
X53000Y-26164D01*
X53054Y-26297D01*
X53202Y-26444D01*
X53395Y-26524D01*
X53603Y-26525D01*
X53797Y-26445D01*
X53942Y-26300D01*
X54250Y-26300D01*
X56224Y-26300D01*
X56224Y-26324D01*
X56262Y-26416D01*
X56333Y-26486D01*
X56425Y-26524D01*
X56524Y-26525D01*
X56850Y-26525D01*
X57287Y-26962D01*
X57287Y-26962D01*
X57385Y-27027D01*
X57475Y-27045D01*
X57453Y-27054D01*
X57305Y-27202D01*
X57225Y-27395D01*
X57224Y-27603D01*
X57304Y-27797D01*
X57452Y-27944D01*
X57585Y-28000D01*
X57453Y-28054D01*
X57305Y-28202D01*
X57225Y-28395D01*
X57224Y-28603D01*
X57304Y-28797D01*
X57452Y-28944D01*
X57524Y-28974D01*
X57524Y-28974D01*
X57425Y-28975D01*
X57333Y-29013D01*
X57262Y-29083D01*
X57224Y-29175D01*
X57225Y-29387D01*
X57287Y-29450D01*
X57700Y-29450D01*
X57700Y-29442D01*
X57800Y-29442D01*
X57800Y-29450D01*
X57807Y-29450D01*
X57807Y-29550D01*
X57800Y-29550D01*
X57800Y-29962D01*
X57862Y-30025D01*
X57975Y-30025D01*
X58074Y-30024D01*
X58166Y-29986D01*
X58200Y-29953D01*
X58200Y-30122D01*
X58084Y-30075D01*
X57915Y-30074D01*
X57759Y-30139D01*
X57700Y-30198D01*
X57700Y-29962D01*
X57700Y-29550D01*
X57287Y-29550D01*
X57225Y-29612D01*
X57224Y-29824D01*
X57262Y-29916D01*
X57333Y-29986D01*
X57425Y-30024D01*
X57524Y-30025D01*
X57637Y-30025D01*
X57700Y-29962D01*
X57700Y-30198D01*
X57639Y-30258D01*
X57575Y-30415D01*
X57574Y-30584D01*
X57639Y-30740D01*
X57758Y-30860D01*
X57915Y-30924D01*
X58084Y-30925D01*
X58240Y-30860D01*
X58313Y-30787D01*
X58364Y-30777D01*
X58364Y-30777D01*
X58462Y-30712D01*
X58712Y-30462D01*
X58712Y-30462D01*
X58777Y-30364D01*
X58799Y-30250D01*
X58800Y-30250D01*
X58800Y-27624D01*
X58874Y-27550D01*
X59057Y-27550D01*
X59202Y-27694D01*
X59395Y-27774D01*
X59603Y-27775D01*
X59797Y-27695D01*
X59944Y-27547D01*
X60024Y-27354D01*
X60025Y-27146D01*
X59985Y-27050D01*
X60464Y-27050D01*
X60453Y-27054D01*
X60305Y-27202D01*
X60225Y-27395D01*
X60224Y-27603D01*
X60304Y-27797D01*
X60452Y-27944D01*
X60585Y-28000D01*
X60453Y-28054D01*
X60305Y-28202D01*
X60225Y-28395D01*
X60224Y-28603D01*
X60304Y-28797D01*
X60452Y-28944D01*
X60524Y-28974D01*
X60524Y-28974D01*
X60425Y-28975D01*
X60333Y-29013D01*
X60262Y-29083D01*
X60224Y-29175D01*
X60225Y-29387D01*
X60287Y-29450D01*
X60700Y-29450D01*
X60700Y-29442D01*
X60800Y-29442D01*
X60800Y-29450D01*
X60807Y-29450D01*
X60807Y-29550D01*
X60800Y-29550D01*
X60800Y-29962D01*
X60862Y-30025D01*
X60975Y-30025D01*
X61050Y-30024D01*
X61000Y-30075D01*
X60915Y-30074D01*
X60759Y-30139D01*
X60700Y-30198D01*
X60700Y-29962D01*
X60700Y-29550D01*
X60287Y-29550D01*
X60225Y-29612D01*
X60224Y-29824D01*
X60262Y-29916D01*
X60333Y-29986D01*
X60425Y-30024D01*
X60524Y-30025D01*
X60637Y-30025D01*
X60700Y-29962D01*
X60700Y-30198D01*
X60639Y-30258D01*
X60575Y-30415D01*
X60574Y-30584D01*
X60639Y-30740D01*
X60758Y-30860D01*
X60915Y-30924D01*
X61084Y-30925D01*
X61240Y-30860D01*
X61360Y-30741D01*
X61424Y-30584D01*
X61425Y-30499D01*
X61712Y-30212D01*
X61712Y-30212D01*
X61777Y-30114D01*
X61799Y-30000D01*
X61800Y-30000D01*
X61800Y-27624D01*
X61874Y-27550D01*
X62057Y-27550D01*
X62202Y-27694D01*
X62395Y-27774D01*
X62603Y-27775D01*
X62797Y-27695D01*
X62944Y-27547D01*
X63024Y-27354D01*
X63025Y-27146D01*
X62985Y-27050D01*
X63464Y-27050D01*
X63453Y-27054D01*
X63305Y-27202D01*
X63225Y-27395D01*
X63224Y-27603D01*
X63304Y-27797D01*
X63452Y-27944D01*
X63585Y-28000D01*
X63453Y-28054D01*
X63305Y-28202D01*
X63225Y-28395D01*
X63224Y-28603D01*
X63304Y-28797D01*
X63452Y-28944D01*
X63524Y-28974D01*
X63524Y-28974D01*
X63425Y-28975D01*
X63333Y-29013D01*
X63262Y-29083D01*
X63224Y-29175D01*
X63225Y-29387D01*
X63287Y-29450D01*
X63700Y-29450D01*
X63700Y-29442D01*
X63800Y-29442D01*
X63800Y-29450D01*
X64212Y-29450D01*
X64275Y-29387D01*
X64275Y-29175D01*
X64237Y-29083D01*
X64166Y-29013D01*
X64074Y-28975D01*
X63975Y-28974D01*
X63975Y-28974D01*
X64047Y-28945D01*
X64194Y-28797D01*
X64274Y-28604D01*
X64275Y-28396D01*
X64195Y-28203D01*
X64047Y-28055D01*
X63914Y-27999D01*
X64047Y-27945D01*
X64194Y-27797D01*
X64274Y-27604D01*
X64275Y-27396D01*
X64195Y-27203D01*
X64047Y-27055D01*
X64035Y-27050D01*
X64775Y-27050D01*
X64537Y-27287D01*
X64472Y-27385D01*
X64450Y-27500D01*
X64450Y-29875D01*
X64275Y-30050D01*
X64275Y-29824D01*
X64275Y-29612D01*
X64212Y-29550D01*
X63800Y-29550D01*
X63800Y-29962D01*
X63862Y-30025D01*
X63975Y-30025D01*
X64074Y-30024D01*
X64166Y-29986D01*
X64237Y-29916D01*
X64275Y-29824D01*
X64275Y-30050D01*
X64250Y-30075D01*
X64165Y-30074D01*
X64009Y-30139D01*
X63889Y-30258D01*
X63825Y-30415D01*
X63824Y-30584D01*
X63889Y-30740D01*
X64008Y-30860D01*
X64165Y-30924D01*
X64334Y-30925D01*
X64490Y-30860D01*
X64610Y-30741D01*
X64674Y-30584D01*
X64675Y-30499D01*
X64962Y-30212D01*
X64962Y-30212D01*
X64971Y-30198D01*
X64981Y-30382D01*
X65039Y-30522D01*
X65132Y-30547D01*
X65429Y-30250D01*
X65132Y-29952D01*
X65050Y-29974D01*
X65050Y-27624D01*
X65090Y-27583D01*
X65202Y-27694D01*
X65395Y-27774D01*
X65603Y-27775D01*
X65797Y-27695D01*
X65944Y-27547D01*
X66024Y-27354D01*
X66025Y-27146D01*
X65945Y-26953D01*
X65797Y-26805D01*
X65604Y-26725D01*
X65449Y-26724D01*
X65649Y-26525D01*
X66074Y-26525D01*
X66166Y-26487D01*
X66236Y-26416D01*
X66274Y-26324D01*
X66275Y-26225D01*
X66275Y-26225D01*
X66304Y-26297D01*
X66452Y-26444D01*
X66645Y-26524D01*
X66853Y-26525D01*
X67047Y-26445D01*
X67194Y-26297D01*
X67274Y-26104D01*
X67275Y-25896D01*
X67275Y-27396D01*
X67195Y-27203D01*
X67047Y-27055D01*
X66854Y-26975D01*
X66646Y-26974D01*
X66453Y-27054D01*
X66305Y-27202D01*
X66225Y-27395D01*
X66224Y-27603D01*
X66304Y-27797D01*
X66452Y-27944D01*
X66585Y-28000D01*
X66453Y-28054D01*
X66305Y-28202D01*
X66225Y-28395D01*
X66224Y-28603D01*
X66304Y-28797D01*
X66452Y-28944D01*
X66524Y-28974D01*
X66524Y-28974D01*
X66425Y-28975D01*
X66333Y-29013D01*
X66262Y-29083D01*
X66224Y-29175D01*
X66225Y-29387D01*
X66287Y-29450D01*
X66700Y-29450D01*
X66700Y-29442D01*
X66800Y-29442D01*
X66800Y-29450D01*
X67212Y-29450D01*
X67275Y-29387D01*
X67275Y-29175D01*
X67237Y-29083D01*
X67166Y-29013D01*
X67074Y-28975D01*
X66975Y-28974D01*
X66975Y-28974D01*
X67047Y-28945D01*
X67194Y-28797D01*
X67274Y-28604D01*
X67275Y-28396D01*
X67275Y-30950D01*
X67275Y-30950D01*
X67275Y-29824D01*
X67275Y-29612D01*
X67212Y-29550D01*
X66800Y-29550D01*
X66800Y-29962D01*
X66862Y-30025D01*
X66975Y-30025D01*
X67074Y-30024D01*
X67166Y-29986D01*
X67237Y-29916D01*
X67275Y-29824D01*
X67275Y-30950D01*
X66700Y-30950D01*
X66700Y-29962D01*
X66700Y-29550D01*
X66287Y-29550D01*
X66225Y-29612D01*
X66224Y-29824D01*
X66262Y-29916D01*
X66333Y-29986D01*
X66425Y-30024D01*
X66524Y-30025D01*
X66637Y-30025D01*
X66700Y-29962D01*
X66700Y-30950D01*
X66029Y-30950D01*
X66029Y-30325D01*
X66018Y-30117D01*
X65960Y-29977D01*
X65867Y-29952D01*
X65797Y-30023D01*
X65797Y-29882D01*
X65772Y-29789D01*
X65575Y-29720D01*
X65367Y-29731D01*
X65227Y-29789D01*
X65202Y-29882D01*
X65500Y-30179D01*
X65797Y-29882D01*
X65797Y-30023D01*
X65570Y-30250D01*
X65867Y-30547D01*
X65960Y-30522D01*
X66029Y-30325D01*
X66029Y-30950D01*
X65797Y-30950D01*
X65797Y-30617D01*
X65500Y-30320D01*
X65202Y-30617D01*
X65227Y-30710D01*
X65424Y-30779D01*
X65632Y-30768D01*
X65772Y-30710D01*
X65797Y-30617D01*
X65797Y-30950D01*
X63700Y-30950D01*
X63700Y-29962D01*
X63700Y-29550D01*
X63287Y-29550D01*
X63225Y-29612D01*
X63224Y-29824D01*
X63262Y-29916D01*
X63333Y-29986D01*
X63425Y-30024D01*
X63524Y-30025D01*
X63637Y-30025D01*
X63700Y-29962D01*
X63700Y-30950D01*
X63029Y-30950D01*
X63029Y-30325D01*
X63018Y-30117D01*
X62960Y-29977D01*
X62867Y-29952D01*
X62797Y-30023D01*
X62797Y-29882D01*
X62772Y-29789D01*
X62575Y-29720D01*
X62367Y-29731D01*
X62227Y-29789D01*
X62202Y-29882D01*
X62500Y-30179D01*
X62797Y-29882D01*
X62797Y-30023D01*
X62570Y-30250D01*
X62867Y-30547D01*
X62960Y-30522D01*
X63029Y-30325D01*
X63029Y-30950D01*
X62797Y-30950D01*
X62797Y-30617D01*
X62500Y-30320D01*
X62429Y-30391D01*
X62429Y-30250D01*
X62132Y-29952D01*
X62039Y-29977D01*
X61970Y-30174D01*
X61981Y-30382D01*
X62039Y-30522D01*
X62132Y-30547D01*
X62429Y-30250D01*
X62429Y-30391D01*
X62202Y-30617D01*
X62227Y-30710D01*
X62424Y-30779D01*
X62632Y-30768D01*
X62772Y-30710D01*
X62797Y-30617D01*
X62797Y-30950D01*
X60029Y-30950D01*
X60029Y-30325D01*
X60018Y-30117D01*
X59960Y-29977D01*
X59867Y-29952D01*
X59797Y-30023D01*
X59797Y-29882D01*
X59772Y-29789D01*
X59575Y-29720D01*
X59367Y-29731D01*
X59227Y-29789D01*
X59202Y-29882D01*
X59500Y-30179D01*
X59797Y-29882D01*
X59797Y-30023D01*
X59570Y-30250D01*
X59867Y-30547D01*
X59960Y-30522D01*
X60029Y-30325D01*
X60029Y-30950D01*
X59797Y-30950D01*
X59797Y-30617D01*
X59500Y-30320D01*
X59429Y-30391D01*
X59429Y-30250D01*
X59132Y-29952D01*
X59039Y-29977D01*
X58970Y-30174D01*
X58981Y-30382D01*
X59039Y-30522D01*
X59132Y-30547D01*
X59429Y-30250D01*
X59429Y-30391D01*
X59202Y-30617D01*
X59227Y-30710D01*
X59424Y-30779D01*
X59632Y-30768D01*
X59772Y-30710D01*
X59797Y-30617D01*
X59797Y-30950D01*
X57029Y-30950D01*
X57029Y-30325D01*
X57025Y-30237D01*
X57025Y-27146D01*
X56945Y-26953D01*
X56797Y-26805D01*
X56604Y-26725D01*
X56396Y-26724D01*
X56203Y-26804D01*
X56055Y-26952D01*
X55975Y-27145D01*
X55974Y-27353D01*
X56054Y-27547D01*
X56202Y-27694D01*
X56395Y-27774D01*
X56603Y-27775D01*
X56797Y-27695D01*
X56944Y-27547D01*
X57024Y-27354D01*
X57025Y-27146D01*
X57025Y-30237D01*
X57018Y-30117D01*
X56960Y-29977D01*
X56867Y-29952D01*
X56797Y-30023D01*
X56797Y-29882D01*
X56772Y-29789D01*
X56575Y-29720D01*
X56367Y-29731D01*
X56227Y-29789D01*
X56202Y-29882D01*
X56500Y-30179D01*
X56797Y-29882D01*
X56797Y-30023D01*
X56570Y-30250D01*
X56867Y-30547D01*
X56960Y-30522D01*
X57029Y-30325D01*
X57029Y-30950D01*
X56797Y-30950D01*
X56797Y-30617D01*
X56500Y-30320D01*
X56429Y-30391D01*
X56429Y-30250D01*
X56132Y-29952D01*
X56039Y-29977D01*
X55970Y-30174D01*
X55981Y-30382D01*
X56039Y-30522D01*
X56132Y-30547D01*
X56429Y-30250D01*
X56429Y-30391D01*
X56202Y-30617D01*
X56227Y-30710D01*
X56424Y-30779D01*
X56632Y-30768D01*
X56772Y-30710D01*
X56797Y-30617D01*
X56797Y-30950D01*
X54050Y-30950D01*
X54050Y-28391D01*
X53966Y-28188D01*
X53811Y-28034D01*
X53609Y-27950D01*
X53391Y-27949D01*
X53188Y-28033D01*
X53050Y-28171D01*
X53050Y-27391D01*
X52966Y-27188D01*
X52811Y-27034D01*
X52609Y-26950D01*
X52391Y-26949D01*
X52188Y-27033D01*
X52034Y-27188D01*
X51950Y-27390D01*
X51949Y-27608D01*
X52033Y-27811D01*
X52188Y-27965D01*
X52390Y-28049D01*
X52608Y-28050D01*
X52811Y-27966D01*
X52965Y-27811D01*
X53049Y-27609D01*
X53050Y-27391D01*
X53050Y-28171D01*
X53034Y-28188D01*
X52950Y-28390D01*
X52949Y-28608D01*
X53033Y-28811D01*
X53188Y-28965D01*
X53390Y-29049D01*
X53608Y-29050D01*
X53811Y-28966D01*
X53965Y-28811D01*
X54049Y-28609D01*
X54050Y-28391D01*
X54050Y-30950D01*
X52054Y-30950D01*
X52054Y-28581D01*
X52043Y-28363D01*
X51981Y-28212D01*
X51885Y-28184D01*
X51815Y-28255D01*
X51815Y-28114D01*
X51787Y-28018D01*
X51581Y-27945D01*
X51363Y-27956D01*
X51212Y-28018D01*
X51184Y-28114D01*
X51500Y-28429D01*
X51815Y-28114D01*
X51815Y-28255D01*
X51570Y-28500D01*
X51885Y-28815D01*
X51981Y-28787D01*
X52054Y-28581D01*
X52054Y-30950D01*
X51815Y-30950D01*
X51815Y-28885D01*
X51500Y-28570D01*
X51429Y-28641D01*
X51429Y-28500D01*
X51114Y-28184D01*
X51018Y-28212D01*
X50945Y-28418D01*
X50956Y-28636D01*
X51018Y-28787D01*
X51114Y-28815D01*
X51429Y-28500D01*
X51429Y-28641D01*
X51184Y-28885D01*
X51212Y-28981D01*
X51418Y-29054D01*
X51636Y-29043D01*
X51787Y-28981D01*
X51815Y-28885D01*
X51815Y-30950D01*
X50775Y-30950D01*
X50775Y-28396D01*
X50775Y-25396D01*
X50695Y-25203D01*
X50547Y-25055D01*
X50354Y-24975D01*
X50146Y-24974D01*
X49953Y-25054D01*
X49805Y-25202D01*
X49725Y-25395D01*
X49724Y-25603D01*
X49804Y-25797D01*
X49952Y-25944D01*
X50145Y-26024D01*
X50353Y-26025D01*
X50547Y-25945D01*
X50694Y-25797D01*
X50774Y-25604D01*
X50775Y-25396D01*
X50775Y-28396D01*
X50695Y-28203D01*
X50547Y-28055D01*
X50354Y-27975D01*
X50146Y-27974D01*
X49953Y-28054D01*
X49805Y-28202D01*
X49725Y-28395D01*
X49724Y-28603D01*
X49804Y-28797D01*
X49952Y-28944D01*
X50145Y-29024D01*
X50353Y-29025D01*
X50547Y-28945D01*
X50694Y-28797D01*
X50774Y-28604D01*
X50775Y-28396D01*
X50775Y-30950D01*
X50500Y-30950D01*
X50385Y-30972D01*
X50287Y-31037D01*
X49537Y-31787D01*
X49525Y-31806D01*
X49525Y-26896D01*
X49445Y-26703D01*
X49297Y-26555D01*
X49104Y-26475D01*
X49029Y-26475D01*
X49029Y-25075D01*
X49018Y-24867D01*
X48960Y-24727D01*
X48867Y-24702D01*
X48797Y-24773D01*
X48797Y-24632D01*
X48772Y-24539D01*
X48575Y-24470D01*
X48367Y-24481D01*
X48227Y-24539D01*
X48202Y-24632D01*
X48500Y-24929D01*
X48797Y-24632D01*
X48797Y-24773D01*
X48570Y-25000D01*
X48867Y-25297D01*
X48960Y-25272D01*
X49029Y-25075D01*
X49029Y-26475D01*
X48896Y-26474D01*
X48797Y-26515D01*
X48797Y-25367D01*
X48500Y-25070D01*
X48202Y-25367D01*
X48227Y-25460D01*
X48424Y-25529D01*
X48632Y-25518D01*
X48772Y-25460D01*
X48797Y-25367D01*
X48797Y-26515D01*
X48703Y-26554D01*
X48555Y-26702D01*
X48499Y-26835D01*
X48445Y-26703D01*
X48297Y-26555D01*
X48104Y-26475D01*
X47896Y-26474D01*
X47703Y-26554D01*
X47555Y-26702D01*
X47499Y-26835D01*
X47445Y-26703D01*
X47333Y-26590D01*
X47712Y-26212D01*
X47712Y-26212D01*
X47777Y-26114D01*
X47799Y-26000D01*
X47800Y-26000D01*
X47800Y-25442D01*
X47944Y-25297D01*
X47997Y-25171D01*
X48039Y-25272D01*
X48132Y-25297D01*
X48429Y-25000D01*
X48132Y-24702D01*
X48039Y-24727D01*
X48000Y-24837D01*
X47945Y-24703D01*
X47797Y-24555D01*
X47604Y-24475D01*
X47396Y-24474D01*
X47203Y-24554D01*
X47055Y-24702D01*
X46975Y-24895D01*
X46974Y-25103D01*
X47054Y-25297D01*
X47200Y-25442D01*
X47200Y-25875D01*
X46787Y-26287D01*
X46722Y-26385D01*
X46700Y-26500D01*
X46700Y-26557D01*
X46555Y-26702D01*
X46525Y-26774D01*
X46525Y-26774D01*
X46525Y-25225D01*
X46525Y-24675D01*
X46487Y-24583D01*
X46416Y-24513D01*
X46324Y-24475D01*
X46225Y-24474D01*
X45675Y-24474D01*
X45583Y-24512D01*
X45513Y-24583D01*
X45475Y-24675D01*
X45474Y-24762D01*
X45460Y-24727D01*
X45367Y-24702D01*
X45297Y-24773D01*
X45297Y-24632D01*
X45272Y-24539D01*
X45075Y-24470D01*
X44867Y-24481D01*
X44727Y-24539D01*
X44702Y-24632D01*
X45000Y-24929D01*
X45297Y-24632D01*
X45297Y-24773D01*
X45070Y-25000D01*
X45367Y-25297D01*
X45460Y-25272D01*
X45474Y-25231D01*
X45474Y-25324D01*
X45512Y-25416D01*
X45583Y-25486D01*
X45675Y-25524D01*
X45774Y-25525D01*
X46324Y-25525D01*
X46416Y-25487D01*
X46486Y-25416D01*
X46524Y-25324D01*
X46525Y-25225D01*
X46525Y-26774D01*
X46524Y-26675D01*
X46486Y-26583D01*
X46416Y-26512D01*
X46324Y-26474D01*
X46112Y-26475D01*
X46050Y-26537D01*
X46050Y-26950D01*
X46057Y-26950D01*
X46057Y-27050D01*
X46050Y-27050D01*
X46050Y-27462D01*
X46112Y-27525D01*
X46324Y-27525D01*
X46416Y-27487D01*
X46486Y-27416D01*
X46524Y-27324D01*
X46525Y-27225D01*
X46525Y-27225D01*
X46554Y-27297D01*
X46700Y-27442D01*
X46700Y-28057D01*
X46555Y-28202D01*
X46502Y-28328D01*
X46460Y-28227D01*
X46367Y-28202D01*
X46297Y-28273D01*
X46297Y-28132D01*
X46272Y-28039D01*
X46075Y-27970D01*
X45950Y-27976D01*
X45950Y-27462D01*
X45950Y-27050D01*
X45950Y-26950D01*
X45950Y-26537D01*
X45887Y-26475D01*
X45675Y-26474D01*
X45583Y-26512D01*
X45513Y-26583D01*
X45475Y-26675D01*
X45474Y-26774D01*
X45475Y-26887D01*
X45537Y-26950D01*
X45950Y-26950D01*
X45950Y-27050D01*
X45537Y-27050D01*
X45475Y-27112D01*
X45474Y-27225D01*
X45475Y-27324D01*
X45513Y-27416D01*
X45583Y-27487D01*
X45675Y-27525D01*
X45887Y-27525D01*
X45950Y-27462D01*
X45950Y-27976D01*
X45867Y-27981D01*
X45727Y-28039D01*
X45702Y-28132D01*
X46000Y-28429D01*
X46297Y-28132D01*
X46297Y-28273D01*
X46070Y-28500D01*
X46367Y-28797D01*
X46460Y-28772D01*
X46499Y-28662D01*
X46554Y-28797D01*
X46702Y-28944D01*
X46895Y-29024D01*
X47103Y-29025D01*
X47297Y-28945D01*
X47444Y-28797D01*
X47500Y-28664D01*
X47554Y-28797D01*
X47702Y-28944D01*
X47895Y-29024D01*
X48103Y-29025D01*
X48297Y-28945D01*
X48444Y-28797D01*
X48474Y-28725D01*
X48474Y-28824D01*
X48512Y-28916D01*
X48583Y-28986D01*
X48675Y-29024D01*
X48774Y-29025D01*
X49324Y-29025D01*
X49416Y-28987D01*
X49486Y-28916D01*
X49524Y-28824D01*
X49525Y-28725D01*
X49525Y-28175D01*
X49487Y-28083D01*
X49416Y-28013D01*
X49324Y-27975D01*
X49300Y-27975D01*
X49300Y-27442D01*
X49444Y-27297D01*
X49524Y-27104D01*
X49525Y-26896D01*
X49525Y-31806D01*
X49472Y-31885D01*
X49450Y-32000D01*
X49450Y-34214D01*
X49445Y-34203D01*
X49297Y-34055D01*
X49104Y-33975D01*
X48896Y-33974D01*
X48703Y-34054D01*
X48555Y-34202D01*
X48502Y-34328D01*
X48460Y-34227D01*
X48367Y-34202D01*
X48297Y-34273D01*
X48297Y-34132D01*
X48272Y-34039D01*
X48075Y-33970D01*
X47867Y-33981D01*
X47727Y-34039D01*
X47702Y-34132D01*
X48000Y-34429D01*
X48297Y-34132D01*
X48297Y-34273D01*
X48070Y-34500D01*
X48076Y-34505D01*
X48005Y-34576D01*
X48000Y-34570D01*
X47994Y-34576D01*
X47923Y-34505D01*
X47929Y-34500D01*
X47632Y-34202D01*
X47539Y-34227D01*
X47500Y-34337D01*
X47445Y-34203D01*
X47297Y-34055D01*
X47104Y-33975D01*
X46896Y-33974D01*
X46703Y-34054D01*
X46555Y-34202D01*
X46499Y-34335D01*
X46445Y-34203D01*
X46297Y-34055D01*
X46297Y-34054D01*
X46297Y-28867D01*
X46000Y-28570D01*
X45929Y-28641D01*
X45929Y-28500D01*
X45632Y-28202D01*
X45539Y-28227D01*
X45500Y-28337D01*
X45445Y-28203D01*
X45297Y-28055D01*
X45297Y-28054D01*
X45297Y-25367D01*
X45000Y-25070D01*
X44929Y-25141D01*
X44929Y-25000D01*
X44632Y-24702D01*
X44539Y-24727D01*
X44500Y-24837D01*
X44445Y-24703D01*
X44297Y-24555D01*
X44104Y-24475D01*
X43896Y-24474D01*
X43703Y-24554D01*
X43555Y-24702D01*
X43499Y-24835D01*
X43445Y-24703D01*
X43297Y-24555D01*
X43104Y-24475D01*
X42896Y-24474D01*
X42703Y-24554D01*
X42555Y-24702D01*
X42499Y-24835D01*
X42445Y-24703D01*
X42297Y-24555D01*
X42104Y-24475D01*
X41896Y-24474D01*
X41703Y-24554D01*
X41555Y-24702D01*
X41499Y-24835D01*
X41445Y-24703D01*
X41297Y-24555D01*
X41104Y-24475D01*
X40896Y-24474D01*
X40703Y-24554D01*
X40555Y-24702D01*
X40499Y-24835D01*
X40445Y-24703D01*
X40297Y-24555D01*
X40104Y-24475D01*
X39896Y-24474D01*
X39703Y-24554D01*
X39555Y-24702D01*
X39475Y-24895D01*
X39474Y-25103D01*
X39554Y-25297D01*
X39702Y-25444D01*
X39895Y-25524D01*
X40103Y-25525D01*
X40297Y-25445D01*
X40444Y-25297D01*
X40500Y-25164D01*
X40554Y-25297D01*
X40702Y-25444D01*
X40895Y-25524D01*
X41103Y-25525D01*
X41297Y-25445D01*
X41444Y-25297D01*
X41500Y-25164D01*
X41554Y-25297D01*
X41702Y-25444D01*
X41895Y-25524D01*
X42103Y-25525D01*
X42297Y-25445D01*
X42444Y-25297D01*
X42500Y-25164D01*
X42554Y-25297D01*
X42702Y-25444D01*
X42895Y-25524D01*
X43103Y-25525D01*
X43297Y-25445D01*
X43444Y-25297D01*
X43500Y-25164D01*
X43554Y-25297D01*
X43702Y-25444D01*
X43895Y-25524D01*
X44103Y-25525D01*
X44297Y-25445D01*
X44444Y-25297D01*
X44497Y-25171D01*
X44539Y-25272D01*
X44632Y-25297D01*
X44929Y-25000D01*
X44929Y-25141D01*
X44702Y-25367D01*
X44727Y-25460D01*
X44924Y-25529D01*
X45132Y-25518D01*
X45272Y-25460D01*
X45297Y-25367D01*
X45297Y-28054D01*
X45104Y-27975D01*
X44896Y-27974D01*
X44703Y-28054D01*
X44555Y-28202D01*
X44499Y-28335D01*
X44445Y-28203D01*
X44297Y-28055D01*
X44104Y-27975D01*
X43896Y-27974D01*
X43703Y-28054D01*
X43555Y-28202D01*
X43499Y-28335D01*
X43445Y-28203D01*
X43297Y-28055D01*
X43104Y-27975D01*
X42896Y-27974D01*
X42703Y-28054D01*
X42555Y-28202D01*
X42499Y-28335D01*
X42445Y-28203D01*
X42297Y-28055D01*
X42104Y-27975D01*
X41896Y-27974D01*
X41703Y-28054D01*
X41555Y-28202D01*
X41499Y-28335D01*
X41445Y-28203D01*
X41297Y-28055D01*
X41104Y-27975D01*
X40896Y-27974D01*
X40703Y-28054D01*
X40555Y-28202D01*
X40499Y-28335D01*
X40445Y-28203D01*
X40297Y-28055D01*
X40104Y-27975D01*
X39896Y-27974D01*
X39703Y-28054D01*
X39555Y-28202D01*
X39499Y-28335D01*
X39445Y-28203D01*
X39297Y-28055D01*
X39104Y-27975D01*
X39025Y-27975D01*
X39025Y-24896D01*
X38945Y-24703D01*
X38797Y-24555D01*
X38604Y-24475D01*
X38396Y-24474D01*
X38203Y-24554D01*
X38055Y-24702D01*
X38002Y-24828D01*
X37960Y-24727D01*
X37867Y-24702D01*
X37797Y-24773D01*
X37797Y-24632D01*
X37772Y-24539D01*
X37575Y-24470D01*
X37367Y-24481D01*
X37227Y-24539D01*
X37202Y-24632D01*
X37500Y-24929D01*
X37797Y-24632D01*
X37797Y-24773D01*
X37570Y-25000D01*
X37867Y-25297D01*
X37960Y-25272D01*
X37999Y-25162D01*
X38054Y-25297D01*
X38202Y-25444D01*
X38395Y-25524D01*
X38603Y-25525D01*
X38797Y-25445D01*
X38944Y-25297D01*
X39024Y-25104D01*
X39025Y-24896D01*
X39025Y-27975D01*
X38896Y-27974D01*
X38703Y-28054D01*
X38555Y-28202D01*
X38499Y-28335D01*
X38445Y-28203D01*
X38297Y-28055D01*
X38104Y-27975D01*
X37896Y-27974D01*
X37797Y-28015D01*
X37797Y-25367D01*
X37500Y-25070D01*
X37429Y-25141D01*
X37429Y-25000D01*
X37132Y-24702D01*
X37039Y-24727D01*
X37025Y-24768D01*
X37025Y-24675D01*
X36987Y-24583D01*
X36916Y-24513D01*
X36824Y-24475D01*
X36725Y-24474D01*
X36175Y-24474D01*
X36083Y-24512D01*
X36013Y-24583D01*
X35975Y-24675D01*
X35974Y-24774D01*
X35974Y-25324D01*
X36012Y-25416D01*
X36083Y-25486D01*
X36175Y-25524D01*
X36274Y-25525D01*
X36824Y-25525D01*
X36916Y-25487D01*
X36986Y-25416D01*
X37024Y-25324D01*
X37025Y-25237D01*
X37039Y-25272D01*
X37132Y-25297D01*
X37429Y-25000D01*
X37429Y-25141D01*
X37202Y-25367D01*
X37227Y-25460D01*
X37424Y-25529D01*
X37632Y-25518D01*
X37772Y-25460D01*
X37797Y-25367D01*
X37797Y-28015D01*
X37703Y-28054D01*
X37622Y-28135D01*
X37622Y-27236D01*
X37622Y-26970D01*
X37531Y-26782D01*
X37376Y-26643D01*
X37236Y-26584D01*
X37153Y-26633D01*
X37153Y-27053D01*
X37573Y-27053D01*
X37622Y-26970D01*
X37622Y-27236D01*
X37573Y-27153D01*
X37153Y-27153D01*
X37153Y-27573D01*
X37236Y-27622D01*
X37424Y-27531D01*
X37564Y-27376D01*
X37622Y-27236D01*
X37622Y-28135D01*
X37555Y-28202D01*
X37499Y-28335D01*
X37445Y-28203D01*
X37297Y-28055D01*
X37104Y-27975D01*
X37097Y-27975D01*
X37097Y-27027D01*
X37053Y-26982D01*
X37053Y-26633D01*
X36970Y-26584D01*
X36865Y-26635D01*
X36921Y-26501D01*
X36921Y-26292D01*
X36841Y-26099D01*
X36694Y-25951D01*
X36501Y-25871D01*
X36292Y-25871D01*
X36099Y-25951D01*
X35951Y-26098D01*
X35871Y-26291D01*
X35871Y-26500D01*
X35951Y-26693D01*
X36098Y-26841D01*
X36291Y-26921D01*
X36500Y-26921D01*
X36627Y-26869D01*
X36584Y-26970D01*
X36633Y-27053D01*
X36982Y-27053D01*
X37027Y-27097D01*
X37053Y-27071D01*
X37097Y-27027D01*
X37097Y-27975D01*
X37053Y-27975D01*
X37053Y-27573D01*
X37053Y-27153D01*
X36633Y-27153D01*
X36584Y-27236D01*
X36675Y-27424D01*
X36830Y-27564D01*
X36970Y-27622D01*
X37053Y-27573D01*
X37053Y-27975D01*
X36896Y-27974D01*
X36703Y-28054D01*
X36555Y-28202D01*
X36499Y-28335D01*
X36445Y-28203D01*
X36297Y-28055D01*
X36104Y-27975D01*
X35896Y-27974D01*
X35703Y-28054D01*
X35555Y-28202D01*
X35525Y-28274D01*
X35525Y-24896D01*
X35445Y-24703D01*
X35297Y-24555D01*
X35104Y-24475D01*
X34896Y-24474D01*
X34703Y-24554D01*
X34555Y-24702D01*
X34525Y-24774D01*
X34525Y-24675D01*
X34487Y-24583D01*
X34416Y-24513D01*
X34324Y-24475D01*
X34225Y-24474D01*
X33675Y-24474D01*
X33583Y-24512D01*
X33513Y-24583D01*
X33475Y-24675D01*
X33474Y-24774D01*
X33474Y-25324D01*
X33512Y-25416D01*
X33583Y-25486D01*
X33675Y-25524D01*
X33774Y-25525D01*
X34324Y-25525D01*
X34416Y-25487D01*
X34486Y-25416D01*
X34524Y-25324D01*
X34525Y-25225D01*
X34525Y-25225D01*
X34554Y-25297D01*
X34702Y-25444D01*
X34895Y-25524D01*
X35103Y-25525D01*
X35297Y-25445D01*
X35444Y-25297D01*
X35524Y-25104D01*
X35525Y-24896D01*
X35525Y-28274D01*
X35499Y-28335D01*
X35445Y-28203D01*
X35297Y-28055D01*
X35104Y-27975D01*
X34896Y-27974D01*
X34703Y-28054D01*
X34555Y-28202D01*
X34499Y-28335D01*
X34445Y-28203D01*
X34297Y-28055D01*
X34104Y-27975D01*
X33896Y-27974D01*
X33703Y-28054D01*
X33555Y-28202D01*
X33499Y-28335D01*
X33445Y-28203D01*
X33297Y-28055D01*
X33104Y-27975D01*
X32896Y-27974D01*
X32703Y-28054D01*
X32555Y-28202D01*
X32499Y-28335D01*
X32445Y-28203D01*
X32297Y-28055D01*
X32104Y-27975D01*
X31896Y-27974D01*
X31703Y-28054D01*
X31555Y-28202D01*
X31499Y-28335D01*
X31445Y-28203D01*
X31297Y-28055D01*
X31104Y-27975D01*
X30896Y-27974D01*
X30703Y-28054D01*
X30555Y-28202D01*
X30499Y-28335D01*
X30445Y-28203D01*
X30297Y-28055D01*
X30104Y-27975D01*
X29896Y-27974D01*
X29703Y-28054D01*
X29555Y-28202D01*
X29475Y-28395D01*
X29474Y-28603D01*
X29554Y-28797D01*
X29700Y-28942D01*
X29700Y-29375D01*
X28029Y-31045D01*
X28029Y-25575D01*
X28018Y-25367D01*
X27960Y-25227D01*
X27867Y-25202D01*
X27570Y-25500D01*
X27867Y-25797D01*
X27960Y-25772D01*
X28029Y-25575D01*
X28029Y-31045D01*
X28025Y-31050D01*
X28025Y-30396D01*
X27945Y-30203D01*
X27797Y-30055D01*
X27664Y-29999D01*
X27797Y-29945D01*
X27944Y-29797D01*
X28024Y-29604D01*
X28025Y-29396D01*
X27945Y-29203D01*
X27797Y-29055D01*
X27664Y-28999D01*
X27797Y-28945D01*
X27944Y-28797D01*
X28024Y-28604D01*
X28025Y-28396D01*
X27945Y-28203D01*
X27797Y-28055D01*
X27664Y-27999D01*
X27797Y-27945D01*
X27944Y-27797D01*
X28024Y-27604D01*
X28025Y-27396D01*
X27945Y-27203D01*
X27797Y-27055D01*
X27664Y-26999D01*
X27797Y-26945D01*
X27944Y-26797D01*
X28024Y-26604D01*
X28025Y-26396D01*
X27945Y-26203D01*
X27797Y-26055D01*
X27671Y-26002D01*
X27772Y-25960D01*
X27797Y-25867D01*
X27500Y-25570D01*
X27429Y-25641D01*
X27429Y-25500D01*
X27132Y-25202D01*
X27039Y-25227D01*
X26970Y-25424D01*
X26981Y-25632D01*
X27039Y-25772D01*
X27132Y-25797D01*
X27429Y-25500D01*
X27429Y-25641D01*
X27202Y-25867D01*
X27227Y-25960D01*
X27337Y-25999D01*
X27203Y-26054D01*
X27055Y-26202D01*
X26975Y-26395D01*
X26974Y-26603D01*
X27054Y-26797D01*
X27202Y-26944D01*
X27335Y-27000D01*
X27203Y-27054D01*
X27055Y-27202D01*
X26975Y-27395D01*
X26974Y-27603D01*
X27054Y-27797D01*
X27202Y-27944D01*
X27335Y-28000D01*
X27203Y-28054D01*
X27055Y-28202D01*
X26975Y-28395D01*
X26974Y-28603D01*
X27054Y-28797D01*
X27202Y-28944D01*
X27335Y-29000D01*
X27203Y-29054D01*
X27055Y-29202D01*
X26975Y-29395D01*
X26974Y-29603D01*
X27054Y-29797D01*
X27202Y-29944D01*
X27335Y-30000D01*
X27203Y-30054D01*
X27055Y-30202D01*
X26975Y-30395D01*
X26974Y-30603D01*
X27054Y-30797D01*
X27202Y-30944D01*
X27395Y-31024D01*
X27603Y-31025D01*
X27797Y-30945D01*
X27944Y-30797D01*
X28024Y-30604D01*
X28025Y-30396D01*
X28025Y-31050D01*
X27287Y-31787D01*
X27222Y-31885D01*
X27204Y-31974D01*
X27175Y-31974D01*
X27083Y-32012D01*
X27013Y-32083D01*
X26975Y-32175D01*
X26974Y-32274D01*
X26974Y-32824D01*
X27012Y-32916D01*
X27083Y-32986D01*
X27175Y-33024D01*
X27262Y-33025D01*
X27227Y-33039D01*
X27202Y-33132D01*
X27500Y-33429D01*
X27797Y-33132D01*
X27772Y-33039D01*
X27731Y-33025D01*
X27824Y-33025D01*
X27916Y-32987D01*
X27986Y-32916D01*
X28024Y-32824D01*
X28025Y-32725D01*
X28025Y-32175D01*
X27987Y-32083D01*
X27916Y-32013D01*
X27912Y-32011D01*
X29700Y-30224D01*
X29700Y-30750D01*
X29700Y-31057D01*
X29555Y-31202D01*
X29475Y-31395D01*
X29474Y-31603D01*
X29554Y-31797D01*
X29702Y-31944D01*
X29828Y-31997D01*
X29727Y-32039D01*
X29702Y-32132D01*
X30000Y-32429D01*
X30297Y-32132D01*
X30272Y-32039D01*
X30162Y-32000D01*
X30297Y-31945D01*
X30444Y-31797D01*
X30524Y-31604D01*
X30525Y-31396D01*
X30445Y-31203D01*
X30300Y-31057D01*
X30300Y-30874D01*
X30399Y-30774D01*
X30603Y-30775D01*
X30797Y-30695D01*
X30944Y-30547D01*
X31024Y-30354D01*
X31025Y-30146D01*
X30945Y-29953D01*
X30797Y-29805D01*
X30604Y-29725D01*
X30396Y-29724D01*
X30300Y-29764D01*
X30300Y-29500D01*
X30300Y-28942D01*
X30444Y-28797D01*
X30500Y-28664D01*
X30554Y-28797D01*
X30702Y-28944D01*
X30895Y-29024D01*
X31103Y-29025D01*
X31297Y-28945D01*
X31444Y-28797D01*
X31500Y-28664D01*
X31554Y-28797D01*
X31702Y-28944D01*
X31895Y-29024D01*
X32103Y-29025D01*
X32297Y-28945D01*
X32444Y-28797D01*
X32500Y-28664D01*
X32554Y-28797D01*
X32702Y-28944D01*
X32895Y-29024D01*
X33103Y-29025D01*
X33297Y-28945D01*
X33444Y-28797D01*
X33500Y-28664D01*
X33554Y-28797D01*
X33702Y-28944D01*
X33895Y-29024D01*
X34103Y-29025D01*
X34297Y-28945D01*
X34444Y-28797D01*
X34500Y-28664D01*
X34554Y-28797D01*
X34702Y-28944D01*
X34895Y-29024D01*
X35103Y-29025D01*
X35297Y-28945D01*
X35444Y-28797D01*
X35500Y-28664D01*
X35554Y-28797D01*
X35702Y-28944D01*
X35895Y-29024D01*
X36103Y-29025D01*
X36297Y-28945D01*
X36444Y-28797D01*
X36500Y-28664D01*
X36554Y-28797D01*
X36702Y-28944D01*
X36895Y-29024D01*
X37103Y-29025D01*
X37297Y-28945D01*
X37444Y-28797D01*
X37500Y-28664D01*
X37554Y-28797D01*
X37702Y-28944D01*
X37895Y-29024D01*
X38103Y-29025D01*
X38297Y-28945D01*
X38444Y-28797D01*
X38500Y-28664D01*
X38554Y-28797D01*
X38702Y-28944D01*
X38895Y-29024D01*
X39103Y-29025D01*
X39297Y-28945D01*
X39444Y-28797D01*
X39500Y-28664D01*
X39554Y-28797D01*
X39702Y-28944D01*
X39895Y-29024D01*
X40103Y-29025D01*
X40297Y-28945D01*
X40444Y-28797D01*
X40500Y-28664D01*
X40554Y-28797D01*
X40702Y-28944D01*
X40895Y-29024D01*
X41103Y-29025D01*
X41297Y-28945D01*
X41444Y-28797D01*
X41500Y-28664D01*
X41554Y-28797D01*
X41702Y-28944D01*
X41895Y-29024D01*
X42103Y-29025D01*
X42297Y-28945D01*
X42444Y-28797D01*
X42500Y-28664D01*
X42554Y-28797D01*
X42702Y-28944D01*
X42895Y-29024D01*
X43103Y-29025D01*
X43297Y-28945D01*
X43444Y-28797D01*
X43500Y-28664D01*
X43554Y-28797D01*
X43702Y-28944D01*
X43895Y-29024D01*
X44103Y-29025D01*
X44297Y-28945D01*
X44444Y-28797D01*
X44500Y-28664D01*
X44554Y-28797D01*
X44702Y-28944D01*
X44895Y-29024D01*
X45103Y-29025D01*
X45297Y-28945D01*
X45444Y-28797D01*
X45497Y-28671D01*
X45539Y-28772D01*
X45632Y-28797D01*
X45929Y-28500D01*
X45929Y-28641D01*
X45702Y-28867D01*
X45727Y-28960D01*
X45924Y-29029D01*
X46132Y-29018D01*
X46272Y-28960D01*
X46297Y-28867D01*
X46297Y-34054D01*
X46104Y-33975D01*
X45896Y-33974D01*
X45779Y-34022D01*
X45779Y-31325D01*
X45768Y-31117D01*
X45710Y-30977D01*
X45617Y-30952D01*
X45547Y-31023D01*
X45547Y-30882D01*
X45522Y-30789D01*
X45325Y-30720D01*
X45117Y-30731D01*
X44977Y-30789D01*
X44952Y-30882D01*
X45250Y-31179D01*
X45547Y-30882D01*
X45547Y-31023D01*
X45320Y-31250D01*
X45617Y-31547D01*
X45710Y-31522D01*
X45779Y-31325D01*
X45779Y-34022D01*
X45703Y-34054D01*
X45555Y-34202D01*
X45547Y-34221D01*
X45547Y-31617D01*
X45250Y-31320D01*
X45179Y-31391D01*
X45179Y-31250D01*
X44882Y-30952D01*
X44789Y-30977D01*
X44750Y-31087D01*
X44695Y-30953D01*
X44547Y-30805D01*
X44354Y-30725D01*
X44146Y-30724D01*
X43953Y-30804D01*
X43805Y-30952D01*
X43725Y-31145D01*
X43724Y-31353D01*
X43804Y-31547D01*
X43952Y-31694D01*
X44145Y-31774D01*
X44353Y-31775D01*
X44547Y-31695D01*
X44694Y-31547D01*
X44747Y-31421D01*
X44789Y-31522D01*
X44882Y-31547D01*
X45179Y-31250D01*
X45179Y-31391D01*
X44952Y-31617D01*
X44977Y-31710D01*
X45174Y-31779D01*
X45382Y-31768D01*
X45522Y-31710D01*
X45547Y-31617D01*
X45547Y-34221D01*
X45499Y-34335D01*
X45445Y-34203D01*
X45297Y-34055D01*
X45104Y-33975D01*
X44896Y-33974D01*
X44703Y-34054D01*
X44555Y-34202D01*
X44499Y-34335D01*
X44445Y-34203D01*
X44297Y-34055D01*
X44104Y-33975D01*
X43896Y-33974D01*
X43703Y-34054D01*
X43555Y-34202D01*
X43499Y-34335D01*
X43445Y-34203D01*
X43297Y-34055D01*
X43104Y-33975D01*
X42896Y-33974D01*
X42703Y-34054D01*
X42555Y-34202D01*
X42525Y-34274D01*
X42525Y-31146D01*
X42445Y-30953D01*
X42297Y-30805D01*
X42104Y-30725D01*
X41899Y-30724D01*
X40712Y-29537D01*
X40614Y-29472D01*
X40500Y-29450D01*
X37442Y-29450D01*
X37297Y-29305D01*
X37104Y-29225D01*
X36896Y-29224D01*
X36703Y-29304D01*
X36557Y-29450D01*
X35192Y-29450D01*
X35047Y-29305D01*
X34854Y-29225D01*
X34646Y-29224D01*
X34453Y-29304D01*
X34305Y-29452D01*
X34225Y-29645D01*
X34224Y-29850D01*
X34125Y-29950D01*
X33942Y-29950D01*
X33797Y-29805D01*
X33604Y-29725D01*
X33396Y-29724D01*
X33203Y-29804D01*
X33055Y-29952D01*
X32975Y-30145D01*
X32974Y-30353D01*
X33054Y-30547D01*
X33202Y-30694D01*
X33395Y-30774D01*
X33603Y-30775D01*
X33797Y-30695D01*
X33942Y-30550D01*
X34250Y-30550D01*
X34250Y-30549D01*
X34364Y-30527D01*
X34364Y-30527D01*
X34462Y-30462D01*
X34649Y-30274D01*
X34853Y-30275D01*
X35047Y-30195D01*
X35192Y-30050D01*
X36557Y-30050D01*
X36702Y-30194D01*
X36895Y-30274D01*
X37103Y-30275D01*
X37297Y-30195D01*
X37442Y-30050D01*
X40375Y-30050D01*
X41475Y-31149D01*
X41474Y-31353D01*
X41554Y-31547D01*
X41702Y-31694D01*
X41895Y-31774D01*
X42103Y-31775D01*
X42297Y-31695D01*
X42444Y-31547D01*
X42524Y-31354D01*
X42525Y-31146D01*
X42525Y-34274D01*
X42499Y-34335D01*
X42445Y-34203D01*
X42297Y-34055D01*
X42104Y-33975D01*
X41896Y-33974D01*
X41703Y-34054D01*
X41555Y-34202D01*
X41499Y-34335D01*
X41445Y-34203D01*
X41297Y-34055D01*
X41104Y-33975D01*
X40896Y-33974D01*
X40703Y-34054D01*
X40555Y-34202D01*
X40499Y-34335D01*
X40445Y-34203D01*
X40297Y-34055D01*
X40104Y-33975D01*
X39896Y-33974D01*
X39703Y-34054D01*
X39555Y-34202D01*
X39525Y-34274D01*
X39525Y-31146D01*
X39445Y-30953D01*
X39297Y-30805D01*
X39104Y-30725D01*
X38896Y-30724D01*
X38703Y-30804D01*
X38555Y-30952D01*
X38475Y-31145D01*
X38474Y-31353D01*
X38554Y-31547D01*
X38702Y-31694D01*
X38895Y-31774D01*
X39103Y-31775D01*
X39297Y-31695D01*
X39444Y-31547D01*
X39524Y-31354D01*
X39525Y-31146D01*
X39525Y-34274D01*
X39499Y-34335D01*
X39445Y-34203D01*
X39297Y-34055D01*
X39104Y-33975D01*
X38896Y-33974D01*
X38703Y-34054D01*
X38555Y-34202D01*
X38499Y-34335D01*
X38445Y-34203D01*
X38297Y-34055D01*
X38104Y-33975D01*
X37896Y-33974D01*
X37703Y-34054D01*
X37555Y-34202D01*
X37525Y-34274D01*
X37525Y-32646D01*
X37445Y-32453D01*
X37297Y-32305D01*
X37104Y-32225D01*
X36896Y-32224D01*
X36703Y-32304D01*
X36555Y-32452D01*
X36475Y-32645D01*
X36474Y-32853D01*
X36554Y-33047D01*
X36702Y-33194D01*
X36895Y-33274D01*
X37103Y-33275D01*
X37297Y-33195D01*
X37444Y-33047D01*
X37524Y-32854D01*
X37525Y-32646D01*
X37525Y-34274D01*
X37499Y-34335D01*
X37445Y-34203D01*
X37297Y-34055D01*
X37104Y-33975D01*
X36896Y-33974D01*
X36703Y-34054D01*
X36555Y-34202D01*
X36499Y-34335D01*
X36445Y-34203D01*
X36297Y-34055D01*
X36104Y-33975D01*
X35896Y-33974D01*
X35703Y-34054D01*
X35555Y-34202D01*
X35499Y-34335D01*
X35445Y-34203D01*
X35297Y-34055D01*
X35275Y-34045D01*
X35275Y-32646D01*
X35195Y-32453D01*
X35047Y-32305D01*
X34854Y-32225D01*
X34646Y-32224D01*
X34453Y-32304D01*
X34305Y-32452D01*
X34225Y-32645D01*
X34224Y-32853D01*
X34304Y-33047D01*
X34452Y-33194D01*
X34645Y-33274D01*
X34853Y-33275D01*
X35047Y-33195D01*
X35194Y-33047D01*
X35274Y-32854D01*
X35275Y-32646D01*
X35275Y-34045D01*
X35104Y-33975D01*
X34896Y-33974D01*
X34703Y-34054D01*
X34555Y-34202D01*
X34499Y-34335D01*
X34445Y-34203D01*
X34297Y-34055D01*
X34104Y-33975D01*
X33896Y-33974D01*
X33703Y-34054D01*
X33555Y-34202D01*
X33499Y-34335D01*
X33445Y-34203D01*
X33297Y-34055D01*
X33104Y-33975D01*
X32896Y-33974D01*
X32703Y-34054D01*
X32555Y-34202D01*
X32499Y-34335D01*
X32445Y-34203D01*
X32297Y-34055D01*
X32104Y-33975D01*
X31896Y-33974D01*
X31703Y-34054D01*
X31555Y-34202D01*
X31499Y-34335D01*
X31445Y-34203D01*
X31297Y-34055D01*
X31104Y-33975D01*
X30896Y-33974D01*
X30703Y-34054D01*
X30555Y-34202D01*
X30529Y-34263D01*
X30529Y-32575D01*
X30518Y-32367D01*
X30460Y-32227D01*
X30367Y-32202D01*
X30070Y-32500D01*
X30367Y-32797D01*
X30460Y-32772D01*
X30529Y-32575D01*
X30529Y-34263D01*
X30499Y-34335D01*
X30445Y-34203D01*
X30297Y-34055D01*
X30297Y-34054D01*
X30297Y-32867D01*
X30000Y-32570D01*
X29929Y-32641D01*
X29929Y-32500D01*
X29632Y-32202D01*
X29539Y-32227D01*
X29470Y-32424D01*
X29481Y-32632D01*
X29539Y-32772D01*
X29632Y-32797D01*
X29929Y-32500D01*
X29929Y-32641D01*
X29702Y-32867D01*
X29727Y-32960D01*
X29924Y-33029D01*
X30132Y-33018D01*
X30272Y-32960D01*
X30297Y-32867D01*
X30297Y-34054D01*
X30104Y-33975D01*
X29896Y-33974D01*
X29703Y-34054D01*
X29555Y-34202D01*
X29475Y-34395D01*
X29474Y-34603D01*
X29554Y-34797D01*
X29702Y-34944D01*
X29895Y-35024D01*
X30103Y-35025D01*
X30297Y-34945D01*
X30444Y-34797D01*
X30500Y-34664D01*
X30554Y-34797D01*
X30702Y-34944D01*
X30895Y-35024D01*
X31103Y-35025D01*
X31297Y-34945D01*
X31444Y-34797D01*
X31500Y-34664D01*
X31554Y-34797D01*
X31702Y-34944D01*
X31895Y-35024D01*
X32103Y-35025D01*
X32297Y-34945D01*
X32444Y-34797D01*
X32500Y-34664D01*
X32554Y-34797D01*
X32702Y-34944D01*
X32895Y-35024D01*
X33103Y-35025D01*
X33297Y-34945D01*
X33444Y-34797D01*
X33500Y-34664D01*
X33554Y-34797D01*
X33702Y-34944D01*
X33895Y-35024D01*
X34103Y-35025D01*
X34297Y-34945D01*
X34444Y-34797D01*
X34500Y-34664D01*
X34554Y-34797D01*
X34702Y-34944D01*
X34895Y-35024D01*
X35103Y-35025D01*
X35297Y-34945D01*
X35444Y-34797D01*
X35500Y-34664D01*
X35554Y-34797D01*
X35702Y-34944D01*
X35895Y-35024D01*
X36103Y-35025D01*
X36297Y-34945D01*
X36444Y-34797D01*
X36500Y-34664D01*
X36554Y-34797D01*
X36702Y-34944D01*
X36895Y-35024D01*
X37100Y-35025D01*
X37200Y-35124D01*
X37200Y-41250D01*
X37200Y-44974D01*
X36925Y-44974D01*
X36925Y-36165D01*
X36860Y-36009D01*
X36741Y-35889D01*
X36584Y-35825D01*
X36415Y-35824D01*
X36259Y-35889D01*
X36139Y-36008D01*
X36075Y-36165D01*
X36074Y-36250D01*
X34287Y-38037D01*
X34222Y-38135D01*
X34200Y-38250D01*
X34200Y-44500D01*
X34200Y-48750D01*
X34200Y-50746D01*
X34171Y-50758D01*
X34008Y-50921D01*
X33920Y-51134D01*
X33919Y-51364D01*
X34008Y-51578D01*
X34171Y-51741D01*
X34384Y-51829D01*
X34614Y-51830D01*
X34828Y-51741D01*
X34991Y-51578D01*
X34999Y-51558D01*
X35008Y-51578D01*
X35171Y-51741D01*
X35384Y-51829D01*
X35614Y-51830D01*
X35828Y-51741D01*
X35991Y-51578D01*
X36079Y-51365D01*
X36080Y-51135D01*
X35991Y-50921D01*
X35828Y-50758D01*
X35615Y-50670D01*
X35385Y-50669D01*
X35171Y-50758D01*
X35008Y-50921D01*
X35000Y-50941D01*
X34991Y-50921D01*
X34828Y-50758D01*
X34800Y-50746D01*
X34800Y-48750D01*
X34800Y-44500D01*
X34800Y-38374D01*
X36499Y-36674D01*
X36584Y-36675D01*
X36740Y-36610D01*
X36860Y-36491D01*
X36924Y-36334D01*
X36925Y-36165D01*
X36925Y-44974D01*
X36675Y-44974D01*
X36583Y-45012D01*
X36513Y-45083D01*
X36475Y-45175D01*
X36474Y-45274D01*
X36474Y-45824D01*
X36512Y-45916D01*
X36583Y-45986D01*
X36675Y-46024D01*
X36774Y-46025D01*
X37200Y-46025D01*
X37200Y-50724D01*
X36675Y-50724D01*
X36583Y-50762D01*
X36513Y-50833D01*
X36475Y-50925D01*
X36474Y-51024D01*
X36474Y-51574D01*
X36512Y-51666D01*
X36583Y-51736D01*
X36675Y-51774D01*
X36774Y-51775D01*
X37200Y-51775D01*
X37200Y-53000D01*
X37222Y-53114D01*
X37287Y-53212D01*
X37700Y-53624D01*
X37700Y-55250D01*
X37700Y-56557D01*
X37555Y-56702D01*
X37525Y-56774D01*
X37525Y-56675D01*
X37487Y-56583D01*
X37416Y-56513D01*
X37324Y-56475D01*
X37225Y-56474D01*
X36675Y-56474D01*
X36583Y-56512D01*
X36513Y-56583D01*
X36475Y-56675D01*
X36474Y-56774D01*
X36474Y-57324D01*
X36512Y-57416D01*
X36583Y-57486D01*
X36675Y-57524D01*
X36774Y-57525D01*
X37324Y-57525D01*
X37416Y-57487D01*
X37486Y-57416D01*
X37524Y-57324D01*
X37525Y-57225D01*
X37525Y-57225D01*
X37554Y-57297D01*
X37702Y-57444D01*
X37895Y-57524D01*
X38103Y-57525D01*
X38297Y-57445D01*
X38444Y-57297D01*
X38500Y-57164D01*
X38554Y-57297D01*
X38702Y-57444D01*
X38895Y-57524D01*
X39103Y-57525D01*
X39297Y-57445D01*
X39444Y-57297D01*
X39497Y-57171D01*
X39539Y-57272D01*
X39632Y-57297D01*
X39929Y-57000D01*
X39632Y-56702D01*
X39539Y-56727D01*
X39500Y-56837D01*
X39445Y-56703D01*
X39297Y-56555D01*
X39104Y-56475D01*
X38896Y-56474D01*
X38703Y-56554D01*
X38555Y-56702D01*
X38499Y-56835D01*
X38445Y-56703D01*
X38300Y-56557D01*
X38300Y-55250D01*
X38300Y-53500D01*
X38293Y-53467D01*
X38787Y-53962D01*
X38787Y-53962D01*
X38885Y-54027D01*
X39000Y-54050D01*
X39557Y-54050D01*
X39702Y-54194D01*
X39895Y-54274D01*
X40103Y-54275D01*
X40297Y-54195D01*
X40444Y-54047D01*
X40524Y-53854D01*
X40525Y-53646D01*
X40445Y-53453D01*
X40297Y-53305D01*
X40164Y-53249D01*
X40297Y-53195D01*
X40444Y-53047D01*
X40524Y-52854D01*
X40525Y-52646D01*
X40445Y-52453D01*
X40300Y-52307D01*
X40300Y-51692D01*
X40444Y-51547D01*
X40500Y-51414D01*
X40554Y-51547D01*
X40702Y-51694D01*
X40895Y-51774D01*
X41103Y-51775D01*
X41297Y-51695D01*
X41444Y-51547D01*
X41524Y-51354D01*
X41525Y-51146D01*
X41525Y-48646D01*
X41445Y-48453D01*
X41367Y-48374D01*
X41444Y-48297D01*
X41524Y-48104D01*
X41525Y-47896D01*
X41525Y-45396D01*
X41445Y-45203D01*
X41297Y-45055D01*
X41104Y-44975D01*
X40896Y-44974D01*
X40703Y-45054D01*
X40555Y-45202D01*
X40502Y-45328D01*
X40460Y-45227D01*
X40367Y-45202D01*
X40297Y-45273D01*
X40297Y-45132D01*
X40272Y-45039D01*
X40075Y-44970D01*
X39867Y-44981D01*
X39727Y-45039D01*
X39702Y-45132D01*
X40000Y-45429D01*
X40297Y-45132D01*
X40297Y-45273D01*
X40070Y-45500D01*
X40367Y-45797D01*
X40460Y-45772D01*
X40499Y-45662D01*
X40554Y-45797D01*
X40702Y-45944D01*
X40895Y-46024D01*
X41103Y-46025D01*
X41297Y-45945D01*
X41444Y-45797D01*
X41524Y-45604D01*
X41525Y-45396D01*
X41525Y-47896D01*
X41445Y-47703D01*
X41297Y-47555D01*
X41104Y-47475D01*
X40896Y-47474D01*
X40703Y-47554D01*
X40555Y-47702D01*
X40475Y-47895D01*
X40474Y-48103D01*
X40554Y-48297D01*
X40632Y-48375D01*
X40555Y-48452D01*
X40475Y-48645D01*
X40474Y-48853D01*
X40554Y-49047D01*
X40702Y-49194D01*
X40895Y-49274D01*
X41103Y-49275D01*
X41297Y-49195D01*
X41444Y-49047D01*
X41524Y-48854D01*
X41525Y-48646D01*
X41525Y-51146D01*
X41445Y-50953D01*
X41297Y-50805D01*
X41104Y-50725D01*
X40896Y-50724D01*
X40703Y-50804D01*
X40555Y-50952D01*
X40499Y-51085D01*
X40445Y-50953D01*
X40297Y-50805D01*
X40297Y-50804D01*
X40297Y-45867D01*
X40000Y-45570D01*
X39702Y-45867D01*
X39727Y-45960D01*
X39924Y-46029D01*
X40132Y-46018D01*
X40272Y-45960D01*
X40297Y-45867D01*
X40297Y-50804D01*
X40104Y-50725D01*
X39896Y-50724D01*
X39703Y-50804D01*
X39555Y-50952D01*
X39502Y-51078D01*
X39460Y-50977D01*
X39367Y-50952D01*
X39297Y-51023D01*
X39297Y-50882D01*
X39272Y-50789D01*
X39075Y-50720D01*
X38867Y-50731D01*
X38727Y-50789D01*
X38702Y-50882D01*
X39000Y-51179D01*
X39297Y-50882D01*
X39297Y-51023D01*
X39070Y-51250D01*
X39367Y-51547D01*
X39460Y-51522D01*
X39499Y-51412D01*
X39554Y-51547D01*
X39700Y-51692D01*
X39700Y-52307D01*
X39555Y-52452D01*
X39475Y-52645D01*
X39474Y-52853D01*
X39554Y-53047D01*
X39702Y-53194D01*
X39835Y-53250D01*
X39703Y-53304D01*
X39557Y-53450D01*
X39297Y-53450D01*
X39297Y-51617D01*
X39000Y-51320D01*
X38702Y-51617D01*
X38727Y-51710D01*
X38924Y-51779D01*
X39132Y-51768D01*
X39272Y-51710D01*
X39297Y-51617D01*
X39297Y-53450D01*
X39124Y-53450D01*
X38300Y-52625D01*
X38300Y-51692D01*
X38444Y-51547D01*
X38497Y-51421D01*
X38539Y-51522D01*
X38632Y-51547D01*
X38929Y-51250D01*
X38632Y-50952D01*
X38539Y-50977D01*
X38500Y-51087D01*
X38445Y-50953D01*
X38297Y-50805D01*
X38104Y-50725D01*
X37896Y-50724D01*
X37800Y-50764D01*
X37800Y-49235D01*
X37895Y-49274D01*
X38103Y-49275D01*
X38297Y-49195D01*
X38444Y-49047D01*
X38524Y-48854D01*
X38525Y-48646D01*
X38445Y-48453D01*
X38367Y-48374D01*
X38444Y-48297D01*
X38524Y-48104D01*
X38525Y-47896D01*
X38445Y-47703D01*
X38297Y-47555D01*
X38104Y-47475D01*
X37896Y-47474D01*
X37800Y-47514D01*
X37800Y-45985D01*
X37895Y-46024D01*
X38103Y-46025D01*
X38297Y-45945D01*
X38444Y-45797D01*
X38500Y-45664D01*
X38554Y-45797D01*
X38702Y-45944D01*
X38895Y-46024D01*
X39103Y-46025D01*
X39297Y-45945D01*
X39444Y-45797D01*
X39497Y-45671D01*
X39539Y-45772D01*
X39632Y-45797D01*
X39929Y-45500D01*
X39632Y-45202D01*
X39539Y-45227D01*
X39500Y-45337D01*
X39445Y-45203D01*
X39297Y-45055D01*
X39104Y-44975D01*
X38896Y-44974D01*
X38703Y-45054D01*
X38555Y-45202D01*
X38499Y-45335D01*
X38445Y-45203D01*
X38297Y-45055D01*
X38104Y-44975D01*
X37896Y-44974D01*
X37800Y-45014D01*
X37800Y-41250D01*
X37800Y-35000D01*
X37796Y-34984D01*
X37895Y-35024D01*
X38103Y-35025D01*
X38297Y-34945D01*
X38444Y-34797D01*
X38500Y-34664D01*
X38554Y-34797D01*
X38702Y-34944D01*
X38895Y-35024D01*
X39103Y-35025D01*
X39297Y-34945D01*
X39444Y-34797D01*
X39500Y-34664D01*
X39554Y-34797D01*
X39702Y-34944D01*
X39895Y-35024D01*
X40103Y-35025D01*
X40297Y-34945D01*
X40444Y-34797D01*
X40500Y-34664D01*
X40554Y-34797D01*
X40702Y-34944D01*
X40895Y-35024D01*
X41103Y-35025D01*
X41297Y-34945D01*
X41444Y-34797D01*
X41500Y-34664D01*
X41554Y-34797D01*
X41702Y-34944D01*
X41895Y-35024D01*
X42103Y-35025D01*
X42297Y-34945D01*
X42444Y-34797D01*
X42500Y-34664D01*
X42554Y-34797D01*
X42702Y-34944D01*
X42895Y-35024D01*
X43103Y-35025D01*
X43203Y-34984D01*
X43200Y-35000D01*
X43200Y-36750D01*
X43222Y-36864D01*
X43287Y-36962D01*
X43475Y-37149D01*
X43474Y-37353D01*
X43554Y-37547D01*
X43702Y-37694D01*
X43895Y-37774D01*
X44103Y-37775D01*
X44297Y-37695D01*
X44444Y-37547D01*
X44450Y-37535D01*
X44450Y-38875D01*
X43787Y-39537D01*
X43722Y-39635D01*
X43700Y-39750D01*
X43700Y-48250D01*
X43722Y-48364D01*
X43787Y-48462D01*
X44787Y-49462D01*
X44787Y-49462D01*
X44787Y-49462D01*
X47287Y-51962D01*
X47385Y-52027D01*
X47500Y-52050D01*
X49000Y-52050D01*
X49157Y-52050D01*
X49202Y-52094D01*
X49395Y-52174D01*
X49603Y-52175D01*
X49797Y-52095D01*
X49944Y-51947D01*
X50000Y-51814D01*
X50054Y-51947D01*
X50202Y-52094D01*
X50395Y-52174D01*
X50603Y-52175D01*
X50797Y-52095D01*
X50944Y-51947D01*
X50974Y-51875D01*
X50974Y-51875D01*
X50975Y-51974D01*
X51013Y-52066D01*
X51083Y-52137D01*
X51175Y-52175D01*
X51387Y-52175D01*
X51450Y-52112D01*
X51450Y-51700D01*
X51442Y-51700D01*
X51442Y-51600D01*
X51450Y-51600D01*
X51450Y-51187D01*
X51387Y-51125D01*
X51175Y-51124D01*
X51083Y-51162D01*
X51013Y-51233D01*
X50975Y-51325D01*
X50974Y-51424D01*
X50974Y-51424D01*
X50945Y-51353D01*
X50797Y-51205D01*
X50604Y-51125D01*
X50396Y-51124D01*
X50203Y-51204D01*
X50055Y-51352D01*
X49999Y-51485D01*
X49945Y-51353D01*
X49797Y-51205D01*
X49604Y-51125D01*
X49396Y-51124D01*
X49203Y-51204D01*
X49055Y-51352D01*
X49014Y-51450D01*
X49000Y-51450D01*
X47624Y-51450D01*
X47525Y-51350D01*
X47525Y-37146D01*
X47445Y-36953D01*
X47297Y-36805D01*
X47104Y-36725D01*
X46896Y-36724D01*
X46703Y-36804D01*
X46555Y-36952D01*
X46475Y-37145D01*
X46474Y-37353D01*
X46554Y-37547D01*
X46702Y-37694D01*
X46895Y-37774D01*
X47103Y-37775D01*
X47297Y-37695D01*
X47444Y-37547D01*
X47524Y-37354D01*
X47525Y-37146D01*
X47525Y-51350D01*
X47051Y-50877D01*
X47051Y-40401D01*
X47048Y-39983D01*
X46894Y-39611D01*
X46747Y-39523D01*
X46676Y-39594D01*
X46676Y-39452D01*
X46588Y-39305D01*
X46201Y-39148D01*
X45783Y-39151D01*
X45411Y-39305D01*
X45323Y-39452D01*
X46000Y-40129D01*
X46676Y-39452D01*
X46676Y-39594D01*
X46070Y-40200D01*
X46747Y-40876D01*
X46894Y-40788D01*
X47051Y-40401D01*
X47051Y-50877D01*
X46676Y-50502D01*
X46676Y-40947D01*
X46000Y-40270D01*
X45929Y-40341D01*
X45929Y-40200D01*
X45252Y-39523D01*
X45105Y-39611D01*
X44948Y-39998D01*
X44951Y-40416D01*
X45105Y-40788D01*
X45252Y-40876D01*
X45929Y-40200D01*
X45929Y-40341D01*
X45323Y-40947D01*
X45411Y-41094D01*
X45798Y-41251D01*
X46216Y-41248D01*
X46588Y-41094D01*
X46676Y-40947D01*
X46676Y-50502D01*
X45212Y-49037D01*
X45212Y-49037D01*
X45212Y-49037D01*
X44300Y-48125D01*
X44300Y-39874D01*
X44962Y-39212D01*
X44962Y-39212D01*
X45027Y-39114D01*
X45049Y-39000D01*
X45050Y-39000D01*
X45050Y-35025D01*
X45103Y-35025D01*
X45297Y-34945D01*
X45444Y-34797D01*
X45500Y-34664D01*
X45554Y-34797D01*
X45700Y-34942D01*
X45700Y-37698D01*
X45639Y-37758D01*
X45575Y-37915D01*
X45574Y-38084D01*
X45639Y-38240D01*
X45758Y-38360D01*
X45915Y-38424D01*
X46084Y-38425D01*
X46240Y-38360D01*
X46360Y-38241D01*
X46424Y-38084D01*
X46425Y-37915D01*
X46360Y-37759D01*
X46300Y-37698D01*
X46300Y-35220D01*
X46385Y-35277D01*
X46500Y-35300D01*
X49500Y-35300D01*
X49500Y-35299D01*
X49614Y-35277D01*
X49614Y-35277D01*
X49712Y-35212D01*
X49962Y-34962D01*
X49962Y-34962D01*
X50027Y-34864D01*
X50049Y-34750D01*
X50050Y-34750D01*
X50050Y-32124D01*
X50624Y-31550D01*
X70250Y-31550D01*
X70250Y-31549D01*
X70364Y-31527D01*
X70364Y-31527D01*
X70462Y-31462D01*
X71212Y-30712D01*
X71212Y-30712D01*
X71277Y-30614D01*
X71299Y-30500D01*
X71300Y-30500D01*
X71300Y-28442D01*
X71444Y-28297D01*
X71524Y-28104D01*
X71525Y-27896D01*
X71525Y-63230D01*
X71025Y-63230D01*
X71025Y-35475D01*
X71025Y-34925D01*
X71025Y-33975D01*
X71025Y-33425D01*
X70987Y-33333D01*
X70916Y-33263D01*
X70824Y-33225D01*
X70725Y-33224D01*
X70175Y-33224D01*
X70083Y-33262D01*
X70013Y-33333D01*
X69975Y-33425D01*
X69974Y-33524D01*
X69974Y-34074D01*
X70012Y-34166D01*
X70083Y-34236D01*
X70175Y-34274D01*
X70274Y-34275D01*
X70824Y-34275D01*
X70916Y-34237D01*
X70986Y-34166D01*
X71024Y-34074D01*
X71025Y-33975D01*
X71025Y-34925D01*
X70987Y-34833D01*
X70916Y-34763D01*
X70824Y-34725D01*
X70725Y-34724D01*
X70175Y-34724D01*
X70083Y-34762D01*
X70013Y-34833D01*
X69975Y-34925D01*
X69974Y-35024D01*
X69974Y-35024D01*
X69945Y-34953D01*
X69797Y-34805D01*
X69680Y-34756D01*
X69212Y-34287D01*
X69114Y-34222D01*
X69000Y-34200D01*
X67785Y-34200D01*
X67797Y-34195D01*
X67944Y-34047D01*
X68024Y-33854D01*
X68025Y-33646D01*
X67945Y-33453D01*
X67797Y-33305D01*
X67604Y-33225D01*
X67396Y-33224D01*
X67203Y-33304D01*
X67055Y-33452D01*
X66975Y-33645D01*
X66974Y-33853D01*
X67054Y-34047D01*
X67202Y-34194D01*
X67214Y-34200D01*
X66025Y-34200D01*
X66025Y-33146D01*
X65945Y-32953D01*
X65797Y-32805D01*
X65604Y-32725D01*
X65396Y-32724D01*
X65203Y-32804D01*
X65055Y-32952D01*
X64975Y-33145D01*
X64974Y-33353D01*
X65054Y-33547D01*
X65202Y-33694D01*
X65395Y-33774D01*
X65603Y-33775D01*
X65797Y-33695D01*
X65944Y-33547D01*
X66024Y-33354D01*
X66025Y-33146D01*
X66025Y-34200D01*
X63025Y-34200D01*
X63025Y-33146D01*
X62945Y-32953D01*
X62797Y-32805D01*
X62604Y-32725D01*
X62396Y-32724D01*
X62203Y-32804D01*
X62055Y-32952D01*
X61975Y-33145D01*
X61974Y-33353D01*
X62054Y-33547D01*
X62202Y-33694D01*
X62395Y-33774D01*
X62603Y-33775D01*
X62797Y-33695D01*
X62944Y-33547D01*
X63024Y-33354D01*
X63025Y-33146D01*
X63025Y-34200D01*
X61250Y-34200D01*
X61135Y-34222D01*
X61037Y-34287D01*
X59750Y-35575D01*
X59665Y-35574D01*
X59509Y-35639D01*
X59389Y-35758D01*
X59325Y-35915D01*
X59324Y-36084D01*
X59389Y-36240D01*
X59508Y-36360D01*
X59665Y-36424D01*
X59834Y-36425D01*
X59990Y-36360D01*
X60110Y-36241D01*
X60174Y-36084D01*
X60175Y-35999D01*
X61374Y-34800D01*
X63129Y-34800D01*
X63008Y-34921D01*
X62920Y-35134D01*
X62919Y-35364D01*
X63008Y-35578D01*
X63171Y-35741D01*
X63384Y-35829D01*
X63614Y-35830D01*
X63828Y-35741D01*
X63991Y-35578D01*
X64000Y-35557D01*
X64092Y-35586D01*
X64429Y-35250D01*
X64092Y-34913D01*
X64000Y-34942D01*
X63991Y-34921D01*
X63870Y-34800D01*
X64176Y-34800D01*
X64163Y-34842D01*
X64500Y-35179D01*
X64836Y-34842D01*
X64823Y-34800D01*
X66214Y-34800D01*
X66203Y-34804D01*
X66055Y-34952D01*
X65975Y-35145D01*
X65974Y-35353D01*
X66054Y-35547D01*
X66202Y-35694D01*
X66395Y-35774D01*
X66603Y-35775D01*
X66797Y-35695D01*
X66944Y-35547D01*
X67000Y-35414D01*
X67054Y-35547D01*
X67202Y-35694D01*
X67395Y-35774D01*
X67603Y-35775D01*
X67797Y-35695D01*
X67944Y-35547D01*
X68000Y-35414D01*
X68054Y-35547D01*
X68202Y-35694D01*
X68395Y-35774D01*
X68603Y-35775D01*
X68797Y-35695D01*
X68944Y-35547D01*
X69000Y-35414D01*
X69054Y-35547D01*
X69202Y-35694D01*
X69395Y-35774D01*
X69603Y-35775D01*
X69797Y-35695D01*
X69944Y-35547D01*
X69974Y-35475D01*
X69974Y-35574D01*
X70012Y-35666D01*
X70083Y-35736D01*
X70175Y-35774D01*
X70274Y-35775D01*
X70824Y-35775D01*
X70916Y-35737D01*
X70986Y-35666D01*
X71024Y-35574D01*
X71025Y-35475D01*
X71025Y-63230D01*
X65769Y-63230D01*
X65769Y-50150D01*
X65769Y-39150D01*
X65749Y-39046D01*
X65690Y-38959D01*
X65603Y-38900D01*
X65500Y-38880D01*
X65084Y-38880D01*
X65084Y-35338D01*
X65074Y-35108D01*
X65006Y-34944D01*
X64907Y-34913D01*
X64570Y-35250D01*
X64907Y-35586D01*
X65006Y-35555D01*
X65084Y-35338D01*
X65084Y-38880D01*
X64836Y-38880D01*
X64836Y-35657D01*
X64500Y-35320D01*
X64163Y-35657D01*
X64194Y-35756D01*
X64411Y-35834D01*
X64641Y-35824D01*
X64805Y-35756D01*
X64836Y-35657D01*
X64836Y-38880D01*
X48000Y-38880D01*
X47896Y-38900D01*
X47809Y-38959D01*
X47750Y-39046D01*
X47730Y-39150D01*
X47730Y-50150D01*
X47730Y-50650D01*
X47750Y-50753D01*
X47809Y-50840D01*
X47896Y-50899D01*
X48000Y-50919D01*
X53000Y-50919D01*
X53103Y-50899D01*
X53190Y-50840D01*
X53249Y-50753D01*
X53269Y-50650D01*
X53269Y-50419D01*
X54000Y-50419D01*
X65500Y-50419D01*
X65603Y-50399D01*
X65690Y-50340D01*
X65749Y-50253D01*
X65769Y-50150D01*
X65769Y-63230D01*
X52025Y-63230D01*
X52025Y-51875D01*
X52025Y-51424D01*
X52024Y-51325D01*
X51986Y-51233D01*
X51916Y-51162D01*
X51824Y-51124D01*
X51612Y-51125D01*
X51550Y-51187D01*
X51550Y-51600D01*
X51962Y-51600D01*
X52025Y-51537D01*
X52025Y-51424D01*
X52025Y-51875D01*
X52025Y-51762D01*
X51962Y-51700D01*
X51550Y-51700D01*
X51550Y-52112D01*
X51612Y-52175D01*
X51824Y-52175D01*
X51916Y-52137D01*
X51986Y-52066D01*
X52024Y-51974D01*
X52025Y-51875D01*
X52025Y-63230D01*
X47051Y-63230D01*
X47051Y-62001D01*
X47048Y-61583D01*
X46894Y-61211D01*
X46747Y-61123D01*
X46676Y-61194D01*
X46676Y-61052D01*
X46588Y-60905D01*
X46201Y-60748D01*
X45783Y-60751D01*
X45411Y-60905D01*
X45323Y-61052D01*
X46000Y-61729D01*
X46676Y-61052D01*
X46676Y-61194D01*
X46070Y-61800D01*
X46747Y-62476D01*
X46894Y-62388D01*
X47051Y-62001D01*
X47051Y-63230D01*
X46676Y-63230D01*
X46676Y-62547D01*
X46000Y-61870D01*
X45929Y-61941D01*
X45929Y-61800D01*
X45252Y-61123D01*
X45105Y-61211D01*
X44948Y-61598D01*
X44951Y-62016D01*
X45105Y-62388D01*
X45252Y-62476D01*
X45929Y-61800D01*
X45929Y-61941D01*
X45323Y-62547D01*
X45411Y-62694D01*
X45798Y-62851D01*
X46216Y-62848D01*
X46588Y-62694D01*
X46676Y-62547D01*
X46676Y-63230D01*
X43525Y-63230D01*
X43525Y-53646D01*
X43445Y-53453D01*
X43297Y-53305D01*
X43164Y-53249D01*
X43297Y-53195D01*
X43444Y-53047D01*
X43524Y-52854D01*
X43525Y-52646D01*
X43445Y-52453D01*
X43297Y-52305D01*
X43104Y-52225D01*
X42896Y-52224D01*
X42703Y-52304D01*
X42555Y-52452D01*
X42475Y-52645D01*
X42474Y-52853D01*
X42554Y-53047D01*
X42702Y-53194D01*
X42835Y-53250D01*
X42703Y-53304D01*
X42555Y-53452D01*
X42475Y-53645D01*
X42474Y-53853D01*
X42554Y-54047D01*
X42702Y-54194D01*
X42895Y-54274D01*
X43103Y-54275D01*
X43297Y-54195D01*
X43444Y-54047D01*
X43524Y-53854D01*
X43525Y-53646D01*
X43525Y-63230D01*
X41525Y-63230D01*
X41525Y-56896D01*
X41445Y-56703D01*
X41297Y-56555D01*
X41104Y-56475D01*
X40896Y-56474D01*
X40703Y-56554D01*
X40555Y-56702D01*
X40502Y-56828D01*
X40460Y-56727D01*
X40367Y-56702D01*
X40297Y-56773D01*
X40297Y-56632D01*
X40272Y-56539D01*
X40075Y-56470D01*
X39867Y-56481D01*
X39727Y-56539D01*
X39702Y-56632D01*
X40000Y-56929D01*
X40297Y-56632D01*
X40297Y-56773D01*
X40070Y-57000D01*
X40367Y-57297D01*
X40460Y-57272D01*
X40499Y-57162D01*
X40554Y-57297D01*
X40702Y-57444D01*
X40895Y-57524D01*
X41103Y-57525D01*
X41297Y-57445D01*
X41444Y-57297D01*
X41524Y-57104D01*
X41525Y-56896D01*
X41525Y-63230D01*
X40297Y-63230D01*
X40297Y-57367D01*
X40000Y-57070D01*
X39702Y-57367D01*
X39727Y-57460D01*
X39924Y-57529D01*
X40132Y-57518D01*
X40272Y-57460D01*
X40297Y-57367D01*
X40297Y-63230D01*
X33025Y-63230D01*
X33025Y-56896D01*
X32945Y-56703D01*
X32797Y-56555D01*
X32604Y-56475D01*
X32396Y-56474D01*
X32203Y-56554D01*
X32055Y-56702D01*
X32025Y-56774D01*
X32025Y-56774D01*
X32024Y-56675D01*
X31986Y-56583D01*
X31916Y-56512D01*
X31824Y-56474D01*
X31612Y-56475D01*
X31550Y-56537D01*
X31550Y-56950D01*
X31557Y-56950D01*
X31557Y-57050D01*
X31550Y-57050D01*
X31550Y-57462D01*
X31612Y-57525D01*
X31824Y-57525D01*
X31916Y-57487D01*
X31986Y-57416D01*
X32024Y-57324D01*
X32025Y-57225D01*
X32025Y-57225D01*
X32054Y-57297D01*
X32202Y-57444D01*
X32395Y-57524D01*
X32603Y-57525D01*
X32797Y-57445D01*
X32944Y-57297D01*
X33024Y-57104D01*
X33025Y-56896D01*
X33025Y-63230D01*
X31450Y-63230D01*
X31450Y-57462D01*
X31450Y-57050D01*
X31450Y-56950D01*
X31450Y-56537D01*
X31387Y-56475D01*
X31175Y-56474D01*
X31083Y-56512D01*
X31013Y-56583D01*
X30975Y-56675D01*
X30974Y-56774D01*
X30975Y-56887D01*
X31037Y-56950D01*
X31450Y-56950D01*
X31450Y-57050D01*
X31037Y-57050D01*
X30975Y-57112D01*
X30974Y-57225D01*
X30975Y-57324D01*
X31013Y-57416D01*
X31083Y-57487D01*
X31175Y-57525D01*
X31387Y-57525D01*
X31450Y-57462D01*
X31450Y-63230D01*
X25047Y-63230D01*
X25047Y-43367D01*
X24750Y-43070D01*
X24679Y-43141D01*
X24679Y-43000D01*
X24382Y-42702D01*
X24289Y-42727D01*
X24220Y-42924D01*
X24231Y-43132D01*
X24289Y-43272D01*
X24382Y-43297D01*
X24679Y-43000D01*
X24679Y-43141D01*
X24452Y-43367D01*
X24477Y-43460D01*
X24674Y-43529D01*
X24882Y-43518D01*
X25022Y-43460D01*
X25047Y-43367D01*
X25047Y-63230D01*
X23269Y-63230D01*
X23269Y-21519D01*
X83730Y-21519D01*
X83730Y-63230D01*
M02*
