G04 (created by PCBNEW (2013-07-07 BZR 4022)-stable) date 12/12/2015 1:25:57 PM*
%MOIN*%
G04 Gerber Fmt 3.4, Leading zero omitted, Abs format*
%FSLAX34Y34*%
G01*
G70*
G90*
G04 APERTURE LIST*
%ADD10C,0.00590551*%
%ADD11R,0.055X0.055*%
%ADD12C,0.055*%
%ADD13C,0.06*%
%ADD14C,0.066*%
%ADD15C,0.16*%
G04 APERTURE END LIST*
G54D10*
G54D11*
X32750Y-43000D03*
G54D12*
X31750Y-43000D03*
X30750Y-43000D03*
X29750Y-43000D03*
X28750Y-43000D03*
X27750Y-43000D03*
X26750Y-43000D03*
X25750Y-43000D03*
X24750Y-43000D03*
G54D11*
X46000Y-25000D03*
G54D12*
X45000Y-25000D03*
X44000Y-25000D03*
X43000Y-25000D03*
X42000Y-25000D03*
X41000Y-25000D03*
X40000Y-25000D03*
G54D11*
X27500Y-24500D03*
G54D12*
X27500Y-25500D03*
X27500Y-26500D03*
X27500Y-27500D03*
X27500Y-28500D03*
X27500Y-29500D03*
X27500Y-30500D03*
G54D11*
X37000Y-51250D03*
G54D12*
X38000Y-51250D03*
X39000Y-51250D03*
X40000Y-51250D03*
X41000Y-51250D03*
G54D11*
X37000Y-45500D03*
G54D12*
X38000Y-45500D03*
X39000Y-45500D03*
X40000Y-45500D03*
X41000Y-45500D03*
G54D11*
X37000Y-57000D03*
G54D12*
X38000Y-57000D03*
X39000Y-57000D03*
X40000Y-57000D03*
X41000Y-57000D03*
G54D11*
X70500Y-35250D03*
G54D12*
X69500Y-35250D03*
X68500Y-35250D03*
X67500Y-35250D03*
X66500Y-35250D03*
G54D11*
X46000Y-27000D03*
G54D12*
X47000Y-27000D03*
X48000Y-27000D03*
X49000Y-27000D03*
G54D11*
X51500Y-51650D03*
G54D12*
X50500Y-51650D03*
X49500Y-51650D03*
G54D11*
X57750Y-29500D03*
G54D12*
X57750Y-28500D03*
X57750Y-27500D03*
G54D11*
X60750Y-29500D03*
G54D12*
X60750Y-28500D03*
X60750Y-27500D03*
G54D11*
X78500Y-32000D03*
G54D12*
X78500Y-33000D03*
X78500Y-34000D03*
G54D11*
X63750Y-29500D03*
G54D12*
X63750Y-28500D03*
X63750Y-27500D03*
G54D11*
X66750Y-29500D03*
G54D12*
X66750Y-28500D03*
X66750Y-27500D03*
G54D11*
X25500Y-38500D03*
G54D12*
X25500Y-37500D03*
X25500Y-36500D03*
G54D11*
X27500Y-32500D03*
G54D12*
X27500Y-33500D03*
X27500Y-34500D03*
G54D11*
X51500Y-26000D03*
G54D12*
X52500Y-26000D03*
X53500Y-26000D03*
G54D11*
X69000Y-28000D03*
G54D12*
X70000Y-28000D03*
X71000Y-28000D03*
G54D11*
X36500Y-25000D03*
G54D12*
X37500Y-25000D03*
X38500Y-25000D03*
G54D11*
X62750Y-26000D03*
G54D12*
X63750Y-26000D03*
G54D11*
X65750Y-26000D03*
G54D12*
X66750Y-26000D03*
G54D11*
X59750Y-26000D03*
G54D12*
X60750Y-26000D03*
G54D11*
X56750Y-26000D03*
G54D12*
X57750Y-26000D03*
G54D11*
X34000Y-25000D03*
G54D12*
X35000Y-25000D03*
G54D11*
X31500Y-57000D03*
G54D12*
X32500Y-57000D03*
G54D13*
X28000Y-38500D03*
X27000Y-37500D03*
X28000Y-36500D03*
X51500Y-28500D03*
X52500Y-27500D03*
X53500Y-28500D03*
G54D12*
X62500Y-27250D03*
X62500Y-30250D03*
X59500Y-27250D03*
X59500Y-30250D03*
X65500Y-27250D03*
X65500Y-30250D03*
X56500Y-27250D03*
X56500Y-30250D03*
X34750Y-32750D03*
X34750Y-29750D03*
X40000Y-52750D03*
X43000Y-52750D03*
X38000Y-48000D03*
X41000Y-48000D03*
X38000Y-48750D03*
X41000Y-48750D03*
X37000Y-29750D03*
X37000Y-32750D03*
X65500Y-33250D03*
X62500Y-33250D03*
X40000Y-53750D03*
X43000Y-53750D03*
X47000Y-37250D03*
X44000Y-37250D03*
X50250Y-28500D03*
X50250Y-25500D03*
X33500Y-30250D03*
X30500Y-30250D03*
X25500Y-40000D03*
X28500Y-40000D03*
X42000Y-31250D03*
X39000Y-31250D03*
G54D14*
X34500Y-51250D03*
X35500Y-51250D03*
X63500Y-35250D03*
X64500Y-35250D03*
G54D11*
X49000Y-28500D03*
G54D12*
X48000Y-28500D03*
X47000Y-28500D03*
X46000Y-28500D03*
X45000Y-28500D03*
X44000Y-28500D03*
X43000Y-28500D03*
X42000Y-28500D03*
X41000Y-28500D03*
X40000Y-28500D03*
X39000Y-28500D03*
X38000Y-28500D03*
X37000Y-28500D03*
X36000Y-28500D03*
X35000Y-28500D03*
X34000Y-28500D03*
X33000Y-28500D03*
X32000Y-28500D03*
X31000Y-28500D03*
X30000Y-28500D03*
X30000Y-34500D03*
X31000Y-34500D03*
X32000Y-34500D03*
X33000Y-34500D03*
X34000Y-34500D03*
X35000Y-34500D03*
X36000Y-34500D03*
X37000Y-34500D03*
X38000Y-34500D03*
X39000Y-34500D03*
X40000Y-34500D03*
X41000Y-34500D03*
X42000Y-34500D03*
X43000Y-34500D03*
X44000Y-34500D03*
X45000Y-34500D03*
X46000Y-34500D03*
X47000Y-34500D03*
X48000Y-34500D03*
X49000Y-34500D03*
G54D11*
X70500Y-33750D03*
G54D12*
X67500Y-33750D03*
X36396Y-26396D03*
X37103Y-27103D03*
X30000Y-31500D03*
X30000Y-32500D03*
X45250Y-31250D03*
X44250Y-31250D03*
X47500Y-25000D03*
X48500Y-25000D03*
G54D15*
X82600Y-61800D03*
X46000Y-61800D03*
X46000Y-40200D03*
X82600Y-40200D03*
M02*
