G04 (created by PCBNEW (2013-07-07 BZR 4022)-stable) date 12/29/2015 8:26:52 AM*
%MOIN*%
G04 Gerber Fmt 3.4, Leading zero omitted, Abs format*
%FSLAX34Y34*%
G01*
G70*
G90*
G04 APERTURE LIST*
%ADD10C,0.00590551*%
%ADD11C,0.00787402*%
%ADD12C,0.011811*%
%ADD13C,0.012*%
%ADD14C,0.008*%
%ADD15C,0.003*%
%ADD16C,0.01*%
%ADD17C,0.006*%
%ADD18C,0.015*%
%ADD19C,0.0107*%
%ADD20C,0.0106*%
%ADD21C,0.0035*%
%ADD22C,0.01125*%
G04 APERTURE END LIST*
G54D10*
G54D11*
X74500Y-62750D02*
X49500Y-62750D01*
X83600Y-62750D02*
X78800Y-62750D01*
X53000Y-50650D02*
X53000Y-51650D01*
X48000Y-51650D02*
X48000Y-50650D01*
X53000Y-52650D02*
X53000Y-51650D01*
X48000Y-52650D02*
X53000Y-52650D01*
X48000Y-51650D02*
X48000Y-52650D01*
X45000Y-39150D02*
X48000Y-39150D01*
X48000Y-39150D02*
X65500Y-39150D01*
X45000Y-62772D02*
X45000Y-58441D01*
X45000Y-39150D02*
X45000Y-43480D01*
X83582Y-39150D02*
X45000Y-39150D01*
X83582Y-62772D02*
X83582Y-39150D01*
X45000Y-39150D02*
X45000Y-62772D01*
X33250Y-57500D02*
X24250Y-57500D01*
X33250Y-57500D02*
X32500Y-57500D01*
X33250Y-57500D02*
X33250Y-42500D01*
X24250Y-42500D02*
X24250Y-57500D01*
X33250Y-42500D02*
X24250Y-42500D01*
G54D12*
X54143Y-51332D02*
X54115Y-51360D01*
X54031Y-51389D01*
X53975Y-51389D01*
X53890Y-51360D01*
X53834Y-51304D01*
X53806Y-51248D01*
X53778Y-51135D01*
X53778Y-51051D01*
X53806Y-50939D01*
X53834Y-50882D01*
X53890Y-50826D01*
X53975Y-50798D01*
X54031Y-50798D01*
X54115Y-50826D01*
X54143Y-50854D01*
X54678Y-51389D02*
X54397Y-51389D01*
X54397Y-50798D01*
X55212Y-51332D02*
X55184Y-51360D01*
X55100Y-51389D01*
X55043Y-51389D01*
X54959Y-51360D01*
X54903Y-51304D01*
X54875Y-51248D01*
X54847Y-51135D01*
X54847Y-51051D01*
X54875Y-50939D01*
X54903Y-50882D01*
X54959Y-50826D01*
X55043Y-50798D01*
X55100Y-50798D01*
X55184Y-50826D01*
X55212Y-50854D01*
X55465Y-51389D02*
X55465Y-50798D01*
X55606Y-50798D01*
X55690Y-50826D01*
X55746Y-50882D01*
X55775Y-50939D01*
X55803Y-51051D01*
X55803Y-51135D01*
X55775Y-51248D01*
X55746Y-51304D01*
X55690Y-51360D01*
X55606Y-51389D01*
X55465Y-51389D01*
X56056Y-51164D02*
X56506Y-51164D01*
X57040Y-50995D02*
X57040Y-51389D01*
X56899Y-50770D02*
X56759Y-51192D01*
X57124Y-51192D01*
X57321Y-50854D02*
X57349Y-50826D01*
X57406Y-50798D01*
X57546Y-50798D01*
X57602Y-50826D01*
X57631Y-50854D01*
X57659Y-50910D01*
X57659Y-50967D01*
X57631Y-51051D01*
X57293Y-51389D01*
X57659Y-51389D01*
X58024Y-50798D02*
X58080Y-50798D01*
X58137Y-50826D01*
X58165Y-50854D01*
X58193Y-50910D01*
X58221Y-51023D01*
X58221Y-51164D01*
X58193Y-51276D01*
X58165Y-51332D01*
X58137Y-51360D01*
X58080Y-51389D01*
X58024Y-51389D01*
X57968Y-51360D01*
X57940Y-51332D01*
X57912Y-51276D01*
X57884Y-51164D01*
X57884Y-51023D01*
X57912Y-50910D01*
X57940Y-50854D01*
X57968Y-50826D01*
X58024Y-50798D01*
X24981Y-49239D02*
X24784Y-48957D01*
X24644Y-49239D02*
X24644Y-48648D01*
X24869Y-48648D01*
X24925Y-48676D01*
X24953Y-48704D01*
X24981Y-48760D01*
X24981Y-48845D01*
X24953Y-48901D01*
X24925Y-48929D01*
X24869Y-48957D01*
X24644Y-48957D01*
X25459Y-49210D02*
X25403Y-49239D01*
X25291Y-49239D01*
X25234Y-49210D01*
X25206Y-49154D01*
X25206Y-48929D01*
X25234Y-48873D01*
X25291Y-48845D01*
X25403Y-48845D01*
X25459Y-48873D01*
X25487Y-48929D01*
X25487Y-48985D01*
X25206Y-49042D01*
X25741Y-49239D02*
X25741Y-48845D01*
X25741Y-48901D02*
X25769Y-48873D01*
X25825Y-48845D01*
X25909Y-48845D01*
X25965Y-48873D01*
X25994Y-48929D01*
X25994Y-49239D01*
X25994Y-48929D02*
X26022Y-48873D01*
X26078Y-48845D01*
X26162Y-48845D01*
X26219Y-48873D01*
X26247Y-48929D01*
X26247Y-49239D01*
X26612Y-49239D02*
X26556Y-49210D01*
X26528Y-49182D01*
X26500Y-49126D01*
X26500Y-48957D01*
X26528Y-48901D01*
X26556Y-48873D01*
X26612Y-48845D01*
X26697Y-48845D01*
X26753Y-48873D01*
X26781Y-48901D01*
X26809Y-48957D01*
X26809Y-49126D01*
X26781Y-49182D01*
X26753Y-49210D01*
X26697Y-49239D01*
X26612Y-49239D01*
X26978Y-48845D02*
X27203Y-48845D01*
X27062Y-48648D02*
X27062Y-49154D01*
X27090Y-49210D01*
X27147Y-49239D01*
X27203Y-49239D01*
X27625Y-49210D02*
X27568Y-49239D01*
X27456Y-49239D01*
X27400Y-49210D01*
X27372Y-49154D01*
X27372Y-48929D01*
X27400Y-48873D01*
X27456Y-48845D01*
X27568Y-48845D01*
X27625Y-48873D01*
X27653Y-48929D01*
X27653Y-48985D01*
X27372Y-49042D01*
X28356Y-49239D02*
X28356Y-48648D01*
X28693Y-49239D02*
X28440Y-48901D01*
X28693Y-48648D02*
X28356Y-48985D01*
X28946Y-49239D02*
X28946Y-48845D01*
X28946Y-48648D02*
X28918Y-48676D01*
X28946Y-48704D01*
X28974Y-48676D01*
X28946Y-48648D01*
X28946Y-48704D01*
X29312Y-49239D02*
X29256Y-49210D01*
X29228Y-49154D01*
X29228Y-48648D01*
X29621Y-49239D02*
X29565Y-49210D01*
X29537Y-49154D01*
X29537Y-48648D01*
X30268Y-49210D02*
X30352Y-49239D01*
X30493Y-49239D01*
X30549Y-49210D01*
X30577Y-49182D01*
X30606Y-49126D01*
X30606Y-49070D01*
X30577Y-49014D01*
X30549Y-48985D01*
X30493Y-48957D01*
X30381Y-48929D01*
X30324Y-48901D01*
X30296Y-48873D01*
X30268Y-48817D01*
X30268Y-48760D01*
X30296Y-48704D01*
X30324Y-48676D01*
X30381Y-48648D01*
X30521Y-48648D01*
X30606Y-48676D01*
X30802Y-48845D02*
X30915Y-49239D01*
X31027Y-48957D01*
X31140Y-49239D01*
X31252Y-48845D01*
X31477Y-49239D02*
X31477Y-48845D01*
X31477Y-48648D02*
X31449Y-48676D01*
X31477Y-48704D01*
X31505Y-48676D01*
X31477Y-48648D01*
X31477Y-48704D01*
X31674Y-48845D02*
X31899Y-48845D01*
X31758Y-48648D02*
X31758Y-49154D01*
X31787Y-49210D01*
X31843Y-49239D01*
X31899Y-49239D01*
X32349Y-49210D02*
X32293Y-49239D01*
X32180Y-49239D01*
X32124Y-49210D01*
X32096Y-49182D01*
X32068Y-49126D01*
X32068Y-48957D01*
X32096Y-48901D01*
X32124Y-48873D01*
X32180Y-48845D01*
X32293Y-48845D01*
X32349Y-48873D01*
X32602Y-49239D02*
X32602Y-48648D01*
X32855Y-49239D02*
X32855Y-48929D01*
X32827Y-48873D01*
X32771Y-48845D01*
X32687Y-48845D01*
X32630Y-48873D01*
X32602Y-48901D01*
G54D13*
X24250Y-43500D02*
X24250Y-42500D01*
X24250Y-42500D02*
X33250Y-42500D01*
X33250Y-42500D02*
X33250Y-43500D01*
X24250Y-43500D02*
X33250Y-43500D01*
X32250Y-43500D02*
X32250Y-42500D01*
X46500Y-25500D02*
X46500Y-25500D01*
X46500Y-25500D02*
X39500Y-25500D01*
X39500Y-25500D02*
X39500Y-24500D01*
X39500Y-24500D02*
X46500Y-24500D01*
X46500Y-24500D02*
X46500Y-25500D01*
X45500Y-24500D02*
X45500Y-24500D01*
X45500Y-24500D02*
X45500Y-25500D01*
X28000Y-24000D02*
X28000Y-24000D01*
X28000Y-24000D02*
X28000Y-31000D01*
X28000Y-31000D02*
X27000Y-31000D01*
X27000Y-31000D02*
X27000Y-24000D01*
X27000Y-24000D02*
X28000Y-24000D01*
X27000Y-25000D02*
X27000Y-25000D01*
X27000Y-25000D02*
X28000Y-25000D01*
X36500Y-51750D02*
X36500Y-50750D01*
X36500Y-50750D02*
X41500Y-50750D01*
X41500Y-50750D02*
X41500Y-51750D01*
X41500Y-51750D02*
X36500Y-51750D01*
X37500Y-51750D02*
X37500Y-50750D01*
X36500Y-46000D02*
X36500Y-45000D01*
X36500Y-45000D02*
X41500Y-45000D01*
X41500Y-45000D02*
X41500Y-46000D01*
X41500Y-46000D02*
X36500Y-46000D01*
X37500Y-46000D02*
X37500Y-45000D01*
X36500Y-57500D02*
X36500Y-56500D01*
X36500Y-56500D02*
X41500Y-56500D01*
X41500Y-56500D02*
X41500Y-57500D01*
X41500Y-57500D02*
X36500Y-57500D01*
X37500Y-57500D02*
X37500Y-56500D01*
X71000Y-34750D02*
X71000Y-35750D01*
X71000Y-35750D02*
X66000Y-35750D01*
X66000Y-35750D02*
X66000Y-34750D01*
X66000Y-34750D02*
X71000Y-34750D01*
X70000Y-34750D02*
X70000Y-35750D01*
X45500Y-26500D02*
X45500Y-26500D01*
X45500Y-27500D02*
X45500Y-26500D01*
X45500Y-26500D02*
X45500Y-26500D01*
X45500Y-26500D02*
X49500Y-26500D01*
X49500Y-26500D02*
X49500Y-27500D01*
X49500Y-27500D02*
X45500Y-27500D01*
X46500Y-27500D02*
X46500Y-26500D01*
X52000Y-51150D02*
X52000Y-52150D01*
X52000Y-52150D02*
X49000Y-52150D01*
X49000Y-52150D02*
X49000Y-51150D01*
X49000Y-51150D02*
X52000Y-51150D01*
X51000Y-52150D02*
X51000Y-51150D01*
X58250Y-30000D02*
X57250Y-30000D01*
X57250Y-30000D02*
X57250Y-27000D01*
X57250Y-27000D02*
X58250Y-27000D01*
X58250Y-27000D02*
X58250Y-30000D01*
X57250Y-29000D02*
X58250Y-29000D01*
X78000Y-31500D02*
X79000Y-31500D01*
X79000Y-31500D02*
X79000Y-34500D01*
X79000Y-34500D02*
X78000Y-34500D01*
X78000Y-34500D02*
X78000Y-31500D01*
X79000Y-32500D02*
X78000Y-32500D01*
X26000Y-39000D02*
X25000Y-39000D01*
X25000Y-39000D02*
X25000Y-36000D01*
X25000Y-36000D02*
X26000Y-36000D01*
X26000Y-36000D02*
X26000Y-39000D01*
X25000Y-38000D02*
X26000Y-38000D01*
X27000Y-32000D02*
X28000Y-32000D01*
X28000Y-32000D02*
X28000Y-35000D01*
X28000Y-35000D02*
X27000Y-35000D01*
X27000Y-35000D02*
X27000Y-32000D01*
X28000Y-33000D02*
X27000Y-33000D01*
X51000Y-26500D02*
X51000Y-25500D01*
X51000Y-25500D02*
X54000Y-25500D01*
X54000Y-25500D02*
X54000Y-26500D01*
X54000Y-26500D02*
X51000Y-26500D01*
X52000Y-25500D02*
X52000Y-26500D01*
X68500Y-28500D02*
X68500Y-27500D01*
X68500Y-27500D02*
X71500Y-27500D01*
X71500Y-27500D02*
X71500Y-28500D01*
X71500Y-28500D02*
X68500Y-28500D01*
X69500Y-27500D02*
X69500Y-28500D01*
X36000Y-25500D02*
X36000Y-24500D01*
X36000Y-24500D02*
X39000Y-24500D01*
X39000Y-24500D02*
X39000Y-25500D01*
X39000Y-25500D02*
X36000Y-25500D01*
X37000Y-24500D02*
X37000Y-25500D01*
X62250Y-26500D02*
X62250Y-25500D01*
X62250Y-25500D02*
X64250Y-25500D01*
X64250Y-25500D02*
X64250Y-26500D01*
X64250Y-26500D02*
X62250Y-26500D01*
X65250Y-26500D02*
X65250Y-25500D01*
X65250Y-25500D02*
X67250Y-25500D01*
X67250Y-25500D02*
X67250Y-26500D01*
X67250Y-26500D02*
X65250Y-26500D01*
X59250Y-26500D02*
X59250Y-25500D01*
X59250Y-25500D02*
X61250Y-25500D01*
X61250Y-25500D02*
X61250Y-26500D01*
X61250Y-26500D02*
X59250Y-26500D01*
X56250Y-26500D02*
X56250Y-25500D01*
X56250Y-25500D02*
X58250Y-25500D01*
X58250Y-25500D02*
X58250Y-26500D01*
X58250Y-26500D02*
X56250Y-26500D01*
X33500Y-25500D02*
X33500Y-24500D01*
X33500Y-24500D02*
X35500Y-24500D01*
X35500Y-24500D02*
X35500Y-25500D01*
X35500Y-25500D02*
X33500Y-25500D01*
X31000Y-57500D02*
X31000Y-56500D01*
X31000Y-56500D02*
X33000Y-56500D01*
X33000Y-56500D02*
X33000Y-57500D01*
X33000Y-57500D02*
X31000Y-57500D01*
G54D14*
X29050Y-37500D02*
G75*
G03X29050Y-37500I-1400J0D01*
G74*
G01*
X53900Y-28150D02*
G75*
G03X53900Y-28150I-1400J0D01*
G74*
G01*
X62500Y-27250D02*
X62500Y-27450D01*
X62500Y-30250D02*
X62500Y-30050D01*
X62500Y-30050D02*
X62900Y-30050D01*
X62900Y-30050D02*
X62900Y-27450D01*
X62900Y-27450D02*
X62100Y-27450D01*
X62100Y-27450D02*
X62100Y-30050D01*
X62100Y-30050D02*
X62500Y-30050D01*
X62700Y-27450D02*
X62900Y-27650D01*
X59500Y-27250D02*
X59500Y-27450D01*
X59500Y-30250D02*
X59500Y-30050D01*
X59500Y-30050D02*
X59900Y-30050D01*
X59900Y-30050D02*
X59900Y-27450D01*
X59900Y-27450D02*
X59100Y-27450D01*
X59100Y-27450D02*
X59100Y-30050D01*
X59100Y-30050D02*
X59500Y-30050D01*
X59700Y-27450D02*
X59900Y-27650D01*
X65500Y-27250D02*
X65500Y-27450D01*
X65500Y-30250D02*
X65500Y-30050D01*
X65500Y-30050D02*
X65900Y-30050D01*
X65900Y-30050D02*
X65900Y-27450D01*
X65900Y-27450D02*
X65100Y-27450D01*
X65100Y-27450D02*
X65100Y-30050D01*
X65100Y-30050D02*
X65500Y-30050D01*
X65700Y-27450D02*
X65900Y-27650D01*
X56500Y-27250D02*
X56500Y-27450D01*
X56500Y-30250D02*
X56500Y-30050D01*
X56500Y-30050D02*
X56900Y-30050D01*
X56900Y-30050D02*
X56900Y-27450D01*
X56900Y-27450D02*
X56100Y-27450D01*
X56100Y-27450D02*
X56100Y-30050D01*
X56100Y-30050D02*
X56500Y-30050D01*
X56700Y-27450D02*
X56900Y-27650D01*
X34750Y-32750D02*
X34750Y-32550D01*
X34750Y-29750D02*
X34750Y-29950D01*
X34750Y-29950D02*
X34350Y-29950D01*
X34350Y-29950D02*
X34350Y-32550D01*
X34350Y-32550D02*
X35150Y-32550D01*
X35150Y-32550D02*
X35150Y-29950D01*
X35150Y-29950D02*
X34750Y-29950D01*
X34550Y-32550D02*
X34350Y-32350D01*
X40000Y-52750D02*
X40200Y-52750D01*
X43000Y-52750D02*
X42800Y-52750D01*
X42800Y-52750D02*
X42800Y-52350D01*
X42800Y-52350D02*
X40200Y-52350D01*
X40200Y-52350D02*
X40200Y-53150D01*
X40200Y-53150D02*
X42800Y-53150D01*
X42800Y-53150D02*
X42800Y-52750D01*
X40200Y-52550D02*
X40400Y-52350D01*
X38000Y-48000D02*
X38200Y-48000D01*
X41000Y-48000D02*
X40800Y-48000D01*
X40800Y-48000D02*
X40800Y-47600D01*
X40800Y-47600D02*
X38200Y-47600D01*
X38200Y-47600D02*
X38200Y-48400D01*
X38200Y-48400D02*
X40800Y-48400D01*
X40800Y-48400D02*
X40800Y-48000D01*
X38200Y-47800D02*
X38400Y-47600D01*
X38000Y-48750D02*
X38200Y-48750D01*
X41000Y-48750D02*
X40800Y-48750D01*
X40800Y-48750D02*
X40800Y-48350D01*
X40800Y-48350D02*
X38200Y-48350D01*
X38200Y-48350D02*
X38200Y-49150D01*
X38200Y-49150D02*
X40800Y-49150D01*
X40800Y-49150D02*
X40800Y-48750D01*
X38200Y-48550D02*
X38400Y-48350D01*
X37000Y-29750D02*
X37000Y-29950D01*
X37000Y-32750D02*
X37000Y-32550D01*
X37000Y-32550D02*
X37400Y-32550D01*
X37400Y-32550D02*
X37400Y-29950D01*
X37400Y-29950D02*
X36600Y-29950D01*
X36600Y-29950D02*
X36600Y-32550D01*
X36600Y-32550D02*
X37000Y-32550D01*
X37200Y-29950D02*
X37400Y-30150D01*
X65500Y-33250D02*
X65300Y-33250D01*
X62500Y-33250D02*
X62700Y-33250D01*
X62700Y-33250D02*
X62700Y-33650D01*
X62700Y-33650D02*
X65300Y-33650D01*
X65300Y-33650D02*
X65300Y-32850D01*
X65300Y-32850D02*
X62700Y-32850D01*
X62700Y-32850D02*
X62700Y-33250D01*
X65300Y-33450D02*
X65100Y-33650D01*
X40000Y-53750D02*
X40200Y-53750D01*
X43000Y-53750D02*
X42800Y-53750D01*
X42800Y-53750D02*
X42800Y-53350D01*
X42800Y-53350D02*
X40200Y-53350D01*
X40200Y-53350D02*
X40200Y-54150D01*
X40200Y-54150D02*
X42800Y-54150D01*
X42800Y-54150D02*
X42800Y-53750D01*
X40200Y-53550D02*
X40400Y-53350D01*
X47000Y-37250D02*
X46800Y-37250D01*
X44000Y-37250D02*
X44200Y-37250D01*
X44200Y-37250D02*
X44200Y-37650D01*
X44200Y-37650D02*
X46800Y-37650D01*
X46800Y-37650D02*
X46800Y-36850D01*
X46800Y-36850D02*
X44200Y-36850D01*
X44200Y-36850D02*
X44200Y-37250D01*
X46800Y-37450D02*
X46600Y-37650D01*
X50250Y-28500D02*
X50250Y-28300D01*
X50250Y-25500D02*
X50250Y-25700D01*
X50250Y-25700D02*
X49850Y-25700D01*
X49850Y-25700D02*
X49850Y-28300D01*
X49850Y-28300D02*
X50650Y-28300D01*
X50650Y-28300D02*
X50650Y-25700D01*
X50650Y-25700D02*
X50250Y-25700D01*
X50050Y-28300D02*
X49850Y-28100D01*
X33500Y-30250D02*
X33300Y-30250D01*
X30500Y-30250D02*
X30700Y-30250D01*
X30700Y-30250D02*
X30700Y-30650D01*
X30700Y-30650D02*
X33300Y-30650D01*
X33300Y-30650D02*
X33300Y-29850D01*
X33300Y-29850D02*
X30700Y-29850D01*
X30700Y-29850D02*
X30700Y-30250D01*
X33300Y-30450D02*
X33100Y-30650D01*
X25500Y-40000D02*
X25700Y-40000D01*
X28500Y-40000D02*
X28300Y-40000D01*
X28300Y-40000D02*
X28300Y-39600D01*
X28300Y-39600D02*
X25700Y-39600D01*
X25700Y-39600D02*
X25700Y-40400D01*
X25700Y-40400D02*
X28300Y-40400D01*
X28300Y-40400D02*
X28300Y-40000D01*
X25700Y-39800D02*
X25900Y-39600D01*
X42000Y-31250D02*
X41800Y-31250D01*
X39000Y-31250D02*
X39200Y-31250D01*
X39200Y-31250D02*
X39200Y-31650D01*
X39200Y-31650D02*
X41800Y-31650D01*
X41800Y-31650D02*
X41800Y-30850D01*
X41800Y-30850D02*
X39200Y-30850D01*
X39200Y-30850D02*
X39200Y-31250D01*
X41800Y-31450D02*
X41600Y-31650D01*
X36120Y-52000D02*
X36120Y-50500D01*
G54D15*
X35807Y-51250D02*
G75*
G03X35807Y-51250I-707J0D01*
G74*
G01*
G54D16*
X36099Y-50499D02*
G75*
G03X36099Y-52000I-999J-750D01*
G74*
G01*
G54D17*
X35100Y-50800D02*
G75*
G03X34650Y-51250I0J-450D01*
G74*
G01*
X35100Y-51700D02*
G75*
G03X35550Y-51250I0J450D01*
G74*
G01*
X35100Y-50600D02*
G75*
G03X34450Y-51250I0J-650D01*
G74*
G01*
X35100Y-51900D02*
G75*
G03X35750Y-51250I0J650D01*
G74*
G01*
X35100Y-50400D02*
G75*
G03X34250Y-51250I0J-850D01*
G74*
G01*
X35100Y-52100D02*
G75*
G03X35950Y-51250I0J850D01*
G74*
G01*
G54D14*
X65120Y-36000D02*
X65120Y-34500D01*
G54D15*
X64807Y-35250D02*
G75*
G03X64807Y-35250I-707J0D01*
G74*
G01*
G54D16*
X65099Y-34499D02*
G75*
G03X65099Y-36000I-999J-750D01*
G74*
G01*
G54D17*
X64100Y-34800D02*
G75*
G03X63650Y-35250I0J-450D01*
G74*
G01*
X64100Y-35700D02*
G75*
G03X64550Y-35250I0J450D01*
G74*
G01*
X64100Y-34600D02*
G75*
G03X63450Y-35250I0J-650D01*
G74*
G01*
X64100Y-35900D02*
G75*
G03X64750Y-35250I0J650D01*
G74*
G01*
X64100Y-34400D02*
G75*
G03X63250Y-35250I0J-850D01*
G74*
G01*
X64100Y-36100D02*
G75*
G03X64950Y-35250I0J850D01*
G74*
G01*
G54D18*
X50000Y-32000D02*
X49500Y-32000D01*
X49500Y-32000D02*
X49500Y-31000D01*
X49500Y-31000D02*
X50000Y-31000D01*
X50000Y-34000D02*
X29000Y-34000D01*
X29000Y-34000D02*
X29000Y-29000D01*
X29000Y-29000D02*
X50000Y-29000D01*
X50000Y-29000D02*
X50000Y-34000D01*
G54D13*
X70500Y-33750D02*
X70200Y-33750D01*
X70200Y-33750D02*
X70200Y-33350D01*
X70200Y-33350D02*
X67800Y-33350D01*
X67800Y-33350D02*
X67800Y-33750D01*
X67800Y-33750D02*
X67500Y-33750D01*
X67800Y-33750D02*
X67800Y-34150D01*
X67800Y-34150D02*
X70200Y-34150D01*
X70200Y-34150D02*
X70200Y-33750D01*
X70000Y-33350D02*
X70000Y-34150D01*
X69900Y-34150D02*
X69900Y-33350D01*
X36410Y-25703D02*
X37810Y-27103D01*
X37810Y-27103D02*
X37103Y-27810D01*
X37103Y-27810D02*
X35689Y-26396D01*
X35689Y-26396D02*
X36396Y-25689D01*
X36219Y-25866D02*
X36573Y-25866D01*
X30500Y-31020D02*
X30500Y-33000D01*
X30500Y-33000D02*
X29500Y-33000D01*
X29500Y-33000D02*
X29500Y-31000D01*
X29500Y-31000D02*
X30500Y-31000D01*
X30250Y-31000D02*
X30500Y-31250D01*
X45730Y-31750D02*
X43750Y-31750D01*
X43750Y-31750D02*
X43750Y-30750D01*
X43750Y-30750D02*
X45750Y-30750D01*
X45750Y-30750D02*
X45750Y-31750D01*
X45750Y-31500D02*
X45500Y-31750D01*
X47020Y-24500D02*
X49000Y-24500D01*
X49000Y-24500D02*
X49000Y-25500D01*
X49000Y-25500D02*
X47000Y-25500D01*
X47000Y-25500D02*
X47000Y-24500D01*
X47000Y-24750D02*
X47250Y-24500D01*
G54D18*
X83500Y-61800D02*
G75*
G03X83500Y-61800I-900J0D01*
G74*
G01*
X46900Y-61800D02*
G75*
G03X46900Y-61800I-900J0D01*
G74*
G01*
X46900Y-40200D02*
G75*
G03X46900Y-40200I-900J0D01*
G74*
G01*
X83500Y-40200D02*
G75*
G03X83500Y-40200I-900J0D01*
G74*
G01*
X24900Y-22250D02*
G75*
G03X24900Y-22250I-900J0D01*
G74*
G01*
X83900Y-22250D02*
G75*
G03X83900Y-22250I-900J0D01*
G74*
G01*
X24900Y-62500D02*
G75*
G03X24900Y-62500I-900J0D01*
G74*
G01*
X78650Y-62500D02*
G75*
G03X78650Y-62500I-900J0D01*
G74*
G01*
G54D13*
X61250Y-30000D02*
X60250Y-30000D01*
X60250Y-30000D02*
X60250Y-27000D01*
X60250Y-27000D02*
X61250Y-27000D01*
X61250Y-27000D02*
X61250Y-30000D01*
X60250Y-29000D02*
X61250Y-29000D01*
X64250Y-30000D02*
X63250Y-30000D01*
X63250Y-30000D02*
X63250Y-27000D01*
X63250Y-27000D02*
X64250Y-27000D01*
X64250Y-27000D02*
X64250Y-30000D01*
X63250Y-29000D02*
X64250Y-29000D01*
X67250Y-30000D02*
X66250Y-30000D01*
X66250Y-30000D02*
X66250Y-27000D01*
X66250Y-27000D02*
X67250Y-27000D01*
X67250Y-27000D02*
X67250Y-30000D01*
X66250Y-29000D02*
X67250Y-29000D01*
G54D19*
X31423Y-44275D02*
X31423Y-43594D01*
X31423Y-43918D02*
X31668Y-43918D01*
X31668Y-44275D02*
X31668Y-43594D01*
X31892Y-44275D02*
X31974Y-44275D01*
X32014Y-44243D01*
X32035Y-44210D01*
X32076Y-44113D01*
X32096Y-43983D01*
X32096Y-43724D01*
X32076Y-43659D01*
X32055Y-43627D01*
X32014Y-43594D01*
X31933Y-43594D01*
X31892Y-43627D01*
X31872Y-43659D01*
X31851Y-43724D01*
X31851Y-43886D01*
X31872Y-43951D01*
X31892Y-43983D01*
X31933Y-44016D01*
X32014Y-44016D01*
X32055Y-43983D01*
X32076Y-43951D01*
X32096Y-43886D01*
G54D13*
G54D16*
X24121Y-44242D02*
X23988Y-43957D01*
X23892Y-44242D02*
X23892Y-43642D01*
X24045Y-43642D01*
X24083Y-43671D01*
X24102Y-43700D01*
X24121Y-43757D01*
X24121Y-43842D01*
X24102Y-43900D01*
X24083Y-43928D01*
X24045Y-43957D01*
X23892Y-43957D01*
X24445Y-44214D02*
X24407Y-44242D01*
X24330Y-44242D01*
X24292Y-44214D01*
X24273Y-44157D01*
X24273Y-43928D01*
X24292Y-43871D01*
X24330Y-43842D01*
X24407Y-43842D01*
X24445Y-43871D01*
X24464Y-43928D01*
X24464Y-43985D01*
X24273Y-44042D01*
X24635Y-44242D02*
X24635Y-43842D01*
X24635Y-43900D02*
X24654Y-43871D01*
X24692Y-43842D01*
X24750Y-43842D01*
X24788Y-43871D01*
X24807Y-43928D01*
X24807Y-44242D01*
X24807Y-43928D02*
X24826Y-43871D01*
X24864Y-43842D01*
X24921Y-43842D01*
X24959Y-43871D01*
X24978Y-43928D01*
X24978Y-44242D01*
X25226Y-44242D02*
X25188Y-44214D01*
X25169Y-44185D01*
X25150Y-44128D01*
X25150Y-43957D01*
X25169Y-43900D01*
X25188Y-43871D01*
X25226Y-43842D01*
X25283Y-43842D01*
X25321Y-43871D01*
X25340Y-43900D01*
X25359Y-43957D01*
X25359Y-44128D01*
X25340Y-44185D01*
X25321Y-44214D01*
X25283Y-44242D01*
X25226Y-44242D01*
X25473Y-43842D02*
X25626Y-43842D01*
X25530Y-43642D02*
X25530Y-44157D01*
X25550Y-44214D01*
X25588Y-44242D01*
X25626Y-44242D01*
X25911Y-44214D02*
X25873Y-44242D01*
X25797Y-44242D01*
X25759Y-44214D01*
X25740Y-44157D01*
X25740Y-43928D01*
X25759Y-43871D01*
X25797Y-43842D01*
X25873Y-43842D01*
X25911Y-43871D01*
X25930Y-43928D01*
X25930Y-43985D01*
X25740Y-44042D01*
X26407Y-44242D02*
X26407Y-43642D01*
X26635Y-44242D02*
X26464Y-43900D01*
X26635Y-43642D02*
X26407Y-43985D01*
X26807Y-44242D02*
X26807Y-43842D01*
X26807Y-43642D02*
X26788Y-43671D01*
X26807Y-43700D01*
X26826Y-43671D01*
X26807Y-43642D01*
X26807Y-43700D01*
X27054Y-44242D02*
X27016Y-44214D01*
X26997Y-44157D01*
X26997Y-43642D01*
X27264Y-44242D02*
X27226Y-44214D01*
X27207Y-44157D01*
X27207Y-43642D01*
X27835Y-44471D02*
X27816Y-44442D01*
X27778Y-44357D01*
X27759Y-44300D01*
X27740Y-44214D01*
X27721Y-44071D01*
X27721Y-43957D01*
X27740Y-43814D01*
X27759Y-43728D01*
X27778Y-43671D01*
X27816Y-43585D01*
X27835Y-43557D01*
X28121Y-43928D02*
X27988Y-43928D01*
X27988Y-44242D02*
X27988Y-43642D01*
X28178Y-43642D01*
X28330Y-44242D02*
X28330Y-43842D01*
X28330Y-43957D02*
X28350Y-43900D01*
X28369Y-43871D01*
X28407Y-43842D01*
X28445Y-43842D01*
X28635Y-44242D02*
X28597Y-44214D01*
X28578Y-44185D01*
X28559Y-44128D01*
X28559Y-43957D01*
X28578Y-43900D01*
X28597Y-43871D01*
X28635Y-43842D01*
X28692Y-43842D01*
X28730Y-43871D01*
X28749Y-43900D01*
X28769Y-43957D01*
X28769Y-44128D01*
X28749Y-44185D01*
X28730Y-44214D01*
X28692Y-44242D01*
X28635Y-44242D01*
X28940Y-43842D02*
X28940Y-44242D01*
X28940Y-43900D02*
X28959Y-43871D01*
X28997Y-43842D01*
X29054Y-43842D01*
X29092Y-43871D01*
X29111Y-43928D01*
X29111Y-44242D01*
X29245Y-43842D02*
X29397Y-43842D01*
X29302Y-43642D02*
X29302Y-44157D01*
X29321Y-44214D01*
X29359Y-44242D01*
X29397Y-44242D01*
X29492Y-44471D02*
X29511Y-44442D01*
X29549Y-44357D01*
X29569Y-44300D01*
X29588Y-44214D01*
X29607Y-44071D01*
X29607Y-43957D01*
X29588Y-43814D01*
X29569Y-43728D01*
X29549Y-43671D01*
X29511Y-43585D01*
X29492Y-43557D01*
G54D13*
G54D19*
X44423Y-24275D02*
X44423Y-23594D01*
X44423Y-23918D02*
X44668Y-23918D01*
X44668Y-24275D02*
X44668Y-23594D01*
X45055Y-23821D02*
X45055Y-24275D01*
X44953Y-23562D02*
X44851Y-24048D01*
X45116Y-24048D01*
G54D13*
G54D16*
X40371Y-24242D02*
X40371Y-23642D01*
X40790Y-24242D02*
X40657Y-23957D01*
X40561Y-24242D02*
X40561Y-23642D01*
X40714Y-23642D01*
X40752Y-23671D01*
X40771Y-23700D01*
X40790Y-23757D01*
X40790Y-23842D01*
X40771Y-23900D01*
X40752Y-23928D01*
X40714Y-23957D01*
X40561Y-23957D01*
X41038Y-23642D02*
X41114Y-23642D01*
X41152Y-23671D01*
X41190Y-23728D01*
X41209Y-23842D01*
X41209Y-24042D01*
X41190Y-24157D01*
X41152Y-24214D01*
X41114Y-24242D01*
X41038Y-24242D01*
X41000Y-24214D01*
X40961Y-24157D01*
X40942Y-24042D01*
X40942Y-23842D01*
X40961Y-23728D01*
X41000Y-23671D01*
X41038Y-23642D01*
X41552Y-23842D02*
X41552Y-24242D01*
X41380Y-23842D02*
X41380Y-24157D01*
X41400Y-24214D01*
X41438Y-24242D01*
X41495Y-24242D01*
X41533Y-24214D01*
X41552Y-24185D01*
X41685Y-23842D02*
X41838Y-23842D01*
X41742Y-23642D02*
X41742Y-24157D01*
X41761Y-24214D01*
X41800Y-24242D01*
X41838Y-24242D01*
X42409Y-23928D02*
X42276Y-23928D01*
X42276Y-24242D02*
X42276Y-23642D01*
X42466Y-23642D01*
X42619Y-24242D02*
X42619Y-23842D01*
X42619Y-23957D02*
X42638Y-23900D01*
X42657Y-23871D01*
X42695Y-23842D01*
X42733Y-23842D01*
X42923Y-24242D02*
X42885Y-24214D01*
X42866Y-24185D01*
X42847Y-24128D01*
X42847Y-23957D01*
X42866Y-23900D01*
X42885Y-23871D01*
X42923Y-23842D01*
X42980Y-23842D01*
X43019Y-23871D01*
X43038Y-23900D01*
X43057Y-23957D01*
X43057Y-24128D01*
X43038Y-24185D01*
X43019Y-24214D01*
X42980Y-24242D01*
X42923Y-24242D01*
X43228Y-23842D02*
X43228Y-24242D01*
X43228Y-23900D02*
X43247Y-23871D01*
X43285Y-23842D01*
X43342Y-23842D01*
X43380Y-23871D01*
X43400Y-23928D01*
X43400Y-24242D01*
X43533Y-23842D02*
X43685Y-23842D01*
X43590Y-23642D02*
X43590Y-24157D01*
X43609Y-24214D01*
X43647Y-24242D01*
X43685Y-24242D01*
G54D13*
G54D19*
X28775Y-30576D02*
X28094Y-30576D01*
X28418Y-30576D02*
X28418Y-30331D01*
X28775Y-30331D02*
X28094Y-30331D01*
X28159Y-30148D02*
X28127Y-30127D01*
X28094Y-30086D01*
X28094Y-29985D01*
X28127Y-29944D01*
X28159Y-29923D01*
X28224Y-29903D01*
X28289Y-29903D01*
X28386Y-29923D01*
X28775Y-30168D01*
X28775Y-29903D01*
G54D13*
G54D16*
X28742Y-29071D02*
X28142Y-29071D01*
X28742Y-28652D02*
X28457Y-28785D01*
X28742Y-28880D02*
X28142Y-28880D01*
X28142Y-28728D01*
X28171Y-28690D01*
X28200Y-28671D01*
X28257Y-28652D01*
X28342Y-28652D01*
X28400Y-28671D01*
X28428Y-28690D01*
X28457Y-28728D01*
X28457Y-28880D01*
X28142Y-28404D02*
X28142Y-28328D01*
X28171Y-28290D01*
X28228Y-28252D01*
X28342Y-28233D01*
X28542Y-28233D01*
X28657Y-28252D01*
X28714Y-28290D01*
X28742Y-28328D01*
X28742Y-28404D01*
X28714Y-28442D01*
X28657Y-28480D01*
X28542Y-28499D01*
X28342Y-28499D01*
X28228Y-28480D01*
X28171Y-28442D01*
X28142Y-28404D01*
X28342Y-27890D02*
X28742Y-27890D01*
X28342Y-28061D02*
X28657Y-28061D01*
X28714Y-28042D01*
X28742Y-28004D01*
X28742Y-27947D01*
X28714Y-27909D01*
X28685Y-27890D01*
X28342Y-27757D02*
X28342Y-27604D01*
X28142Y-27699D02*
X28657Y-27699D01*
X28714Y-27680D01*
X28742Y-27642D01*
X28742Y-27604D01*
X28428Y-27033D02*
X28457Y-26976D01*
X28485Y-26957D01*
X28542Y-26938D01*
X28628Y-26938D01*
X28685Y-26957D01*
X28714Y-26976D01*
X28742Y-27014D01*
X28742Y-27166D01*
X28142Y-27166D01*
X28142Y-27033D01*
X28171Y-26995D01*
X28200Y-26976D01*
X28257Y-26957D01*
X28314Y-26957D01*
X28371Y-26976D01*
X28400Y-26995D01*
X28428Y-27033D01*
X28428Y-27166D01*
X28742Y-26595D02*
X28428Y-26595D01*
X28371Y-26614D01*
X28342Y-26652D01*
X28342Y-26728D01*
X28371Y-26766D01*
X28714Y-26595D02*
X28742Y-26633D01*
X28742Y-26728D01*
X28714Y-26766D01*
X28657Y-26785D01*
X28600Y-26785D01*
X28542Y-26766D01*
X28514Y-26728D01*
X28514Y-26633D01*
X28485Y-26595D01*
X28714Y-26233D02*
X28742Y-26271D01*
X28742Y-26347D01*
X28714Y-26385D01*
X28685Y-26404D01*
X28628Y-26423D01*
X28457Y-26423D01*
X28400Y-26404D01*
X28371Y-26385D01*
X28342Y-26347D01*
X28342Y-26271D01*
X28371Y-26233D01*
X28742Y-26061D02*
X28142Y-26061D01*
X28514Y-26023D02*
X28742Y-25909D01*
X28342Y-25909D02*
X28571Y-26061D01*
G54D13*
G54D19*
X38429Y-52493D02*
X38490Y-52525D01*
X38592Y-52525D01*
X38633Y-52493D01*
X38653Y-52460D01*
X38673Y-52395D01*
X38673Y-52331D01*
X38653Y-52266D01*
X38633Y-52233D01*
X38592Y-52201D01*
X38510Y-52168D01*
X38470Y-52136D01*
X38449Y-52104D01*
X38429Y-52039D01*
X38429Y-51974D01*
X38449Y-51909D01*
X38470Y-51877D01*
X38510Y-51844D01*
X38612Y-51844D01*
X38673Y-51877D01*
X38816Y-51844D02*
X38918Y-52525D01*
X39000Y-52039D01*
X39081Y-52525D01*
X39183Y-51844D01*
X39570Y-52525D02*
X39326Y-52525D01*
X39448Y-52525D02*
X39448Y-51844D01*
X39407Y-51941D01*
X39366Y-52006D01*
X39326Y-52039D01*
G54D13*
G54D16*
X36776Y-50464D02*
X36833Y-50492D01*
X36928Y-50492D01*
X36966Y-50464D01*
X36985Y-50435D01*
X37004Y-50378D01*
X37004Y-50321D01*
X36985Y-50264D01*
X36966Y-50235D01*
X36928Y-50207D01*
X36852Y-50178D01*
X36814Y-50150D01*
X36795Y-50121D01*
X36776Y-50064D01*
X36776Y-50007D01*
X36795Y-49950D01*
X36814Y-49921D01*
X36852Y-49892D01*
X36947Y-49892D01*
X37004Y-49921D01*
X37138Y-49892D02*
X37233Y-50492D01*
X37309Y-50064D01*
X37385Y-50492D01*
X37480Y-49892D01*
X37633Y-50492D02*
X37633Y-49892D01*
X37766Y-49892D02*
X37995Y-49892D01*
X37880Y-50492D02*
X37880Y-49892D01*
X38357Y-50435D02*
X38338Y-50464D01*
X38280Y-50492D01*
X38242Y-50492D01*
X38185Y-50464D01*
X38147Y-50407D01*
X38128Y-50350D01*
X38109Y-50235D01*
X38109Y-50150D01*
X38128Y-50035D01*
X38147Y-49978D01*
X38185Y-49921D01*
X38242Y-49892D01*
X38280Y-49892D01*
X38338Y-49921D01*
X38357Y-49950D01*
X38528Y-50492D02*
X38528Y-49892D01*
X38528Y-50178D02*
X38757Y-50178D01*
X38757Y-50492D02*
X38757Y-49892D01*
X38852Y-50550D02*
X39157Y-50550D01*
X39252Y-50492D02*
X39252Y-49892D01*
X39442Y-50492D02*
X39442Y-49892D01*
X39671Y-50492D01*
X39671Y-49892D01*
X39804Y-49892D02*
X39938Y-50492D01*
X40071Y-49892D01*
X40109Y-50550D02*
X40414Y-50550D01*
X40700Y-49892D02*
X40509Y-49892D01*
X40490Y-50178D01*
X40509Y-50150D01*
X40547Y-50121D01*
X40642Y-50121D01*
X40680Y-50150D01*
X40700Y-50178D01*
X40719Y-50235D01*
X40719Y-50378D01*
X40700Y-50435D01*
X40680Y-50464D01*
X40642Y-50492D01*
X40547Y-50492D01*
X40509Y-50464D01*
X40490Y-50435D01*
X40890Y-50264D02*
X41195Y-50264D01*
X41385Y-50492D02*
X41385Y-49892D01*
X41538Y-49892D01*
X41576Y-49921D01*
X41595Y-49950D01*
X41614Y-50007D01*
X41614Y-50092D01*
X41595Y-50150D01*
X41576Y-50178D01*
X41538Y-50207D01*
X41385Y-50207D01*
X41785Y-50492D02*
X41785Y-49892D01*
X41976Y-50492D02*
X41976Y-49892D01*
X42204Y-50492D01*
X42204Y-49892D01*
G54D13*
G54D19*
X37705Y-47025D02*
X37705Y-46344D01*
X37848Y-46831D01*
X37991Y-46344D01*
X37991Y-47025D01*
X38317Y-46344D02*
X38317Y-46831D01*
X38296Y-46928D01*
X38256Y-46993D01*
X38194Y-47025D01*
X38154Y-47025D01*
X38724Y-47025D02*
X38521Y-47025D01*
X38521Y-46344D01*
X38765Y-47090D02*
X39091Y-47090D01*
X39173Y-46993D02*
X39234Y-47025D01*
X39336Y-47025D01*
X39377Y-46993D01*
X39397Y-46960D01*
X39417Y-46895D01*
X39417Y-46831D01*
X39397Y-46766D01*
X39377Y-46733D01*
X39336Y-46701D01*
X39254Y-46668D01*
X39214Y-46636D01*
X39193Y-46604D01*
X39173Y-46539D01*
X39173Y-46474D01*
X39193Y-46409D01*
X39214Y-46377D01*
X39254Y-46344D01*
X39356Y-46344D01*
X39417Y-46377D01*
X39560Y-46344D02*
X39662Y-47025D01*
X39743Y-46539D01*
X39825Y-47025D01*
X39927Y-46344D01*
X40049Y-46344D02*
X40314Y-46344D01*
X40171Y-46604D01*
X40233Y-46604D01*
X40273Y-46636D01*
X40294Y-46668D01*
X40314Y-46733D01*
X40314Y-46895D01*
X40294Y-46960D01*
X40273Y-46993D01*
X40233Y-47025D01*
X40110Y-47025D01*
X40070Y-46993D01*
X40049Y-46960D01*
G54D13*
G54D16*
X38171Y-44492D02*
X38171Y-43892D01*
X38323Y-43892D01*
X38361Y-43921D01*
X38380Y-43950D01*
X38400Y-44007D01*
X38400Y-44092D01*
X38380Y-44150D01*
X38361Y-44178D01*
X38323Y-44207D01*
X38171Y-44207D01*
X38742Y-44092D02*
X38742Y-44492D01*
X38571Y-44092D02*
X38571Y-44407D01*
X38590Y-44464D01*
X38628Y-44492D01*
X38685Y-44492D01*
X38723Y-44464D01*
X38742Y-44435D01*
X38914Y-44464D02*
X38952Y-44492D01*
X39028Y-44492D01*
X39066Y-44464D01*
X39085Y-44407D01*
X39085Y-44378D01*
X39066Y-44321D01*
X39028Y-44292D01*
X38971Y-44292D01*
X38933Y-44264D01*
X38914Y-44207D01*
X38914Y-44178D01*
X38933Y-44121D01*
X38971Y-44092D01*
X39028Y-44092D01*
X39066Y-44121D01*
X39257Y-44492D02*
X39257Y-43892D01*
X39428Y-44492D02*
X39428Y-44178D01*
X39409Y-44121D01*
X39371Y-44092D01*
X39314Y-44092D01*
X39276Y-44121D01*
X39257Y-44150D01*
X39752Y-44178D02*
X39809Y-44207D01*
X39828Y-44235D01*
X39847Y-44292D01*
X39847Y-44378D01*
X39828Y-44435D01*
X39809Y-44464D01*
X39771Y-44492D01*
X39619Y-44492D01*
X39619Y-43892D01*
X39752Y-43892D01*
X39790Y-43921D01*
X39809Y-43950D01*
X39828Y-44007D01*
X39828Y-44064D01*
X39809Y-44121D01*
X39790Y-44150D01*
X39752Y-44178D01*
X39619Y-44178D01*
G54D13*
G54D19*
X37705Y-58275D02*
X37705Y-57594D01*
X37848Y-58081D01*
X37991Y-57594D01*
X37991Y-58275D01*
X38317Y-57594D02*
X38317Y-58081D01*
X38296Y-58178D01*
X38256Y-58243D01*
X38194Y-58275D01*
X38154Y-58275D01*
X38724Y-58275D02*
X38521Y-58275D01*
X38521Y-57594D01*
X38765Y-58340D02*
X39091Y-58340D01*
X39173Y-58243D02*
X39234Y-58275D01*
X39336Y-58275D01*
X39377Y-58243D01*
X39397Y-58210D01*
X39417Y-58145D01*
X39417Y-58081D01*
X39397Y-58016D01*
X39377Y-57983D01*
X39336Y-57951D01*
X39254Y-57918D01*
X39214Y-57886D01*
X39193Y-57854D01*
X39173Y-57789D01*
X39173Y-57724D01*
X39193Y-57659D01*
X39214Y-57627D01*
X39254Y-57594D01*
X39356Y-57594D01*
X39417Y-57627D01*
X39560Y-57594D02*
X39662Y-58275D01*
X39743Y-57789D01*
X39825Y-58275D01*
X39927Y-57594D01*
X40070Y-57659D02*
X40090Y-57627D01*
X40131Y-57594D01*
X40233Y-57594D01*
X40273Y-57627D01*
X40294Y-57659D01*
X40314Y-57724D01*
X40314Y-57789D01*
X40294Y-57886D01*
X40049Y-58275D01*
X40314Y-58275D01*
G54D13*
G54D16*
X38171Y-56242D02*
X38171Y-55642D01*
X38323Y-55642D01*
X38361Y-55671D01*
X38380Y-55700D01*
X38400Y-55757D01*
X38400Y-55842D01*
X38380Y-55900D01*
X38361Y-55928D01*
X38323Y-55957D01*
X38171Y-55957D01*
X38742Y-55842D02*
X38742Y-56242D01*
X38571Y-55842D02*
X38571Y-56157D01*
X38590Y-56214D01*
X38628Y-56242D01*
X38685Y-56242D01*
X38723Y-56214D01*
X38742Y-56185D01*
X38914Y-56214D02*
X38952Y-56242D01*
X39028Y-56242D01*
X39066Y-56214D01*
X39085Y-56157D01*
X39085Y-56128D01*
X39066Y-56071D01*
X39028Y-56042D01*
X38971Y-56042D01*
X38933Y-56014D01*
X38914Y-55957D01*
X38914Y-55928D01*
X38933Y-55871D01*
X38971Y-55842D01*
X39028Y-55842D01*
X39066Y-55871D01*
X39257Y-56242D02*
X39257Y-55642D01*
X39428Y-56242D02*
X39428Y-55928D01*
X39409Y-55871D01*
X39371Y-55842D01*
X39314Y-55842D01*
X39276Y-55871D01*
X39257Y-55900D01*
X39752Y-55928D02*
X39809Y-55957D01*
X39828Y-55985D01*
X39847Y-56042D01*
X39847Y-56128D01*
X39828Y-56185D01*
X39809Y-56214D01*
X39771Y-56242D01*
X39619Y-56242D01*
X39619Y-55642D01*
X39752Y-55642D01*
X39790Y-55671D01*
X39809Y-55700D01*
X39828Y-55757D01*
X39828Y-55814D01*
X39809Y-55871D01*
X39790Y-55900D01*
X39752Y-55928D01*
X39619Y-55928D01*
G54D13*
G54D19*
X66705Y-37525D02*
X66705Y-36844D01*
X66848Y-37331D01*
X66991Y-36844D01*
X66991Y-37525D01*
X67317Y-36844D02*
X67317Y-37331D01*
X67296Y-37428D01*
X67256Y-37493D01*
X67194Y-37525D01*
X67154Y-37525D01*
X67724Y-37525D02*
X67521Y-37525D01*
X67521Y-36844D01*
X67765Y-37590D02*
X68091Y-37590D01*
X68173Y-37493D02*
X68234Y-37525D01*
X68336Y-37525D01*
X68377Y-37493D01*
X68397Y-37460D01*
X68417Y-37395D01*
X68417Y-37331D01*
X68397Y-37266D01*
X68377Y-37233D01*
X68336Y-37201D01*
X68254Y-37168D01*
X68214Y-37136D01*
X68193Y-37104D01*
X68173Y-37039D01*
X68173Y-36974D01*
X68193Y-36909D01*
X68214Y-36877D01*
X68254Y-36844D01*
X68356Y-36844D01*
X68417Y-36877D01*
X68560Y-36844D02*
X68662Y-37525D01*
X68743Y-37039D01*
X68825Y-37525D01*
X68927Y-36844D01*
X69314Y-37525D02*
X69070Y-37525D01*
X69192Y-37525D02*
X69192Y-36844D01*
X69151Y-36941D01*
X69110Y-37006D01*
X69070Y-37039D01*
G54D13*
G54D16*
X66095Y-36492D02*
X66095Y-35892D01*
X66247Y-35892D01*
X66285Y-35921D01*
X66304Y-35950D01*
X66323Y-36007D01*
X66323Y-36092D01*
X66304Y-36150D01*
X66285Y-36178D01*
X66247Y-36207D01*
X66095Y-36207D01*
X66552Y-36492D02*
X66514Y-36464D01*
X66495Y-36435D01*
X66476Y-36378D01*
X66476Y-36207D01*
X66495Y-36150D01*
X66514Y-36121D01*
X66552Y-36092D01*
X66609Y-36092D01*
X66647Y-36121D01*
X66666Y-36150D01*
X66685Y-36207D01*
X66685Y-36378D01*
X66666Y-36435D01*
X66647Y-36464D01*
X66609Y-36492D01*
X66552Y-36492D01*
X66819Y-36092D02*
X66895Y-36492D01*
X66971Y-36207D01*
X67047Y-36492D01*
X67123Y-36092D01*
X67428Y-36464D02*
X67390Y-36492D01*
X67314Y-36492D01*
X67276Y-36464D01*
X67257Y-36407D01*
X67257Y-36178D01*
X67276Y-36121D01*
X67314Y-36092D01*
X67390Y-36092D01*
X67428Y-36121D01*
X67447Y-36178D01*
X67447Y-36235D01*
X67257Y-36292D01*
X67619Y-36492D02*
X67619Y-36092D01*
X67619Y-36207D02*
X67638Y-36150D01*
X67657Y-36121D01*
X67695Y-36092D01*
X67733Y-36092D01*
X68152Y-36464D02*
X68209Y-36492D01*
X68304Y-36492D01*
X68342Y-36464D01*
X68361Y-36435D01*
X68380Y-36378D01*
X68380Y-36321D01*
X68361Y-36264D01*
X68342Y-36235D01*
X68304Y-36207D01*
X68228Y-36178D01*
X68190Y-36150D01*
X68171Y-36121D01*
X68152Y-36064D01*
X68152Y-36007D01*
X68171Y-35950D01*
X68190Y-35921D01*
X68228Y-35892D01*
X68323Y-35892D01*
X68380Y-35921D01*
X68514Y-36092D02*
X68590Y-36492D01*
X68666Y-36207D01*
X68742Y-36492D01*
X68819Y-36092D01*
X68971Y-36492D02*
X68971Y-36092D01*
X68971Y-35892D02*
X68952Y-35921D01*
X68971Y-35950D01*
X68990Y-35921D01*
X68971Y-35892D01*
X68971Y-35950D01*
X69104Y-36092D02*
X69257Y-36092D01*
X69161Y-35892D02*
X69161Y-36407D01*
X69180Y-36464D01*
X69219Y-36492D01*
X69257Y-36492D01*
X69561Y-36464D02*
X69523Y-36492D01*
X69447Y-36492D01*
X69409Y-36464D01*
X69390Y-36435D01*
X69371Y-36378D01*
X69371Y-36207D01*
X69390Y-36150D01*
X69409Y-36121D01*
X69447Y-36092D01*
X69523Y-36092D01*
X69561Y-36121D01*
X69733Y-36492D02*
X69733Y-35892D01*
X69904Y-36492D02*
X69904Y-36178D01*
X69885Y-36121D01*
X69847Y-36092D01*
X69790Y-36092D01*
X69752Y-36121D01*
X69733Y-36150D01*
G54D13*
G54D19*
X44673Y-27276D02*
X44673Y-26593D01*
X44673Y-26918D02*
X44918Y-26918D01*
X44918Y-27276D02*
X44918Y-26593D01*
X45305Y-26593D02*
X45224Y-26593D01*
X45183Y-26625D01*
X45163Y-26658D01*
X45122Y-26756D01*
X45101Y-26886D01*
X45101Y-27146D01*
X45122Y-27211D01*
X45142Y-27243D01*
X45183Y-27276D01*
X45264Y-27276D01*
X45305Y-27243D01*
X45326Y-27211D01*
X45346Y-27146D01*
X45346Y-26983D01*
X45326Y-26918D01*
X45305Y-26886D01*
X45264Y-26853D01*
X45183Y-26853D01*
X45142Y-26886D01*
X45122Y-26918D01*
X45101Y-26983D01*
G54D13*
G54D16*
X43173Y-26242D02*
X43173Y-25642D01*
X43326Y-25642D01*
X43364Y-25671D01*
X43383Y-25700D01*
X43402Y-25757D01*
X43402Y-25842D01*
X43383Y-25900D01*
X43364Y-25928D01*
X43326Y-25957D01*
X43173Y-25957D01*
X43573Y-26242D02*
X43573Y-25842D01*
X43573Y-25957D02*
X43592Y-25900D01*
X43611Y-25871D01*
X43650Y-25842D01*
X43688Y-25842D01*
X43878Y-26242D02*
X43840Y-26214D01*
X43821Y-26185D01*
X43802Y-26128D01*
X43802Y-25957D01*
X43821Y-25900D01*
X43840Y-25871D01*
X43878Y-25842D01*
X43935Y-25842D01*
X43973Y-25871D01*
X43992Y-25900D01*
X44011Y-25957D01*
X44011Y-26128D01*
X43992Y-26185D01*
X43973Y-26214D01*
X43935Y-26242D01*
X43878Y-26242D01*
X44354Y-25842D02*
X44354Y-26328D01*
X44335Y-26385D01*
X44316Y-26414D01*
X44278Y-26442D01*
X44221Y-26442D01*
X44183Y-26414D01*
X44354Y-26214D02*
X44316Y-26242D01*
X44240Y-26242D01*
X44202Y-26214D01*
X44183Y-26185D01*
X44164Y-26128D01*
X44164Y-25957D01*
X44183Y-25900D01*
X44202Y-25871D01*
X44240Y-25842D01*
X44316Y-25842D01*
X44354Y-25871D01*
X44545Y-26242D02*
X44545Y-25842D01*
X44545Y-25957D02*
X44564Y-25900D01*
X44583Y-25871D01*
X44621Y-25842D01*
X44659Y-25842D01*
X44964Y-26242D02*
X44964Y-25928D01*
X44945Y-25871D01*
X44907Y-25842D01*
X44830Y-25842D01*
X44792Y-25871D01*
X44964Y-26214D02*
X44926Y-26242D01*
X44830Y-26242D01*
X44792Y-26214D01*
X44773Y-26157D01*
X44773Y-26100D01*
X44792Y-26042D01*
X44830Y-26014D01*
X44926Y-26014D01*
X44964Y-25985D01*
X45154Y-26242D02*
X45154Y-25842D01*
X45154Y-25900D02*
X45173Y-25871D01*
X45211Y-25842D01*
X45269Y-25842D01*
X45307Y-25871D01*
X45326Y-25928D01*
X45326Y-26242D01*
X45326Y-25928D02*
X45345Y-25871D01*
X45383Y-25842D01*
X45440Y-25842D01*
X45478Y-25871D01*
X45497Y-25928D01*
X45497Y-26242D01*
X45688Y-26242D02*
X45688Y-25842D01*
X45688Y-25900D02*
X45707Y-25871D01*
X45745Y-25842D01*
X45802Y-25842D01*
X45840Y-25871D01*
X45859Y-25928D01*
X45859Y-26242D01*
X45859Y-25928D02*
X45878Y-25871D01*
X45916Y-25842D01*
X45973Y-25842D01*
X46011Y-25871D01*
X46030Y-25928D01*
X46030Y-26242D01*
X46221Y-26242D02*
X46221Y-25842D01*
X46221Y-25642D02*
X46202Y-25671D01*
X46221Y-25700D01*
X46240Y-25671D01*
X46221Y-25642D01*
X46221Y-25700D01*
X46411Y-25842D02*
X46411Y-26242D01*
X46411Y-25900D02*
X46430Y-25871D01*
X46469Y-25842D01*
X46526Y-25842D01*
X46564Y-25871D01*
X46583Y-25928D01*
X46583Y-26242D01*
X46945Y-25842D02*
X46945Y-26328D01*
X46926Y-26385D01*
X46907Y-26414D01*
X46869Y-26442D01*
X46811Y-26442D01*
X46773Y-26414D01*
X46945Y-26214D02*
X46907Y-26242D01*
X46830Y-26242D01*
X46792Y-26214D01*
X46773Y-26185D01*
X46754Y-26128D01*
X46754Y-25957D01*
X46773Y-25900D01*
X46792Y-25871D01*
X46830Y-25842D01*
X46907Y-25842D01*
X46945Y-25871D01*
X47440Y-26242D02*
X47440Y-25642D01*
X47440Y-25928D02*
X47669Y-25928D01*
X47669Y-26242D02*
X47669Y-25642D01*
X48011Y-26214D02*
X47973Y-26242D01*
X47897Y-26242D01*
X47859Y-26214D01*
X47840Y-26157D01*
X47840Y-25928D01*
X47859Y-25871D01*
X47897Y-25842D01*
X47973Y-25842D01*
X48011Y-25871D01*
X48030Y-25928D01*
X48030Y-25985D01*
X47840Y-26042D01*
X48373Y-26242D02*
X48373Y-25928D01*
X48354Y-25871D01*
X48316Y-25842D01*
X48240Y-25842D01*
X48202Y-25871D01*
X48373Y-26214D02*
X48335Y-26242D01*
X48240Y-26242D01*
X48202Y-26214D01*
X48183Y-26157D01*
X48183Y-26100D01*
X48202Y-26042D01*
X48240Y-26014D01*
X48335Y-26014D01*
X48373Y-25985D01*
X48735Y-26242D02*
X48735Y-25642D01*
X48735Y-26214D02*
X48697Y-26242D01*
X48621Y-26242D01*
X48583Y-26214D01*
X48564Y-26185D01*
X48545Y-26128D01*
X48545Y-25957D01*
X48564Y-25900D01*
X48583Y-25871D01*
X48621Y-25842D01*
X48697Y-25842D01*
X48735Y-25871D01*
X49078Y-26214D02*
X49040Y-26242D01*
X48964Y-26242D01*
X48926Y-26214D01*
X48907Y-26157D01*
X48907Y-25928D01*
X48926Y-25871D01*
X48964Y-25842D01*
X49040Y-25842D01*
X49078Y-25871D01*
X49097Y-25928D01*
X49097Y-25985D01*
X48907Y-26042D01*
X49269Y-26242D02*
X49269Y-25842D01*
X49269Y-25957D02*
X49288Y-25900D01*
X49307Y-25871D01*
X49345Y-25842D01*
X49383Y-25842D01*
G54D13*
G54D20*
X48176Y-51935D02*
X48176Y-51230D01*
X48176Y-51566D02*
X48419Y-51566D01*
X48419Y-51935D02*
X48419Y-51230D01*
X48580Y-51230D02*
X48863Y-51230D01*
X48681Y-51935D01*
G54D13*
G54D16*
X49033Y-53392D02*
X48842Y-53392D01*
X48842Y-52792D01*
X49395Y-53335D02*
X49376Y-53364D01*
X49319Y-53392D01*
X49280Y-53392D01*
X49223Y-53364D01*
X49185Y-53307D01*
X49166Y-53250D01*
X49147Y-53135D01*
X49147Y-53050D01*
X49166Y-52935D01*
X49185Y-52878D01*
X49223Y-52821D01*
X49280Y-52792D01*
X49319Y-52792D01*
X49376Y-52821D01*
X49395Y-52850D01*
X49566Y-53392D02*
X49566Y-52792D01*
X49661Y-52792D01*
X49719Y-52821D01*
X49757Y-52878D01*
X49776Y-52935D01*
X49795Y-53050D01*
X49795Y-53135D01*
X49776Y-53250D01*
X49757Y-53307D01*
X49719Y-53364D01*
X49661Y-53392D01*
X49566Y-53392D01*
X50271Y-53392D02*
X50271Y-52792D01*
X50271Y-53078D02*
X50500Y-53078D01*
X50500Y-53392D02*
X50500Y-52792D01*
X50842Y-53364D02*
X50804Y-53392D01*
X50728Y-53392D01*
X50690Y-53364D01*
X50671Y-53307D01*
X50671Y-53078D01*
X50690Y-53021D01*
X50728Y-52992D01*
X50804Y-52992D01*
X50842Y-53021D01*
X50861Y-53078D01*
X50861Y-53135D01*
X50671Y-53192D01*
X51204Y-53392D02*
X51204Y-53078D01*
X51185Y-53021D01*
X51147Y-52992D01*
X51071Y-52992D01*
X51033Y-53021D01*
X51204Y-53364D02*
X51166Y-53392D01*
X51071Y-53392D01*
X51033Y-53364D01*
X51014Y-53307D01*
X51014Y-53250D01*
X51033Y-53192D01*
X51071Y-53164D01*
X51166Y-53164D01*
X51204Y-53135D01*
X51566Y-53392D02*
X51566Y-52792D01*
X51566Y-53364D02*
X51528Y-53392D01*
X51452Y-53392D01*
X51414Y-53364D01*
X51395Y-53335D01*
X51376Y-53278D01*
X51376Y-53107D01*
X51395Y-53050D01*
X51414Y-53021D01*
X51452Y-52992D01*
X51528Y-52992D01*
X51566Y-53021D01*
X51909Y-53364D02*
X51871Y-53392D01*
X51795Y-53392D01*
X51757Y-53364D01*
X51738Y-53307D01*
X51738Y-53078D01*
X51757Y-53021D01*
X51795Y-52992D01*
X51871Y-52992D01*
X51909Y-53021D01*
X51928Y-53078D01*
X51928Y-53135D01*
X51738Y-53192D01*
X52100Y-53392D02*
X52100Y-52992D01*
X52100Y-53107D02*
X52119Y-53050D01*
X52138Y-53021D01*
X52176Y-52992D01*
X52214Y-52992D01*
G54D13*
G54D20*
X58352Y-33540D02*
X58318Y-33580D01*
X58251Y-33621D01*
X58151Y-33681D01*
X58117Y-33722D01*
X58117Y-33762D01*
X58285Y-33742D02*
X58251Y-33782D01*
X58184Y-33823D01*
X58050Y-33843D01*
X57815Y-33843D01*
X57681Y-33823D01*
X57613Y-33782D01*
X57580Y-33742D01*
X57580Y-33661D01*
X57613Y-33621D01*
X57681Y-33580D01*
X57815Y-33560D01*
X58050Y-33560D01*
X58184Y-33580D01*
X58251Y-33621D01*
X58285Y-33661D01*
X58285Y-33742D01*
X58285Y-33156D02*
X58285Y-33399D01*
X58285Y-33277D02*
X57580Y-33277D01*
X57681Y-33318D01*
X57748Y-33358D01*
X57781Y-33399D01*
G54D13*
G54D16*
X58242Y-32795D02*
X57642Y-32795D01*
X58242Y-32376D02*
X57957Y-32509D01*
X58242Y-32604D02*
X57642Y-32604D01*
X57642Y-32452D01*
X57671Y-32414D01*
X57700Y-32395D01*
X57757Y-32376D01*
X57842Y-32376D01*
X57900Y-32395D01*
X57928Y-32414D01*
X57957Y-32452D01*
X57957Y-32604D01*
X57928Y-32071D02*
X57928Y-32204D01*
X58242Y-32204D02*
X57642Y-32204D01*
X57642Y-32014D01*
X57642Y-31899D02*
X57642Y-31652D01*
X57871Y-31785D01*
X57871Y-31728D01*
X57900Y-31690D01*
X57928Y-31671D01*
X57985Y-31652D01*
X58128Y-31652D01*
X58185Y-31671D01*
X58214Y-31690D01*
X58242Y-31728D01*
X58242Y-31842D01*
X58214Y-31880D01*
X58185Y-31899D01*
X57700Y-31499D02*
X57671Y-31480D01*
X57642Y-31442D01*
X57642Y-31347D01*
X57671Y-31309D01*
X57700Y-31290D01*
X57757Y-31271D01*
X57814Y-31271D01*
X57900Y-31290D01*
X58242Y-31519D01*
X58242Y-31271D01*
X57642Y-31023D02*
X57642Y-30985D01*
X57671Y-30947D01*
X57700Y-30928D01*
X57757Y-30909D01*
X57871Y-30890D01*
X58014Y-30890D01*
X58128Y-30909D01*
X58185Y-30928D01*
X58214Y-30947D01*
X58242Y-30985D01*
X58242Y-31023D01*
X58214Y-31061D01*
X58185Y-31080D01*
X58128Y-31099D01*
X58014Y-31119D01*
X57871Y-31119D01*
X57757Y-31099D01*
X57700Y-31080D01*
X57671Y-31061D01*
X57642Y-31023D01*
X57642Y-30528D02*
X57642Y-30719D01*
X57928Y-30738D01*
X57900Y-30719D01*
X57871Y-30680D01*
X57871Y-30585D01*
X57900Y-30547D01*
X57928Y-30528D01*
X57985Y-30509D01*
X58128Y-30509D01*
X58185Y-30528D01*
X58214Y-30547D01*
X58242Y-30585D01*
X58242Y-30680D01*
X58214Y-30719D01*
X58185Y-30738D01*
X58242Y-30147D02*
X58242Y-30338D01*
X57642Y-30338D01*
G54D13*
G54D20*
X78785Y-35323D02*
X78080Y-35323D01*
X78416Y-35323D02*
X78416Y-35080D01*
X78785Y-35080D02*
X78080Y-35080D01*
X78785Y-34656D02*
X78785Y-34899D01*
X78785Y-34777D02*
X78080Y-34777D01*
X78181Y-34818D01*
X78248Y-34858D01*
X78281Y-34899D01*
G54D13*
G54D16*
X79742Y-34980D02*
X79142Y-34980D01*
X79142Y-34828D01*
X79171Y-34790D01*
X79200Y-34771D01*
X79257Y-34752D01*
X79342Y-34752D01*
X79400Y-34771D01*
X79428Y-34790D01*
X79457Y-34828D01*
X79457Y-34980D01*
X79742Y-34523D02*
X79714Y-34561D01*
X79685Y-34580D01*
X79628Y-34599D01*
X79457Y-34599D01*
X79400Y-34580D01*
X79371Y-34561D01*
X79342Y-34523D01*
X79342Y-34466D01*
X79371Y-34428D01*
X79400Y-34409D01*
X79457Y-34390D01*
X79628Y-34390D01*
X79685Y-34409D01*
X79714Y-34428D01*
X79742Y-34466D01*
X79742Y-34523D01*
X79342Y-34257D02*
X79742Y-34180D01*
X79457Y-34104D01*
X79742Y-34028D01*
X79342Y-33952D01*
X79714Y-33647D02*
X79742Y-33685D01*
X79742Y-33761D01*
X79714Y-33799D01*
X79657Y-33819D01*
X79428Y-33819D01*
X79371Y-33799D01*
X79342Y-33761D01*
X79342Y-33685D01*
X79371Y-33647D01*
X79428Y-33628D01*
X79485Y-33628D01*
X79542Y-33819D01*
X79742Y-33457D02*
X79342Y-33457D01*
X79457Y-33457D02*
X79400Y-33438D01*
X79371Y-33419D01*
X79342Y-33380D01*
X79342Y-33342D01*
X79742Y-32904D02*
X79142Y-32904D01*
X79428Y-32904D02*
X79428Y-32676D01*
X79742Y-32676D02*
X79142Y-32676D01*
X79714Y-32333D02*
X79742Y-32371D01*
X79742Y-32447D01*
X79714Y-32485D01*
X79657Y-32504D01*
X79428Y-32504D01*
X79371Y-32485D01*
X79342Y-32447D01*
X79342Y-32371D01*
X79371Y-32333D01*
X79428Y-32314D01*
X79485Y-32314D01*
X79542Y-32504D01*
X79742Y-31971D02*
X79428Y-31971D01*
X79371Y-31990D01*
X79342Y-32028D01*
X79342Y-32104D01*
X79371Y-32142D01*
X79714Y-31971D02*
X79742Y-32009D01*
X79742Y-32104D01*
X79714Y-32142D01*
X79657Y-32161D01*
X79600Y-32161D01*
X79542Y-32142D01*
X79514Y-32104D01*
X79514Y-32009D01*
X79485Y-31971D01*
X79742Y-31609D02*
X79142Y-31609D01*
X79714Y-31609D02*
X79742Y-31647D01*
X79742Y-31723D01*
X79714Y-31761D01*
X79685Y-31780D01*
X79628Y-31800D01*
X79457Y-31800D01*
X79400Y-31780D01*
X79371Y-31761D01*
X79342Y-31723D01*
X79342Y-31647D01*
X79371Y-31609D01*
X79714Y-31266D02*
X79742Y-31304D01*
X79742Y-31380D01*
X79714Y-31419D01*
X79657Y-31438D01*
X79428Y-31438D01*
X79371Y-31419D01*
X79342Y-31380D01*
X79342Y-31304D01*
X79371Y-31266D01*
X79428Y-31247D01*
X79485Y-31247D01*
X79542Y-31438D01*
X79742Y-31076D02*
X79342Y-31076D01*
X79457Y-31076D02*
X79400Y-31057D01*
X79371Y-31038D01*
X79342Y-31000D01*
X79342Y-30961D01*
G54D13*
G54D20*
X25785Y-35812D02*
X25080Y-35812D01*
X25785Y-35570D02*
X25382Y-35752D01*
X25080Y-35570D02*
X25483Y-35812D01*
X25785Y-35166D02*
X25785Y-35409D01*
X25785Y-35288D02*
X25080Y-35288D01*
X25181Y-35328D01*
X25248Y-35368D01*
X25281Y-35409D01*
G54D13*
G54D16*
X24742Y-38176D02*
X24742Y-38366D01*
X24142Y-38366D01*
X24742Y-38042D02*
X24142Y-38042D01*
X24571Y-37909D01*
X24142Y-37776D01*
X24742Y-37776D01*
X24142Y-37623D02*
X24142Y-37376D01*
X24371Y-37509D01*
X24371Y-37452D01*
X24400Y-37414D01*
X24428Y-37395D01*
X24485Y-37376D01*
X24628Y-37376D01*
X24685Y-37395D01*
X24714Y-37414D01*
X24742Y-37452D01*
X24742Y-37566D01*
X24714Y-37604D01*
X24685Y-37623D01*
X24742Y-36995D02*
X24742Y-37223D01*
X24742Y-37109D02*
X24142Y-37109D01*
X24228Y-37147D01*
X24285Y-37185D01*
X24314Y-37223D01*
X24142Y-36861D02*
X24142Y-36595D01*
X24742Y-36766D01*
G54D13*
G54D20*
X27785Y-35823D02*
X27080Y-35823D01*
X27416Y-35823D02*
X27416Y-35580D01*
X27785Y-35580D02*
X27080Y-35580D01*
X27382Y-35318D02*
X27348Y-35358D01*
X27315Y-35378D01*
X27248Y-35399D01*
X27214Y-35399D01*
X27147Y-35378D01*
X27113Y-35358D01*
X27080Y-35318D01*
X27080Y-35237D01*
X27113Y-35197D01*
X27147Y-35176D01*
X27214Y-35156D01*
X27248Y-35156D01*
X27315Y-35176D01*
X27348Y-35197D01*
X27382Y-35237D01*
X27382Y-35318D01*
X27416Y-35358D01*
X27449Y-35378D01*
X27516Y-35399D01*
X27651Y-35399D01*
X27718Y-35378D01*
X27751Y-35358D01*
X27785Y-35318D01*
X27785Y-35237D01*
X27751Y-35197D01*
X27718Y-35176D01*
X27651Y-35156D01*
X27516Y-35156D01*
X27449Y-35176D01*
X27416Y-35197D01*
X27382Y-35237D01*
G54D13*
G54D16*
X28742Y-34842D02*
X28142Y-34842D01*
X28742Y-34423D02*
X28457Y-34557D01*
X28742Y-34652D02*
X28142Y-34652D01*
X28142Y-34500D01*
X28171Y-34461D01*
X28200Y-34442D01*
X28257Y-34423D01*
X28342Y-34423D01*
X28400Y-34442D01*
X28428Y-34461D01*
X28457Y-34500D01*
X28457Y-34652D01*
X28742Y-34252D02*
X28142Y-34252D01*
X28342Y-34061D02*
X28742Y-34061D01*
X28400Y-34061D02*
X28371Y-34042D01*
X28342Y-34004D01*
X28342Y-33947D01*
X28371Y-33909D01*
X28428Y-33890D01*
X28742Y-33890D01*
X28428Y-33261D02*
X28457Y-33204D01*
X28485Y-33185D01*
X28542Y-33166D01*
X28628Y-33166D01*
X28685Y-33185D01*
X28714Y-33204D01*
X28742Y-33242D01*
X28742Y-33395D01*
X28142Y-33395D01*
X28142Y-33261D01*
X28171Y-33223D01*
X28200Y-33204D01*
X28257Y-33185D01*
X28314Y-33185D01*
X28371Y-33204D01*
X28400Y-33223D01*
X28428Y-33261D01*
X28428Y-33395D01*
X28742Y-32823D02*
X28428Y-32823D01*
X28371Y-32842D01*
X28342Y-32880D01*
X28342Y-32957D01*
X28371Y-32995D01*
X28714Y-32823D02*
X28742Y-32861D01*
X28742Y-32957D01*
X28714Y-32995D01*
X28657Y-33014D01*
X28600Y-33014D01*
X28542Y-32995D01*
X28514Y-32957D01*
X28514Y-32861D01*
X28485Y-32823D01*
X28714Y-32461D02*
X28742Y-32500D01*
X28742Y-32576D01*
X28714Y-32614D01*
X28685Y-32633D01*
X28628Y-32652D01*
X28457Y-32652D01*
X28400Y-32633D01*
X28371Y-32614D01*
X28342Y-32576D01*
X28342Y-32500D01*
X28371Y-32461D01*
X28742Y-32290D02*
X28142Y-32290D01*
X28514Y-32252D02*
X28742Y-32138D01*
X28342Y-32138D02*
X28571Y-32290D01*
G54D13*
G54D20*
X54437Y-26285D02*
X54437Y-25580D01*
X54679Y-26285D02*
X54497Y-25882D01*
X54679Y-25580D02*
X54437Y-25983D01*
X54840Y-25647D02*
X54861Y-25613D01*
X54901Y-25580D01*
X55002Y-25580D01*
X55042Y-25613D01*
X55062Y-25647D01*
X55083Y-25714D01*
X55083Y-25781D01*
X55062Y-25882D01*
X54820Y-26285D01*
X55083Y-26285D01*
G54D13*
G54D16*
X51823Y-25242D02*
X51633Y-25242D01*
X51633Y-24642D01*
X51957Y-25242D02*
X51957Y-24642D01*
X52090Y-25071D01*
X52223Y-24642D01*
X52223Y-25242D01*
X52376Y-24642D02*
X52623Y-24642D01*
X52490Y-24871D01*
X52547Y-24871D01*
X52585Y-24900D01*
X52604Y-24928D01*
X52623Y-24985D01*
X52623Y-25128D01*
X52604Y-25185D01*
X52585Y-25214D01*
X52547Y-25242D01*
X52433Y-25242D01*
X52395Y-25214D01*
X52376Y-25185D01*
X53004Y-25242D02*
X52776Y-25242D01*
X52890Y-25242D02*
X52890Y-24642D01*
X52852Y-24728D01*
X52814Y-24785D01*
X52776Y-24814D01*
X53138Y-24642D02*
X53404Y-24642D01*
X53233Y-25242D01*
G54D13*
G54D20*
X71687Y-28285D02*
X71687Y-27580D01*
X71929Y-28285D02*
X71747Y-27882D01*
X71929Y-27580D02*
X71687Y-27983D01*
X72070Y-27580D02*
X72333Y-27580D01*
X72191Y-27848D01*
X72252Y-27848D01*
X72292Y-27882D01*
X72312Y-27916D01*
X72333Y-27983D01*
X72333Y-28151D01*
X72312Y-28218D01*
X72292Y-28251D01*
X72252Y-28285D01*
X72131Y-28285D01*
X72090Y-28251D01*
X72070Y-28218D01*
G54D13*
G54D16*
X69133Y-27242D02*
X68942Y-27242D01*
X68942Y-26642D01*
X69266Y-27242D02*
X69266Y-26642D01*
X69400Y-27071D01*
X69533Y-26642D01*
X69533Y-27242D01*
X69685Y-26642D02*
X69952Y-26642D01*
X69780Y-27242D01*
X70161Y-26900D02*
X70123Y-26871D01*
X70104Y-26842D01*
X70085Y-26785D01*
X70085Y-26757D01*
X70104Y-26700D01*
X70123Y-26671D01*
X70161Y-26642D01*
X70238Y-26642D01*
X70276Y-26671D01*
X70295Y-26700D01*
X70314Y-26757D01*
X70314Y-26785D01*
X70295Y-26842D01*
X70276Y-26871D01*
X70238Y-26900D01*
X70161Y-26900D01*
X70123Y-26928D01*
X70104Y-26957D01*
X70085Y-27014D01*
X70085Y-27128D01*
X70104Y-27185D01*
X70123Y-27214D01*
X70161Y-27242D01*
X70238Y-27242D01*
X70276Y-27214D01*
X70295Y-27185D01*
X70314Y-27128D01*
X70314Y-27014D01*
X70295Y-26957D01*
X70276Y-26928D01*
X70238Y-26900D01*
X70561Y-26642D02*
X70600Y-26642D01*
X70638Y-26671D01*
X70657Y-26700D01*
X70676Y-26757D01*
X70695Y-26871D01*
X70695Y-27014D01*
X70676Y-27128D01*
X70657Y-27185D01*
X70638Y-27214D01*
X70600Y-27242D01*
X70561Y-27242D01*
X70523Y-27214D01*
X70504Y-27185D01*
X70485Y-27128D01*
X70466Y-27014D01*
X70466Y-26871D01*
X70485Y-26757D01*
X70504Y-26700D01*
X70523Y-26671D01*
X70561Y-26642D01*
X71057Y-26642D02*
X70866Y-26642D01*
X70847Y-26928D01*
X70866Y-26900D01*
X70904Y-26871D01*
X71000Y-26871D01*
X71038Y-26900D01*
X71057Y-26928D01*
X71076Y-26985D01*
X71076Y-27128D01*
X71057Y-27185D01*
X71038Y-27214D01*
X71000Y-27242D01*
X70904Y-27242D01*
X70866Y-27214D01*
X70847Y-27185D01*
G54D13*
G54D20*
X38676Y-26285D02*
X38676Y-25580D01*
X38676Y-25916D02*
X38919Y-25916D01*
X38919Y-26285D02*
X38919Y-25580D01*
X39080Y-25580D02*
X39343Y-25580D01*
X39201Y-25848D01*
X39262Y-25848D01*
X39302Y-25882D01*
X39323Y-25916D01*
X39343Y-25983D01*
X39343Y-26151D01*
X39323Y-26218D01*
X39302Y-26251D01*
X39262Y-26285D01*
X39141Y-26285D01*
X39100Y-26251D01*
X39080Y-26218D01*
G54D13*
G54D16*
X36100Y-24242D02*
X36100Y-23642D01*
X36519Y-24242D02*
X36385Y-23957D01*
X36290Y-24242D02*
X36290Y-23642D01*
X36442Y-23642D01*
X36480Y-23671D01*
X36500Y-23700D01*
X36519Y-23757D01*
X36519Y-23842D01*
X36500Y-23900D01*
X36480Y-23928D01*
X36442Y-23957D01*
X36290Y-23957D01*
X36690Y-24242D02*
X36690Y-23642D01*
X36880Y-23842D02*
X36880Y-24242D01*
X36880Y-23900D02*
X36900Y-23871D01*
X36938Y-23842D01*
X36995Y-23842D01*
X37033Y-23871D01*
X37052Y-23928D01*
X37052Y-24242D01*
X37680Y-23928D02*
X37547Y-23928D01*
X37547Y-24242D02*
X37547Y-23642D01*
X37738Y-23642D01*
X37890Y-24242D02*
X37890Y-23842D01*
X37890Y-23957D02*
X37909Y-23900D01*
X37928Y-23871D01*
X37966Y-23842D01*
X38004Y-23842D01*
X38195Y-24242D02*
X38157Y-24214D01*
X38138Y-24185D01*
X38119Y-24128D01*
X38119Y-23957D01*
X38138Y-23900D01*
X38157Y-23871D01*
X38195Y-23842D01*
X38252Y-23842D01*
X38290Y-23871D01*
X38309Y-23900D01*
X38328Y-23957D01*
X38328Y-24128D01*
X38309Y-24185D01*
X38290Y-24214D01*
X38252Y-24242D01*
X38195Y-24242D01*
X38500Y-23842D02*
X38500Y-24242D01*
X38500Y-23900D02*
X38519Y-23871D01*
X38557Y-23842D01*
X38614Y-23842D01*
X38652Y-23871D01*
X38671Y-23928D01*
X38671Y-24242D01*
X38804Y-23842D02*
X38957Y-23842D01*
X38861Y-23642D02*
X38861Y-24157D01*
X38880Y-24214D01*
X38919Y-24242D01*
X38957Y-24242D01*
G54D13*
G54D19*
X62025Y-26529D02*
X61344Y-26529D01*
X61668Y-26529D02*
X61668Y-26285D01*
X62025Y-26285D02*
X61344Y-26285D01*
X62025Y-25857D02*
X62025Y-26101D01*
X62025Y-25979D02*
X61344Y-25979D01*
X61441Y-26020D01*
X61506Y-26061D01*
X61539Y-26101D01*
X61344Y-25714D02*
X61344Y-25449D01*
X61604Y-25592D01*
X61604Y-25531D01*
X61636Y-25490D01*
X61668Y-25470D01*
X61733Y-25449D01*
X61895Y-25449D01*
X61960Y-25470D01*
X61993Y-25490D01*
X62025Y-25531D01*
X62025Y-25653D01*
X61993Y-25694D01*
X61960Y-25714D01*
G54D13*
G54D16*
X62564Y-25071D02*
X62754Y-25071D01*
X62526Y-25242D02*
X62659Y-24642D01*
X62792Y-25242D01*
X62926Y-24642D02*
X62926Y-25128D01*
X62945Y-25185D01*
X62964Y-25214D01*
X63002Y-25242D01*
X63078Y-25242D01*
X63116Y-25214D01*
X63135Y-25185D01*
X63154Y-25128D01*
X63154Y-24642D01*
X63307Y-24642D02*
X63573Y-25242D01*
X63573Y-24642D02*
X63307Y-25242D01*
X63688Y-24642D02*
X63935Y-24642D01*
X63802Y-24871D01*
X63859Y-24871D01*
X63897Y-24900D01*
X63916Y-24928D01*
X63935Y-24985D01*
X63935Y-25128D01*
X63916Y-25185D01*
X63897Y-25214D01*
X63859Y-25242D01*
X63745Y-25242D01*
X63707Y-25214D01*
X63688Y-25185D01*
G54D13*
G54D19*
X65025Y-26529D02*
X64344Y-26529D01*
X64668Y-26529D02*
X64668Y-26285D01*
X65025Y-26285D02*
X64344Y-26285D01*
X65025Y-25857D02*
X65025Y-26101D01*
X65025Y-25979D02*
X64344Y-25979D01*
X64441Y-26020D01*
X64506Y-26061D01*
X64539Y-26101D01*
X64571Y-25490D02*
X65025Y-25490D01*
X64312Y-25592D02*
X64798Y-25694D01*
X64798Y-25429D01*
G54D13*
G54D16*
X65564Y-25071D02*
X65754Y-25071D01*
X65526Y-25242D02*
X65659Y-24642D01*
X65792Y-25242D01*
X65926Y-24642D02*
X65926Y-25128D01*
X65945Y-25185D01*
X65964Y-25214D01*
X66002Y-25242D01*
X66078Y-25242D01*
X66116Y-25214D01*
X66135Y-25185D01*
X66154Y-25128D01*
X66154Y-24642D01*
X66307Y-24642D02*
X66573Y-25242D01*
X66573Y-24642D02*
X66307Y-25242D01*
X66897Y-24842D02*
X66897Y-25242D01*
X66802Y-24614D02*
X66707Y-25042D01*
X66954Y-25042D01*
G54D13*
G54D19*
X59025Y-26529D02*
X58344Y-26529D01*
X58668Y-26529D02*
X58668Y-26285D01*
X59025Y-26285D02*
X58344Y-26285D01*
X59025Y-25857D02*
X59025Y-26101D01*
X59025Y-25979D02*
X58344Y-25979D01*
X58441Y-26020D01*
X58506Y-26061D01*
X58539Y-26101D01*
X58409Y-25694D02*
X58377Y-25673D01*
X58344Y-25633D01*
X58344Y-25531D01*
X58377Y-25490D01*
X58409Y-25470D01*
X58474Y-25449D01*
X58539Y-25449D01*
X58636Y-25470D01*
X59025Y-25714D01*
X59025Y-25449D01*
G54D13*
G54D16*
X59564Y-25071D02*
X59754Y-25071D01*
X59526Y-25242D02*
X59659Y-24642D01*
X59792Y-25242D01*
X59926Y-24642D02*
X59926Y-25128D01*
X59945Y-25185D01*
X59964Y-25214D01*
X60002Y-25242D01*
X60078Y-25242D01*
X60116Y-25214D01*
X60135Y-25185D01*
X60154Y-25128D01*
X60154Y-24642D01*
X60307Y-24642D02*
X60573Y-25242D01*
X60573Y-24642D02*
X60307Y-25242D01*
X60707Y-24700D02*
X60726Y-24671D01*
X60764Y-24642D01*
X60859Y-24642D01*
X60897Y-24671D01*
X60916Y-24700D01*
X60935Y-24757D01*
X60935Y-24814D01*
X60916Y-24900D01*
X60688Y-25242D01*
X60935Y-25242D01*
G54D13*
G54D19*
X56025Y-26529D02*
X55344Y-26529D01*
X55668Y-26529D02*
X55668Y-26285D01*
X56025Y-26285D02*
X55344Y-26285D01*
X56025Y-25857D02*
X56025Y-26101D01*
X56025Y-25979D02*
X55344Y-25979D01*
X55441Y-26020D01*
X55506Y-26061D01*
X55539Y-26101D01*
X56025Y-25449D02*
X56025Y-25694D01*
X56025Y-25572D02*
X55344Y-25572D01*
X55441Y-25612D01*
X55506Y-25653D01*
X55539Y-25694D01*
G54D13*
G54D16*
X56564Y-25071D02*
X56754Y-25071D01*
X56526Y-25242D02*
X56659Y-24642D01*
X56792Y-25242D01*
X56926Y-24642D02*
X56926Y-25128D01*
X56945Y-25185D01*
X56964Y-25214D01*
X57002Y-25242D01*
X57078Y-25242D01*
X57116Y-25214D01*
X57135Y-25185D01*
X57154Y-25128D01*
X57154Y-24642D01*
X57307Y-24642D02*
X57573Y-25242D01*
X57573Y-24642D02*
X57307Y-25242D01*
X57935Y-25242D02*
X57707Y-25242D01*
X57821Y-25242D02*
X57821Y-24642D01*
X57783Y-24728D01*
X57745Y-24785D01*
X57707Y-24814D01*
G54D13*
G54D19*
X32673Y-25275D02*
X32673Y-24594D01*
X32673Y-24918D02*
X32918Y-24918D01*
X32918Y-25275D02*
X32918Y-24594D01*
X33326Y-24594D02*
X33122Y-24594D01*
X33101Y-24918D01*
X33122Y-24886D01*
X33163Y-24854D01*
X33264Y-24854D01*
X33305Y-24886D01*
X33326Y-24918D01*
X33346Y-24983D01*
X33346Y-25145D01*
X33326Y-25210D01*
X33305Y-25243D01*
X33264Y-25275D01*
X33163Y-25275D01*
X33122Y-25243D01*
X33101Y-25210D01*
G54D13*
G54D16*
X31576Y-24242D02*
X31576Y-23642D01*
X31709Y-24071D01*
X31842Y-23642D01*
X31842Y-24242D01*
X32090Y-24242D02*
X32052Y-24214D01*
X32033Y-24185D01*
X32014Y-24128D01*
X32014Y-23957D01*
X32033Y-23900D01*
X32052Y-23871D01*
X32090Y-23842D01*
X32147Y-23842D01*
X32185Y-23871D01*
X32204Y-23900D01*
X32223Y-23957D01*
X32223Y-24128D01*
X32204Y-24185D01*
X32185Y-24214D01*
X32147Y-24242D01*
X32090Y-24242D01*
X32338Y-23842D02*
X32490Y-23842D01*
X32395Y-23642D02*
X32395Y-24157D01*
X32414Y-24214D01*
X32452Y-24242D01*
X32490Y-24242D01*
X32680Y-24242D02*
X32642Y-24214D01*
X32623Y-24185D01*
X32604Y-24128D01*
X32604Y-23957D01*
X32623Y-23900D01*
X32642Y-23871D01*
X32680Y-23842D01*
X32738Y-23842D01*
X32776Y-23871D01*
X32795Y-23900D01*
X32814Y-23957D01*
X32814Y-24128D01*
X32795Y-24185D01*
X32776Y-24214D01*
X32738Y-24242D01*
X32680Y-24242D01*
X32985Y-24242D02*
X32985Y-23842D01*
X32985Y-23957D02*
X33004Y-23900D01*
X33023Y-23871D01*
X33061Y-23842D01*
X33100Y-23842D01*
X33538Y-24242D02*
X33538Y-23642D01*
X33538Y-23928D02*
X33766Y-23928D01*
X33766Y-24242D02*
X33766Y-23642D01*
X34109Y-24214D02*
X34071Y-24242D01*
X33995Y-24242D01*
X33957Y-24214D01*
X33938Y-24157D01*
X33938Y-23928D01*
X33957Y-23871D01*
X33995Y-23842D01*
X34071Y-23842D01*
X34109Y-23871D01*
X34128Y-23928D01*
X34128Y-23985D01*
X33938Y-24042D01*
X34471Y-24242D02*
X34471Y-23928D01*
X34452Y-23871D01*
X34414Y-23842D01*
X34338Y-23842D01*
X34300Y-23871D01*
X34471Y-24214D02*
X34433Y-24242D01*
X34338Y-24242D01*
X34300Y-24214D01*
X34280Y-24157D01*
X34280Y-24100D01*
X34300Y-24042D01*
X34338Y-24014D01*
X34433Y-24014D01*
X34471Y-23985D01*
X34833Y-24242D02*
X34833Y-23642D01*
X34833Y-24214D02*
X34795Y-24242D01*
X34719Y-24242D01*
X34680Y-24214D01*
X34661Y-24185D01*
X34642Y-24128D01*
X34642Y-23957D01*
X34661Y-23900D01*
X34680Y-23871D01*
X34719Y-23842D01*
X34795Y-23842D01*
X34833Y-23871D01*
X35176Y-24214D02*
X35138Y-24242D01*
X35061Y-24242D01*
X35023Y-24214D01*
X35004Y-24157D01*
X35004Y-23928D01*
X35023Y-23871D01*
X35061Y-23842D01*
X35138Y-23842D01*
X35176Y-23871D01*
X35195Y-23928D01*
X35195Y-23985D01*
X35004Y-24042D01*
X35366Y-24242D02*
X35366Y-23842D01*
X35366Y-23957D02*
X35385Y-23900D01*
X35404Y-23871D01*
X35442Y-23842D01*
X35480Y-23842D01*
G54D13*
G54D19*
X29720Y-57525D02*
X29720Y-56844D01*
X29720Y-57168D02*
X29964Y-57168D01*
X29964Y-57525D02*
X29964Y-56844D01*
X30392Y-57525D02*
X30148Y-57525D01*
X30270Y-57525D02*
X30270Y-56844D01*
X30229Y-56941D01*
X30188Y-57006D01*
X30148Y-57039D01*
X30657Y-56844D02*
X30698Y-56844D01*
X30739Y-56877D01*
X30759Y-56909D01*
X30779Y-56974D01*
X30800Y-57104D01*
X30800Y-57266D01*
X30779Y-57395D01*
X30759Y-57460D01*
X30739Y-57493D01*
X30698Y-57525D01*
X30657Y-57525D01*
X30616Y-57493D01*
X30596Y-57460D01*
X30576Y-57395D01*
X30555Y-57266D01*
X30555Y-57104D01*
X30576Y-56974D01*
X30596Y-56909D01*
X30616Y-56877D01*
X30657Y-56844D01*
G54D13*
G54D16*
X29428Y-56242D02*
X29295Y-55957D01*
X29200Y-56242D02*
X29200Y-55642D01*
X29352Y-55642D01*
X29390Y-55671D01*
X29409Y-55700D01*
X29428Y-55757D01*
X29428Y-55842D01*
X29409Y-55900D01*
X29390Y-55928D01*
X29352Y-55957D01*
X29200Y-55957D01*
X29752Y-56214D02*
X29714Y-56242D01*
X29638Y-56242D01*
X29600Y-56214D01*
X29580Y-56157D01*
X29580Y-55928D01*
X29600Y-55871D01*
X29638Y-55842D01*
X29714Y-55842D01*
X29752Y-55871D01*
X29771Y-55928D01*
X29771Y-55985D01*
X29580Y-56042D01*
X29942Y-56242D02*
X29942Y-55842D01*
X29942Y-55900D02*
X29961Y-55871D01*
X30000Y-55842D01*
X30057Y-55842D01*
X30095Y-55871D01*
X30114Y-55928D01*
X30114Y-56242D01*
X30114Y-55928D02*
X30133Y-55871D01*
X30171Y-55842D01*
X30228Y-55842D01*
X30266Y-55871D01*
X30285Y-55928D01*
X30285Y-56242D01*
X30533Y-56242D02*
X30495Y-56214D01*
X30476Y-56185D01*
X30457Y-56128D01*
X30457Y-55957D01*
X30476Y-55900D01*
X30495Y-55871D01*
X30533Y-55842D01*
X30590Y-55842D01*
X30628Y-55871D01*
X30647Y-55900D01*
X30666Y-55957D01*
X30666Y-56128D01*
X30647Y-56185D01*
X30628Y-56214D01*
X30590Y-56242D01*
X30533Y-56242D01*
X30780Y-55842D02*
X30933Y-55842D01*
X30838Y-55642D02*
X30838Y-56157D01*
X30857Y-56214D01*
X30895Y-56242D01*
X30933Y-56242D01*
X31219Y-56214D02*
X31180Y-56242D01*
X31104Y-56242D01*
X31066Y-56214D01*
X31047Y-56157D01*
X31047Y-55928D01*
X31066Y-55871D01*
X31104Y-55842D01*
X31180Y-55842D01*
X31219Y-55871D01*
X31238Y-55928D01*
X31238Y-55985D01*
X31047Y-56042D01*
X31714Y-56242D02*
X31714Y-55642D01*
X31942Y-56242D02*
X31771Y-55900D01*
X31942Y-55642D02*
X31714Y-55985D01*
X32114Y-56242D02*
X32114Y-55842D01*
X32114Y-55642D02*
X32095Y-55671D01*
X32114Y-55700D01*
X32133Y-55671D01*
X32114Y-55642D01*
X32114Y-55700D01*
X32361Y-56242D02*
X32323Y-56214D01*
X32304Y-56157D01*
X32304Y-55642D01*
X32571Y-56242D02*
X32533Y-56214D01*
X32514Y-56157D01*
X32514Y-55642D01*
X33142Y-56471D02*
X33123Y-56442D01*
X33085Y-56357D01*
X33066Y-56300D01*
X33047Y-56214D01*
X33028Y-56071D01*
X33028Y-55957D01*
X33047Y-55814D01*
X33066Y-55728D01*
X33085Y-55671D01*
X33123Y-55585D01*
X33142Y-55557D01*
X33428Y-55928D02*
X33485Y-55957D01*
X33504Y-55985D01*
X33523Y-56042D01*
X33523Y-56128D01*
X33504Y-56185D01*
X33485Y-56214D01*
X33447Y-56242D01*
X33295Y-56242D01*
X33295Y-55642D01*
X33428Y-55642D01*
X33466Y-55671D01*
X33485Y-55700D01*
X33504Y-55757D01*
X33504Y-55814D01*
X33485Y-55871D01*
X33466Y-55900D01*
X33428Y-55928D01*
X33295Y-55928D01*
X33866Y-56242D02*
X33866Y-55928D01*
X33847Y-55871D01*
X33809Y-55842D01*
X33733Y-55842D01*
X33695Y-55871D01*
X33866Y-56214D02*
X33828Y-56242D01*
X33733Y-56242D01*
X33695Y-56214D01*
X33676Y-56157D01*
X33676Y-56100D01*
X33695Y-56042D01*
X33733Y-56014D01*
X33828Y-56014D01*
X33866Y-55985D01*
X34228Y-56214D02*
X34190Y-56242D01*
X34114Y-56242D01*
X34076Y-56214D01*
X34057Y-56185D01*
X34038Y-56128D01*
X34038Y-55957D01*
X34057Y-55900D01*
X34076Y-55871D01*
X34114Y-55842D01*
X34190Y-55842D01*
X34228Y-55871D01*
X34400Y-56242D02*
X34400Y-55642D01*
X34438Y-56014D02*
X34552Y-56242D01*
X34552Y-55842D02*
X34400Y-56071D01*
X34685Y-56471D02*
X34704Y-56442D01*
X34742Y-56357D01*
X34761Y-56300D01*
X34780Y-56214D01*
X34800Y-56071D01*
X34800Y-55957D01*
X34780Y-55814D01*
X34761Y-55728D01*
X34742Y-55671D01*
X34704Y-55585D01*
X34685Y-55557D01*
G54D13*
G54D14*
X28972Y-37583D02*
X28710Y-37750D01*
X28972Y-37869D02*
X28422Y-37869D01*
X28422Y-37678D01*
X28448Y-37630D01*
X28475Y-37607D01*
X28527Y-37583D01*
X28605Y-37583D01*
X28658Y-37607D01*
X28684Y-37630D01*
X28710Y-37678D01*
X28710Y-37869D01*
X28422Y-37416D02*
X28422Y-37107D01*
X28632Y-37273D01*
X28632Y-37202D01*
X28658Y-37154D01*
X28684Y-37130D01*
X28736Y-37107D01*
X28867Y-37107D01*
X28920Y-37130D01*
X28946Y-37154D01*
X28972Y-37202D01*
X28972Y-37345D01*
X28946Y-37392D01*
X28920Y-37416D01*
X29222Y-40945D02*
X29222Y-41183D01*
X29484Y-41207D01*
X29458Y-41183D01*
X29432Y-41135D01*
X29432Y-41016D01*
X29458Y-40969D01*
X29484Y-40945D01*
X29536Y-40921D01*
X29667Y-40921D01*
X29720Y-40945D01*
X29746Y-40969D01*
X29772Y-41016D01*
X29772Y-41135D01*
X29746Y-41183D01*
X29720Y-41207D01*
X29772Y-40707D02*
X29222Y-40707D01*
X29772Y-40421D02*
X29458Y-40635D01*
X29222Y-40421D02*
X29536Y-40707D01*
X29484Y-39659D02*
X29510Y-39588D01*
X29536Y-39564D01*
X29589Y-39540D01*
X29667Y-39540D01*
X29720Y-39564D01*
X29746Y-39588D01*
X29772Y-39635D01*
X29772Y-39826D01*
X29222Y-39826D01*
X29222Y-39659D01*
X29248Y-39611D01*
X29275Y-39588D01*
X29327Y-39564D01*
X29379Y-39564D01*
X29432Y-39588D01*
X29458Y-39611D01*
X29484Y-39659D01*
X29484Y-39826D01*
X29772Y-39254D02*
X29746Y-39302D01*
X29720Y-39326D01*
X29667Y-39350D01*
X29510Y-39350D01*
X29458Y-39326D01*
X29432Y-39302D01*
X29405Y-39254D01*
X29405Y-39183D01*
X29432Y-39135D01*
X29458Y-39111D01*
X29510Y-39088D01*
X29667Y-39088D01*
X29720Y-39111D01*
X29746Y-39135D01*
X29772Y-39183D01*
X29772Y-39254D01*
X29405Y-38659D02*
X29772Y-38659D01*
X29405Y-38873D02*
X29694Y-38873D01*
X29746Y-38850D01*
X29772Y-38802D01*
X29772Y-38730D01*
X29746Y-38683D01*
X29720Y-38659D01*
X29772Y-38421D02*
X29405Y-38421D01*
X29510Y-38421D02*
X29458Y-38397D01*
X29432Y-38373D01*
X29405Y-38326D01*
X29405Y-38278D01*
X29405Y-38111D02*
X29772Y-38111D01*
X29458Y-38111D02*
X29432Y-38088D01*
X29405Y-38040D01*
X29405Y-37969D01*
X29432Y-37921D01*
X29484Y-37897D01*
X29772Y-37897D01*
X29746Y-37683D02*
X29772Y-37635D01*
X29772Y-37540D01*
X29746Y-37492D01*
X29694Y-37469D01*
X29667Y-37469D01*
X29615Y-37492D01*
X29589Y-37540D01*
X29589Y-37611D01*
X29563Y-37659D01*
X29510Y-37683D01*
X29484Y-37683D01*
X29432Y-37659D01*
X29405Y-37611D01*
X29405Y-37540D01*
X29432Y-37492D01*
X29222Y-36921D02*
X29222Y-36611D01*
X29432Y-36778D01*
X29432Y-36707D01*
X29458Y-36659D01*
X29484Y-36635D01*
X29536Y-36611D01*
X29667Y-36611D01*
X29720Y-36635D01*
X29746Y-36659D01*
X29772Y-36707D01*
X29772Y-36850D01*
X29746Y-36897D01*
X29720Y-36921D01*
X29275Y-36421D02*
X29248Y-36397D01*
X29222Y-36350D01*
X29222Y-36230D01*
X29248Y-36183D01*
X29275Y-36159D01*
X29327Y-36135D01*
X29379Y-36135D01*
X29458Y-36159D01*
X29772Y-36445D01*
X29772Y-36135D01*
X29563Y-35921D02*
X29563Y-35540D01*
X29222Y-35088D02*
X29222Y-35183D01*
X29248Y-35230D01*
X29275Y-35254D01*
X29353Y-35302D01*
X29458Y-35326D01*
X29667Y-35326D01*
X29720Y-35302D01*
X29746Y-35278D01*
X29772Y-35230D01*
X29772Y-35135D01*
X29746Y-35088D01*
X29720Y-35064D01*
X29667Y-35040D01*
X29536Y-35040D01*
X29484Y-35064D01*
X29458Y-35088D01*
X29432Y-35135D01*
X29432Y-35230D01*
X29458Y-35278D01*
X29484Y-35302D01*
X29536Y-35326D01*
X29222Y-34611D02*
X29222Y-34707D01*
X29248Y-34754D01*
X29275Y-34778D01*
X29353Y-34826D01*
X29458Y-34849D01*
X29667Y-34849D01*
X29720Y-34826D01*
X29746Y-34802D01*
X29772Y-34754D01*
X29772Y-34659D01*
X29746Y-34611D01*
X29720Y-34588D01*
X29667Y-34564D01*
X29536Y-34564D01*
X29484Y-34588D01*
X29458Y-34611D01*
X29432Y-34659D01*
X29432Y-34754D01*
X29458Y-34802D01*
X29484Y-34826D01*
X29536Y-34849D01*
X29222Y-34397D02*
X29772Y-34278D01*
X29379Y-34183D01*
X29772Y-34088D01*
X29222Y-33969D01*
X52416Y-28722D02*
X52250Y-28460D01*
X52130Y-28722D02*
X52130Y-28172D01*
X52321Y-28172D01*
X52369Y-28198D01*
X52392Y-28225D01*
X52416Y-28277D01*
X52416Y-28355D01*
X52392Y-28408D01*
X52369Y-28434D01*
X52321Y-28460D01*
X52130Y-28460D01*
X52869Y-28172D02*
X52630Y-28172D01*
X52607Y-28434D01*
X52630Y-28408D01*
X52678Y-28382D01*
X52797Y-28382D01*
X52845Y-28408D01*
X52869Y-28434D01*
X52892Y-28486D01*
X52892Y-28617D01*
X52869Y-28670D01*
X52845Y-28696D01*
X52797Y-28722D01*
X52678Y-28722D01*
X52630Y-28696D01*
X52607Y-28670D01*
X49054Y-29722D02*
X48816Y-29722D01*
X48792Y-29984D01*
X48816Y-29958D01*
X48864Y-29932D01*
X48983Y-29932D01*
X49030Y-29958D01*
X49054Y-29984D01*
X49078Y-30036D01*
X49078Y-30167D01*
X49054Y-30220D01*
X49030Y-30246D01*
X48983Y-30272D01*
X48864Y-30272D01*
X48816Y-30246D01*
X48792Y-30220D01*
X49292Y-30272D02*
X49292Y-29722D01*
X49578Y-30272D02*
X49364Y-29958D01*
X49578Y-29722D02*
X49292Y-30036D01*
X50340Y-29984D02*
X50411Y-30010D01*
X50435Y-30036D01*
X50459Y-30089D01*
X50459Y-30167D01*
X50435Y-30220D01*
X50411Y-30246D01*
X50364Y-30272D01*
X50173Y-30272D01*
X50173Y-29722D01*
X50340Y-29722D01*
X50388Y-29748D01*
X50411Y-29775D01*
X50435Y-29827D01*
X50435Y-29879D01*
X50411Y-29932D01*
X50388Y-29958D01*
X50340Y-29984D01*
X50173Y-29984D01*
X50745Y-30272D02*
X50697Y-30246D01*
X50673Y-30220D01*
X50650Y-30167D01*
X50650Y-30010D01*
X50673Y-29958D01*
X50697Y-29932D01*
X50745Y-29905D01*
X50816Y-29905D01*
X50864Y-29932D01*
X50888Y-29958D01*
X50911Y-30010D01*
X50911Y-30167D01*
X50888Y-30220D01*
X50864Y-30246D01*
X50816Y-30272D01*
X50745Y-30272D01*
X51340Y-29905D02*
X51340Y-30272D01*
X51126Y-29905D02*
X51126Y-30194D01*
X51150Y-30246D01*
X51197Y-30272D01*
X51269Y-30272D01*
X51316Y-30246D01*
X51340Y-30220D01*
X51578Y-30272D02*
X51578Y-29905D01*
X51578Y-30010D02*
X51602Y-29958D01*
X51626Y-29932D01*
X51673Y-29905D01*
X51721Y-29905D01*
X51888Y-29905D02*
X51888Y-30272D01*
X51888Y-29958D02*
X51911Y-29932D01*
X51959Y-29905D01*
X52030Y-29905D01*
X52078Y-29932D01*
X52102Y-29984D01*
X52102Y-30272D01*
X52316Y-30246D02*
X52364Y-30272D01*
X52459Y-30272D01*
X52507Y-30246D01*
X52530Y-30194D01*
X52530Y-30167D01*
X52507Y-30115D01*
X52459Y-30089D01*
X52388Y-30089D01*
X52340Y-30063D01*
X52316Y-30010D01*
X52316Y-29984D01*
X52340Y-29932D01*
X52388Y-29905D01*
X52459Y-29905D01*
X52507Y-29932D01*
X53078Y-29722D02*
X53388Y-29722D01*
X53221Y-29932D01*
X53292Y-29932D01*
X53340Y-29958D01*
X53364Y-29984D01*
X53388Y-30036D01*
X53388Y-30167D01*
X53364Y-30220D01*
X53340Y-30246D01*
X53292Y-30272D01*
X53150Y-30272D01*
X53102Y-30246D01*
X53078Y-30220D01*
X53578Y-29775D02*
X53602Y-29748D01*
X53650Y-29722D01*
X53769Y-29722D01*
X53816Y-29748D01*
X53840Y-29775D01*
X53864Y-29827D01*
X53864Y-29879D01*
X53840Y-29958D01*
X53554Y-30272D01*
X53864Y-30272D01*
X54078Y-30063D02*
X54459Y-30063D01*
X54911Y-29722D02*
X54816Y-29722D01*
X54769Y-29748D01*
X54745Y-29775D01*
X54697Y-29853D01*
X54673Y-29958D01*
X54673Y-30167D01*
X54697Y-30220D01*
X54721Y-30246D01*
X54769Y-30272D01*
X54864Y-30272D01*
X54911Y-30246D01*
X54935Y-30220D01*
X54959Y-30167D01*
X54959Y-30036D01*
X54935Y-29984D01*
X54911Y-29958D01*
X54864Y-29932D01*
X54769Y-29932D01*
X54721Y-29958D01*
X54697Y-29984D01*
X54673Y-30036D01*
X55388Y-29722D02*
X55292Y-29722D01*
X55245Y-29748D01*
X55221Y-29775D01*
X55173Y-29853D01*
X55150Y-29958D01*
X55150Y-30167D01*
X55173Y-30220D01*
X55197Y-30246D01*
X55245Y-30272D01*
X55340Y-30272D01*
X55388Y-30246D01*
X55411Y-30220D01*
X55435Y-30167D01*
X55435Y-30036D01*
X55411Y-29984D01*
X55388Y-29958D01*
X55340Y-29932D01*
X55245Y-29932D01*
X55197Y-29958D01*
X55173Y-29984D01*
X55150Y-30036D01*
X55602Y-29722D02*
X55721Y-30272D01*
X55816Y-29879D01*
X55911Y-30272D01*
X56030Y-29722D01*
X61972Y-29071D02*
X61710Y-29238D01*
X61972Y-29357D02*
X61422Y-29357D01*
X61422Y-29166D01*
X61448Y-29119D01*
X61475Y-29095D01*
X61527Y-29071D01*
X61605Y-29071D01*
X61658Y-29095D01*
X61684Y-29119D01*
X61710Y-29166D01*
X61710Y-29357D01*
X61972Y-28595D02*
X61972Y-28880D01*
X61972Y-28738D02*
X61422Y-28738D01*
X61501Y-28785D01*
X61553Y-28833D01*
X61579Y-28880D01*
X61422Y-28428D02*
X61422Y-28095D01*
X61972Y-28309D01*
X62672Y-29095D02*
X62672Y-29380D01*
X62672Y-29238D02*
X62122Y-29238D01*
X62201Y-29285D01*
X62253Y-29333D01*
X62279Y-29380D01*
X62122Y-28785D02*
X62122Y-28738D01*
X62148Y-28690D01*
X62175Y-28666D01*
X62227Y-28642D01*
X62332Y-28619D01*
X62463Y-28619D01*
X62567Y-28642D01*
X62620Y-28666D01*
X62646Y-28690D01*
X62672Y-28738D01*
X62672Y-28785D01*
X62646Y-28833D01*
X62620Y-28857D01*
X62567Y-28880D01*
X62463Y-28904D01*
X62332Y-28904D01*
X62227Y-28880D01*
X62175Y-28857D01*
X62148Y-28833D01*
X62122Y-28785D01*
X62672Y-28404D02*
X62122Y-28404D01*
X62672Y-28119D02*
X62358Y-28333D01*
X62122Y-28119D02*
X62436Y-28404D01*
X58972Y-29071D02*
X58710Y-29238D01*
X58972Y-29357D02*
X58422Y-29357D01*
X58422Y-29166D01*
X58448Y-29119D01*
X58475Y-29095D01*
X58527Y-29071D01*
X58605Y-29071D01*
X58658Y-29095D01*
X58684Y-29119D01*
X58710Y-29166D01*
X58710Y-29357D01*
X58972Y-28595D02*
X58972Y-28880D01*
X58972Y-28738D02*
X58422Y-28738D01*
X58501Y-28785D01*
X58553Y-28833D01*
X58579Y-28880D01*
X58422Y-28166D02*
X58422Y-28261D01*
X58448Y-28309D01*
X58475Y-28333D01*
X58553Y-28380D01*
X58658Y-28404D01*
X58867Y-28404D01*
X58920Y-28380D01*
X58946Y-28357D01*
X58972Y-28309D01*
X58972Y-28214D01*
X58946Y-28166D01*
X58920Y-28142D01*
X58867Y-28119D01*
X58736Y-28119D01*
X58684Y-28142D01*
X58658Y-28166D01*
X58632Y-28214D01*
X58632Y-28309D01*
X58658Y-28357D01*
X58684Y-28380D01*
X58736Y-28404D01*
X59672Y-29095D02*
X59672Y-29380D01*
X59672Y-29238D02*
X59122Y-29238D01*
X59201Y-29285D01*
X59253Y-29333D01*
X59279Y-29380D01*
X59122Y-28785D02*
X59122Y-28738D01*
X59148Y-28690D01*
X59175Y-28666D01*
X59227Y-28642D01*
X59332Y-28619D01*
X59463Y-28619D01*
X59567Y-28642D01*
X59620Y-28666D01*
X59646Y-28690D01*
X59672Y-28738D01*
X59672Y-28785D01*
X59646Y-28833D01*
X59620Y-28857D01*
X59567Y-28880D01*
X59463Y-28904D01*
X59332Y-28904D01*
X59227Y-28880D01*
X59175Y-28857D01*
X59148Y-28833D01*
X59122Y-28785D01*
X59672Y-28404D02*
X59122Y-28404D01*
X59672Y-28119D02*
X59358Y-28333D01*
X59122Y-28119D02*
X59436Y-28404D01*
X64972Y-29071D02*
X64710Y-29238D01*
X64972Y-29357D02*
X64422Y-29357D01*
X64422Y-29166D01*
X64448Y-29119D01*
X64475Y-29095D01*
X64527Y-29071D01*
X64605Y-29071D01*
X64658Y-29095D01*
X64684Y-29119D01*
X64710Y-29166D01*
X64710Y-29357D01*
X64972Y-28595D02*
X64972Y-28880D01*
X64972Y-28738D02*
X64422Y-28738D01*
X64501Y-28785D01*
X64553Y-28833D01*
X64579Y-28880D01*
X64658Y-28309D02*
X64632Y-28357D01*
X64605Y-28380D01*
X64553Y-28404D01*
X64527Y-28404D01*
X64475Y-28380D01*
X64448Y-28357D01*
X64422Y-28309D01*
X64422Y-28214D01*
X64448Y-28166D01*
X64475Y-28142D01*
X64527Y-28119D01*
X64553Y-28119D01*
X64605Y-28142D01*
X64632Y-28166D01*
X64658Y-28214D01*
X64658Y-28309D01*
X64684Y-28357D01*
X64710Y-28380D01*
X64763Y-28404D01*
X64867Y-28404D01*
X64920Y-28380D01*
X64946Y-28357D01*
X64972Y-28309D01*
X64972Y-28214D01*
X64946Y-28166D01*
X64920Y-28142D01*
X64867Y-28119D01*
X64763Y-28119D01*
X64710Y-28142D01*
X64684Y-28166D01*
X64658Y-28214D01*
X65672Y-29095D02*
X65672Y-29380D01*
X65672Y-29238D02*
X65122Y-29238D01*
X65201Y-29285D01*
X65253Y-29333D01*
X65279Y-29380D01*
X65122Y-28785D02*
X65122Y-28738D01*
X65148Y-28690D01*
X65175Y-28666D01*
X65227Y-28642D01*
X65332Y-28619D01*
X65463Y-28619D01*
X65567Y-28642D01*
X65620Y-28666D01*
X65646Y-28690D01*
X65672Y-28738D01*
X65672Y-28785D01*
X65646Y-28833D01*
X65620Y-28857D01*
X65567Y-28880D01*
X65463Y-28904D01*
X65332Y-28904D01*
X65227Y-28880D01*
X65175Y-28857D01*
X65148Y-28833D01*
X65122Y-28785D01*
X65672Y-28404D02*
X65122Y-28404D01*
X65672Y-28119D02*
X65358Y-28333D01*
X65122Y-28119D02*
X65436Y-28404D01*
X55972Y-29071D02*
X55710Y-29238D01*
X55972Y-29357D02*
X55422Y-29357D01*
X55422Y-29166D01*
X55448Y-29119D01*
X55475Y-29095D01*
X55527Y-29071D01*
X55605Y-29071D01*
X55658Y-29095D01*
X55684Y-29119D01*
X55710Y-29166D01*
X55710Y-29357D01*
X55972Y-28595D02*
X55972Y-28880D01*
X55972Y-28738D02*
X55422Y-28738D01*
X55501Y-28785D01*
X55553Y-28833D01*
X55579Y-28880D01*
X55422Y-28142D02*
X55422Y-28380D01*
X55684Y-28404D01*
X55658Y-28380D01*
X55632Y-28333D01*
X55632Y-28214D01*
X55658Y-28166D01*
X55684Y-28142D01*
X55736Y-28119D01*
X55867Y-28119D01*
X55920Y-28142D01*
X55946Y-28166D01*
X55972Y-28214D01*
X55972Y-28333D01*
X55946Y-28380D01*
X55920Y-28404D01*
X56672Y-29095D02*
X56672Y-29380D01*
X56672Y-29238D02*
X56122Y-29238D01*
X56201Y-29285D01*
X56253Y-29333D01*
X56279Y-29380D01*
X56122Y-28785D02*
X56122Y-28738D01*
X56148Y-28690D01*
X56175Y-28666D01*
X56227Y-28642D01*
X56332Y-28619D01*
X56463Y-28619D01*
X56567Y-28642D01*
X56620Y-28666D01*
X56646Y-28690D01*
X56672Y-28738D01*
X56672Y-28785D01*
X56646Y-28833D01*
X56620Y-28857D01*
X56567Y-28880D01*
X56463Y-28904D01*
X56332Y-28904D01*
X56227Y-28880D01*
X56175Y-28857D01*
X56148Y-28833D01*
X56122Y-28785D01*
X56672Y-28404D02*
X56122Y-28404D01*
X56672Y-28119D02*
X56358Y-28333D01*
X56122Y-28119D02*
X56436Y-28404D01*
X34222Y-31571D02*
X33960Y-31738D01*
X34222Y-31857D02*
X33672Y-31857D01*
X33672Y-31666D01*
X33698Y-31619D01*
X33725Y-31595D01*
X33777Y-31571D01*
X33855Y-31571D01*
X33908Y-31595D01*
X33934Y-31619D01*
X33960Y-31666D01*
X33960Y-31857D01*
X34222Y-31095D02*
X34222Y-31380D01*
X34222Y-31238D02*
X33672Y-31238D01*
X33751Y-31285D01*
X33803Y-31333D01*
X33829Y-31380D01*
X33672Y-30785D02*
X33672Y-30738D01*
X33698Y-30690D01*
X33725Y-30666D01*
X33777Y-30642D01*
X33882Y-30619D01*
X34013Y-30619D01*
X34117Y-30642D01*
X34170Y-30666D01*
X34196Y-30690D01*
X34222Y-30738D01*
X34222Y-30785D01*
X34196Y-30833D01*
X34170Y-30857D01*
X34117Y-30880D01*
X34013Y-30904D01*
X33882Y-30904D01*
X33777Y-30880D01*
X33725Y-30857D01*
X33698Y-30833D01*
X33672Y-30785D01*
X35022Y-31595D02*
X35022Y-31880D01*
X35022Y-31738D02*
X34472Y-31738D01*
X34551Y-31785D01*
X34603Y-31833D01*
X34629Y-31880D01*
X34472Y-31285D02*
X34472Y-31238D01*
X34498Y-31190D01*
X34525Y-31166D01*
X34577Y-31142D01*
X34682Y-31119D01*
X34813Y-31119D01*
X34917Y-31142D01*
X34970Y-31166D01*
X34996Y-31190D01*
X35022Y-31238D01*
X35022Y-31285D01*
X34996Y-31333D01*
X34970Y-31357D01*
X34917Y-31380D01*
X34813Y-31404D01*
X34682Y-31404D01*
X34577Y-31380D01*
X34525Y-31357D01*
X34498Y-31333D01*
X34472Y-31285D01*
X35022Y-30904D02*
X34472Y-30904D01*
X35022Y-30619D02*
X34708Y-30833D01*
X34472Y-30619D02*
X34786Y-30904D01*
X38428Y-53222D02*
X38261Y-52960D01*
X38142Y-53222D02*
X38142Y-52672D01*
X38333Y-52672D01*
X38380Y-52698D01*
X38404Y-52725D01*
X38428Y-52777D01*
X38428Y-52855D01*
X38404Y-52908D01*
X38380Y-52934D01*
X38333Y-52960D01*
X38142Y-52960D01*
X38904Y-53222D02*
X38619Y-53222D01*
X38761Y-53222D02*
X38761Y-52672D01*
X38714Y-52751D01*
X38666Y-52803D01*
X38619Y-52829D01*
X39333Y-52855D02*
X39333Y-53222D01*
X39214Y-52646D02*
X39095Y-53039D01*
X39404Y-53039D01*
X40916Y-53022D02*
X40630Y-53022D01*
X40773Y-53022D02*
X40773Y-52472D01*
X40726Y-52551D01*
X40678Y-52603D01*
X40630Y-52629D01*
X41226Y-52472D02*
X41273Y-52472D01*
X41321Y-52498D01*
X41345Y-52525D01*
X41369Y-52577D01*
X41392Y-52682D01*
X41392Y-52813D01*
X41369Y-52917D01*
X41345Y-52970D01*
X41321Y-52996D01*
X41273Y-53022D01*
X41226Y-53022D01*
X41178Y-52996D01*
X41154Y-52970D01*
X41130Y-52917D01*
X41107Y-52813D01*
X41107Y-52682D01*
X41130Y-52577D01*
X41154Y-52525D01*
X41178Y-52498D01*
X41226Y-52472D01*
X41702Y-52472D02*
X41750Y-52472D01*
X41797Y-52498D01*
X41821Y-52525D01*
X41845Y-52577D01*
X41869Y-52682D01*
X41869Y-52813D01*
X41845Y-52917D01*
X41821Y-52970D01*
X41797Y-52996D01*
X41750Y-53022D01*
X41702Y-53022D01*
X41654Y-52996D01*
X41630Y-52970D01*
X41607Y-52917D01*
X41583Y-52813D01*
X41583Y-52682D01*
X41607Y-52577D01*
X41630Y-52525D01*
X41654Y-52498D01*
X41702Y-52472D01*
X42083Y-53022D02*
X42083Y-52472D01*
X42369Y-53022D02*
X42154Y-52708D01*
X42369Y-52472D02*
X42083Y-52786D01*
X36678Y-48222D02*
X36511Y-47960D01*
X36392Y-48222D02*
X36392Y-47672D01*
X36583Y-47672D01*
X36630Y-47698D01*
X36654Y-47725D01*
X36678Y-47777D01*
X36678Y-47855D01*
X36654Y-47908D01*
X36630Y-47934D01*
X36583Y-47960D01*
X36392Y-47960D01*
X37154Y-48222D02*
X36869Y-48222D01*
X37011Y-48222D02*
X37011Y-47672D01*
X36964Y-47751D01*
X36916Y-47803D01*
X36869Y-47829D01*
X37630Y-48222D02*
X37345Y-48222D01*
X37488Y-48222D02*
X37488Y-47672D01*
X37440Y-47751D01*
X37392Y-47803D01*
X37345Y-47829D01*
X39392Y-48272D02*
X39107Y-48272D01*
X39250Y-48272D02*
X39250Y-47722D01*
X39202Y-47801D01*
X39154Y-47853D01*
X39107Y-47879D01*
X39607Y-48272D02*
X39607Y-47722D01*
X39892Y-48272D02*
X39678Y-47958D01*
X39892Y-47722D02*
X39607Y-48036D01*
X36678Y-48972D02*
X36511Y-48710D01*
X36392Y-48972D02*
X36392Y-48422D01*
X36583Y-48422D01*
X36630Y-48448D01*
X36654Y-48475D01*
X36678Y-48527D01*
X36678Y-48605D01*
X36654Y-48658D01*
X36630Y-48684D01*
X36583Y-48710D01*
X36392Y-48710D01*
X37154Y-48972D02*
X36869Y-48972D01*
X37011Y-48972D02*
X37011Y-48422D01*
X36964Y-48501D01*
X36916Y-48553D01*
X36869Y-48579D01*
X37345Y-48475D02*
X37369Y-48448D01*
X37416Y-48422D01*
X37535Y-48422D01*
X37583Y-48448D01*
X37607Y-48475D01*
X37630Y-48527D01*
X37630Y-48579D01*
X37607Y-48658D01*
X37321Y-48972D01*
X37630Y-48972D01*
X39392Y-49022D02*
X39107Y-49022D01*
X39250Y-49022D02*
X39250Y-48472D01*
X39202Y-48551D01*
X39154Y-48603D01*
X39107Y-48629D01*
X39607Y-49022D02*
X39607Y-48472D01*
X39892Y-49022D02*
X39678Y-48708D01*
X39892Y-48472D02*
X39607Y-48786D01*
X36472Y-31333D02*
X36210Y-31500D01*
X36472Y-31619D02*
X35922Y-31619D01*
X35922Y-31428D01*
X35948Y-31380D01*
X35975Y-31357D01*
X36027Y-31333D01*
X36105Y-31333D01*
X36158Y-31357D01*
X36184Y-31380D01*
X36210Y-31428D01*
X36210Y-31619D01*
X36472Y-31095D02*
X36472Y-31000D01*
X36446Y-30952D01*
X36420Y-30928D01*
X36341Y-30880D01*
X36236Y-30857D01*
X36027Y-30857D01*
X35975Y-30880D01*
X35948Y-30904D01*
X35922Y-30952D01*
X35922Y-31047D01*
X35948Y-31095D01*
X35975Y-31119D01*
X36027Y-31142D01*
X36158Y-31142D01*
X36210Y-31119D01*
X36236Y-31095D01*
X36263Y-31047D01*
X36263Y-30952D01*
X36236Y-30904D01*
X36210Y-30880D01*
X36158Y-30857D01*
X37172Y-31595D02*
X37172Y-31880D01*
X37172Y-31738D02*
X36622Y-31738D01*
X36701Y-31785D01*
X36753Y-31833D01*
X36779Y-31880D01*
X36622Y-31285D02*
X36622Y-31238D01*
X36648Y-31190D01*
X36675Y-31166D01*
X36727Y-31142D01*
X36832Y-31119D01*
X36963Y-31119D01*
X37067Y-31142D01*
X37120Y-31166D01*
X37146Y-31190D01*
X37172Y-31238D01*
X37172Y-31285D01*
X37146Y-31333D01*
X37120Y-31357D01*
X37067Y-31380D01*
X36963Y-31404D01*
X36832Y-31404D01*
X36727Y-31380D01*
X36675Y-31357D01*
X36648Y-31333D01*
X36622Y-31285D01*
X37172Y-30904D02*
X36622Y-30904D01*
X37172Y-30619D02*
X36858Y-30833D01*
X36622Y-30619D02*
X36936Y-30904D01*
X65416Y-34222D02*
X65250Y-33960D01*
X65130Y-34222D02*
X65130Y-33672D01*
X65321Y-33672D01*
X65369Y-33698D01*
X65392Y-33725D01*
X65416Y-33777D01*
X65416Y-33855D01*
X65392Y-33908D01*
X65369Y-33934D01*
X65321Y-33960D01*
X65130Y-33960D01*
X65892Y-34222D02*
X65607Y-34222D01*
X65750Y-34222D02*
X65750Y-33672D01*
X65702Y-33751D01*
X65654Y-33803D01*
X65607Y-33829D01*
X63666Y-33422D02*
X63380Y-33422D01*
X63523Y-33422D02*
X63523Y-32872D01*
X63476Y-32951D01*
X63428Y-33003D01*
X63380Y-33029D01*
X63833Y-32872D02*
X64166Y-32872D01*
X63952Y-33422D01*
X64452Y-32872D02*
X64500Y-32872D01*
X64547Y-32898D01*
X64571Y-32925D01*
X64595Y-32977D01*
X64619Y-33082D01*
X64619Y-33213D01*
X64595Y-33317D01*
X64571Y-33370D01*
X64547Y-33396D01*
X64500Y-33422D01*
X64452Y-33422D01*
X64404Y-33396D01*
X64380Y-33370D01*
X64357Y-33317D01*
X64333Y-33213D01*
X64333Y-33082D01*
X64357Y-32977D01*
X64380Y-32925D01*
X64404Y-32898D01*
X64452Y-32872D01*
X38428Y-53972D02*
X38261Y-53710D01*
X38142Y-53972D02*
X38142Y-53422D01*
X38333Y-53422D01*
X38380Y-53448D01*
X38404Y-53475D01*
X38428Y-53527D01*
X38428Y-53605D01*
X38404Y-53658D01*
X38380Y-53684D01*
X38333Y-53710D01*
X38142Y-53710D01*
X38904Y-53972D02*
X38619Y-53972D01*
X38761Y-53972D02*
X38761Y-53422D01*
X38714Y-53501D01*
X38666Y-53553D01*
X38619Y-53579D01*
X39071Y-53422D02*
X39380Y-53422D01*
X39214Y-53632D01*
X39285Y-53632D01*
X39333Y-53658D01*
X39357Y-53684D01*
X39380Y-53736D01*
X39380Y-53867D01*
X39357Y-53920D01*
X39333Y-53946D01*
X39285Y-53972D01*
X39142Y-53972D01*
X39095Y-53946D01*
X39071Y-53920D01*
X40916Y-54022D02*
X40630Y-54022D01*
X40773Y-54022D02*
X40773Y-53472D01*
X40726Y-53551D01*
X40678Y-53603D01*
X40630Y-53629D01*
X41226Y-53472D02*
X41273Y-53472D01*
X41321Y-53498D01*
X41345Y-53525D01*
X41369Y-53577D01*
X41392Y-53682D01*
X41392Y-53813D01*
X41369Y-53917D01*
X41345Y-53970D01*
X41321Y-53996D01*
X41273Y-54022D01*
X41226Y-54022D01*
X41178Y-53996D01*
X41154Y-53970D01*
X41130Y-53917D01*
X41107Y-53813D01*
X41107Y-53682D01*
X41130Y-53577D01*
X41154Y-53525D01*
X41178Y-53498D01*
X41226Y-53472D01*
X41702Y-53472D02*
X41750Y-53472D01*
X41797Y-53498D01*
X41821Y-53525D01*
X41845Y-53577D01*
X41869Y-53682D01*
X41869Y-53813D01*
X41845Y-53917D01*
X41821Y-53970D01*
X41797Y-53996D01*
X41750Y-54022D01*
X41702Y-54022D01*
X41654Y-53996D01*
X41630Y-53970D01*
X41607Y-53917D01*
X41583Y-53813D01*
X41583Y-53682D01*
X41607Y-53577D01*
X41630Y-53525D01*
X41654Y-53498D01*
X41702Y-53472D01*
X42083Y-54022D02*
X42083Y-53472D01*
X42369Y-54022D02*
X42154Y-53708D01*
X42369Y-53472D02*
X42083Y-53786D01*
X45416Y-36722D02*
X45250Y-36460D01*
X45130Y-36722D02*
X45130Y-36172D01*
X45321Y-36172D01*
X45369Y-36198D01*
X45392Y-36225D01*
X45416Y-36277D01*
X45416Y-36355D01*
X45392Y-36408D01*
X45369Y-36434D01*
X45321Y-36460D01*
X45130Y-36460D01*
X45845Y-36172D02*
X45750Y-36172D01*
X45702Y-36198D01*
X45678Y-36225D01*
X45630Y-36303D01*
X45607Y-36408D01*
X45607Y-36617D01*
X45630Y-36670D01*
X45654Y-36696D01*
X45702Y-36722D01*
X45797Y-36722D01*
X45845Y-36696D01*
X45869Y-36670D01*
X45892Y-36617D01*
X45892Y-36486D01*
X45869Y-36434D01*
X45845Y-36408D01*
X45797Y-36382D01*
X45702Y-36382D01*
X45654Y-36408D01*
X45630Y-36434D01*
X45607Y-36486D01*
X45154Y-37422D02*
X44869Y-37422D01*
X45011Y-37422D02*
X45011Y-36872D01*
X44964Y-36951D01*
X44916Y-37003D01*
X44869Y-37029D01*
X45464Y-36872D02*
X45511Y-36872D01*
X45559Y-36898D01*
X45583Y-36925D01*
X45607Y-36977D01*
X45630Y-37082D01*
X45630Y-37213D01*
X45607Y-37317D01*
X45583Y-37370D01*
X45559Y-37396D01*
X45511Y-37422D01*
X45464Y-37422D01*
X45416Y-37396D01*
X45392Y-37370D01*
X45369Y-37317D01*
X45345Y-37213D01*
X45345Y-37082D01*
X45369Y-36977D01*
X45392Y-36925D01*
X45416Y-36898D01*
X45464Y-36872D01*
X45845Y-37422D02*
X45845Y-36872D01*
X46130Y-37422D02*
X45916Y-37108D01*
X46130Y-36872D02*
X45845Y-37186D01*
X50472Y-24583D02*
X50210Y-24750D01*
X50472Y-24869D02*
X49922Y-24869D01*
X49922Y-24678D01*
X49948Y-24630D01*
X49975Y-24607D01*
X50027Y-24583D01*
X50105Y-24583D01*
X50158Y-24607D01*
X50184Y-24630D01*
X50210Y-24678D01*
X50210Y-24869D01*
X50105Y-24154D02*
X50472Y-24154D01*
X49896Y-24273D02*
X50289Y-24392D01*
X50289Y-24083D01*
X50025Y-27619D02*
X49998Y-27595D01*
X49972Y-27547D01*
X49972Y-27428D01*
X49998Y-27380D01*
X50025Y-27357D01*
X50077Y-27333D01*
X50129Y-27333D01*
X50208Y-27357D01*
X50522Y-27642D01*
X50522Y-27333D01*
X50025Y-27142D02*
X49998Y-27119D01*
X49972Y-27071D01*
X49972Y-26952D01*
X49998Y-26904D01*
X50025Y-26880D01*
X50077Y-26857D01*
X50129Y-26857D01*
X50208Y-26880D01*
X50522Y-27166D01*
X50522Y-26857D01*
X49972Y-26547D02*
X49972Y-26500D01*
X49998Y-26452D01*
X50025Y-26428D01*
X50077Y-26404D01*
X50182Y-26380D01*
X50313Y-26380D01*
X50417Y-26404D01*
X50470Y-26428D01*
X50496Y-26452D01*
X50522Y-26500D01*
X50522Y-26547D01*
X50496Y-26595D01*
X50470Y-26619D01*
X50417Y-26642D01*
X50313Y-26666D01*
X50182Y-26666D01*
X50077Y-26642D01*
X50025Y-26619D01*
X49998Y-26595D01*
X49972Y-26547D01*
X31916Y-29722D02*
X31750Y-29460D01*
X31630Y-29722D02*
X31630Y-29172D01*
X31821Y-29172D01*
X31869Y-29198D01*
X31892Y-29225D01*
X31916Y-29277D01*
X31916Y-29355D01*
X31892Y-29408D01*
X31869Y-29434D01*
X31821Y-29460D01*
X31630Y-29460D01*
X32202Y-29408D02*
X32154Y-29382D01*
X32130Y-29355D01*
X32107Y-29303D01*
X32107Y-29277D01*
X32130Y-29225D01*
X32154Y-29198D01*
X32202Y-29172D01*
X32297Y-29172D01*
X32345Y-29198D01*
X32369Y-29225D01*
X32392Y-29277D01*
X32392Y-29303D01*
X32369Y-29355D01*
X32345Y-29382D01*
X32297Y-29408D01*
X32202Y-29408D01*
X32154Y-29434D01*
X32130Y-29460D01*
X32107Y-29513D01*
X32107Y-29617D01*
X32130Y-29670D01*
X32154Y-29696D01*
X32202Y-29722D01*
X32297Y-29722D01*
X32345Y-29696D01*
X32369Y-29670D01*
X32392Y-29617D01*
X32392Y-29513D01*
X32369Y-29460D01*
X32345Y-29434D01*
X32297Y-29408D01*
X31892Y-30422D02*
X31607Y-30422D01*
X31750Y-30422D02*
X31750Y-29872D01*
X31702Y-29951D01*
X31654Y-30003D01*
X31607Y-30029D01*
X32107Y-30422D02*
X32107Y-29872D01*
X32392Y-30422D02*
X32178Y-30108D01*
X32392Y-29872D02*
X32107Y-30186D01*
X27166Y-39472D02*
X27000Y-39210D01*
X26880Y-39472D02*
X26880Y-38922D01*
X27071Y-38922D01*
X27119Y-38948D01*
X27142Y-38975D01*
X27166Y-39027D01*
X27166Y-39105D01*
X27142Y-39158D01*
X27119Y-39184D01*
X27071Y-39210D01*
X26880Y-39210D01*
X27357Y-38975D02*
X27380Y-38948D01*
X27428Y-38922D01*
X27547Y-38922D01*
X27595Y-38948D01*
X27619Y-38975D01*
X27642Y-39027D01*
X27642Y-39079D01*
X27619Y-39158D01*
X27333Y-39472D01*
X27642Y-39472D01*
X26380Y-39775D02*
X26404Y-39748D01*
X26452Y-39722D01*
X26571Y-39722D01*
X26619Y-39748D01*
X26642Y-39775D01*
X26666Y-39827D01*
X26666Y-39879D01*
X26642Y-39958D01*
X26357Y-40272D01*
X26666Y-40272D01*
X26857Y-39775D02*
X26880Y-39748D01*
X26928Y-39722D01*
X27047Y-39722D01*
X27095Y-39748D01*
X27119Y-39775D01*
X27142Y-39827D01*
X27142Y-39879D01*
X27119Y-39958D01*
X26833Y-40272D01*
X27142Y-40272D01*
X27452Y-39722D02*
X27500Y-39722D01*
X27547Y-39748D01*
X27571Y-39775D01*
X27595Y-39827D01*
X27619Y-39932D01*
X27619Y-40063D01*
X27595Y-40167D01*
X27571Y-40220D01*
X27547Y-40246D01*
X27500Y-40272D01*
X27452Y-40272D01*
X27404Y-40246D01*
X27380Y-40220D01*
X27357Y-40167D01*
X27333Y-40063D01*
X27333Y-39932D01*
X27357Y-39827D01*
X27380Y-39775D01*
X27404Y-39748D01*
X27452Y-39722D01*
X40416Y-30722D02*
X40250Y-30460D01*
X40130Y-30722D02*
X40130Y-30172D01*
X40321Y-30172D01*
X40369Y-30198D01*
X40392Y-30225D01*
X40416Y-30277D01*
X40416Y-30355D01*
X40392Y-30408D01*
X40369Y-30434D01*
X40321Y-30460D01*
X40130Y-30460D01*
X40583Y-30172D02*
X40916Y-30172D01*
X40702Y-30722D01*
X40392Y-31422D02*
X40107Y-31422D01*
X40250Y-31422D02*
X40250Y-30872D01*
X40202Y-30951D01*
X40154Y-31003D01*
X40107Y-31029D01*
X40607Y-31422D02*
X40607Y-30872D01*
X40892Y-31422D02*
X40678Y-31108D01*
X40892Y-30872D02*
X40607Y-31186D01*
G54D21*
X34778Y-49871D02*
X34778Y-49571D01*
X34850Y-49571D01*
X34892Y-49585D01*
X34921Y-49614D01*
X34935Y-49642D01*
X34950Y-49700D01*
X34950Y-49742D01*
X34935Y-49800D01*
X34921Y-49828D01*
X34892Y-49857D01*
X34850Y-49871D01*
X34778Y-49871D01*
X35050Y-49571D02*
X35235Y-49571D01*
X35135Y-49685D01*
X35178Y-49685D01*
X35207Y-49700D01*
X35221Y-49714D01*
X35235Y-49742D01*
X35235Y-49814D01*
X35221Y-49842D01*
X35207Y-49857D01*
X35178Y-49871D01*
X35092Y-49871D01*
X35064Y-49857D01*
X35050Y-49842D01*
X34828Y-52871D02*
X34728Y-52728D01*
X34657Y-52871D02*
X34657Y-52571D01*
X34771Y-52571D01*
X34800Y-52585D01*
X34814Y-52600D01*
X34828Y-52628D01*
X34828Y-52671D01*
X34814Y-52700D01*
X34800Y-52714D01*
X34771Y-52728D01*
X34657Y-52728D01*
X35071Y-52857D02*
X35042Y-52871D01*
X34985Y-52871D01*
X34957Y-52857D01*
X34942Y-52828D01*
X34942Y-52714D01*
X34957Y-52685D01*
X34985Y-52671D01*
X35042Y-52671D01*
X35071Y-52685D01*
X35085Y-52714D01*
X35085Y-52742D01*
X34942Y-52771D01*
X35342Y-52871D02*
X35342Y-52571D01*
X35342Y-52857D02*
X35314Y-52871D01*
X35257Y-52871D01*
X35228Y-52857D01*
X35214Y-52842D01*
X35200Y-52814D01*
X35200Y-52728D01*
X35214Y-52700D01*
X35228Y-52685D01*
X35257Y-52671D01*
X35314Y-52671D01*
X35342Y-52685D01*
X62778Y-36371D02*
X62778Y-36071D01*
X62850Y-36071D01*
X62892Y-36085D01*
X62921Y-36114D01*
X62935Y-36142D01*
X62950Y-36200D01*
X62950Y-36242D01*
X62935Y-36300D01*
X62921Y-36328D01*
X62892Y-36357D01*
X62850Y-36371D01*
X62778Y-36371D01*
X63235Y-36371D02*
X63064Y-36371D01*
X63150Y-36371D02*
X63150Y-36071D01*
X63121Y-36114D01*
X63092Y-36142D01*
X63064Y-36157D01*
X63592Y-36585D02*
X63564Y-36571D01*
X63521Y-36571D01*
X63478Y-36585D01*
X63450Y-36614D01*
X63435Y-36642D01*
X63421Y-36700D01*
X63421Y-36742D01*
X63435Y-36800D01*
X63450Y-36828D01*
X63478Y-36857D01*
X63521Y-36871D01*
X63550Y-36871D01*
X63592Y-36857D01*
X63607Y-36842D01*
X63607Y-36742D01*
X63550Y-36742D01*
X63735Y-36871D02*
X63735Y-36671D01*
X63735Y-36728D02*
X63750Y-36700D01*
X63764Y-36685D01*
X63792Y-36671D01*
X63821Y-36671D01*
X64035Y-36857D02*
X64007Y-36871D01*
X63950Y-36871D01*
X63921Y-36857D01*
X63907Y-36828D01*
X63907Y-36714D01*
X63921Y-36685D01*
X63950Y-36671D01*
X64007Y-36671D01*
X64035Y-36685D01*
X64050Y-36714D01*
X64050Y-36742D01*
X63907Y-36771D01*
X64292Y-36857D02*
X64264Y-36871D01*
X64207Y-36871D01*
X64178Y-36857D01*
X64164Y-36828D01*
X64164Y-36714D01*
X64178Y-36685D01*
X64207Y-36671D01*
X64264Y-36671D01*
X64292Y-36685D01*
X64307Y-36714D01*
X64307Y-36742D01*
X64164Y-36771D01*
X64435Y-36671D02*
X64435Y-36871D01*
X64435Y-36700D02*
X64450Y-36685D01*
X64478Y-36671D01*
X64521Y-36671D01*
X64550Y-36685D01*
X64564Y-36714D01*
X64564Y-36871D01*
G54D22*
X37560Y-33783D02*
X37560Y-33083D01*
X38032Y-33716D02*
X38010Y-33750D01*
X37946Y-33783D01*
X37903Y-33783D01*
X37839Y-33750D01*
X37796Y-33683D01*
X37775Y-33616D01*
X37753Y-33483D01*
X37753Y-33383D01*
X37775Y-33250D01*
X37796Y-33183D01*
X37839Y-33116D01*
X37903Y-33083D01*
X37946Y-33083D01*
X38010Y-33116D01*
X38032Y-33150D01*
X38460Y-33783D02*
X38203Y-33783D01*
X38332Y-33783D02*
X38332Y-33083D01*
X38289Y-33183D01*
X38246Y-33250D01*
X38203Y-33283D01*
G54D13*
X39366Y-33416D02*
X39466Y-33450D01*
X39500Y-33483D01*
X39533Y-33550D01*
X39533Y-33650D01*
X39500Y-33716D01*
X39466Y-33750D01*
X39400Y-33783D01*
X39133Y-33783D01*
X39133Y-33083D01*
X39366Y-33083D01*
X39433Y-33116D01*
X39466Y-33150D01*
X39500Y-33216D01*
X39500Y-33283D01*
X39466Y-33350D01*
X39433Y-33383D01*
X39366Y-33416D01*
X39133Y-33416D01*
X39800Y-33750D02*
X39900Y-33783D01*
X40066Y-33783D01*
X40133Y-33750D01*
X40166Y-33716D01*
X40200Y-33650D01*
X40200Y-33583D01*
X40166Y-33516D01*
X40133Y-33483D01*
X40066Y-33450D01*
X39933Y-33416D01*
X39866Y-33383D01*
X39833Y-33350D01*
X39800Y-33283D01*
X39800Y-33216D01*
X39833Y-33150D01*
X39866Y-33116D01*
X39933Y-33083D01*
X40100Y-33083D01*
X40200Y-33116D01*
X40466Y-33150D02*
X40500Y-33116D01*
X40566Y-33083D01*
X40733Y-33083D01*
X40800Y-33116D01*
X40833Y-33150D01*
X40866Y-33216D01*
X40866Y-33283D01*
X40833Y-33383D01*
X40433Y-33783D01*
X40866Y-33783D01*
X41166Y-33783D02*
X41166Y-33083D01*
X41433Y-33083D01*
X41500Y-33116D01*
X41533Y-33150D01*
X41566Y-33216D01*
X41566Y-33316D01*
X41533Y-33383D01*
X41500Y-33416D01*
X41433Y-33450D01*
X41166Y-33450D01*
X42166Y-33316D02*
X42166Y-33783D01*
X42000Y-33050D02*
X41833Y-33550D01*
X42266Y-33550D01*
X42666Y-33083D02*
X42733Y-33083D01*
X42800Y-33116D01*
X42833Y-33150D01*
X42866Y-33216D01*
X42900Y-33350D01*
X42900Y-33516D01*
X42866Y-33650D01*
X42833Y-33716D01*
X42800Y-33750D01*
X42733Y-33783D01*
X42666Y-33783D01*
X42600Y-33750D01*
X42566Y-33716D01*
X42533Y-33650D01*
X42500Y-33516D01*
X42500Y-33350D01*
X42533Y-33216D01*
X42566Y-33150D01*
X42600Y-33116D01*
X42666Y-33083D01*
G54D14*
X68704Y-33161D02*
X68704Y-32761D01*
X68800Y-32761D01*
X68857Y-32780D01*
X68895Y-32819D01*
X68914Y-32857D01*
X68933Y-32933D01*
X68933Y-32990D01*
X68914Y-33066D01*
X68895Y-33104D01*
X68857Y-33142D01*
X68800Y-33161D01*
X68704Y-33161D01*
X69085Y-32800D02*
X69104Y-32780D01*
X69142Y-32761D01*
X69238Y-32761D01*
X69276Y-32780D01*
X69295Y-32800D01*
X69314Y-32838D01*
X69314Y-32876D01*
X69295Y-32933D01*
X69066Y-33161D01*
X69314Y-33161D01*
X68209Y-33911D02*
X68209Y-33511D01*
X68304Y-33511D01*
X68361Y-33530D01*
X68400Y-33569D01*
X68419Y-33607D01*
X68438Y-33683D01*
X68438Y-33740D01*
X68419Y-33816D01*
X68400Y-33854D01*
X68361Y-33892D01*
X68304Y-33911D01*
X68209Y-33911D01*
X68609Y-33911D02*
X68609Y-33511D01*
X68876Y-33511D02*
X68952Y-33511D01*
X68990Y-33530D01*
X69028Y-33569D01*
X69047Y-33645D01*
X69047Y-33778D01*
X69028Y-33854D01*
X68990Y-33892D01*
X68952Y-33911D01*
X68876Y-33911D01*
X68838Y-33892D01*
X68800Y-33854D01*
X68780Y-33778D01*
X68780Y-33645D01*
X68800Y-33569D01*
X68838Y-33530D01*
X68876Y-33511D01*
X69219Y-33911D02*
X69219Y-33511D01*
X69314Y-33511D01*
X69371Y-33530D01*
X69409Y-33569D01*
X69428Y-33607D01*
X69447Y-33683D01*
X69447Y-33740D01*
X69428Y-33816D01*
X69409Y-33854D01*
X69371Y-33892D01*
X69314Y-33911D01*
X69219Y-33911D01*
X69619Y-33702D02*
X69752Y-33702D01*
X69809Y-33911D02*
X69619Y-33911D01*
X69619Y-33511D01*
X69809Y-33511D01*
X35865Y-27290D02*
X35838Y-27290D01*
X35784Y-27263D01*
X35757Y-27236D01*
X35730Y-27182D01*
X35730Y-27128D01*
X35744Y-27088D01*
X35784Y-27021D01*
X35824Y-26980D01*
X35892Y-26940D01*
X35932Y-26926D01*
X35986Y-26926D01*
X36040Y-26953D01*
X36067Y-26980D01*
X36094Y-27034D01*
X36094Y-27061D01*
X36107Y-27586D02*
X35946Y-27425D01*
X36026Y-27505D02*
X36309Y-27223D01*
X36242Y-27236D01*
X36188Y-27236D01*
X36148Y-27223D01*
X37386Y-26288D02*
X37359Y-26288D01*
X37305Y-26261D01*
X37278Y-26234D01*
X37251Y-26180D01*
X37251Y-26127D01*
X37265Y-26086D01*
X37305Y-26019D01*
X37345Y-25978D01*
X37413Y-25938D01*
X37453Y-25925D01*
X37507Y-25925D01*
X37561Y-25951D01*
X37588Y-25978D01*
X37615Y-26032D01*
X37615Y-26059D01*
X31023Y-32166D02*
X31042Y-32185D01*
X31061Y-32242D01*
X31061Y-32280D01*
X31042Y-32338D01*
X31004Y-32376D01*
X30966Y-32395D01*
X30890Y-32414D01*
X30833Y-32414D01*
X30757Y-32395D01*
X30719Y-32376D01*
X30680Y-32338D01*
X30661Y-32280D01*
X30661Y-32242D01*
X30680Y-32185D01*
X30700Y-32166D01*
X30795Y-31823D02*
X31061Y-31823D01*
X30642Y-31919D02*
X30928Y-32014D01*
X30928Y-31766D01*
X29623Y-30626D02*
X29642Y-30645D01*
X29661Y-30702D01*
X29661Y-30740D01*
X29642Y-30797D01*
X29604Y-30835D01*
X29566Y-30854D01*
X29490Y-30873D01*
X29433Y-30873D01*
X29357Y-30854D01*
X29319Y-30835D01*
X29280Y-30797D01*
X29261Y-30740D01*
X29261Y-30702D01*
X29280Y-30645D01*
X29300Y-30626D01*
X44583Y-32273D02*
X44564Y-32292D01*
X44507Y-32311D01*
X44469Y-32311D01*
X44411Y-32292D01*
X44373Y-32254D01*
X44354Y-32216D01*
X44335Y-32140D01*
X44335Y-32083D01*
X44354Y-32007D01*
X44373Y-31969D01*
X44411Y-31930D01*
X44469Y-31911D01*
X44507Y-31911D01*
X44564Y-31930D01*
X44583Y-31950D01*
X44716Y-31911D02*
X44964Y-31911D01*
X44830Y-32064D01*
X44888Y-32064D01*
X44926Y-32083D01*
X44945Y-32102D01*
X44964Y-32140D01*
X44964Y-32235D01*
X44945Y-32273D01*
X44926Y-32292D01*
X44888Y-32311D01*
X44773Y-32311D01*
X44735Y-32292D01*
X44716Y-32273D01*
X44873Y-30623D02*
X44854Y-30642D01*
X44797Y-30661D01*
X44759Y-30661D01*
X44702Y-30642D01*
X44664Y-30604D01*
X44645Y-30566D01*
X44626Y-30490D01*
X44626Y-30433D01*
X44645Y-30357D01*
X44664Y-30319D01*
X44702Y-30280D01*
X44759Y-30261D01*
X44797Y-30261D01*
X44854Y-30280D01*
X44873Y-30300D01*
X47183Y-24373D02*
X47164Y-24392D01*
X47107Y-24411D01*
X47069Y-24411D01*
X47011Y-24392D01*
X46973Y-24354D01*
X46954Y-24316D01*
X46935Y-24240D01*
X46935Y-24183D01*
X46954Y-24107D01*
X46973Y-24069D01*
X47011Y-24030D01*
X47069Y-24011D01*
X47107Y-24011D01*
X47164Y-24030D01*
X47183Y-24050D01*
X47335Y-24050D02*
X47354Y-24030D01*
X47392Y-24011D01*
X47488Y-24011D01*
X47526Y-24030D01*
X47545Y-24050D01*
X47564Y-24088D01*
X47564Y-24126D01*
X47545Y-24183D01*
X47316Y-24411D01*
X47564Y-24411D01*
X48623Y-24373D02*
X48604Y-24392D01*
X48547Y-24411D01*
X48509Y-24411D01*
X48452Y-24392D01*
X48414Y-24354D01*
X48395Y-24316D01*
X48376Y-24240D01*
X48376Y-24183D01*
X48395Y-24107D01*
X48414Y-24069D01*
X48452Y-24030D01*
X48509Y-24011D01*
X48547Y-24011D01*
X48604Y-24030D01*
X48623Y-24050D01*
G54D16*
X80804Y-61961D02*
X80804Y-61561D01*
X80957Y-61561D01*
X80995Y-61580D01*
X81014Y-61600D01*
X81033Y-61638D01*
X81033Y-61695D01*
X81014Y-61733D01*
X80995Y-61752D01*
X80957Y-61771D01*
X80804Y-61771D01*
X81414Y-61961D02*
X81185Y-61961D01*
X81300Y-61961D02*
X81300Y-61561D01*
X81261Y-61619D01*
X81223Y-61657D01*
X81185Y-61676D01*
X79502Y-62673D02*
X79483Y-62692D01*
X79426Y-62711D01*
X79388Y-62711D01*
X79330Y-62692D01*
X79292Y-62654D01*
X79273Y-62616D01*
X79254Y-62540D01*
X79254Y-62483D01*
X79273Y-62407D01*
X79292Y-62369D01*
X79330Y-62330D01*
X79388Y-62311D01*
X79426Y-62311D01*
X79483Y-62330D01*
X79502Y-62350D01*
X79750Y-62311D02*
X79826Y-62311D01*
X79864Y-62330D01*
X79902Y-62369D01*
X79921Y-62445D01*
X79921Y-62578D01*
X79902Y-62654D01*
X79864Y-62692D01*
X79826Y-62711D01*
X79750Y-62711D01*
X79711Y-62692D01*
X79673Y-62654D01*
X79654Y-62578D01*
X79654Y-62445D01*
X79673Y-62369D01*
X79711Y-62330D01*
X79750Y-62311D01*
X80092Y-62711D02*
X80092Y-62311D01*
X80321Y-62711D01*
X80321Y-62311D01*
X80511Y-62711D02*
X80511Y-62311D01*
X80740Y-62711D01*
X80740Y-62311D01*
X80835Y-62750D02*
X81140Y-62750D01*
X81445Y-62711D02*
X81216Y-62711D01*
X81330Y-62711D02*
X81330Y-62311D01*
X81292Y-62369D01*
X81254Y-62407D01*
X81216Y-62426D01*
X47204Y-61961D02*
X47204Y-61561D01*
X47357Y-61561D01*
X47395Y-61580D01*
X47414Y-61600D01*
X47433Y-61638D01*
X47433Y-61695D01*
X47414Y-61733D01*
X47395Y-61752D01*
X47357Y-61771D01*
X47204Y-61771D01*
X47585Y-61600D02*
X47604Y-61580D01*
X47642Y-61561D01*
X47738Y-61561D01*
X47776Y-61580D01*
X47795Y-61600D01*
X47814Y-61638D01*
X47814Y-61676D01*
X47795Y-61733D01*
X47566Y-61961D01*
X47814Y-61961D01*
X47402Y-62673D02*
X47383Y-62692D01*
X47326Y-62711D01*
X47288Y-62711D01*
X47230Y-62692D01*
X47192Y-62654D01*
X47173Y-62616D01*
X47154Y-62540D01*
X47154Y-62483D01*
X47173Y-62407D01*
X47192Y-62369D01*
X47230Y-62330D01*
X47288Y-62311D01*
X47326Y-62311D01*
X47383Y-62330D01*
X47402Y-62350D01*
X47650Y-62311D02*
X47726Y-62311D01*
X47764Y-62330D01*
X47802Y-62369D01*
X47821Y-62445D01*
X47821Y-62578D01*
X47802Y-62654D01*
X47764Y-62692D01*
X47726Y-62711D01*
X47650Y-62711D01*
X47611Y-62692D01*
X47573Y-62654D01*
X47554Y-62578D01*
X47554Y-62445D01*
X47573Y-62369D01*
X47611Y-62330D01*
X47650Y-62311D01*
X47992Y-62711D02*
X47992Y-62311D01*
X48221Y-62711D01*
X48221Y-62311D01*
X48411Y-62711D02*
X48411Y-62311D01*
X48640Y-62711D01*
X48640Y-62311D01*
X48735Y-62750D02*
X49040Y-62750D01*
X49345Y-62711D02*
X49116Y-62711D01*
X49230Y-62711D02*
X49230Y-62311D01*
X49192Y-62369D01*
X49154Y-62407D01*
X49116Y-62426D01*
X46954Y-41111D02*
X46954Y-40711D01*
X47107Y-40711D01*
X47145Y-40730D01*
X47164Y-40750D01*
X47183Y-40788D01*
X47183Y-40845D01*
X47164Y-40883D01*
X47145Y-40902D01*
X47107Y-40921D01*
X46954Y-40921D01*
X47316Y-40711D02*
X47564Y-40711D01*
X47430Y-40864D01*
X47488Y-40864D01*
X47526Y-40883D01*
X47545Y-40902D01*
X47564Y-40940D01*
X47564Y-41035D01*
X47545Y-41073D01*
X47526Y-41092D01*
X47488Y-41111D01*
X47373Y-41111D01*
X47335Y-41092D01*
X47316Y-41073D01*
X45402Y-41823D02*
X45383Y-41842D01*
X45326Y-41861D01*
X45288Y-41861D01*
X45230Y-41842D01*
X45192Y-41804D01*
X45173Y-41766D01*
X45154Y-41690D01*
X45154Y-41633D01*
X45173Y-41557D01*
X45192Y-41519D01*
X45230Y-41480D01*
X45288Y-41461D01*
X45326Y-41461D01*
X45383Y-41480D01*
X45402Y-41500D01*
X45650Y-41461D02*
X45726Y-41461D01*
X45764Y-41480D01*
X45802Y-41519D01*
X45821Y-41595D01*
X45821Y-41728D01*
X45802Y-41804D01*
X45764Y-41842D01*
X45726Y-41861D01*
X45650Y-41861D01*
X45611Y-41842D01*
X45573Y-41804D01*
X45554Y-41728D01*
X45554Y-41595D01*
X45573Y-41519D01*
X45611Y-41480D01*
X45650Y-41461D01*
X45992Y-41861D02*
X45992Y-41461D01*
X46221Y-41861D01*
X46221Y-41461D01*
X46411Y-41861D02*
X46411Y-41461D01*
X46640Y-41861D01*
X46640Y-41461D01*
X46735Y-41900D02*
X47040Y-41900D01*
X47345Y-41861D02*
X47116Y-41861D01*
X47230Y-41861D02*
X47230Y-41461D01*
X47192Y-41519D01*
X47154Y-41557D01*
X47116Y-41576D01*
X80804Y-40361D02*
X80804Y-39961D01*
X80957Y-39961D01*
X80995Y-39980D01*
X81014Y-40000D01*
X81033Y-40038D01*
X81033Y-40095D01*
X81014Y-40133D01*
X80995Y-40152D01*
X80957Y-40171D01*
X80804Y-40171D01*
X81376Y-40095D02*
X81376Y-40361D01*
X81280Y-39942D02*
X81185Y-40228D01*
X81433Y-40228D01*
X79752Y-41073D02*
X79733Y-41092D01*
X79676Y-41111D01*
X79638Y-41111D01*
X79580Y-41092D01*
X79542Y-41054D01*
X79523Y-41016D01*
X79504Y-40940D01*
X79504Y-40883D01*
X79523Y-40807D01*
X79542Y-40769D01*
X79580Y-40730D01*
X79638Y-40711D01*
X79676Y-40711D01*
X79733Y-40730D01*
X79752Y-40750D01*
X80000Y-40711D02*
X80076Y-40711D01*
X80114Y-40730D01*
X80152Y-40769D01*
X80171Y-40845D01*
X80171Y-40978D01*
X80152Y-41054D01*
X80114Y-41092D01*
X80076Y-41111D01*
X80000Y-41111D01*
X79961Y-41092D01*
X79923Y-41054D01*
X79904Y-40978D01*
X79904Y-40845D01*
X79923Y-40769D01*
X79961Y-40730D01*
X80000Y-40711D01*
X80342Y-41111D02*
X80342Y-40711D01*
X80571Y-41111D01*
X80571Y-40711D01*
X80761Y-41111D02*
X80761Y-40711D01*
X80990Y-41111D01*
X80990Y-40711D01*
X81085Y-41150D02*
X81390Y-41150D01*
X81695Y-41111D02*
X81466Y-41111D01*
X81580Y-41111D02*
X81580Y-40711D01*
X81542Y-40769D01*
X81504Y-40807D01*
X81466Y-40826D01*
X25204Y-22411D02*
X25204Y-22011D01*
X25357Y-22011D01*
X25395Y-22030D01*
X25414Y-22050D01*
X25433Y-22088D01*
X25433Y-22145D01*
X25414Y-22183D01*
X25395Y-22202D01*
X25357Y-22221D01*
X25204Y-22221D01*
X25795Y-22011D02*
X25604Y-22011D01*
X25585Y-22202D01*
X25604Y-22183D01*
X25642Y-22164D01*
X25738Y-22164D01*
X25776Y-22183D01*
X25795Y-22202D01*
X25814Y-22240D01*
X25814Y-22335D01*
X25795Y-22373D01*
X25776Y-22392D01*
X25738Y-22411D01*
X25642Y-22411D01*
X25604Y-22392D01*
X25585Y-22373D01*
X25152Y-23123D02*
X25133Y-23142D01*
X25076Y-23161D01*
X25038Y-23161D01*
X24980Y-23142D01*
X24942Y-23104D01*
X24923Y-23066D01*
X24904Y-22990D01*
X24904Y-22933D01*
X24923Y-22857D01*
X24942Y-22819D01*
X24980Y-22780D01*
X25038Y-22761D01*
X25076Y-22761D01*
X25133Y-22780D01*
X25152Y-22800D01*
X25400Y-22761D02*
X25476Y-22761D01*
X25514Y-22780D01*
X25552Y-22819D01*
X25571Y-22895D01*
X25571Y-23028D01*
X25552Y-23104D01*
X25514Y-23142D01*
X25476Y-23161D01*
X25400Y-23161D01*
X25361Y-23142D01*
X25323Y-23104D01*
X25304Y-23028D01*
X25304Y-22895D01*
X25323Y-22819D01*
X25361Y-22780D01*
X25400Y-22761D01*
X25742Y-23161D02*
X25742Y-22761D01*
X25971Y-23161D01*
X25971Y-22761D01*
X26161Y-23161D02*
X26161Y-22761D01*
X26390Y-23161D01*
X26390Y-22761D01*
X26485Y-23200D02*
X26790Y-23200D01*
X27095Y-23161D02*
X26866Y-23161D01*
X26980Y-23161D02*
X26980Y-22761D01*
X26942Y-22819D01*
X26904Y-22857D01*
X26866Y-22876D01*
X81204Y-22411D02*
X81204Y-22011D01*
X81357Y-22011D01*
X81395Y-22030D01*
X81414Y-22050D01*
X81433Y-22088D01*
X81433Y-22145D01*
X81414Y-22183D01*
X81395Y-22202D01*
X81357Y-22221D01*
X81204Y-22221D01*
X81776Y-22011D02*
X81700Y-22011D01*
X81661Y-22030D01*
X81642Y-22050D01*
X81604Y-22107D01*
X81585Y-22183D01*
X81585Y-22335D01*
X81604Y-22373D01*
X81623Y-22392D01*
X81661Y-22411D01*
X81738Y-22411D01*
X81776Y-22392D01*
X81795Y-22373D01*
X81814Y-22335D01*
X81814Y-22240D01*
X81795Y-22202D01*
X81776Y-22183D01*
X81738Y-22164D01*
X81661Y-22164D01*
X81623Y-22183D01*
X81604Y-22202D01*
X81585Y-22240D01*
X80152Y-23123D02*
X80133Y-23142D01*
X80076Y-23161D01*
X80038Y-23161D01*
X79980Y-23142D01*
X79942Y-23104D01*
X79923Y-23066D01*
X79904Y-22990D01*
X79904Y-22933D01*
X79923Y-22857D01*
X79942Y-22819D01*
X79980Y-22780D01*
X80038Y-22761D01*
X80076Y-22761D01*
X80133Y-22780D01*
X80152Y-22800D01*
X80400Y-22761D02*
X80476Y-22761D01*
X80514Y-22780D01*
X80552Y-22819D01*
X80571Y-22895D01*
X80571Y-23028D01*
X80552Y-23104D01*
X80514Y-23142D01*
X80476Y-23161D01*
X80400Y-23161D01*
X80361Y-23142D01*
X80323Y-23104D01*
X80304Y-23028D01*
X80304Y-22895D01*
X80323Y-22819D01*
X80361Y-22780D01*
X80400Y-22761D01*
X80742Y-23161D02*
X80742Y-22761D01*
X80971Y-23161D01*
X80971Y-22761D01*
X81161Y-23161D02*
X81161Y-22761D01*
X81390Y-23161D01*
X81390Y-22761D01*
X81485Y-23200D02*
X81790Y-23200D01*
X82095Y-23161D02*
X81866Y-23161D01*
X81980Y-23161D02*
X81980Y-22761D01*
X81942Y-22819D01*
X81904Y-22857D01*
X81866Y-22876D01*
X25204Y-62411D02*
X25204Y-62011D01*
X25357Y-62011D01*
X25395Y-62030D01*
X25414Y-62050D01*
X25433Y-62088D01*
X25433Y-62145D01*
X25414Y-62183D01*
X25395Y-62202D01*
X25357Y-62221D01*
X25204Y-62221D01*
X25566Y-62011D02*
X25833Y-62011D01*
X25661Y-62411D01*
X25402Y-63123D02*
X25383Y-63142D01*
X25326Y-63161D01*
X25288Y-63161D01*
X25230Y-63142D01*
X25192Y-63104D01*
X25173Y-63066D01*
X25154Y-62990D01*
X25154Y-62933D01*
X25173Y-62857D01*
X25192Y-62819D01*
X25230Y-62780D01*
X25288Y-62761D01*
X25326Y-62761D01*
X25383Y-62780D01*
X25402Y-62800D01*
X25650Y-62761D02*
X25726Y-62761D01*
X25764Y-62780D01*
X25802Y-62819D01*
X25821Y-62895D01*
X25821Y-63028D01*
X25802Y-63104D01*
X25764Y-63142D01*
X25726Y-63161D01*
X25650Y-63161D01*
X25611Y-63142D01*
X25573Y-63104D01*
X25554Y-63028D01*
X25554Y-62895D01*
X25573Y-62819D01*
X25611Y-62780D01*
X25650Y-62761D01*
X25992Y-63161D02*
X25992Y-62761D01*
X26221Y-63161D01*
X26221Y-62761D01*
X26411Y-63161D02*
X26411Y-62761D01*
X26640Y-63161D01*
X26640Y-62761D01*
X26735Y-63200D02*
X27040Y-63200D01*
X27345Y-63161D02*
X27116Y-63161D01*
X27230Y-63161D02*
X27230Y-62761D01*
X27192Y-62819D01*
X27154Y-62857D01*
X27116Y-62876D01*
X75954Y-62411D02*
X75954Y-62011D01*
X76107Y-62011D01*
X76145Y-62030D01*
X76164Y-62050D01*
X76183Y-62088D01*
X76183Y-62145D01*
X76164Y-62183D01*
X76145Y-62202D01*
X76107Y-62221D01*
X75954Y-62221D01*
X76411Y-62183D02*
X76373Y-62164D01*
X76354Y-62145D01*
X76335Y-62107D01*
X76335Y-62088D01*
X76354Y-62050D01*
X76373Y-62030D01*
X76411Y-62011D01*
X76488Y-62011D01*
X76526Y-62030D01*
X76545Y-62050D01*
X76564Y-62088D01*
X76564Y-62107D01*
X76545Y-62145D01*
X76526Y-62164D01*
X76488Y-62183D01*
X76411Y-62183D01*
X76373Y-62202D01*
X76354Y-62221D01*
X76335Y-62259D01*
X76335Y-62335D01*
X76354Y-62373D01*
X76373Y-62392D01*
X76411Y-62411D01*
X76488Y-62411D01*
X76526Y-62392D01*
X76545Y-62373D01*
X76564Y-62335D01*
X76564Y-62259D01*
X76545Y-62221D01*
X76526Y-62202D01*
X76488Y-62183D01*
X74902Y-63123D02*
X74883Y-63142D01*
X74826Y-63161D01*
X74788Y-63161D01*
X74730Y-63142D01*
X74692Y-63104D01*
X74673Y-63066D01*
X74654Y-62990D01*
X74654Y-62933D01*
X74673Y-62857D01*
X74692Y-62819D01*
X74730Y-62780D01*
X74788Y-62761D01*
X74826Y-62761D01*
X74883Y-62780D01*
X74902Y-62800D01*
X75150Y-62761D02*
X75226Y-62761D01*
X75264Y-62780D01*
X75302Y-62819D01*
X75321Y-62895D01*
X75321Y-63028D01*
X75302Y-63104D01*
X75264Y-63142D01*
X75226Y-63161D01*
X75150Y-63161D01*
X75111Y-63142D01*
X75073Y-63104D01*
X75054Y-63028D01*
X75054Y-62895D01*
X75073Y-62819D01*
X75111Y-62780D01*
X75150Y-62761D01*
X75492Y-63161D02*
X75492Y-62761D01*
X75721Y-63161D01*
X75721Y-62761D01*
X75911Y-63161D02*
X75911Y-62761D01*
X76140Y-63161D01*
X76140Y-62761D01*
X76235Y-63200D02*
X76540Y-63200D01*
X76845Y-63161D02*
X76616Y-63161D01*
X76730Y-63161D02*
X76730Y-62761D01*
X76692Y-62819D01*
X76654Y-62857D01*
X76616Y-62876D01*
G54D20*
X60102Y-28540D02*
X60068Y-28580D01*
X60001Y-28621D01*
X59901Y-28681D01*
X59867Y-28722D01*
X59867Y-28762D01*
X60035Y-28742D02*
X60001Y-28782D01*
X59934Y-28823D01*
X59800Y-28843D01*
X59565Y-28843D01*
X59431Y-28823D01*
X59363Y-28782D01*
X59330Y-28742D01*
X59330Y-28661D01*
X59363Y-28621D01*
X59431Y-28580D01*
X59565Y-28560D01*
X59800Y-28560D01*
X59934Y-28580D01*
X60001Y-28621D01*
X60035Y-28661D01*
X60035Y-28742D01*
X59397Y-28399D02*
X59363Y-28378D01*
X59330Y-28338D01*
X59330Y-28237D01*
X59363Y-28197D01*
X59397Y-28176D01*
X59464Y-28156D01*
X59531Y-28156D01*
X59632Y-28176D01*
X60035Y-28419D01*
X60035Y-28156D01*
G54D13*
G54D16*
X59992Y-29795D02*
X59392Y-29795D01*
X59992Y-29376D02*
X59707Y-29509D01*
X59992Y-29604D02*
X59392Y-29604D01*
X59392Y-29452D01*
X59421Y-29414D01*
X59450Y-29395D01*
X59507Y-29376D01*
X59592Y-29376D01*
X59650Y-29395D01*
X59678Y-29414D01*
X59707Y-29452D01*
X59707Y-29604D01*
X59678Y-29071D02*
X59678Y-29204D01*
X59992Y-29204D02*
X59392Y-29204D01*
X59392Y-29014D01*
X59392Y-28899D02*
X59392Y-28652D01*
X59621Y-28785D01*
X59621Y-28728D01*
X59650Y-28690D01*
X59678Y-28671D01*
X59735Y-28652D01*
X59878Y-28652D01*
X59935Y-28671D01*
X59964Y-28690D01*
X59992Y-28728D01*
X59992Y-28842D01*
X59964Y-28880D01*
X59935Y-28899D01*
X59450Y-28499D02*
X59421Y-28480D01*
X59392Y-28442D01*
X59392Y-28347D01*
X59421Y-28309D01*
X59450Y-28290D01*
X59507Y-28271D01*
X59564Y-28271D01*
X59650Y-28290D01*
X59992Y-28519D01*
X59992Y-28271D01*
X59392Y-28023D02*
X59392Y-27985D01*
X59421Y-27947D01*
X59450Y-27928D01*
X59507Y-27909D01*
X59621Y-27890D01*
X59764Y-27890D01*
X59878Y-27909D01*
X59935Y-27928D01*
X59964Y-27947D01*
X59992Y-27985D01*
X59992Y-28023D01*
X59964Y-28061D01*
X59935Y-28080D01*
X59878Y-28099D01*
X59764Y-28119D01*
X59621Y-28119D01*
X59507Y-28099D01*
X59450Y-28080D01*
X59421Y-28061D01*
X59392Y-28023D01*
X59392Y-27528D02*
X59392Y-27719D01*
X59678Y-27738D01*
X59650Y-27719D01*
X59621Y-27680D01*
X59621Y-27585D01*
X59650Y-27547D01*
X59678Y-27528D01*
X59735Y-27509D01*
X59878Y-27509D01*
X59935Y-27528D01*
X59964Y-27547D01*
X59992Y-27585D01*
X59992Y-27680D01*
X59964Y-27719D01*
X59935Y-27738D01*
X59992Y-27147D02*
X59992Y-27338D01*
X59392Y-27338D01*
G54D13*
G54D20*
X63102Y-28540D02*
X63068Y-28580D01*
X63001Y-28621D01*
X62901Y-28681D01*
X62867Y-28722D01*
X62867Y-28762D01*
X63035Y-28742D02*
X63001Y-28782D01*
X62934Y-28823D01*
X62800Y-28843D01*
X62565Y-28843D01*
X62431Y-28823D01*
X62363Y-28782D01*
X62330Y-28742D01*
X62330Y-28661D01*
X62363Y-28621D01*
X62431Y-28580D01*
X62565Y-28560D01*
X62800Y-28560D01*
X62934Y-28580D01*
X63001Y-28621D01*
X63035Y-28661D01*
X63035Y-28742D01*
X62330Y-28419D02*
X62330Y-28156D01*
X62598Y-28298D01*
X62598Y-28237D01*
X62632Y-28197D01*
X62666Y-28176D01*
X62733Y-28156D01*
X62901Y-28156D01*
X62968Y-28176D01*
X63001Y-28197D01*
X63035Y-28237D01*
X63035Y-28358D01*
X63001Y-28399D01*
X62968Y-28419D01*
G54D13*
G54D16*
X62992Y-29795D02*
X62392Y-29795D01*
X62992Y-29376D02*
X62707Y-29509D01*
X62992Y-29604D02*
X62392Y-29604D01*
X62392Y-29452D01*
X62421Y-29414D01*
X62450Y-29395D01*
X62507Y-29376D01*
X62592Y-29376D01*
X62650Y-29395D01*
X62678Y-29414D01*
X62707Y-29452D01*
X62707Y-29604D01*
X62678Y-29071D02*
X62678Y-29204D01*
X62992Y-29204D02*
X62392Y-29204D01*
X62392Y-29014D01*
X62392Y-28899D02*
X62392Y-28652D01*
X62621Y-28785D01*
X62621Y-28728D01*
X62650Y-28690D01*
X62678Y-28671D01*
X62735Y-28652D01*
X62878Y-28652D01*
X62935Y-28671D01*
X62964Y-28690D01*
X62992Y-28728D01*
X62992Y-28842D01*
X62964Y-28880D01*
X62935Y-28899D01*
X62450Y-28499D02*
X62421Y-28480D01*
X62392Y-28442D01*
X62392Y-28347D01*
X62421Y-28309D01*
X62450Y-28290D01*
X62507Y-28271D01*
X62564Y-28271D01*
X62650Y-28290D01*
X62992Y-28519D01*
X62992Y-28271D01*
X62392Y-28023D02*
X62392Y-27985D01*
X62421Y-27947D01*
X62450Y-27928D01*
X62507Y-27909D01*
X62621Y-27890D01*
X62764Y-27890D01*
X62878Y-27909D01*
X62935Y-27928D01*
X62964Y-27947D01*
X62992Y-27985D01*
X62992Y-28023D01*
X62964Y-28061D01*
X62935Y-28080D01*
X62878Y-28099D01*
X62764Y-28119D01*
X62621Y-28119D01*
X62507Y-28099D01*
X62450Y-28080D01*
X62421Y-28061D01*
X62392Y-28023D01*
X62392Y-27528D02*
X62392Y-27719D01*
X62678Y-27738D01*
X62650Y-27719D01*
X62621Y-27680D01*
X62621Y-27585D01*
X62650Y-27547D01*
X62678Y-27528D01*
X62735Y-27509D01*
X62878Y-27509D01*
X62935Y-27528D01*
X62964Y-27547D01*
X62992Y-27585D01*
X62992Y-27680D01*
X62964Y-27719D01*
X62935Y-27738D01*
X62992Y-27147D02*
X62992Y-27338D01*
X62392Y-27338D01*
G54D13*
G54D20*
X66102Y-28540D02*
X66068Y-28580D01*
X66001Y-28621D01*
X65901Y-28681D01*
X65867Y-28722D01*
X65867Y-28762D01*
X66035Y-28742D02*
X66001Y-28782D01*
X65934Y-28823D01*
X65800Y-28843D01*
X65565Y-28843D01*
X65431Y-28823D01*
X65363Y-28782D01*
X65330Y-28742D01*
X65330Y-28661D01*
X65363Y-28621D01*
X65431Y-28580D01*
X65565Y-28560D01*
X65800Y-28560D01*
X65934Y-28580D01*
X66001Y-28621D01*
X66035Y-28661D01*
X66035Y-28742D01*
X65565Y-28197D02*
X66035Y-28197D01*
X65296Y-28298D02*
X65800Y-28399D01*
X65800Y-28136D01*
G54D13*
G54D16*
X65992Y-29795D02*
X65392Y-29795D01*
X65992Y-29376D02*
X65707Y-29509D01*
X65992Y-29604D02*
X65392Y-29604D01*
X65392Y-29452D01*
X65421Y-29414D01*
X65450Y-29395D01*
X65507Y-29376D01*
X65592Y-29376D01*
X65650Y-29395D01*
X65678Y-29414D01*
X65707Y-29452D01*
X65707Y-29604D01*
X65678Y-29071D02*
X65678Y-29204D01*
X65992Y-29204D02*
X65392Y-29204D01*
X65392Y-29014D01*
X65392Y-28899D02*
X65392Y-28652D01*
X65621Y-28785D01*
X65621Y-28728D01*
X65650Y-28690D01*
X65678Y-28671D01*
X65735Y-28652D01*
X65878Y-28652D01*
X65935Y-28671D01*
X65964Y-28690D01*
X65992Y-28728D01*
X65992Y-28842D01*
X65964Y-28880D01*
X65935Y-28899D01*
X65450Y-28499D02*
X65421Y-28480D01*
X65392Y-28442D01*
X65392Y-28347D01*
X65421Y-28309D01*
X65450Y-28290D01*
X65507Y-28271D01*
X65564Y-28271D01*
X65650Y-28290D01*
X65992Y-28519D01*
X65992Y-28271D01*
X65392Y-28023D02*
X65392Y-27985D01*
X65421Y-27947D01*
X65450Y-27928D01*
X65507Y-27909D01*
X65621Y-27890D01*
X65764Y-27890D01*
X65878Y-27909D01*
X65935Y-27928D01*
X65964Y-27947D01*
X65992Y-27985D01*
X65992Y-28023D01*
X65964Y-28061D01*
X65935Y-28080D01*
X65878Y-28099D01*
X65764Y-28119D01*
X65621Y-28119D01*
X65507Y-28099D01*
X65450Y-28080D01*
X65421Y-28061D01*
X65392Y-28023D01*
X65392Y-27528D02*
X65392Y-27719D01*
X65678Y-27738D01*
X65650Y-27719D01*
X65621Y-27680D01*
X65621Y-27585D01*
X65650Y-27547D01*
X65678Y-27528D01*
X65735Y-27509D01*
X65878Y-27509D01*
X65935Y-27528D01*
X65964Y-27547D01*
X65992Y-27585D01*
X65992Y-27680D01*
X65964Y-27719D01*
X65935Y-27738D01*
X65992Y-27147D02*
X65992Y-27338D01*
X65392Y-27338D01*
G54D13*
M02*
