G04 (created by PCBNEW (2013-07-07 BZR 4022)-stable) date 6/22/2016 10:38:55 PM*
%MOIN*%
G04 Gerber Fmt 3.4, Leading zero omitted, Abs format*
%FSLAX34Y34*%
G01*
G70*
G90*
G04 APERTURE LIST*
%ADD10C,0.00590551*%
%ADD11R,0.055X0.055*%
%ADD12C,0.055*%
%ADD13C,0.06*%
%ADD14C,0.066*%
%ADD15C,0.16*%
%ADD16C,0.035*%
%ADD17C,0.04*%
%ADD18C,0.02*%
%ADD19C,0.01*%
G04 APERTURE END LIST*
G54D10*
G54D11*
X66750Y-28500D03*
G54D12*
X66750Y-27496D03*
X66750Y-29503D03*
G54D11*
X46000Y-25000D03*
G54D12*
X45000Y-25000D03*
X44000Y-25000D03*
X43000Y-25000D03*
X42000Y-25000D03*
X41000Y-25000D03*
X40000Y-25000D03*
G54D11*
X27500Y-24500D03*
G54D12*
X27500Y-25500D03*
X27500Y-26500D03*
X27500Y-27500D03*
X27500Y-28500D03*
X27500Y-29500D03*
X27500Y-30500D03*
G54D11*
X37000Y-51250D03*
G54D12*
X38000Y-51250D03*
X39000Y-51250D03*
X40000Y-51250D03*
X41000Y-51250D03*
G54D11*
X37000Y-45500D03*
G54D12*
X38000Y-45500D03*
X39000Y-45500D03*
X40000Y-45500D03*
X41000Y-45500D03*
G54D11*
X37000Y-57000D03*
G54D12*
X38000Y-57000D03*
X39000Y-57000D03*
X40000Y-57000D03*
X41000Y-57000D03*
G54D11*
X70500Y-35250D03*
G54D12*
X69500Y-35250D03*
X68500Y-35250D03*
X67500Y-35250D03*
X66500Y-35250D03*
G54D11*
X46000Y-27000D03*
G54D12*
X47000Y-27000D03*
X48000Y-27000D03*
X49000Y-27000D03*
G54D11*
X51550Y-54600D03*
G54D12*
X50550Y-54600D03*
X49550Y-54600D03*
G54D11*
X78500Y-32000D03*
G54D12*
X78500Y-33000D03*
X78500Y-34000D03*
G54D11*
X27500Y-32500D03*
G54D12*
X27500Y-33500D03*
X27500Y-34500D03*
G54D11*
X69000Y-28000D03*
G54D12*
X70000Y-28000D03*
X71000Y-28000D03*
G54D11*
X36500Y-25000D03*
G54D12*
X37500Y-25000D03*
X38500Y-25000D03*
G54D11*
X62750Y-26000D03*
G54D12*
X63750Y-26000D03*
G54D11*
X65750Y-26000D03*
G54D12*
X66750Y-26000D03*
G54D11*
X59750Y-26000D03*
G54D12*
X60750Y-26000D03*
G54D11*
X56750Y-26000D03*
G54D12*
X57750Y-26000D03*
G54D11*
X34000Y-25000D03*
G54D12*
X35000Y-25000D03*
G54D11*
X31400Y-58000D03*
G54D12*
X31400Y-59000D03*
G54D13*
X28000Y-38500D03*
X27000Y-37500D03*
X28000Y-36500D03*
X51500Y-28500D03*
X52500Y-27500D03*
X53500Y-28500D03*
G54D12*
X62500Y-27250D03*
X62500Y-30250D03*
X59500Y-27250D03*
X59500Y-30250D03*
X65500Y-27250D03*
X65500Y-30250D03*
X56500Y-27250D03*
X56500Y-30250D03*
X34750Y-32750D03*
X34750Y-29750D03*
X40000Y-52750D03*
X43000Y-52750D03*
X38000Y-48000D03*
X41000Y-48000D03*
X38000Y-48750D03*
X41000Y-48750D03*
X37000Y-29750D03*
X37000Y-32750D03*
X65500Y-33250D03*
X62500Y-33250D03*
X40000Y-53750D03*
X43000Y-53750D03*
X47000Y-37250D03*
X44000Y-37250D03*
X50250Y-28500D03*
X50250Y-25500D03*
X33500Y-30250D03*
X30500Y-30250D03*
X25500Y-40000D03*
X28500Y-40000D03*
X42000Y-31250D03*
X39000Y-31250D03*
G54D14*
X34500Y-51250D03*
X35500Y-51250D03*
X63500Y-35250D03*
X64500Y-35250D03*
G54D11*
X49000Y-28500D03*
G54D12*
X48000Y-28500D03*
X47000Y-28500D03*
X46000Y-28500D03*
X45000Y-28500D03*
X44000Y-28500D03*
X43000Y-28500D03*
X42000Y-28500D03*
X41000Y-28500D03*
X40000Y-28500D03*
X39000Y-28500D03*
X38000Y-28500D03*
X37000Y-28500D03*
X36000Y-28500D03*
X35000Y-28500D03*
X34000Y-28500D03*
X33000Y-28500D03*
X32000Y-28500D03*
X31000Y-28500D03*
X30000Y-28500D03*
X30000Y-34500D03*
X31000Y-34500D03*
X32000Y-34500D03*
X33000Y-34500D03*
X34000Y-34500D03*
X35000Y-34500D03*
X36000Y-34500D03*
X37000Y-34500D03*
X38000Y-34500D03*
X39000Y-34500D03*
X40000Y-34500D03*
X41000Y-34500D03*
X42000Y-34500D03*
X43000Y-34500D03*
X44000Y-34500D03*
X45000Y-34500D03*
X46000Y-34500D03*
X47000Y-34500D03*
X48000Y-34500D03*
X49000Y-34500D03*
G54D11*
X70500Y-33750D03*
G54D12*
X67500Y-33750D03*
X36396Y-26396D03*
X37103Y-27103D03*
X30000Y-31500D03*
X30000Y-32500D03*
X45250Y-31250D03*
X44250Y-31250D03*
X47500Y-25000D03*
X48500Y-25000D03*
G54D15*
X82600Y-61800D03*
X46000Y-61800D03*
X46000Y-40200D03*
X82600Y-40200D03*
X24000Y-22250D03*
X83000Y-22250D03*
X24000Y-62500D03*
X77750Y-62500D03*
G54D11*
X51500Y-26000D03*
G54D12*
X53503Y-26000D03*
X52500Y-26000D03*
G54D11*
X25500Y-38500D03*
G54D12*
X25500Y-36496D03*
X25500Y-37500D03*
X30300Y-47000D03*
X27300Y-47000D03*
G54D11*
X27800Y-43000D03*
G54D12*
X29803Y-43000D03*
G54D14*
X26300Y-47000D03*
X25300Y-47000D03*
X28700Y-45000D03*
X29700Y-45000D03*
G54D11*
X31400Y-43000D03*
G54D12*
X31400Y-44000D03*
X31400Y-45000D03*
X31400Y-46000D03*
X31400Y-47000D03*
X31400Y-48000D03*
X31400Y-49000D03*
X31400Y-50000D03*
X31400Y-51000D03*
X31400Y-52000D03*
X31400Y-53000D03*
G54D11*
X24200Y-49100D03*
X57750Y-28500D03*
G54D12*
X57750Y-27496D03*
X57750Y-29503D03*
G54D11*
X60750Y-28500D03*
G54D12*
X60750Y-27496D03*
X60750Y-29503D03*
G54D11*
X63750Y-28500D03*
G54D12*
X63750Y-27496D03*
X63750Y-29503D03*
G54D16*
X59750Y-36000D03*
X36500Y-36250D03*
X32000Y-47300D03*
X31500Y-40800D03*
X30600Y-42400D03*
X51000Y-25100D03*
X58000Y-30500D03*
X61000Y-30500D03*
X64250Y-30500D03*
X46000Y-38000D03*
G54D17*
X65800Y-32650D02*
X65500Y-32950D01*
X65500Y-32950D02*
X65500Y-33250D01*
X65800Y-32650D02*
X69350Y-32650D01*
X69375Y-32625D02*
X69350Y-32650D01*
X70500Y-33750D02*
X70500Y-33250D01*
X69500Y-32750D02*
X69375Y-32625D01*
X70000Y-32750D02*
X69500Y-32750D01*
X70500Y-33250D02*
X70000Y-32750D01*
X69000Y-32250D02*
X69000Y-28000D01*
X69375Y-32625D02*
X69000Y-32250D01*
X78500Y-33000D02*
X73250Y-33000D01*
X69500Y-34750D02*
X69500Y-35250D01*
X72250Y-33000D02*
X73250Y-33000D01*
X70750Y-34500D02*
X72250Y-33000D01*
X69750Y-34500D02*
X70750Y-34500D01*
X69500Y-34750D02*
X69750Y-34500D01*
G54D18*
X39250Y-36250D02*
X36500Y-36250D01*
X59750Y-36000D02*
X59500Y-36250D01*
X40250Y-36250D02*
X39250Y-36250D01*
X41000Y-36500D02*
X40250Y-36250D01*
X58750Y-36500D02*
X41000Y-36500D01*
X59500Y-36250D02*
X58750Y-36500D01*
G54D19*
X31400Y-48000D02*
X32000Y-48000D01*
X33000Y-39750D02*
X33000Y-39500D01*
X33000Y-39500D02*
X33000Y-34500D01*
X33000Y-47000D02*
X33000Y-39750D01*
X32000Y-48000D02*
X33000Y-47000D01*
X32000Y-47200D02*
X32000Y-47300D01*
X32000Y-39500D02*
X32000Y-39750D01*
X32000Y-34500D02*
X32000Y-39500D01*
X32000Y-39750D02*
X32000Y-47200D01*
X31000Y-39700D02*
X31000Y-40300D01*
X31000Y-40300D02*
X31500Y-40800D01*
X31000Y-39750D02*
X31000Y-39700D01*
X31000Y-39700D02*
X31000Y-39500D01*
X31000Y-34500D02*
X31000Y-39500D01*
X30000Y-39750D02*
X30000Y-41500D01*
X30000Y-34500D02*
X30000Y-39500D01*
X30000Y-39500D02*
X30000Y-39750D01*
X30600Y-42100D02*
X30600Y-42400D01*
X30000Y-41500D02*
X30600Y-42100D01*
X28700Y-45000D02*
X27800Y-44100D01*
X27800Y-44100D02*
X27800Y-43000D01*
X31400Y-49000D02*
X30100Y-49000D01*
X28700Y-47600D02*
X28700Y-45000D01*
X30100Y-49000D02*
X28700Y-47600D01*
X37000Y-34500D02*
X37000Y-32750D01*
G54D17*
X66750Y-28500D02*
X67050Y-28500D01*
X67550Y-26800D02*
X66750Y-26000D01*
X67550Y-28000D02*
X67550Y-26800D01*
X67050Y-28500D02*
X67550Y-28000D01*
G54D18*
X26500Y-34000D02*
X26500Y-25000D01*
X26500Y-25000D02*
X27000Y-24500D01*
X27000Y-24500D02*
X27500Y-24500D01*
X25500Y-38500D02*
X25000Y-38000D01*
X25000Y-35500D02*
X26500Y-34000D01*
X25000Y-36000D02*
X25000Y-35500D01*
X25000Y-38000D02*
X25000Y-36000D01*
G54D19*
X53503Y-25603D02*
X53503Y-26000D01*
X53000Y-25100D02*
X53503Y-25603D01*
X51000Y-25100D02*
X53000Y-25100D01*
X52500Y-27500D02*
X52500Y-27003D01*
X52500Y-27003D02*
X53503Y-26000D01*
X46000Y-25000D02*
X46000Y-25500D01*
X46500Y-26000D02*
X51500Y-26000D01*
X46000Y-25500D02*
X46500Y-26000D01*
X50250Y-28500D02*
X50250Y-27250D01*
X50250Y-27250D02*
X51500Y-26000D01*
X35000Y-25000D02*
X35000Y-26000D01*
X37000Y-28000D02*
X37000Y-28500D01*
X35000Y-26000D02*
X37000Y-28000D01*
X34000Y-25000D02*
X34000Y-26000D01*
X36000Y-28000D02*
X36000Y-28500D01*
X34000Y-26000D02*
X36000Y-28000D01*
X27500Y-30500D02*
X29000Y-29000D01*
X30500Y-29000D02*
X31000Y-28500D01*
X29000Y-29000D02*
X30500Y-29000D01*
X38000Y-45500D02*
X37750Y-45250D01*
X37500Y-45000D02*
X35750Y-45000D01*
X37500Y-45000D02*
X37750Y-45250D01*
X34000Y-38250D02*
X34000Y-34500D01*
X35750Y-45000D02*
X34000Y-43250D01*
X34000Y-43250D02*
X34000Y-38250D01*
X34750Y-32750D02*
X34750Y-33000D01*
X34000Y-33750D02*
X34000Y-34500D01*
X34750Y-33000D02*
X34000Y-33750D01*
G54D18*
X47000Y-37250D02*
X69750Y-37250D01*
X69750Y-37250D02*
X73000Y-34000D01*
X73000Y-34000D02*
X78500Y-34000D01*
G54D19*
X27500Y-26500D02*
X33000Y-26500D01*
X33000Y-26500D02*
X35000Y-28500D01*
X27500Y-27500D02*
X28000Y-27000D01*
X32500Y-27000D02*
X34000Y-28500D01*
X28000Y-27000D02*
X32500Y-27000D01*
X27500Y-28500D02*
X28500Y-27500D01*
X32000Y-27500D02*
X33000Y-28500D01*
X28500Y-27500D02*
X32000Y-27500D01*
X27500Y-29500D02*
X29000Y-28000D01*
X31500Y-28000D02*
X32000Y-28500D01*
X29000Y-28000D02*
X31500Y-28000D01*
X26300Y-47000D02*
X27300Y-47000D01*
G54D17*
X63750Y-28500D02*
X64000Y-28500D01*
X64550Y-26800D02*
X63750Y-26000D01*
X64550Y-27950D02*
X64550Y-26800D01*
X64000Y-28500D02*
X64550Y-27950D01*
G54D19*
X35000Y-38500D02*
X35000Y-43000D01*
X35000Y-37000D02*
X35000Y-38500D01*
X43000Y-52750D02*
X43000Y-47250D01*
X35000Y-37000D02*
X35000Y-34500D01*
X43000Y-46750D02*
X43000Y-47250D01*
X43000Y-46250D02*
X43000Y-46750D01*
X41000Y-44250D02*
X43000Y-46250D01*
X36250Y-44250D02*
X41000Y-44250D01*
X35000Y-43000D02*
X36250Y-44250D01*
X59500Y-27250D02*
X60503Y-27250D01*
X60503Y-27250D02*
X60750Y-27496D01*
X57500Y-31000D02*
X53000Y-35500D01*
X58000Y-30500D02*
X57500Y-31000D01*
X43000Y-35500D02*
X42000Y-34500D01*
X53000Y-35500D02*
X43000Y-35500D01*
X43500Y-46000D02*
X41000Y-43500D01*
X36000Y-34500D02*
X36000Y-37500D01*
X36000Y-38000D02*
X36000Y-38250D01*
X36000Y-37500D02*
X36000Y-38000D01*
X43500Y-53250D02*
X43500Y-47250D01*
X43500Y-53250D02*
X43000Y-53750D01*
X43500Y-46000D02*
X43500Y-47250D01*
X36000Y-42500D02*
X36000Y-38250D01*
X37000Y-43500D02*
X36000Y-42500D01*
X41000Y-43500D02*
X37000Y-43500D01*
X62500Y-27250D02*
X63503Y-27250D01*
X63503Y-27250D02*
X63750Y-27496D01*
X60500Y-31000D02*
X55750Y-35750D01*
X61000Y-30500D02*
X60500Y-31000D01*
X42250Y-35750D02*
X41000Y-34500D01*
X55750Y-35750D02*
X42250Y-35750D01*
X65500Y-27250D02*
X66503Y-27250D01*
X66503Y-27250D02*
X66750Y-27496D01*
X63750Y-31000D02*
X58750Y-36000D01*
X64250Y-30500D02*
X63750Y-31000D01*
X41500Y-36000D02*
X40000Y-34500D01*
X58750Y-36000D02*
X41500Y-36000D01*
G54D17*
X67500Y-33750D02*
X67500Y-35250D01*
G54D19*
X39000Y-28500D02*
X39000Y-31250D01*
X36500Y-25500D02*
X36500Y-26292D01*
X36500Y-26292D02*
X36396Y-26396D01*
X36500Y-25000D02*
X36500Y-25500D01*
X39000Y-28000D02*
X39000Y-28500D01*
X36500Y-25500D02*
X39000Y-28000D01*
X44000Y-28500D02*
X44000Y-25000D01*
X43000Y-25000D02*
X43000Y-28500D01*
X42000Y-28500D02*
X42000Y-25000D01*
X41000Y-25000D02*
X41000Y-28500D01*
X40000Y-25000D02*
X40000Y-28500D01*
X56500Y-27250D02*
X57503Y-27250D01*
X57503Y-27250D02*
X57750Y-27496D01*
X62500Y-33250D02*
X62500Y-34250D01*
X62500Y-34250D02*
X62750Y-34500D01*
X62750Y-34500D02*
X63500Y-35250D01*
X41000Y-48750D02*
X41000Y-49750D01*
X41000Y-50250D02*
X40000Y-51250D01*
X41000Y-49750D02*
X41000Y-50250D01*
X42500Y-49750D02*
X42500Y-49000D01*
X42500Y-49750D02*
X42500Y-53250D01*
X42500Y-53250D02*
X42000Y-53750D01*
X40000Y-53750D02*
X42000Y-53750D01*
X41500Y-48000D02*
X41000Y-48000D01*
X42500Y-49000D02*
X41500Y-48000D01*
X35500Y-51250D02*
X35500Y-50250D01*
X37000Y-48750D02*
X38000Y-48750D01*
X35500Y-50250D02*
X37000Y-48750D01*
X38000Y-48000D02*
X38000Y-48750D01*
G54D17*
X60750Y-28500D02*
X61050Y-28500D01*
X61050Y-28500D02*
X61550Y-28000D01*
X61550Y-28000D02*
X61550Y-26800D01*
X61550Y-26800D02*
X60750Y-26000D01*
X57750Y-28500D02*
X58100Y-28500D01*
X58100Y-28500D02*
X58650Y-27950D01*
X58650Y-27950D02*
X58650Y-26900D01*
X58650Y-26900D02*
X57750Y-26000D01*
G54D19*
X47250Y-39250D02*
X47250Y-53650D01*
X46000Y-38000D02*
X47250Y-39250D01*
X50550Y-54200D02*
X50550Y-54600D01*
X50400Y-54050D02*
X50550Y-54200D01*
X47650Y-54050D02*
X50400Y-54050D01*
X47250Y-53650D02*
X47650Y-54050D01*
X26500Y-39200D02*
X26500Y-40400D01*
X29000Y-44300D02*
X29700Y-45000D01*
X29000Y-42900D02*
X29000Y-44300D01*
X26500Y-40400D02*
X29000Y-42900D01*
X31400Y-45000D02*
X29700Y-45000D01*
X26500Y-37000D02*
X26500Y-39200D01*
X26500Y-39200D02*
X26500Y-39250D01*
X27500Y-36000D02*
X26500Y-37000D01*
X42000Y-31250D02*
X42750Y-32000D01*
X43000Y-32000D02*
X43500Y-32000D01*
X43500Y-32000D02*
X44250Y-31250D01*
X27500Y-34500D02*
X27500Y-36000D01*
X40000Y-32000D02*
X29500Y-32000D01*
X28000Y-34000D02*
X27500Y-34500D01*
X28000Y-33500D02*
X28000Y-34000D01*
X29500Y-32000D02*
X28000Y-33500D01*
X38500Y-25000D02*
X38500Y-27000D01*
X46000Y-34000D02*
X46000Y-34500D01*
X44000Y-32000D02*
X46000Y-34000D01*
X40000Y-32000D02*
X42750Y-32000D01*
X42750Y-32000D02*
X43000Y-32000D01*
X43000Y-32000D02*
X44000Y-32000D01*
X39500Y-31500D02*
X40000Y-32000D01*
X39500Y-28000D02*
X39500Y-31500D01*
X38500Y-27000D02*
X39500Y-28000D01*
X37500Y-25000D02*
X37000Y-24500D01*
X28500Y-24500D02*
X27500Y-25500D01*
X37000Y-24500D02*
X28500Y-24500D01*
X64500Y-35750D02*
X64500Y-35250D01*
X31400Y-47000D02*
X30300Y-47000D01*
G54D10*
G36*
X34464Y-32300D02*
X34453Y-32304D01*
X34305Y-32452D01*
X34225Y-32645D01*
X34224Y-32853D01*
X34297Y-33028D01*
X33787Y-33537D01*
X33722Y-33635D01*
X33700Y-33750D01*
X33700Y-34057D01*
X33555Y-34202D01*
X33499Y-34335D01*
X33445Y-34203D01*
X33297Y-34055D01*
X33104Y-33975D01*
X32896Y-33974D01*
X32703Y-34054D01*
X32555Y-34202D01*
X32499Y-34335D01*
X32445Y-34203D01*
X32297Y-34055D01*
X32104Y-33975D01*
X31896Y-33974D01*
X31703Y-34054D01*
X31555Y-34202D01*
X31499Y-34335D01*
X31445Y-34203D01*
X31297Y-34055D01*
X31104Y-33975D01*
X30896Y-33974D01*
X30703Y-34054D01*
X30555Y-34202D01*
X30499Y-34335D01*
X30445Y-34203D01*
X30297Y-34055D01*
X30297Y-34054D01*
X30297Y-32867D01*
X30000Y-32570D01*
X29702Y-32867D01*
X29727Y-32960D01*
X29924Y-33029D01*
X30132Y-33018D01*
X30272Y-32960D01*
X30297Y-32867D01*
X30297Y-34054D01*
X30104Y-33975D01*
X29896Y-33974D01*
X29703Y-34054D01*
X29555Y-34202D01*
X29475Y-34395D01*
X29474Y-34603D01*
X29554Y-34797D01*
X29700Y-34942D01*
X29700Y-39500D01*
X29700Y-39750D01*
X29700Y-41500D01*
X29722Y-41614D01*
X29787Y-41712D01*
X30238Y-42162D01*
X30175Y-42315D01*
X30174Y-42484D01*
X30239Y-42640D01*
X30358Y-42760D01*
X30515Y-42824D01*
X30684Y-42825D01*
X30840Y-42760D01*
X30874Y-42726D01*
X30875Y-42887D01*
X30937Y-42950D01*
X31350Y-42950D01*
X31350Y-42537D01*
X31287Y-42475D01*
X31174Y-42474D01*
X31075Y-42475D01*
X31019Y-42498D01*
X31024Y-42484D01*
X31025Y-42315D01*
X30960Y-42159D01*
X30899Y-42098D01*
X30877Y-41985D01*
X30812Y-41887D01*
X30812Y-41887D01*
X30300Y-41375D01*
X30300Y-39750D01*
X30300Y-39500D01*
X30300Y-34942D01*
X30444Y-34797D01*
X30500Y-34664D01*
X30554Y-34797D01*
X30700Y-34942D01*
X30700Y-39500D01*
X30700Y-39700D01*
X30700Y-39750D01*
X30700Y-40300D01*
X30722Y-40414D01*
X30787Y-40512D01*
X31075Y-40799D01*
X31074Y-40884D01*
X31139Y-41040D01*
X31258Y-41160D01*
X31415Y-41224D01*
X31584Y-41225D01*
X31700Y-41177D01*
X31700Y-42475D01*
X31625Y-42474D01*
X31512Y-42475D01*
X31450Y-42537D01*
X31450Y-42950D01*
X31457Y-42950D01*
X31457Y-43050D01*
X31450Y-43050D01*
X31450Y-43057D01*
X31350Y-43057D01*
X31350Y-43050D01*
X30937Y-43050D01*
X30875Y-43112D01*
X30874Y-43324D01*
X30912Y-43416D01*
X30983Y-43486D01*
X31075Y-43524D01*
X31174Y-43525D01*
X31174Y-43525D01*
X31103Y-43554D01*
X30955Y-43702D01*
X30875Y-43895D01*
X30874Y-44103D01*
X30954Y-44297D01*
X31102Y-44444D01*
X31235Y-44500D01*
X31103Y-44554D01*
X30957Y-44700D01*
X30333Y-44700D01*
X30333Y-43075D01*
X30322Y-42867D01*
X30264Y-42727D01*
X30171Y-42702D01*
X30101Y-42773D01*
X30101Y-42632D01*
X30076Y-42539D01*
X29879Y-42470D01*
X29671Y-42481D01*
X29531Y-42539D01*
X29506Y-42632D01*
X29803Y-42929D01*
X30101Y-42632D01*
X30101Y-42773D01*
X29874Y-43000D01*
X30171Y-43297D01*
X30264Y-43272D01*
X30333Y-43075D01*
X30333Y-44700D01*
X30203Y-44700D01*
X30191Y-44671D01*
X30101Y-44580D01*
X30101Y-43367D01*
X29803Y-43070D01*
X29506Y-43367D01*
X29531Y-43460D01*
X29728Y-43529D01*
X29936Y-43518D01*
X30076Y-43460D01*
X30101Y-43367D01*
X30101Y-44580D01*
X30028Y-44508D01*
X29815Y-44420D01*
X29585Y-44419D01*
X29556Y-44431D01*
X29300Y-44175D01*
X29300Y-43168D01*
X29343Y-43272D01*
X29436Y-43297D01*
X29733Y-43000D01*
X29436Y-42702D01*
X29343Y-42727D01*
X29293Y-42868D01*
X29277Y-42785D01*
X29212Y-42687D01*
X29025Y-42500D01*
X29025Y-39896D01*
X28945Y-39703D01*
X28797Y-39555D01*
X28604Y-39475D01*
X28554Y-39475D01*
X28554Y-38581D01*
X28543Y-38363D01*
X28481Y-38212D01*
X28385Y-38184D01*
X28315Y-38255D01*
X28315Y-38114D01*
X28287Y-38018D01*
X28081Y-37945D01*
X27863Y-37956D01*
X27712Y-38018D01*
X27684Y-38114D01*
X28000Y-38429D01*
X28315Y-38114D01*
X28315Y-38255D01*
X28070Y-38500D01*
X28385Y-38815D01*
X28481Y-38787D01*
X28554Y-38581D01*
X28554Y-39475D01*
X28396Y-39474D01*
X28315Y-39508D01*
X28315Y-38885D01*
X28000Y-38570D01*
X27929Y-38641D01*
X27929Y-38500D01*
X27614Y-38184D01*
X27518Y-38212D01*
X27445Y-38418D01*
X27456Y-38636D01*
X27518Y-38787D01*
X27614Y-38815D01*
X27929Y-38500D01*
X27929Y-38641D01*
X27684Y-38885D01*
X27712Y-38981D01*
X27918Y-39054D01*
X28136Y-39043D01*
X28287Y-38981D01*
X28315Y-38885D01*
X28315Y-39508D01*
X28203Y-39554D01*
X28055Y-39702D01*
X27975Y-39895D01*
X27974Y-40103D01*
X28054Y-40297D01*
X28202Y-40444D01*
X28395Y-40524D01*
X28603Y-40525D01*
X28797Y-40445D01*
X28944Y-40297D01*
X29024Y-40104D01*
X29025Y-39896D01*
X29025Y-42500D01*
X26800Y-40275D01*
X26800Y-39250D01*
X26800Y-39200D01*
X26800Y-38012D01*
X26890Y-38049D01*
X27108Y-38050D01*
X27311Y-37966D01*
X27465Y-37811D01*
X27549Y-37609D01*
X27550Y-37391D01*
X27466Y-37188D01*
X27311Y-37034D01*
X27109Y-36950D01*
X26974Y-36949D01*
X27450Y-36474D01*
X27449Y-36608D01*
X27533Y-36811D01*
X27688Y-36965D01*
X27890Y-37049D01*
X28108Y-37050D01*
X28311Y-36966D01*
X28465Y-36811D01*
X28549Y-36609D01*
X28550Y-36391D01*
X28466Y-36188D01*
X28311Y-36034D01*
X28109Y-35950D01*
X27891Y-35949D01*
X27800Y-35987D01*
X27800Y-34942D01*
X27944Y-34797D01*
X28024Y-34604D01*
X28025Y-34399D01*
X28212Y-34212D01*
X28212Y-34212D01*
X28277Y-34114D01*
X28299Y-34000D01*
X28300Y-34000D01*
X28300Y-33624D01*
X29471Y-32452D01*
X29481Y-32632D01*
X29539Y-32772D01*
X29632Y-32797D01*
X29929Y-32500D01*
X29923Y-32494D01*
X29994Y-32423D01*
X30000Y-32429D01*
X30005Y-32423D01*
X30076Y-32494D01*
X30070Y-32500D01*
X30367Y-32797D01*
X30460Y-32772D01*
X30529Y-32575D01*
X30518Y-32367D01*
X30490Y-32300D01*
X34464Y-32300D01*
X34464Y-32300D01*
G37*
G54D19*
X34464Y-32300D02*
X34453Y-32304D01*
X34305Y-32452D01*
X34225Y-32645D01*
X34224Y-32853D01*
X34297Y-33028D01*
X33787Y-33537D01*
X33722Y-33635D01*
X33700Y-33750D01*
X33700Y-34057D01*
X33555Y-34202D01*
X33499Y-34335D01*
X33445Y-34203D01*
X33297Y-34055D01*
X33104Y-33975D01*
X32896Y-33974D01*
X32703Y-34054D01*
X32555Y-34202D01*
X32499Y-34335D01*
X32445Y-34203D01*
X32297Y-34055D01*
X32104Y-33975D01*
X31896Y-33974D01*
X31703Y-34054D01*
X31555Y-34202D01*
X31499Y-34335D01*
X31445Y-34203D01*
X31297Y-34055D01*
X31104Y-33975D01*
X30896Y-33974D01*
X30703Y-34054D01*
X30555Y-34202D01*
X30499Y-34335D01*
X30445Y-34203D01*
X30297Y-34055D01*
X30297Y-34054D01*
X30297Y-32867D01*
X30000Y-32570D01*
X29702Y-32867D01*
X29727Y-32960D01*
X29924Y-33029D01*
X30132Y-33018D01*
X30272Y-32960D01*
X30297Y-32867D01*
X30297Y-34054D01*
X30104Y-33975D01*
X29896Y-33974D01*
X29703Y-34054D01*
X29555Y-34202D01*
X29475Y-34395D01*
X29474Y-34603D01*
X29554Y-34797D01*
X29700Y-34942D01*
X29700Y-39500D01*
X29700Y-39750D01*
X29700Y-41500D01*
X29722Y-41614D01*
X29787Y-41712D01*
X30238Y-42162D01*
X30175Y-42315D01*
X30174Y-42484D01*
X30239Y-42640D01*
X30358Y-42760D01*
X30515Y-42824D01*
X30684Y-42825D01*
X30840Y-42760D01*
X30874Y-42726D01*
X30875Y-42887D01*
X30937Y-42950D01*
X31350Y-42950D01*
X31350Y-42537D01*
X31287Y-42475D01*
X31174Y-42474D01*
X31075Y-42475D01*
X31019Y-42498D01*
X31024Y-42484D01*
X31025Y-42315D01*
X30960Y-42159D01*
X30899Y-42098D01*
X30877Y-41985D01*
X30812Y-41887D01*
X30812Y-41887D01*
X30300Y-41375D01*
X30300Y-39750D01*
X30300Y-39500D01*
X30300Y-34942D01*
X30444Y-34797D01*
X30500Y-34664D01*
X30554Y-34797D01*
X30700Y-34942D01*
X30700Y-39500D01*
X30700Y-39700D01*
X30700Y-39750D01*
X30700Y-40300D01*
X30722Y-40414D01*
X30787Y-40512D01*
X31075Y-40799D01*
X31074Y-40884D01*
X31139Y-41040D01*
X31258Y-41160D01*
X31415Y-41224D01*
X31584Y-41225D01*
X31700Y-41177D01*
X31700Y-42475D01*
X31625Y-42474D01*
X31512Y-42475D01*
X31450Y-42537D01*
X31450Y-42950D01*
X31457Y-42950D01*
X31457Y-43050D01*
X31450Y-43050D01*
X31450Y-43057D01*
X31350Y-43057D01*
X31350Y-43050D01*
X30937Y-43050D01*
X30875Y-43112D01*
X30874Y-43324D01*
X30912Y-43416D01*
X30983Y-43486D01*
X31075Y-43524D01*
X31174Y-43525D01*
X31174Y-43525D01*
X31103Y-43554D01*
X30955Y-43702D01*
X30875Y-43895D01*
X30874Y-44103D01*
X30954Y-44297D01*
X31102Y-44444D01*
X31235Y-44500D01*
X31103Y-44554D01*
X30957Y-44700D01*
X30333Y-44700D01*
X30333Y-43075D01*
X30322Y-42867D01*
X30264Y-42727D01*
X30171Y-42702D01*
X30101Y-42773D01*
X30101Y-42632D01*
X30076Y-42539D01*
X29879Y-42470D01*
X29671Y-42481D01*
X29531Y-42539D01*
X29506Y-42632D01*
X29803Y-42929D01*
X30101Y-42632D01*
X30101Y-42773D01*
X29874Y-43000D01*
X30171Y-43297D01*
X30264Y-43272D01*
X30333Y-43075D01*
X30333Y-44700D01*
X30203Y-44700D01*
X30191Y-44671D01*
X30101Y-44580D01*
X30101Y-43367D01*
X29803Y-43070D01*
X29506Y-43367D01*
X29531Y-43460D01*
X29728Y-43529D01*
X29936Y-43518D01*
X30076Y-43460D01*
X30101Y-43367D01*
X30101Y-44580D01*
X30028Y-44508D01*
X29815Y-44420D01*
X29585Y-44419D01*
X29556Y-44431D01*
X29300Y-44175D01*
X29300Y-43168D01*
X29343Y-43272D01*
X29436Y-43297D01*
X29733Y-43000D01*
X29436Y-42702D01*
X29343Y-42727D01*
X29293Y-42868D01*
X29277Y-42785D01*
X29212Y-42687D01*
X29025Y-42500D01*
X29025Y-39896D01*
X28945Y-39703D01*
X28797Y-39555D01*
X28604Y-39475D01*
X28554Y-39475D01*
X28554Y-38581D01*
X28543Y-38363D01*
X28481Y-38212D01*
X28385Y-38184D01*
X28315Y-38255D01*
X28315Y-38114D01*
X28287Y-38018D01*
X28081Y-37945D01*
X27863Y-37956D01*
X27712Y-38018D01*
X27684Y-38114D01*
X28000Y-38429D01*
X28315Y-38114D01*
X28315Y-38255D01*
X28070Y-38500D01*
X28385Y-38815D01*
X28481Y-38787D01*
X28554Y-38581D01*
X28554Y-39475D01*
X28396Y-39474D01*
X28315Y-39508D01*
X28315Y-38885D01*
X28000Y-38570D01*
X27929Y-38641D01*
X27929Y-38500D01*
X27614Y-38184D01*
X27518Y-38212D01*
X27445Y-38418D01*
X27456Y-38636D01*
X27518Y-38787D01*
X27614Y-38815D01*
X27929Y-38500D01*
X27929Y-38641D01*
X27684Y-38885D01*
X27712Y-38981D01*
X27918Y-39054D01*
X28136Y-39043D01*
X28287Y-38981D01*
X28315Y-38885D01*
X28315Y-39508D01*
X28203Y-39554D01*
X28055Y-39702D01*
X27975Y-39895D01*
X27974Y-40103D01*
X28054Y-40297D01*
X28202Y-40444D01*
X28395Y-40524D01*
X28603Y-40525D01*
X28797Y-40445D01*
X28944Y-40297D01*
X29024Y-40104D01*
X29025Y-39896D01*
X29025Y-42500D01*
X26800Y-40275D01*
X26800Y-39250D01*
X26800Y-39200D01*
X26800Y-38012D01*
X26890Y-38049D01*
X27108Y-38050D01*
X27311Y-37966D01*
X27465Y-37811D01*
X27549Y-37609D01*
X27550Y-37391D01*
X27466Y-37188D01*
X27311Y-37034D01*
X27109Y-36950D01*
X26974Y-36949D01*
X27450Y-36474D01*
X27449Y-36608D01*
X27533Y-36811D01*
X27688Y-36965D01*
X27890Y-37049D01*
X28108Y-37050D01*
X28311Y-36966D01*
X28465Y-36811D01*
X28549Y-36609D01*
X28550Y-36391D01*
X28466Y-36188D01*
X28311Y-36034D01*
X28109Y-35950D01*
X27891Y-35949D01*
X27800Y-35987D01*
X27800Y-34942D01*
X27944Y-34797D01*
X28024Y-34604D01*
X28025Y-34399D01*
X28212Y-34212D01*
X28212Y-34212D01*
X28277Y-34114D01*
X28299Y-34000D01*
X28300Y-34000D01*
X28300Y-33624D01*
X29471Y-32452D01*
X29481Y-32632D01*
X29539Y-32772D01*
X29632Y-32797D01*
X29929Y-32500D01*
X29923Y-32494D01*
X29994Y-32423D01*
X30000Y-32429D01*
X30005Y-32423D01*
X30076Y-32494D01*
X30070Y-32500D01*
X30367Y-32797D01*
X30460Y-32772D01*
X30529Y-32575D01*
X30518Y-32367D01*
X30490Y-32300D01*
X34464Y-32300D01*
G54D10*
G36*
X38666Y-28090D02*
X38555Y-28202D01*
X38499Y-28335D01*
X38445Y-28203D01*
X38297Y-28055D01*
X38104Y-27975D01*
X37896Y-27974D01*
X37703Y-28054D01*
X37622Y-28135D01*
X37622Y-27236D01*
X37573Y-27153D01*
X37153Y-27153D01*
X37153Y-27573D01*
X37236Y-27622D01*
X37424Y-27531D01*
X37564Y-27376D01*
X37622Y-27236D01*
X37622Y-28135D01*
X37555Y-28202D01*
X37499Y-28335D01*
X37445Y-28203D01*
X37300Y-28057D01*
X37300Y-28000D01*
X37299Y-27999D01*
X37277Y-27885D01*
X37212Y-27787D01*
X37212Y-27787D01*
X37018Y-27594D01*
X37053Y-27573D01*
X37053Y-27224D01*
X37097Y-27179D01*
X37027Y-27109D01*
X36982Y-27153D01*
X36633Y-27153D01*
X36612Y-27188D01*
X36345Y-26921D01*
X36500Y-26921D01*
X36627Y-26869D01*
X36584Y-26970D01*
X36633Y-27053D01*
X36982Y-27053D01*
X37027Y-27097D01*
X37097Y-27027D01*
X37053Y-26982D01*
X37053Y-26633D01*
X36970Y-26584D01*
X36865Y-26635D01*
X36921Y-26501D01*
X36921Y-26345D01*
X37188Y-26612D01*
X37153Y-26633D01*
X37153Y-26982D01*
X37109Y-27027D01*
X37179Y-27097D01*
X37224Y-27053D01*
X37573Y-27053D01*
X37594Y-27018D01*
X38666Y-28090D01*
X38666Y-28090D01*
G37*
G54D19*
X38666Y-28090D02*
X38555Y-28202D01*
X38499Y-28335D01*
X38445Y-28203D01*
X38297Y-28055D01*
X38104Y-27975D01*
X37896Y-27974D01*
X37703Y-28054D01*
X37622Y-28135D01*
X37622Y-27236D01*
X37573Y-27153D01*
X37153Y-27153D01*
X37153Y-27573D01*
X37236Y-27622D01*
X37424Y-27531D01*
X37564Y-27376D01*
X37622Y-27236D01*
X37622Y-28135D01*
X37555Y-28202D01*
X37499Y-28335D01*
X37445Y-28203D01*
X37300Y-28057D01*
X37300Y-28000D01*
X37299Y-27999D01*
X37277Y-27885D01*
X37212Y-27787D01*
X37212Y-27787D01*
X37018Y-27594D01*
X37053Y-27573D01*
X37053Y-27224D01*
X37097Y-27179D01*
X37027Y-27109D01*
X36982Y-27153D01*
X36633Y-27153D01*
X36612Y-27188D01*
X36345Y-26921D01*
X36500Y-26921D01*
X36627Y-26869D01*
X36584Y-26970D01*
X36633Y-27053D01*
X36982Y-27053D01*
X37027Y-27097D01*
X37097Y-27027D01*
X37053Y-26982D01*
X37053Y-26633D01*
X36970Y-26584D01*
X36865Y-26635D01*
X36921Y-26501D01*
X36921Y-26345D01*
X37188Y-26612D01*
X37153Y-26633D01*
X37153Y-26982D01*
X37109Y-27027D01*
X37179Y-27097D01*
X37224Y-27053D01*
X37573Y-27053D01*
X37594Y-27018D01*
X38666Y-28090D01*
G54D10*
G36*
X83730Y-63230D02*
X83676Y-63230D01*
X83651Y-63230D01*
X83651Y-62001D01*
X83651Y-40401D01*
X83648Y-39983D01*
X83494Y-39611D01*
X83347Y-39523D01*
X83276Y-39594D01*
X83276Y-39452D01*
X83188Y-39305D01*
X82801Y-39148D01*
X82383Y-39151D01*
X82011Y-39305D01*
X81923Y-39452D01*
X82600Y-40129D01*
X83276Y-39452D01*
X83276Y-39594D01*
X82670Y-40200D01*
X83347Y-40876D01*
X83494Y-40788D01*
X83651Y-40401D01*
X83651Y-62001D01*
X83648Y-61583D01*
X83494Y-61211D01*
X83347Y-61123D01*
X83276Y-61194D01*
X83276Y-61052D01*
X83276Y-40947D01*
X82600Y-40270D01*
X82529Y-40341D01*
X82529Y-40200D01*
X81852Y-39523D01*
X81705Y-39611D01*
X81548Y-39998D01*
X81551Y-40416D01*
X81705Y-40788D01*
X81852Y-40876D01*
X82529Y-40200D01*
X82529Y-40341D01*
X81923Y-40947D01*
X82011Y-41094D01*
X82398Y-41251D01*
X82816Y-41248D01*
X83188Y-41094D01*
X83276Y-40947D01*
X83276Y-61052D01*
X83188Y-60905D01*
X82801Y-60748D01*
X82383Y-60751D01*
X82011Y-60905D01*
X81923Y-61052D01*
X82600Y-61729D01*
X83276Y-61052D01*
X83276Y-61194D01*
X82670Y-61800D01*
X83347Y-62476D01*
X83494Y-62388D01*
X83651Y-62001D01*
X83651Y-63230D01*
X83276Y-63230D01*
X83276Y-62547D01*
X82600Y-61870D01*
X82529Y-61941D01*
X82529Y-61800D01*
X81852Y-61123D01*
X81705Y-61211D01*
X81548Y-61598D01*
X81551Y-62016D01*
X81705Y-62388D01*
X81852Y-62476D01*
X82529Y-61800D01*
X82529Y-61941D01*
X81923Y-62547D01*
X82011Y-62694D01*
X82398Y-62851D01*
X82816Y-62848D01*
X83188Y-62694D01*
X83276Y-62547D01*
X83276Y-63230D01*
X79025Y-63230D01*
X79025Y-33896D01*
X78945Y-33703D01*
X78797Y-33555D01*
X78664Y-33499D01*
X78797Y-33445D01*
X78944Y-33297D01*
X79024Y-33104D01*
X79025Y-32896D01*
X78945Y-32703D01*
X78797Y-32555D01*
X78725Y-32525D01*
X78725Y-32525D01*
X78824Y-32524D01*
X78916Y-32486D01*
X78987Y-32416D01*
X79025Y-32324D01*
X79025Y-31675D01*
X78987Y-31583D01*
X78916Y-31513D01*
X78824Y-31475D01*
X78725Y-31474D01*
X78612Y-31475D01*
X78550Y-31537D01*
X78550Y-31950D01*
X78962Y-31950D01*
X79025Y-31887D01*
X79025Y-31675D01*
X79025Y-32324D01*
X79025Y-32112D01*
X78962Y-32050D01*
X78550Y-32050D01*
X78550Y-32057D01*
X78450Y-32057D01*
X78450Y-32050D01*
X78450Y-31950D01*
X78450Y-31537D01*
X78387Y-31475D01*
X78274Y-31474D01*
X78175Y-31475D01*
X78083Y-31513D01*
X78012Y-31583D01*
X77974Y-31675D01*
X77975Y-31887D01*
X78037Y-31950D01*
X78450Y-31950D01*
X78450Y-32050D01*
X78037Y-32050D01*
X77975Y-32112D01*
X77974Y-32324D01*
X78012Y-32416D01*
X78083Y-32486D01*
X78175Y-32524D01*
X78274Y-32525D01*
X78274Y-32525D01*
X78214Y-32550D01*
X73250Y-32550D01*
X72250Y-32550D01*
X72077Y-32584D01*
X72029Y-32616D01*
X71931Y-32681D01*
X71525Y-33088D01*
X71525Y-27896D01*
X71445Y-27703D01*
X71297Y-27555D01*
X71104Y-27475D01*
X70896Y-27474D01*
X70703Y-27554D01*
X70555Y-27702D01*
X70502Y-27828D01*
X70460Y-27727D01*
X70367Y-27702D01*
X70297Y-27773D01*
X70297Y-27632D01*
X70272Y-27539D01*
X70075Y-27470D01*
X69867Y-27481D01*
X69727Y-27539D01*
X69702Y-27632D01*
X70000Y-27929D01*
X70297Y-27632D01*
X70297Y-27773D01*
X70070Y-28000D01*
X70367Y-28297D01*
X70460Y-28272D01*
X70499Y-28162D01*
X70554Y-28297D01*
X70702Y-28444D01*
X70895Y-28524D01*
X71103Y-28525D01*
X71297Y-28445D01*
X71444Y-28297D01*
X71524Y-28104D01*
X71525Y-27896D01*
X71525Y-33088D01*
X71025Y-33588D01*
X71025Y-33425D01*
X70987Y-33333D01*
X70950Y-33296D01*
X70950Y-33250D01*
X70915Y-33077D01*
X70818Y-32931D01*
X70318Y-32431D01*
X70297Y-32417D01*
X70297Y-28367D01*
X70000Y-28070D01*
X69702Y-28367D01*
X69727Y-28460D01*
X69924Y-28529D01*
X70132Y-28518D01*
X70272Y-28460D01*
X70297Y-28367D01*
X70297Y-32417D01*
X70172Y-32334D01*
X70000Y-32300D01*
X69686Y-32300D01*
X69450Y-32063D01*
X69450Y-28453D01*
X69486Y-28416D01*
X69524Y-28324D01*
X69525Y-28237D01*
X69539Y-28272D01*
X69632Y-28297D01*
X69929Y-28000D01*
X69632Y-27702D01*
X69539Y-27727D01*
X69525Y-27768D01*
X69525Y-27675D01*
X69487Y-27583D01*
X69416Y-27513D01*
X69324Y-27475D01*
X69225Y-27474D01*
X68675Y-27474D01*
X68583Y-27512D01*
X68513Y-27583D01*
X68475Y-27675D01*
X68474Y-27774D01*
X68474Y-28324D01*
X68512Y-28416D01*
X68550Y-28453D01*
X68550Y-32200D01*
X68000Y-32200D01*
X68000Y-28000D01*
X68000Y-26800D01*
X67999Y-26799D01*
X67965Y-26627D01*
X67965Y-26627D01*
X67868Y-26481D01*
X67868Y-26481D01*
X67269Y-25883D01*
X67195Y-25703D01*
X67047Y-25555D01*
X66854Y-25475D01*
X66646Y-25474D01*
X66453Y-25554D01*
X66305Y-25702D01*
X66275Y-25774D01*
X66275Y-25675D01*
X66237Y-25583D01*
X66166Y-25513D01*
X66074Y-25475D01*
X65975Y-25474D01*
X65425Y-25474D01*
X65333Y-25512D01*
X65263Y-25583D01*
X65225Y-25675D01*
X65224Y-25774D01*
X65224Y-26324D01*
X65262Y-26416D01*
X65333Y-26486D01*
X65425Y-26524D01*
X65524Y-26525D01*
X66074Y-26525D01*
X66166Y-26487D01*
X66236Y-26416D01*
X66274Y-26324D01*
X66275Y-26225D01*
X66275Y-26225D01*
X66304Y-26297D01*
X66452Y-26444D01*
X66633Y-26520D01*
X67100Y-26986D01*
X67100Y-27103D01*
X67047Y-27051D01*
X66854Y-26971D01*
X66646Y-26970D01*
X66627Y-26978D01*
X66627Y-26978D01*
X66618Y-26972D01*
X66503Y-26950D01*
X65942Y-26950D01*
X65797Y-26805D01*
X65604Y-26725D01*
X65396Y-26724D01*
X65203Y-26804D01*
X65055Y-26952D01*
X65000Y-27085D01*
X65000Y-26800D01*
X64999Y-26799D01*
X64965Y-26627D01*
X64965Y-26627D01*
X64868Y-26481D01*
X64868Y-26481D01*
X64269Y-25883D01*
X64195Y-25703D01*
X64047Y-25555D01*
X63854Y-25475D01*
X63646Y-25474D01*
X63453Y-25554D01*
X63305Y-25702D01*
X63275Y-25774D01*
X63275Y-25675D01*
X63237Y-25583D01*
X63166Y-25513D01*
X63074Y-25475D01*
X62975Y-25474D01*
X62425Y-25474D01*
X62333Y-25512D01*
X62263Y-25583D01*
X62225Y-25675D01*
X62224Y-25774D01*
X62224Y-26324D01*
X62262Y-26416D01*
X62333Y-26486D01*
X62425Y-26524D01*
X62524Y-26525D01*
X63074Y-26525D01*
X63166Y-26487D01*
X63236Y-26416D01*
X63274Y-26324D01*
X63275Y-26225D01*
X63275Y-26225D01*
X63304Y-26297D01*
X63452Y-26444D01*
X63633Y-26520D01*
X64100Y-26986D01*
X64100Y-27103D01*
X64047Y-27051D01*
X63854Y-26971D01*
X63646Y-26970D01*
X63627Y-26978D01*
X63627Y-26978D01*
X63618Y-26972D01*
X63503Y-26950D01*
X62942Y-26950D01*
X62797Y-26805D01*
X62604Y-26725D01*
X62396Y-26724D01*
X62203Y-26804D01*
X62055Y-26952D01*
X62000Y-27085D01*
X62000Y-26800D01*
X61999Y-26799D01*
X61965Y-26627D01*
X61965Y-26627D01*
X61868Y-26481D01*
X61868Y-26481D01*
X61269Y-25883D01*
X61195Y-25703D01*
X61047Y-25555D01*
X60854Y-25475D01*
X60646Y-25474D01*
X60453Y-25554D01*
X60305Y-25702D01*
X60275Y-25774D01*
X60275Y-25675D01*
X60237Y-25583D01*
X60166Y-25513D01*
X60074Y-25475D01*
X59975Y-25474D01*
X59425Y-25474D01*
X59333Y-25512D01*
X59263Y-25583D01*
X59225Y-25675D01*
X59224Y-25774D01*
X59224Y-26324D01*
X59262Y-26416D01*
X59333Y-26486D01*
X59425Y-26524D01*
X59524Y-26525D01*
X60074Y-26525D01*
X60166Y-26487D01*
X60236Y-26416D01*
X60274Y-26324D01*
X60275Y-26225D01*
X60275Y-26225D01*
X60304Y-26297D01*
X60452Y-26444D01*
X60633Y-26520D01*
X61100Y-26986D01*
X61100Y-27103D01*
X61047Y-27051D01*
X60854Y-26971D01*
X60646Y-26970D01*
X60627Y-26978D01*
X60627Y-26978D01*
X60618Y-26972D01*
X60503Y-26950D01*
X59942Y-26950D01*
X59797Y-26805D01*
X59604Y-26725D01*
X59396Y-26724D01*
X59203Y-26804D01*
X59100Y-26907D01*
X59100Y-26900D01*
X59065Y-26727D01*
X58968Y-26581D01*
X58269Y-25883D01*
X58195Y-25703D01*
X58047Y-25555D01*
X57854Y-25475D01*
X57646Y-25474D01*
X57453Y-25554D01*
X57305Y-25702D01*
X57275Y-25774D01*
X57275Y-25675D01*
X57237Y-25583D01*
X57166Y-25513D01*
X57074Y-25475D01*
X56975Y-25474D01*
X56425Y-25474D01*
X56333Y-25512D01*
X56263Y-25583D01*
X56225Y-25675D01*
X56224Y-25774D01*
X56224Y-26324D01*
X56262Y-26416D01*
X56333Y-26486D01*
X56425Y-26524D01*
X56524Y-26525D01*
X57074Y-26525D01*
X57166Y-26487D01*
X57236Y-26416D01*
X57274Y-26324D01*
X57275Y-26225D01*
X57275Y-26225D01*
X57304Y-26297D01*
X57452Y-26444D01*
X57633Y-26520D01*
X58200Y-27086D01*
X58200Y-27210D01*
X58195Y-27199D01*
X58047Y-27051D01*
X57854Y-26971D01*
X57646Y-26970D01*
X57627Y-26978D01*
X57627Y-26978D01*
X57618Y-26972D01*
X57503Y-26950D01*
X56942Y-26950D01*
X56797Y-26805D01*
X56604Y-26725D01*
X56396Y-26724D01*
X56203Y-26804D01*
X56055Y-26952D01*
X55975Y-27145D01*
X55974Y-27353D01*
X56054Y-27547D01*
X56202Y-27694D01*
X56395Y-27774D01*
X56603Y-27775D01*
X56797Y-27695D01*
X56942Y-27550D01*
X57224Y-27550D01*
X57224Y-27600D01*
X57304Y-27793D01*
X57452Y-27940D01*
X57534Y-27974D01*
X57425Y-27974D01*
X57333Y-28012D01*
X57263Y-28083D01*
X57225Y-28175D01*
X57224Y-28274D01*
X57224Y-28824D01*
X57262Y-28916D01*
X57333Y-28986D01*
X57425Y-29024D01*
X57521Y-29025D01*
X57477Y-29043D01*
X57452Y-29136D01*
X57750Y-29433D01*
X58047Y-29136D01*
X58022Y-29043D01*
X57970Y-29025D01*
X58074Y-29025D01*
X58166Y-28987D01*
X58229Y-28924D01*
X58272Y-28915D01*
X58418Y-28818D01*
X58968Y-28268D01*
X59065Y-28122D01*
X59100Y-27950D01*
X59100Y-27592D01*
X59202Y-27694D01*
X59395Y-27774D01*
X59603Y-27775D01*
X59797Y-27695D01*
X59942Y-27550D01*
X60224Y-27550D01*
X60224Y-27600D01*
X60304Y-27793D01*
X60452Y-27940D01*
X60534Y-27974D01*
X60425Y-27974D01*
X60333Y-28012D01*
X60263Y-28083D01*
X60225Y-28175D01*
X60224Y-28274D01*
X60224Y-28824D01*
X60262Y-28916D01*
X60333Y-28986D01*
X60425Y-29024D01*
X60521Y-29025D01*
X60477Y-29043D01*
X60452Y-29136D01*
X60750Y-29433D01*
X61047Y-29136D01*
X61022Y-29043D01*
X60970Y-29025D01*
X61074Y-29025D01*
X61166Y-28987D01*
X61236Y-28916D01*
X61243Y-28901D01*
X61368Y-28818D01*
X61868Y-28318D01*
X61965Y-28172D01*
X62000Y-28000D01*
X62000Y-27414D01*
X62054Y-27547D01*
X62202Y-27694D01*
X62395Y-27774D01*
X62603Y-27775D01*
X62797Y-27695D01*
X62942Y-27550D01*
X63224Y-27550D01*
X63224Y-27600D01*
X63304Y-27793D01*
X63452Y-27940D01*
X63534Y-27974D01*
X63425Y-27974D01*
X63333Y-28012D01*
X63263Y-28083D01*
X63225Y-28175D01*
X63224Y-28274D01*
X63224Y-28824D01*
X63262Y-28916D01*
X63333Y-28986D01*
X63425Y-29024D01*
X63521Y-29025D01*
X63477Y-29043D01*
X63452Y-29136D01*
X63750Y-29433D01*
X64047Y-29136D01*
X64022Y-29043D01*
X63970Y-29025D01*
X64074Y-29025D01*
X64166Y-28987D01*
X64236Y-28916D01*
X64262Y-28855D01*
X64318Y-28818D01*
X64868Y-28268D01*
X64965Y-28122D01*
X65000Y-27950D01*
X65000Y-27414D01*
X65054Y-27547D01*
X65202Y-27694D01*
X65395Y-27774D01*
X65603Y-27775D01*
X65797Y-27695D01*
X65942Y-27550D01*
X66224Y-27550D01*
X66224Y-27600D01*
X66304Y-27793D01*
X66452Y-27940D01*
X66534Y-27974D01*
X66425Y-27974D01*
X66333Y-28012D01*
X66263Y-28083D01*
X66225Y-28175D01*
X66224Y-28274D01*
X66224Y-28824D01*
X66262Y-28916D01*
X66333Y-28986D01*
X66425Y-29024D01*
X66521Y-29025D01*
X66477Y-29043D01*
X66452Y-29136D01*
X66750Y-29433D01*
X67047Y-29136D01*
X67022Y-29043D01*
X66970Y-29025D01*
X67074Y-29025D01*
X67166Y-28987D01*
X67236Y-28916D01*
X67243Y-28901D01*
X67368Y-28818D01*
X67868Y-28318D01*
X67965Y-28172D01*
X68000Y-28000D01*
X68000Y-32200D01*
X67279Y-32200D01*
X67279Y-29579D01*
X67268Y-29371D01*
X67210Y-29231D01*
X67117Y-29206D01*
X66820Y-29503D01*
X67117Y-29801D01*
X67210Y-29776D01*
X67279Y-29579D01*
X67279Y-32200D01*
X67047Y-32200D01*
X67047Y-29871D01*
X66750Y-29574D01*
X66679Y-29645D01*
X66679Y-29503D01*
X66382Y-29206D01*
X66289Y-29231D01*
X66220Y-29428D01*
X66231Y-29636D01*
X66289Y-29776D01*
X66382Y-29801D01*
X66679Y-29503D01*
X66679Y-29645D01*
X66452Y-29871D01*
X66477Y-29964D01*
X66674Y-30033D01*
X66882Y-30022D01*
X67022Y-29964D01*
X67047Y-29871D01*
X67047Y-32200D01*
X66029Y-32200D01*
X66029Y-30325D01*
X66018Y-30117D01*
X65960Y-29977D01*
X65867Y-29952D01*
X65797Y-30023D01*
X65797Y-29882D01*
X65772Y-29789D01*
X65575Y-29720D01*
X65367Y-29731D01*
X65227Y-29789D01*
X65202Y-29882D01*
X65500Y-30179D01*
X65797Y-29882D01*
X65797Y-30023D01*
X65570Y-30250D01*
X65867Y-30547D01*
X65960Y-30522D01*
X66029Y-30325D01*
X66029Y-32200D01*
X65800Y-32200D01*
X65797Y-32200D01*
X65797Y-30617D01*
X65500Y-30320D01*
X65429Y-30391D01*
X65429Y-30250D01*
X65132Y-29952D01*
X65039Y-29977D01*
X64970Y-30174D01*
X64981Y-30382D01*
X65039Y-30522D01*
X65132Y-30547D01*
X65429Y-30250D01*
X65429Y-30391D01*
X65202Y-30617D01*
X65227Y-30710D01*
X65424Y-30779D01*
X65632Y-30768D01*
X65772Y-30710D01*
X65797Y-30617D01*
X65797Y-32200D01*
X65627Y-32234D01*
X65579Y-32266D01*
X65481Y-32331D01*
X65181Y-32631D01*
X65084Y-32777D01*
X65050Y-32950D01*
X65050Y-32964D01*
X64975Y-33145D01*
X64974Y-33353D01*
X65054Y-33547D01*
X65202Y-33694D01*
X65395Y-33774D01*
X65603Y-33775D01*
X65797Y-33695D01*
X65944Y-33547D01*
X66024Y-33354D01*
X66025Y-33146D01*
X66006Y-33100D01*
X69229Y-33100D01*
X69327Y-33165D01*
X69327Y-33165D01*
X69499Y-33199D01*
X69500Y-33200D01*
X69813Y-33200D01*
X69993Y-33380D01*
X69975Y-33425D01*
X69974Y-33524D01*
X69974Y-34050D01*
X69750Y-34050D01*
X69577Y-34084D01*
X69431Y-34181D01*
X69181Y-34431D01*
X69084Y-34577D01*
X69050Y-34750D01*
X69050Y-34964D01*
X68999Y-35085D01*
X68945Y-34953D01*
X68797Y-34805D01*
X68604Y-34725D01*
X68396Y-34724D01*
X68203Y-34804D01*
X68055Y-34952D01*
X67999Y-35085D01*
X67950Y-34964D01*
X67950Y-34035D01*
X68024Y-33854D01*
X68025Y-33646D01*
X67945Y-33453D01*
X67797Y-33305D01*
X67604Y-33225D01*
X67396Y-33224D01*
X67203Y-33304D01*
X67055Y-33452D01*
X66975Y-33645D01*
X66974Y-33853D01*
X67050Y-34035D01*
X67050Y-34964D01*
X66999Y-35085D01*
X66945Y-34953D01*
X66797Y-34805D01*
X66604Y-34725D01*
X66396Y-34724D01*
X66203Y-34804D01*
X66055Y-34952D01*
X65975Y-35145D01*
X65974Y-35353D01*
X66054Y-35547D01*
X66202Y-35694D01*
X66395Y-35774D01*
X66603Y-35775D01*
X66797Y-35695D01*
X66944Y-35547D01*
X67000Y-35414D01*
X67054Y-35547D01*
X67202Y-35694D01*
X67395Y-35774D01*
X67603Y-35775D01*
X67797Y-35695D01*
X67944Y-35547D01*
X68000Y-35414D01*
X68054Y-35547D01*
X68202Y-35694D01*
X68395Y-35774D01*
X68603Y-35775D01*
X68797Y-35695D01*
X68944Y-35547D01*
X69000Y-35414D01*
X69054Y-35547D01*
X69202Y-35694D01*
X69395Y-35774D01*
X69603Y-35775D01*
X69797Y-35695D01*
X69944Y-35547D01*
X69974Y-35475D01*
X69974Y-35574D01*
X70012Y-35666D01*
X70083Y-35736D01*
X70175Y-35774D01*
X70274Y-35775D01*
X70729Y-35775D01*
X69605Y-36900D01*
X65084Y-36900D01*
X65084Y-35338D01*
X65074Y-35108D01*
X65006Y-34944D01*
X64907Y-34913D01*
X64836Y-34983D01*
X64836Y-34842D01*
X64805Y-34743D01*
X64588Y-34665D01*
X64358Y-34675D01*
X64194Y-34743D01*
X64163Y-34842D01*
X64500Y-35179D01*
X64836Y-34842D01*
X64836Y-34983D01*
X64570Y-35250D01*
X64907Y-35586D01*
X65006Y-35555D01*
X65084Y-35338D01*
X65084Y-36900D01*
X64836Y-36900D01*
X64836Y-35657D01*
X64500Y-35320D01*
X64163Y-35657D01*
X64194Y-35756D01*
X64411Y-35834D01*
X64641Y-35824D01*
X64805Y-35756D01*
X64836Y-35657D01*
X64836Y-36900D01*
X47392Y-36900D01*
X47342Y-36850D01*
X58750Y-36850D01*
X58804Y-36839D01*
X58860Y-36832D01*
X59610Y-36582D01*
X59622Y-36575D01*
X59633Y-36573D01*
X59674Y-36545D01*
X59729Y-36515D01*
X59737Y-36503D01*
X59747Y-36497D01*
X59819Y-36425D01*
X59834Y-36425D01*
X59990Y-36360D01*
X60110Y-36241D01*
X60174Y-36084D01*
X60175Y-35915D01*
X60110Y-35759D01*
X59991Y-35639D01*
X59834Y-35575D01*
X59665Y-35574D01*
X59552Y-35621D01*
X61975Y-33199D01*
X61974Y-33353D01*
X62054Y-33547D01*
X62200Y-33692D01*
X62200Y-34250D01*
X62222Y-34364D01*
X62287Y-34462D01*
X62537Y-34712D01*
X62537Y-34712D01*
X62537Y-34712D01*
X62931Y-35106D01*
X62920Y-35134D01*
X62919Y-35364D01*
X63008Y-35578D01*
X63171Y-35741D01*
X63384Y-35829D01*
X63614Y-35830D01*
X63828Y-35741D01*
X63991Y-35578D01*
X64000Y-35557D01*
X64092Y-35586D01*
X64429Y-35250D01*
X64092Y-34913D01*
X64000Y-34942D01*
X63991Y-34921D01*
X63828Y-34758D01*
X63615Y-34670D01*
X63385Y-34669D01*
X63356Y-34681D01*
X62962Y-34287D01*
X62962Y-34287D01*
X62962Y-34287D01*
X62800Y-34125D01*
X62800Y-33692D01*
X62944Y-33547D01*
X63024Y-33354D01*
X63025Y-33146D01*
X62945Y-32953D01*
X62797Y-32805D01*
X62604Y-32725D01*
X62449Y-32724D01*
X63962Y-31212D01*
X63962Y-31212D01*
X63962Y-31212D01*
X64249Y-30924D01*
X64334Y-30925D01*
X64490Y-30860D01*
X64610Y-30741D01*
X64674Y-30584D01*
X64675Y-30415D01*
X64610Y-30259D01*
X64491Y-30139D01*
X64334Y-30075D01*
X64279Y-30075D01*
X64279Y-29579D01*
X64268Y-29371D01*
X64210Y-29231D01*
X64117Y-29206D01*
X63820Y-29503D01*
X64117Y-29801D01*
X64210Y-29776D01*
X64279Y-29579D01*
X64279Y-30075D01*
X64165Y-30074D01*
X64047Y-30123D01*
X64047Y-29871D01*
X63750Y-29574D01*
X63679Y-29645D01*
X63679Y-29503D01*
X63382Y-29206D01*
X63289Y-29231D01*
X63220Y-29428D01*
X63231Y-29636D01*
X63289Y-29776D01*
X63382Y-29801D01*
X63679Y-29503D01*
X63679Y-29645D01*
X63452Y-29871D01*
X63477Y-29964D01*
X63674Y-30033D01*
X63882Y-30022D01*
X64022Y-29964D01*
X64047Y-29871D01*
X64047Y-30123D01*
X64009Y-30139D01*
X63889Y-30258D01*
X63825Y-30415D01*
X63824Y-30500D01*
X63537Y-30787D01*
X63537Y-30787D01*
X63029Y-31295D01*
X63029Y-30325D01*
X63018Y-30117D01*
X62960Y-29977D01*
X62867Y-29952D01*
X62797Y-30023D01*
X62797Y-29882D01*
X62772Y-29789D01*
X62575Y-29720D01*
X62367Y-29731D01*
X62227Y-29789D01*
X62202Y-29882D01*
X62500Y-30179D01*
X62797Y-29882D01*
X62797Y-30023D01*
X62570Y-30250D01*
X62867Y-30547D01*
X62960Y-30522D01*
X63029Y-30325D01*
X63029Y-31295D01*
X62797Y-31528D01*
X62797Y-30617D01*
X62500Y-30320D01*
X62429Y-30391D01*
X62429Y-30250D01*
X62132Y-29952D01*
X62039Y-29977D01*
X61970Y-30174D01*
X61981Y-30382D01*
X62039Y-30522D01*
X62132Y-30547D01*
X62429Y-30250D01*
X62429Y-30391D01*
X62202Y-30617D01*
X62227Y-30710D01*
X62424Y-30779D01*
X62632Y-30768D01*
X62772Y-30710D01*
X62797Y-30617D01*
X62797Y-31528D01*
X58625Y-35700D01*
X56224Y-35700D01*
X60712Y-31212D01*
X60712Y-31212D01*
X60712Y-31212D01*
X60999Y-30924D01*
X61084Y-30925D01*
X61240Y-30860D01*
X61360Y-30741D01*
X61424Y-30584D01*
X61425Y-30415D01*
X61360Y-30259D01*
X61279Y-30178D01*
X61279Y-29579D01*
X61268Y-29371D01*
X61210Y-29231D01*
X61117Y-29206D01*
X60820Y-29503D01*
X61117Y-29801D01*
X61210Y-29776D01*
X61279Y-29579D01*
X61279Y-30178D01*
X61241Y-30139D01*
X61084Y-30075D01*
X61047Y-30075D01*
X61047Y-29871D01*
X60750Y-29574D01*
X60679Y-29645D01*
X60679Y-29503D01*
X60382Y-29206D01*
X60289Y-29231D01*
X60220Y-29428D01*
X60231Y-29636D01*
X60289Y-29776D01*
X60382Y-29801D01*
X60679Y-29503D01*
X60679Y-29645D01*
X60452Y-29871D01*
X60477Y-29964D01*
X60674Y-30033D01*
X60882Y-30022D01*
X61022Y-29964D01*
X61047Y-29871D01*
X61047Y-30075D01*
X60915Y-30074D01*
X60759Y-30139D01*
X60639Y-30258D01*
X60575Y-30415D01*
X60574Y-30500D01*
X60287Y-30787D01*
X60287Y-30787D01*
X60029Y-31045D01*
X60029Y-30325D01*
X60018Y-30117D01*
X59960Y-29977D01*
X59867Y-29952D01*
X59797Y-30023D01*
X59797Y-29882D01*
X59772Y-29789D01*
X59575Y-29720D01*
X59367Y-29731D01*
X59227Y-29789D01*
X59202Y-29882D01*
X59500Y-30179D01*
X59797Y-29882D01*
X59797Y-30023D01*
X59570Y-30250D01*
X59867Y-30547D01*
X59960Y-30522D01*
X60029Y-30325D01*
X60029Y-31045D01*
X59797Y-31278D01*
X59797Y-30617D01*
X59500Y-30320D01*
X59429Y-30391D01*
X59429Y-30250D01*
X59132Y-29952D01*
X59039Y-29977D01*
X58970Y-30174D01*
X58981Y-30382D01*
X59039Y-30522D01*
X59132Y-30547D01*
X59429Y-30250D01*
X59429Y-30391D01*
X59202Y-30617D01*
X59227Y-30710D01*
X59424Y-30779D01*
X59632Y-30768D01*
X59772Y-30710D01*
X59797Y-30617D01*
X59797Y-31278D01*
X55625Y-35450D01*
X53474Y-35450D01*
X57712Y-31212D01*
X57999Y-30924D01*
X58084Y-30925D01*
X58240Y-30860D01*
X58360Y-30741D01*
X58424Y-30584D01*
X58425Y-30415D01*
X58360Y-30259D01*
X58279Y-30178D01*
X58279Y-29579D01*
X58268Y-29371D01*
X58210Y-29231D01*
X58117Y-29206D01*
X57820Y-29503D01*
X58117Y-29801D01*
X58210Y-29776D01*
X58279Y-29579D01*
X58279Y-30178D01*
X58241Y-30139D01*
X58084Y-30075D01*
X58047Y-30075D01*
X58047Y-29871D01*
X57750Y-29574D01*
X57679Y-29645D01*
X57679Y-29503D01*
X57382Y-29206D01*
X57289Y-29231D01*
X57220Y-29428D01*
X57231Y-29636D01*
X57289Y-29776D01*
X57382Y-29801D01*
X57679Y-29503D01*
X57679Y-29645D01*
X57452Y-29871D01*
X57477Y-29964D01*
X57674Y-30033D01*
X57882Y-30022D01*
X58022Y-29964D01*
X58047Y-29871D01*
X58047Y-30075D01*
X57915Y-30074D01*
X57759Y-30139D01*
X57639Y-30258D01*
X57575Y-30415D01*
X57574Y-30500D01*
X57287Y-30787D01*
X57029Y-31045D01*
X57029Y-30325D01*
X57018Y-30117D01*
X56960Y-29977D01*
X56867Y-29952D01*
X56797Y-30023D01*
X56797Y-29882D01*
X56772Y-29789D01*
X56575Y-29720D01*
X56367Y-29731D01*
X56227Y-29789D01*
X56202Y-29882D01*
X56500Y-30179D01*
X56797Y-29882D01*
X56797Y-30023D01*
X56570Y-30250D01*
X56867Y-30547D01*
X56960Y-30522D01*
X57029Y-30325D01*
X57029Y-31045D01*
X56797Y-31278D01*
X56797Y-30617D01*
X56500Y-30320D01*
X56429Y-30391D01*
X56429Y-30250D01*
X56132Y-29952D01*
X56039Y-29977D01*
X55970Y-30174D01*
X55981Y-30382D01*
X56039Y-30522D01*
X56132Y-30547D01*
X56429Y-30250D01*
X56429Y-30391D01*
X56202Y-30617D01*
X56227Y-30710D01*
X56424Y-30779D01*
X56632Y-30768D01*
X56772Y-30710D01*
X56797Y-30617D01*
X56797Y-31278D01*
X54050Y-34025D01*
X54050Y-28391D01*
X54029Y-28340D01*
X54029Y-25896D01*
X53949Y-25703D01*
X53801Y-25555D01*
X53793Y-25551D01*
X53781Y-25489D01*
X53716Y-25391D01*
X53716Y-25391D01*
X53212Y-24887D01*
X53114Y-24822D01*
X53000Y-24800D01*
X51301Y-24800D01*
X51241Y-24739D01*
X51084Y-24675D01*
X50915Y-24674D01*
X50759Y-24739D01*
X50639Y-24858D01*
X50575Y-25015D01*
X50575Y-25082D01*
X50547Y-25055D01*
X50354Y-24975D01*
X50146Y-24974D01*
X49953Y-25054D01*
X49805Y-25202D01*
X49725Y-25395D01*
X49724Y-25603D01*
X49764Y-25700D01*
X49029Y-25700D01*
X49029Y-25075D01*
X49018Y-24867D01*
X48960Y-24727D01*
X48867Y-24702D01*
X48797Y-24773D01*
X48797Y-24632D01*
X48772Y-24539D01*
X48575Y-24470D01*
X48367Y-24481D01*
X48227Y-24539D01*
X48202Y-24632D01*
X48500Y-24929D01*
X48797Y-24632D01*
X48797Y-24773D01*
X48570Y-25000D01*
X48867Y-25297D01*
X48960Y-25272D01*
X49029Y-25075D01*
X49029Y-25700D01*
X48797Y-25700D01*
X48797Y-25367D01*
X48500Y-25070D01*
X48429Y-25141D01*
X48429Y-25000D01*
X48132Y-24702D01*
X48039Y-24727D01*
X48000Y-24837D01*
X47945Y-24703D01*
X47797Y-24555D01*
X47604Y-24475D01*
X47396Y-24474D01*
X47203Y-24554D01*
X47055Y-24702D01*
X46975Y-24895D01*
X46974Y-25103D01*
X47054Y-25297D01*
X47202Y-25444D01*
X47395Y-25524D01*
X47603Y-25525D01*
X47797Y-25445D01*
X47944Y-25297D01*
X47997Y-25171D01*
X48039Y-25272D01*
X48132Y-25297D01*
X48429Y-25000D01*
X48429Y-25141D01*
X48202Y-25367D01*
X48227Y-25460D01*
X48424Y-25529D01*
X48632Y-25518D01*
X48772Y-25460D01*
X48797Y-25367D01*
X48797Y-25700D01*
X46624Y-25700D01*
X46412Y-25488D01*
X46416Y-25487D01*
X46486Y-25416D01*
X46524Y-25324D01*
X46525Y-25225D01*
X46525Y-24675D01*
X46487Y-24583D01*
X46416Y-24513D01*
X46324Y-24475D01*
X46225Y-24474D01*
X45675Y-24474D01*
X45583Y-24512D01*
X45513Y-24583D01*
X45475Y-24675D01*
X45474Y-24762D01*
X45460Y-24727D01*
X45367Y-24702D01*
X45297Y-24773D01*
X45297Y-24632D01*
X45272Y-24539D01*
X45075Y-24470D01*
X44867Y-24481D01*
X44727Y-24539D01*
X44702Y-24632D01*
X45000Y-24929D01*
X45297Y-24632D01*
X45297Y-24773D01*
X45070Y-25000D01*
X45367Y-25297D01*
X45460Y-25272D01*
X45474Y-25231D01*
X45474Y-25324D01*
X45512Y-25416D01*
X45583Y-25486D01*
X45675Y-25524D01*
X45704Y-25524D01*
X45722Y-25614D01*
X45787Y-25712D01*
X46287Y-26212D01*
X46287Y-26212D01*
X46385Y-26277D01*
X46500Y-26300D01*
X50775Y-26300D01*
X50037Y-27037D01*
X49972Y-27135D01*
X49950Y-27250D01*
X49950Y-28057D01*
X49805Y-28202D01*
X49725Y-28395D01*
X49724Y-28603D01*
X49804Y-28797D01*
X49952Y-28944D01*
X50145Y-29024D01*
X50353Y-29025D01*
X50547Y-28945D01*
X50694Y-28797D01*
X50774Y-28604D01*
X50775Y-28396D01*
X50695Y-28203D01*
X50550Y-28057D01*
X50550Y-27374D01*
X51399Y-26525D01*
X51824Y-26525D01*
X51916Y-26487D01*
X51986Y-26416D01*
X52024Y-26324D01*
X52025Y-26225D01*
X52025Y-26225D01*
X52054Y-26297D01*
X52202Y-26444D01*
X52395Y-26524D01*
X52554Y-26525D01*
X52287Y-26791D01*
X52222Y-26889D01*
X52200Y-27003D01*
X52200Y-27028D01*
X52188Y-27033D01*
X52034Y-27188D01*
X51950Y-27390D01*
X51949Y-27608D01*
X52033Y-27811D01*
X52188Y-27965D01*
X52390Y-28049D01*
X52608Y-28050D01*
X52811Y-27966D01*
X52965Y-27811D01*
X53049Y-27609D01*
X53050Y-27391D01*
X52966Y-27188D01*
X52853Y-27075D01*
X53403Y-26524D01*
X53607Y-26525D01*
X53800Y-26445D01*
X53948Y-26297D01*
X54028Y-26104D01*
X54029Y-25896D01*
X54029Y-28340D01*
X53966Y-28188D01*
X53811Y-28034D01*
X53609Y-27950D01*
X53391Y-27949D01*
X53188Y-28033D01*
X53034Y-28188D01*
X52950Y-28390D01*
X52949Y-28608D01*
X53033Y-28811D01*
X53188Y-28965D01*
X53390Y-29049D01*
X53608Y-29050D01*
X53811Y-28966D01*
X53965Y-28811D01*
X54049Y-28609D01*
X54050Y-28391D01*
X54050Y-34025D01*
X52875Y-35200D01*
X52054Y-35200D01*
X52054Y-28581D01*
X52043Y-28363D01*
X51981Y-28212D01*
X51885Y-28184D01*
X51815Y-28255D01*
X51815Y-28114D01*
X51787Y-28018D01*
X51581Y-27945D01*
X51363Y-27956D01*
X51212Y-28018D01*
X51184Y-28114D01*
X51500Y-28429D01*
X51815Y-28114D01*
X51815Y-28255D01*
X51570Y-28500D01*
X51885Y-28815D01*
X51981Y-28787D01*
X52054Y-28581D01*
X52054Y-35200D01*
X51815Y-35200D01*
X51815Y-28885D01*
X51500Y-28570D01*
X51429Y-28641D01*
X51429Y-28500D01*
X51114Y-28184D01*
X51018Y-28212D01*
X50945Y-28418D01*
X50956Y-28636D01*
X51018Y-28787D01*
X51114Y-28815D01*
X51429Y-28500D01*
X51429Y-28641D01*
X51184Y-28885D01*
X51212Y-28981D01*
X51418Y-29054D01*
X51636Y-29043D01*
X51787Y-28981D01*
X51815Y-28885D01*
X51815Y-35200D01*
X49525Y-35200D01*
X49525Y-34396D01*
X49525Y-26896D01*
X49445Y-26703D01*
X49297Y-26555D01*
X49104Y-26475D01*
X48896Y-26474D01*
X48703Y-26554D01*
X48555Y-26702D01*
X48499Y-26835D01*
X48445Y-26703D01*
X48297Y-26555D01*
X48104Y-26475D01*
X47896Y-26474D01*
X47703Y-26554D01*
X47555Y-26702D01*
X47499Y-26835D01*
X47445Y-26703D01*
X47297Y-26555D01*
X47104Y-26475D01*
X46896Y-26474D01*
X46703Y-26554D01*
X46555Y-26702D01*
X46525Y-26774D01*
X46525Y-26774D01*
X46524Y-26675D01*
X46486Y-26583D01*
X46416Y-26512D01*
X46324Y-26474D01*
X46112Y-26475D01*
X46050Y-26537D01*
X46050Y-26950D01*
X46057Y-26950D01*
X46057Y-27050D01*
X46050Y-27050D01*
X46050Y-27462D01*
X46112Y-27525D01*
X46324Y-27525D01*
X46416Y-27487D01*
X46486Y-27416D01*
X46524Y-27324D01*
X46525Y-27225D01*
X46525Y-27225D01*
X46554Y-27297D01*
X46702Y-27444D01*
X46895Y-27524D01*
X47103Y-27525D01*
X47297Y-27445D01*
X47444Y-27297D01*
X47500Y-27164D01*
X47554Y-27297D01*
X47702Y-27444D01*
X47895Y-27524D01*
X48103Y-27525D01*
X48297Y-27445D01*
X48444Y-27297D01*
X48500Y-27164D01*
X48554Y-27297D01*
X48702Y-27444D01*
X48895Y-27524D01*
X49103Y-27525D01*
X49297Y-27445D01*
X49444Y-27297D01*
X49524Y-27104D01*
X49525Y-26896D01*
X49525Y-34396D01*
X49525Y-34395D01*
X49525Y-28725D01*
X49525Y-28175D01*
X49487Y-28083D01*
X49416Y-28013D01*
X49324Y-27975D01*
X49225Y-27974D01*
X48675Y-27974D01*
X48583Y-28012D01*
X48513Y-28083D01*
X48475Y-28175D01*
X48474Y-28274D01*
X48474Y-28274D01*
X48445Y-28203D01*
X48297Y-28055D01*
X48104Y-27975D01*
X47896Y-27974D01*
X47703Y-28054D01*
X47555Y-28202D01*
X47499Y-28335D01*
X47445Y-28203D01*
X47297Y-28055D01*
X47104Y-27975D01*
X46896Y-27974D01*
X46703Y-28054D01*
X46555Y-28202D01*
X46502Y-28328D01*
X46460Y-28227D01*
X46367Y-28202D01*
X46297Y-28273D01*
X46297Y-28132D01*
X46272Y-28039D01*
X46075Y-27970D01*
X45950Y-27976D01*
X45950Y-27462D01*
X45950Y-27050D01*
X45950Y-26950D01*
X45950Y-26537D01*
X45887Y-26475D01*
X45675Y-26474D01*
X45583Y-26512D01*
X45513Y-26583D01*
X45475Y-26675D01*
X45474Y-26774D01*
X45475Y-26887D01*
X45537Y-26950D01*
X45950Y-26950D01*
X45950Y-27050D01*
X45537Y-27050D01*
X45475Y-27112D01*
X45474Y-27225D01*
X45475Y-27324D01*
X45513Y-27416D01*
X45583Y-27487D01*
X45675Y-27525D01*
X45887Y-27525D01*
X45950Y-27462D01*
X45950Y-27976D01*
X45867Y-27981D01*
X45727Y-28039D01*
X45702Y-28132D01*
X46000Y-28429D01*
X46297Y-28132D01*
X46297Y-28273D01*
X46070Y-28500D01*
X46367Y-28797D01*
X46460Y-28772D01*
X46499Y-28662D01*
X46554Y-28797D01*
X46702Y-28944D01*
X46895Y-29024D01*
X47103Y-29025D01*
X47297Y-28945D01*
X47444Y-28797D01*
X47500Y-28664D01*
X47554Y-28797D01*
X47702Y-28944D01*
X47895Y-29024D01*
X48103Y-29025D01*
X48297Y-28945D01*
X48444Y-28797D01*
X48474Y-28725D01*
X48474Y-28824D01*
X48512Y-28916D01*
X48583Y-28986D01*
X48675Y-29024D01*
X48774Y-29025D01*
X49324Y-29025D01*
X49416Y-28987D01*
X49486Y-28916D01*
X49524Y-28824D01*
X49525Y-28725D01*
X49525Y-34395D01*
X49445Y-34203D01*
X49297Y-34055D01*
X49104Y-33975D01*
X48896Y-33974D01*
X48703Y-34054D01*
X48555Y-34202D01*
X48502Y-34328D01*
X48460Y-34227D01*
X48367Y-34202D01*
X48297Y-34273D01*
X48297Y-34132D01*
X48272Y-34039D01*
X48075Y-33970D01*
X47867Y-33981D01*
X47727Y-34039D01*
X47702Y-34132D01*
X48000Y-34429D01*
X48297Y-34132D01*
X48297Y-34273D01*
X48070Y-34500D01*
X48367Y-34797D01*
X48460Y-34772D01*
X48499Y-34662D01*
X48554Y-34797D01*
X48702Y-34944D01*
X48895Y-35024D01*
X49103Y-35025D01*
X49297Y-34945D01*
X49444Y-34797D01*
X49524Y-34604D01*
X49525Y-34396D01*
X49525Y-35200D01*
X48297Y-35200D01*
X48297Y-34867D01*
X48000Y-34570D01*
X47702Y-34867D01*
X47727Y-34960D01*
X47924Y-35029D01*
X48132Y-35018D01*
X48272Y-34960D01*
X48297Y-34867D01*
X48297Y-35200D01*
X43124Y-35200D01*
X42949Y-35024D01*
X43103Y-35025D01*
X43297Y-34945D01*
X43444Y-34797D01*
X43500Y-34664D01*
X43554Y-34797D01*
X43702Y-34944D01*
X43895Y-35024D01*
X44103Y-35025D01*
X44297Y-34945D01*
X44444Y-34797D01*
X44500Y-34664D01*
X44554Y-34797D01*
X44702Y-34944D01*
X44895Y-35024D01*
X45103Y-35025D01*
X45297Y-34945D01*
X45444Y-34797D01*
X45500Y-34664D01*
X45554Y-34797D01*
X45702Y-34944D01*
X45895Y-35024D01*
X46103Y-35025D01*
X46297Y-34945D01*
X46444Y-34797D01*
X46500Y-34664D01*
X46554Y-34797D01*
X46702Y-34944D01*
X46895Y-35024D01*
X47103Y-35025D01*
X47297Y-34945D01*
X47444Y-34797D01*
X47497Y-34671D01*
X47539Y-34772D01*
X47632Y-34797D01*
X47929Y-34500D01*
X47632Y-34202D01*
X47539Y-34227D01*
X47500Y-34337D01*
X47445Y-34203D01*
X47297Y-34055D01*
X47104Y-33975D01*
X46896Y-33974D01*
X46703Y-34054D01*
X46555Y-34202D01*
X46499Y-34335D01*
X46445Y-34203D01*
X46300Y-34057D01*
X46300Y-34000D01*
X46299Y-33999D01*
X46297Y-33985D01*
X46297Y-28867D01*
X46000Y-28570D01*
X45702Y-28867D01*
X45727Y-28960D01*
X45924Y-29029D01*
X46132Y-29018D01*
X46272Y-28960D01*
X46297Y-28867D01*
X46297Y-33985D01*
X46277Y-33885D01*
X46212Y-33787D01*
X46212Y-33787D01*
X45779Y-33355D01*
X45779Y-31325D01*
X45768Y-31117D01*
X45710Y-30977D01*
X45617Y-30952D01*
X45547Y-31023D01*
X45547Y-30882D01*
X45522Y-30789D01*
X45325Y-30720D01*
X45117Y-30731D01*
X44977Y-30789D01*
X44952Y-30882D01*
X45250Y-31179D01*
X45547Y-30882D01*
X45547Y-31023D01*
X45320Y-31250D01*
X45617Y-31547D01*
X45710Y-31522D01*
X45779Y-31325D01*
X45779Y-33355D01*
X45547Y-33122D01*
X45547Y-31617D01*
X45250Y-31320D01*
X44952Y-31617D01*
X44977Y-31710D01*
X45174Y-31779D01*
X45382Y-31768D01*
X45522Y-31710D01*
X45547Y-31617D01*
X45547Y-33122D01*
X44212Y-31787D01*
X44192Y-31774D01*
X44353Y-31775D01*
X44547Y-31695D01*
X44694Y-31547D01*
X44747Y-31421D01*
X44789Y-31522D01*
X44882Y-31547D01*
X45179Y-31250D01*
X44882Y-30952D01*
X44789Y-30977D01*
X44750Y-31087D01*
X44695Y-30953D01*
X44547Y-30805D01*
X44354Y-30725D01*
X44146Y-30724D01*
X43953Y-30804D01*
X43805Y-30952D01*
X43725Y-31145D01*
X43724Y-31350D01*
X43375Y-31700D01*
X43000Y-31700D01*
X42874Y-31700D01*
X42524Y-31350D01*
X42525Y-31146D01*
X42445Y-30953D01*
X42297Y-30805D01*
X42104Y-30725D01*
X41896Y-30724D01*
X41703Y-30804D01*
X41555Y-30952D01*
X41475Y-31145D01*
X41474Y-31353D01*
X41554Y-31547D01*
X41702Y-31694D01*
X41714Y-31700D01*
X40124Y-31700D01*
X39800Y-31375D01*
X39800Y-28985D01*
X39895Y-29024D01*
X40103Y-29025D01*
X40297Y-28945D01*
X40444Y-28797D01*
X40500Y-28664D01*
X40554Y-28797D01*
X40702Y-28944D01*
X40895Y-29024D01*
X41103Y-29025D01*
X41297Y-28945D01*
X41444Y-28797D01*
X41500Y-28664D01*
X41554Y-28797D01*
X41702Y-28944D01*
X41895Y-29024D01*
X42103Y-29025D01*
X42297Y-28945D01*
X42444Y-28797D01*
X42500Y-28664D01*
X42554Y-28797D01*
X42702Y-28944D01*
X42895Y-29024D01*
X43103Y-29025D01*
X43297Y-28945D01*
X43444Y-28797D01*
X43500Y-28664D01*
X43554Y-28797D01*
X43702Y-28944D01*
X43895Y-29024D01*
X44103Y-29025D01*
X44297Y-28945D01*
X44444Y-28797D01*
X44500Y-28664D01*
X44554Y-28797D01*
X44702Y-28944D01*
X44895Y-29024D01*
X45103Y-29025D01*
X45297Y-28945D01*
X45444Y-28797D01*
X45497Y-28671D01*
X45539Y-28772D01*
X45632Y-28797D01*
X45929Y-28500D01*
X45632Y-28202D01*
X45539Y-28227D01*
X45500Y-28337D01*
X45445Y-28203D01*
X45297Y-28055D01*
X45297Y-28054D01*
X45297Y-25367D01*
X45000Y-25070D01*
X44702Y-25367D01*
X44727Y-25460D01*
X44924Y-25529D01*
X45132Y-25518D01*
X45272Y-25460D01*
X45297Y-25367D01*
X45297Y-28054D01*
X45104Y-27975D01*
X44896Y-27974D01*
X44703Y-28054D01*
X44555Y-28202D01*
X44499Y-28335D01*
X44445Y-28203D01*
X44300Y-28057D01*
X44300Y-25442D01*
X44444Y-25297D01*
X44497Y-25171D01*
X44539Y-25272D01*
X44632Y-25297D01*
X44929Y-25000D01*
X44632Y-24702D01*
X44539Y-24727D01*
X44500Y-24837D01*
X44445Y-24703D01*
X44297Y-24555D01*
X44104Y-24475D01*
X43896Y-24474D01*
X43703Y-24554D01*
X43555Y-24702D01*
X43499Y-24835D01*
X43445Y-24703D01*
X43297Y-24555D01*
X43104Y-24475D01*
X42896Y-24474D01*
X42703Y-24554D01*
X42555Y-24702D01*
X42499Y-24835D01*
X42445Y-24703D01*
X42297Y-24555D01*
X42104Y-24475D01*
X41896Y-24474D01*
X41703Y-24554D01*
X41555Y-24702D01*
X41499Y-24835D01*
X41445Y-24703D01*
X41297Y-24555D01*
X41104Y-24475D01*
X40896Y-24474D01*
X40703Y-24554D01*
X40555Y-24702D01*
X40499Y-24835D01*
X40445Y-24703D01*
X40297Y-24555D01*
X40104Y-24475D01*
X39896Y-24474D01*
X39703Y-24554D01*
X39555Y-24702D01*
X39475Y-24895D01*
X39474Y-25103D01*
X39554Y-25297D01*
X39700Y-25442D01*
X39700Y-27775D01*
X38800Y-26875D01*
X38800Y-25442D01*
X38944Y-25297D01*
X39024Y-25104D01*
X39025Y-24896D01*
X38945Y-24703D01*
X38797Y-24555D01*
X38604Y-24475D01*
X38396Y-24474D01*
X38203Y-24554D01*
X38055Y-24702D01*
X38002Y-24828D01*
X37960Y-24727D01*
X37867Y-24702D01*
X37797Y-24773D01*
X37797Y-24632D01*
X37772Y-24539D01*
X37575Y-24470D01*
X37367Y-24481D01*
X37227Y-24539D01*
X37202Y-24632D01*
X37500Y-24929D01*
X37797Y-24632D01*
X37797Y-24773D01*
X37570Y-25000D01*
X37867Y-25297D01*
X37960Y-25272D01*
X37999Y-25162D01*
X38054Y-25297D01*
X38200Y-25442D01*
X38200Y-26775D01*
X37797Y-26372D01*
X37797Y-25367D01*
X37500Y-25070D01*
X37202Y-25367D01*
X37227Y-25460D01*
X37424Y-25529D01*
X37632Y-25518D01*
X37772Y-25460D01*
X37797Y-25367D01*
X37797Y-26372D01*
X36912Y-25488D01*
X36916Y-25487D01*
X36986Y-25416D01*
X37024Y-25324D01*
X37025Y-25237D01*
X37039Y-25272D01*
X37132Y-25297D01*
X37429Y-25000D01*
X37132Y-24702D01*
X37039Y-24727D01*
X37025Y-24768D01*
X37025Y-24675D01*
X36987Y-24583D01*
X36916Y-24513D01*
X36824Y-24475D01*
X36725Y-24474D01*
X36175Y-24474D01*
X36083Y-24512D01*
X36013Y-24583D01*
X35975Y-24675D01*
X35974Y-24774D01*
X35974Y-25324D01*
X36012Y-25416D01*
X36083Y-25486D01*
X36175Y-25524D01*
X36200Y-25524D01*
X36200Y-25909D01*
X36099Y-25951D01*
X35951Y-26098D01*
X35871Y-26291D01*
X35871Y-26447D01*
X35300Y-25875D01*
X35300Y-25442D01*
X35444Y-25297D01*
X35524Y-25104D01*
X35525Y-24896D01*
X35445Y-24703D01*
X35297Y-24555D01*
X35104Y-24475D01*
X34896Y-24474D01*
X34703Y-24554D01*
X34555Y-24702D01*
X34525Y-24774D01*
X34525Y-24675D01*
X34487Y-24583D01*
X34416Y-24513D01*
X34324Y-24475D01*
X34225Y-24474D01*
X33675Y-24474D01*
X33583Y-24512D01*
X33513Y-24583D01*
X33475Y-24675D01*
X33474Y-24774D01*
X33474Y-25324D01*
X33512Y-25416D01*
X33583Y-25486D01*
X33675Y-25524D01*
X33700Y-25524D01*
X33700Y-26000D01*
X33722Y-26114D01*
X33787Y-26212D01*
X35666Y-28090D01*
X35555Y-28202D01*
X35499Y-28335D01*
X35445Y-28203D01*
X35297Y-28055D01*
X35104Y-27975D01*
X34899Y-27974D01*
X33212Y-26287D01*
X33114Y-26222D01*
X33000Y-26200D01*
X28029Y-26200D01*
X28029Y-25575D01*
X28025Y-25486D01*
X28025Y-24725D01*
X28025Y-24175D01*
X27987Y-24083D01*
X27916Y-24013D01*
X27824Y-23975D01*
X27725Y-23974D01*
X27175Y-23974D01*
X27083Y-24012D01*
X27013Y-24083D01*
X26984Y-24153D01*
X26866Y-24176D01*
X26752Y-24252D01*
X26252Y-24752D01*
X26176Y-24866D01*
X26150Y-25000D01*
X26150Y-33855D01*
X25051Y-34953D01*
X24752Y-35252D01*
X24676Y-35366D01*
X24676Y-35366D01*
X24650Y-35500D01*
X24650Y-36000D01*
X24650Y-38000D01*
X24676Y-38133D01*
X24752Y-38247D01*
X24974Y-38469D01*
X24974Y-38824D01*
X25012Y-38916D01*
X25083Y-38986D01*
X25175Y-39024D01*
X25274Y-39025D01*
X25824Y-39025D01*
X25916Y-38987D01*
X25986Y-38916D01*
X26024Y-38824D01*
X26025Y-38725D01*
X26025Y-38175D01*
X25987Y-38083D01*
X25916Y-38013D01*
X25824Y-37975D01*
X25725Y-37974D01*
X25725Y-37974D01*
X25797Y-37945D01*
X25944Y-37797D01*
X26024Y-37604D01*
X26025Y-37396D01*
X25945Y-37203D01*
X25797Y-37055D01*
X25660Y-36997D01*
X25797Y-36941D01*
X25944Y-36793D01*
X26024Y-36600D01*
X26025Y-36392D01*
X25945Y-36199D01*
X25797Y-36051D01*
X25604Y-35971D01*
X25396Y-35970D01*
X25350Y-35989D01*
X25350Y-35644D01*
X26747Y-34247D01*
X26747Y-34247D01*
X26747Y-34247D01*
X26823Y-34133D01*
X26850Y-34000D01*
X26850Y-25144D01*
X27045Y-24949D01*
X27083Y-24986D01*
X27175Y-25024D01*
X27262Y-25025D01*
X27227Y-25039D01*
X27202Y-25132D01*
X27500Y-25429D01*
X27797Y-25132D01*
X27772Y-25039D01*
X27731Y-25025D01*
X27824Y-25025D01*
X27916Y-24987D01*
X27986Y-24916D01*
X28024Y-24824D01*
X28025Y-24725D01*
X28025Y-25486D01*
X28018Y-25367D01*
X27960Y-25227D01*
X27867Y-25202D01*
X27570Y-25500D01*
X27867Y-25797D01*
X27960Y-25772D01*
X28029Y-25575D01*
X28029Y-26200D01*
X27942Y-26200D01*
X27797Y-26055D01*
X27671Y-26002D01*
X27772Y-25960D01*
X27797Y-25867D01*
X27500Y-25570D01*
X27429Y-25641D01*
X27429Y-25500D01*
X27132Y-25202D01*
X27039Y-25227D01*
X26970Y-25424D01*
X26981Y-25632D01*
X27039Y-25772D01*
X27132Y-25797D01*
X27429Y-25500D01*
X27429Y-25641D01*
X27202Y-25867D01*
X27227Y-25960D01*
X27337Y-25999D01*
X27203Y-26054D01*
X27055Y-26202D01*
X26975Y-26395D01*
X26974Y-26603D01*
X27054Y-26797D01*
X27202Y-26944D01*
X27335Y-27000D01*
X27203Y-27054D01*
X27055Y-27202D01*
X26975Y-27395D01*
X26974Y-27603D01*
X27054Y-27797D01*
X27202Y-27944D01*
X27335Y-28000D01*
X27203Y-28054D01*
X27055Y-28202D01*
X26975Y-28395D01*
X26974Y-28603D01*
X27054Y-28797D01*
X27202Y-28944D01*
X27335Y-29000D01*
X27203Y-29054D01*
X27055Y-29202D01*
X26975Y-29395D01*
X26974Y-29603D01*
X27054Y-29797D01*
X27202Y-29944D01*
X27335Y-30000D01*
X27203Y-30054D01*
X27055Y-30202D01*
X26975Y-30395D01*
X26974Y-30603D01*
X27054Y-30797D01*
X27202Y-30944D01*
X27395Y-31024D01*
X27603Y-31025D01*
X27797Y-30945D01*
X27944Y-30797D01*
X28024Y-30604D01*
X28025Y-30399D01*
X29124Y-29300D01*
X30500Y-29300D01*
X30500Y-29299D01*
X30614Y-29277D01*
X30614Y-29277D01*
X30712Y-29212D01*
X30899Y-29024D01*
X31103Y-29025D01*
X31297Y-28945D01*
X31444Y-28797D01*
X31500Y-28664D01*
X31554Y-28797D01*
X31702Y-28944D01*
X31895Y-29024D01*
X32103Y-29025D01*
X32297Y-28945D01*
X32444Y-28797D01*
X32500Y-28664D01*
X32554Y-28797D01*
X32702Y-28944D01*
X32895Y-29024D01*
X33103Y-29025D01*
X33297Y-28945D01*
X33444Y-28797D01*
X33500Y-28664D01*
X33554Y-28797D01*
X33702Y-28944D01*
X33895Y-29024D01*
X34103Y-29025D01*
X34297Y-28945D01*
X34444Y-28797D01*
X34500Y-28664D01*
X34554Y-28797D01*
X34702Y-28944D01*
X34895Y-29024D01*
X35103Y-29025D01*
X35297Y-28945D01*
X35444Y-28797D01*
X35500Y-28664D01*
X35554Y-28797D01*
X35702Y-28944D01*
X35895Y-29024D01*
X36103Y-29025D01*
X36297Y-28945D01*
X36444Y-28797D01*
X36500Y-28664D01*
X36554Y-28797D01*
X36702Y-28944D01*
X36895Y-29024D01*
X37103Y-29025D01*
X37297Y-28945D01*
X37444Y-28797D01*
X37500Y-28664D01*
X37554Y-28797D01*
X37702Y-28944D01*
X37895Y-29024D01*
X38103Y-29025D01*
X38297Y-28945D01*
X38444Y-28797D01*
X38500Y-28664D01*
X38554Y-28797D01*
X38700Y-28942D01*
X38700Y-30807D01*
X38555Y-30952D01*
X38475Y-31145D01*
X38474Y-31353D01*
X38554Y-31547D01*
X38702Y-31694D01*
X38714Y-31700D01*
X37525Y-31700D01*
X37525Y-29646D01*
X37445Y-29453D01*
X37297Y-29305D01*
X37104Y-29225D01*
X36896Y-29224D01*
X36703Y-29304D01*
X36555Y-29452D01*
X36475Y-29645D01*
X36474Y-29853D01*
X36554Y-30047D01*
X36702Y-30194D01*
X36895Y-30274D01*
X37103Y-30275D01*
X37297Y-30195D01*
X37444Y-30047D01*
X37524Y-29854D01*
X37525Y-29646D01*
X37525Y-31700D01*
X35275Y-31700D01*
X35275Y-29646D01*
X35195Y-29453D01*
X35047Y-29305D01*
X34854Y-29225D01*
X34646Y-29224D01*
X34453Y-29304D01*
X34305Y-29452D01*
X34225Y-29645D01*
X34224Y-29853D01*
X34304Y-30047D01*
X34452Y-30194D01*
X34645Y-30274D01*
X34853Y-30275D01*
X35047Y-30195D01*
X35194Y-30047D01*
X35274Y-29854D01*
X35275Y-29646D01*
X35275Y-31700D01*
X34025Y-31700D01*
X34025Y-30146D01*
X33945Y-29953D01*
X33797Y-29805D01*
X33604Y-29725D01*
X33396Y-29724D01*
X33203Y-29804D01*
X33055Y-29952D01*
X32975Y-30145D01*
X32974Y-30353D01*
X33054Y-30547D01*
X33202Y-30694D01*
X33395Y-30774D01*
X33603Y-30775D01*
X33797Y-30695D01*
X33944Y-30547D01*
X34024Y-30354D01*
X34025Y-30146D01*
X34025Y-31700D01*
X31025Y-31700D01*
X31025Y-30146D01*
X30945Y-29953D01*
X30797Y-29805D01*
X30604Y-29725D01*
X30396Y-29724D01*
X30203Y-29804D01*
X30055Y-29952D01*
X29975Y-30145D01*
X29974Y-30353D01*
X30054Y-30547D01*
X30202Y-30694D01*
X30395Y-30774D01*
X30603Y-30775D01*
X30797Y-30695D01*
X30944Y-30547D01*
X31024Y-30354D01*
X31025Y-30146D01*
X31025Y-31700D01*
X30485Y-31700D01*
X30524Y-31604D01*
X30525Y-31396D01*
X30445Y-31203D01*
X30297Y-31055D01*
X30104Y-30975D01*
X29896Y-30974D01*
X29703Y-31054D01*
X29555Y-31202D01*
X29475Y-31395D01*
X29474Y-31603D01*
X29514Y-31700D01*
X29500Y-31700D01*
X29385Y-31722D01*
X29287Y-31787D01*
X28025Y-33050D01*
X28025Y-32725D01*
X28025Y-32175D01*
X27987Y-32083D01*
X27916Y-32013D01*
X27824Y-31975D01*
X27725Y-31974D01*
X27175Y-31974D01*
X27083Y-32012D01*
X27013Y-32083D01*
X26975Y-32175D01*
X26974Y-32274D01*
X26974Y-32824D01*
X27012Y-32916D01*
X27083Y-32986D01*
X27175Y-33024D01*
X27262Y-33025D01*
X27227Y-33039D01*
X27202Y-33132D01*
X27500Y-33429D01*
X27797Y-33132D01*
X27772Y-33039D01*
X27731Y-33025D01*
X27824Y-33025D01*
X27916Y-32987D01*
X27986Y-32916D01*
X28024Y-32824D01*
X28025Y-32725D01*
X28025Y-33050D01*
X27871Y-33203D01*
X27867Y-33202D01*
X27570Y-33500D01*
X27576Y-33505D01*
X27505Y-33576D01*
X27500Y-33570D01*
X27429Y-33641D01*
X27429Y-33500D01*
X27132Y-33202D01*
X27039Y-33227D01*
X26970Y-33424D01*
X26981Y-33632D01*
X27039Y-33772D01*
X27132Y-33797D01*
X27429Y-33500D01*
X27429Y-33641D01*
X27202Y-33867D01*
X27227Y-33960D01*
X27337Y-33999D01*
X27203Y-34054D01*
X27055Y-34202D01*
X26975Y-34395D01*
X26974Y-34603D01*
X27054Y-34797D01*
X27200Y-34942D01*
X27200Y-35875D01*
X26287Y-36787D01*
X26222Y-36885D01*
X26200Y-37000D01*
X26200Y-39200D01*
X26200Y-39250D01*
X26200Y-40400D01*
X26222Y-40514D01*
X26287Y-40612D01*
X28169Y-42493D01*
X28124Y-42475D01*
X28025Y-42474D01*
X27475Y-42474D01*
X27383Y-42512D01*
X27313Y-42583D01*
X27275Y-42675D01*
X27274Y-42774D01*
X27274Y-43324D01*
X27312Y-43416D01*
X27383Y-43486D01*
X27475Y-43524D01*
X27500Y-43524D01*
X27500Y-44100D01*
X27522Y-44214D01*
X27587Y-44312D01*
X28131Y-44856D01*
X28120Y-44884D01*
X28119Y-45114D01*
X28208Y-45328D01*
X28371Y-45491D01*
X28400Y-45503D01*
X28400Y-47600D01*
X28422Y-47714D01*
X28487Y-47812D01*
X29887Y-49212D01*
X29887Y-49212D01*
X29985Y-49277D01*
X30100Y-49300D01*
X30957Y-49300D01*
X31102Y-49444D01*
X31235Y-49500D01*
X31103Y-49554D01*
X30955Y-49702D01*
X30875Y-49895D01*
X30874Y-50103D01*
X30954Y-50297D01*
X31102Y-50444D01*
X31235Y-50500D01*
X31103Y-50554D01*
X30955Y-50702D01*
X30875Y-50895D01*
X30874Y-51103D01*
X30954Y-51297D01*
X31102Y-51444D01*
X31235Y-51500D01*
X31103Y-51554D01*
X30955Y-51702D01*
X30875Y-51895D01*
X30874Y-52103D01*
X30954Y-52297D01*
X31102Y-52444D01*
X31235Y-52500D01*
X31103Y-52554D01*
X30955Y-52702D01*
X30875Y-52895D01*
X30874Y-53103D01*
X30954Y-53297D01*
X31102Y-53444D01*
X31295Y-53524D01*
X31503Y-53525D01*
X31697Y-53445D01*
X31844Y-53297D01*
X31924Y-53104D01*
X31925Y-52896D01*
X31845Y-52703D01*
X31697Y-52555D01*
X31564Y-52499D01*
X31697Y-52445D01*
X31844Y-52297D01*
X31924Y-52104D01*
X31925Y-51896D01*
X31845Y-51703D01*
X31697Y-51555D01*
X31564Y-51499D01*
X31697Y-51445D01*
X31844Y-51297D01*
X31924Y-51104D01*
X31925Y-50896D01*
X31845Y-50703D01*
X31697Y-50555D01*
X31564Y-50499D01*
X31697Y-50445D01*
X31844Y-50297D01*
X31924Y-50104D01*
X31925Y-49896D01*
X31845Y-49703D01*
X31697Y-49555D01*
X31564Y-49499D01*
X31697Y-49445D01*
X31844Y-49297D01*
X31924Y-49104D01*
X31925Y-48896D01*
X31845Y-48703D01*
X31697Y-48555D01*
X31564Y-48499D01*
X31697Y-48445D01*
X31842Y-48300D01*
X32000Y-48300D01*
X32000Y-48299D01*
X32114Y-48277D01*
X32114Y-48277D01*
X32212Y-48212D01*
X33212Y-47212D01*
X33212Y-47212D01*
X33277Y-47114D01*
X33299Y-47000D01*
X33300Y-47000D01*
X33300Y-39750D01*
X33300Y-39500D01*
X33300Y-34942D01*
X33444Y-34797D01*
X33500Y-34664D01*
X33554Y-34797D01*
X33700Y-34942D01*
X33700Y-38250D01*
X33700Y-43250D01*
X33722Y-43364D01*
X33787Y-43462D01*
X35537Y-45212D01*
X35537Y-45212D01*
X35635Y-45277D01*
X35750Y-45300D01*
X36474Y-45300D01*
X36474Y-45824D01*
X36512Y-45916D01*
X36583Y-45986D01*
X36675Y-46024D01*
X36774Y-46025D01*
X37324Y-46025D01*
X37416Y-45987D01*
X37486Y-45916D01*
X37524Y-45824D01*
X37525Y-45725D01*
X37525Y-45725D01*
X37554Y-45797D01*
X37702Y-45944D01*
X37895Y-46024D01*
X38103Y-46025D01*
X38297Y-45945D01*
X38444Y-45797D01*
X38500Y-45664D01*
X38554Y-45797D01*
X38702Y-45944D01*
X38895Y-46024D01*
X39103Y-46025D01*
X39297Y-45945D01*
X39444Y-45797D01*
X39497Y-45671D01*
X39539Y-45772D01*
X39632Y-45797D01*
X39929Y-45500D01*
X39632Y-45202D01*
X39539Y-45227D01*
X39500Y-45337D01*
X39445Y-45203D01*
X39297Y-45055D01*
X39104Y-44975D01*
X38896Y-44974D01*
X38703Y-45054D01*
X38555Y-45202D01*
X38499Y-45335D01*
X38445Y-45203D01*
X38297Y-45055D01*
X38104Y-44975D01*
X37899Y-44974D01*
X37712Y-44787D01*
X37614Y-44722D01*
X37500Y-44700D01*
X35874Y-44700D01*
X34300Y-43125D01*
X34300Y-38250D01*
X34300Y-34942D01*
X34444Y-34797D01*
X34500Y-34664D01*
X34554Y-34797D01*
X34700Y-34942D01*
X34700Y-37000D01*
X34700Y-38500D01*
X34700Y-43000D01*
X34722Y-43114D01*
X34787Y-43212D01*
X36037Y-44462D01*
X36135Y-44527D01*
X36250Y-44550D01*
X40875Y-44550D01*
X42700Y-46374D01*
X42700Y-46750D01*
X42700Y-47250D01*
X42700Y-48775D01*
X41712Y-47787D01*
X41614Y-47722D01*
X41525Y-47704D01*
X41525Y-45396D01*
X41445Y-45203D01*
X41297Y-45055D01*
X41104Y-44975D01*
X40896Y-44974D01*
X40703Y-45054D01*
X40555Y-45202D01*
X40502Y-45328D01*
X40460Y-45227D01*
X40367Y-45202D01*
X40297Y-45273D01*
X40297Y-45132D01*
X40272Y-45039D01*
X40075Y-44970D01*
X39867Y-44981D01*
X39727Y-45039D01*
X39702Y-45132D01*
X40000Y-45429D01*
X40297Y-45132D01*
X40297Y-45273D01*
X40070Y-45500D01*
X40367Y-45797D01*
X40460Y-45772D01*
X40499Y-45662D01*
X40554Y-45797D01*
X40702Y-45944D01*
X40895Y-46024D01*
X41103Y-46025D01*
X41297Y-45945D01*
X41444Y-45797D01*
X41524Y-45604D01*
X41525Y-45396D01*
X41525Y-47704D01*
X41500Y-47700D01*
X41442Y-47700D01*
X41297Y-47555D01*
X41104Y-47475D01*
X40896Y-47474D01*
X40703Y-47554D01*
X40555Y-47702D01*
X40475Y-47895D01*
X40474Y-48103D01*
X40554Y-48297D01*
X40632Y-48375D01*
X40555Y-48452D01*
X40475Y-48645D01*
X40474Y-48853D01*
X40554Y-49047D01*
X40700Y-49192D01*
X40700Y-49750D01*
X40700Y-50125D01*
X40297Y-50528D01*
X40297Y-45867D01*
X40000Y-45570D01*
X39702Y-45867D01*
X39727Y-45960D01*
X39924Y-46029D01*
X40132Y-46018D01*
X40272Y-45960D01*
X40297Y-45867D01*
X40297Y-50528D01*
X40100Y-50725D01*
X39896Y-50724D01*
X39703Y-50804D01*
X39555Y-50952D01*
X39502Y-51078D01*
X39460Y-50977D01*
X39367Y-50952D01*
X39297Y-51023D01*
X39297Y-50882D01*
X39272Y-50789D01*
X39075Y-50720D01*
X38867Y-50731D01*
X38727Y-50789D01*
X38702Y-50882D01*
X39000Y-51179D01*
X39297Y-50882D01*
X39297Y-51023D01*
X39070Y-51250D01*
X39367Y-51547D01*
X39460Y-51522D01*
X39499Y-51412D01*
X39554Y-51547D01*
X39702Y-51694D01*
X39895Y-51774D01*
X40103Y-51775D01*
X40297Y-51695D01*
X40444Y-51547D01*
X40500Y-51414D01*
X40554Y-51547D01*
X40702Y-51694D01*
X40895Y-51774D01*
X41103Y-51775D01*
X41297Y-51695D01*
X41444Y-51547D01*
X41524Y-51354D01*
X41525Y-51146D01*
X41445Y-50953D01*
X41297Y-50805D01*
X41104Y-50725D01*
X40949Y-50724D01*
X41212Y-50462D01*
X41212Y-50462D01*
X41277Y-50364D01*
X41299Y-50250D01*
X41300Y-50250D01*
X41300Y-49750D01*
X41300Y-49192D01*
X41444Y-49047D01*
X41524Y-48854D01*
X41525Y-48646D01*
X41445Y-48453D01*
X41367Y-48374D01*
X41409Y-48333D01*
X42200Y-49124D01*
X42200Y-49750D01*
X42200Y-53125D01*
X41875Y-53450D01*
X40442Y-53450D01*
X40297Y-53305D01*
X40164Y-53249D01*
X40297Y-53195D01*
X40444Y-53047D01*
X40524Y-52854D01*
X40525Y-52646D01*
X40445Y-52453D01*
X40297Y-52305D01*
X40104Y-52225D01*
X39896Y-52224D01*
X39703Y-52304D01*
X39555Y-52452D01*
X39475Y-52645D01*
X39474Y-52853D01*
X39554Y-53047D01*
X39702Y-53194D01*
X39835Y-53250D01*
X39703Y-53304D01*
X39555Y-53452D01*
X39475Y-53645D01*
X39474Y-53853D01*
X39554Y-54047D01*
X39702Y-54194D01*
X39895Y-54274D01*
X40103Y-54275D01*
X40297Y-54195D01*
X40442Y-54050D01*
X42000Y-54050D01*
X42000Y-54049D01*
X42114Y-54027D01*
X42114Y-54027D01*
X42212Y-53962D01*
X42475Y-53699D01*
X42474Y-53853D01*
X42554Y-54047D01*
X42702Y-54194D01*
X42895Y-54274D01*
X43103Y-54275D01*
X43297Y-54195D01*
X43444Y-54047D01*
X43524Y-53854D01*
X43525Y-53649D01*
X43712Y-53462D01*
X43712Y-53462D01*
X43777Y-53364D01*
X43799Y-53250D01*
X43800Y-53250D01*
X43800Y-47250D01*
X43800Y-46000D01*
X43777Y-45885D01*
X43712Y-45787D01*
X41212Y-43287D01*
X41114Y-43222D01*
X41000Y-43200D01*
X37124Y-43200D01*
X36300Y-42375D01*
X36300Y-38250D01*
X36300Y-38000D01*
X36300Y-37500D01*
X36300Y-36627D01*
X36415Y-36674D01*
X36584Y-36675D01*
X36740Y-36610D01*
X36750Y-36600D01*
X39250Y-36600D01*
X40193Y-36600D01*
X40889Y-36831D01*
X40938Y-36837D01*
X41000Y-36850D01*
X43657Y-36850D01*
X43555Y-36952D01*
X43475Y-37145D01*
X43474Y-37353D01*
X43554Y-37547D01*
X43702Y-37694D01*
X43895Y-37774D01*
X44103Y-37775D01*
X44297Y-37695D01*
X44444Y-37547D01*
X44524Y-37354D01*
X44525Y-37146D01*
X44445Y-36953D01*
X44342Y-36850D01*
X46657Y-36850D01*
X46555Y-36952D01*
X46475Y-37145D01*
X46474Y-37353D01*
X46554Y-37547D01*
X46702Y-37694D01*
X46895Y-37774D01*
X47103Y-37775D01*
X47297Y-37695D01*
X47392Y-37600D01*
X69750Y-37600D01*
X69883Y-37573D01*
X69883Y-37573D01*
X69997Y-37497D01*
X73144Y-34350D01*
X78107Y-34350D01*
X78202Y-34444D01*
X78395Y-34524D01*
X78603Y-34525D01*
X78797Y-34445D01*
X78944Y-34297D01*
X79024Y-34104D01*
X79025Y-33896D01*
X79025Y-63230D01*
X78801Y-63230D01*
X78532Y-63230D01*
X78541Y-63220D01*
X78497Y-63176D01*
X78644Y-63088D01*
X78801Y-62701D01*
X78798Y-62283D01*
X78644Y-61911D01*
X78497Y-61823D01*
X78426Y-61894D01*
X78426Y-61752D01*
X78338Y-61605D01*
X77951Y-61448D01*
X77533Y-61451D01*
X77161Y-61605D01*
X77073Y-61752D01*
X77750Y-62429D01*
X78426Y-61752D01*
X78426Y-61894D01*
X77820Y-62500D01*
X77826Y-62505D01*
X77755Y-62576D01*
X77750Y-62570D01*
X77744Y-62576D01*
X77679Y-62511D01*
X77673Y-62505D01*
X77679Y-62500D01*
X77002Y-61823D01*
X76855Y-61911D01*
X76698Y-62298D01*
X76701Y-62716D01*
X76855Y-63088D01*
X77002Y-63176D01*
X76958Y-63220D01*
X76967Y-63230D01*
X65769Y-63230D01*
X65769Y-50150D01*
X65769Y-39150D01*
X65749Y-39046D01*
X65690Y-38959D01*
X65603Y-38900D01*
X65500Y-38880D01*
X48000Y-38880D01*
X47896Y-38900D01*
X47809Y-38959D01*
X47750Y-39046D01*
X47730Y-39150D01*
X47730Y-50150D01*
X47730Y-50600D01*
X47730Y-50650D01*
X47730Y-52650D01*
X47750Y-52753D01*
X47809Y-52840D01*
X47896Y-52899D01*
X48000Y-52919D01*
X53000Y-52919D01*
X53103Y-52899D01*
X53190Y-52840D01*
X53249Y-52753D01*
X53269Y-52650D01*
X53269Y-50650D01*
X53269Y-50600D01*
X53269Y-50419D01*
X54000Y-50419D01*
X65500Y-50419D01*
X65603Y-50399D01*
X65690Y-50340D01*
X65749Y-50253D01*
X65769Y-50150D01*
X65769Y-63230D01*
X52075Y-63230D01*
X52075Y-54825D01*
X52075Y-54374D01*
X52074Y-54275D01*
X52036Y-54183D01*
X51966Y-54112D01*
X51874Y-54074D01*
X51662Y-54075D01*
X51600Y-54137D01*
X51600Y-54550D01*
X52012Y-54550D01*
X52075Y-54487D01*
X52075Y-54374D01*
X52075Y-54825D01*
X52075Y-54712D01*
X52012Y-54650D01*
X51600Y-54650D01*
X51600Y-55062D01*
X51662Y-55125D01*
X51874Y-55125D01*
X51966Y-55087D01*
X52036Y-55016D01*
X52074Y-54924D01*
X52075Y-54825D01*
X52075Y-63230D01*
X51500Y-63230D01*
X51500Y-55062D01*
X51500Y-54650D01*
X51492Y-54650D01*
X51492Y-54550D01*
X51500Y-54550D01*
X51500Y-54137D01*
X51437Y-54075D01*
X51225Y-54074D01*
X51133Y-54112D01*
X51063Y-54183D01*
X51025Y-54275D01*
X51024Y-54374D01*
X51024Y-54374D01*
X50995Y-54303D01*
X50847Y-54155D01*
X50840Y-54152D01*
X50827Y-54085D01*
X50762Y-53987D01*
X50762Y-53987D01*
X50612Y-53837D01*
X50514Y-53772D01*
X50400Y-53750D01*
X47774Y-53750D01*
X47550Y-53525D01*
X47550Y-39250D01*
X47527Y-39135D01*
X47462Y-39037D01*
X46424Y-38000D01*
X46425Y-37915D01*
X46360Y-37759D01*
X46241Y-37639D01*
X46084Y-37575D01*
X45915Y-37574D01*
X45759Y-37639D01*
X45639Y-37758D01*
X45575Y-37915D01*
X45574Y-38084D01*
X45639Y-38240D01*
X45758Y-38360D01*
X45915Y-38424D01*
X46000Y-38425D01*
X46950Y-39374D01*
X46950Y-39745D01*
X46894Y-39611D01*
X46747Y-39523D01*
X46676Y-39594D01*
X46676Y-39452D01*
X46588Y-39305D01*
X46201Y-39148D01*
X45783Y-39151D01*
X45411Y-39305D01*
X45323Y-39452D01*
X46000Y-40129D01*
X46676Y-39452D01*
X46676Y-39594D01*
X46070Y-40200D01*
X46747Y-40876D01*
X46894Y-40788D01*
X46950Y-40651D01*
X46950Y-53650D01*
X46972Y-53764D01*
X47037Y-53862D01*
X47437Y-54262D01*
X47437Y-54262D01*
X47535Y-54327D01*
X47649Y-54349D01*
X47650Y-54350D01*
X49085Y-54350D01*
X49025Y-54495D01*
X49024Y-54703D01*
X49104Y-54897D01*
X49252Y-55044D01*
X49445Y-55124D01*
X49653Y-55125D01*
X49847Y-55045D01*
X49994Y-54897D01*
X50050Y-54764D01*
X50104Y-54897D01*
X50252Y-55044D01*
X50445Y-55124D01*
X50653Y-55125D01*
X50847Y-55045D01*
X50994Y-54897D01*
X51024Y-54825D01*
X51024Y-54825D01*
X51025Y-54924D01*
X51063Y-55016D01*
X51133Y-55087D01*
X51225Y-55125D01*
X51437Y-55125D01*
X51500Y-55062D01*
X51500Y-63230D01*
X47051Y-63230D01*
X47051Y-62001D01*
X47048Y-61583D01*
X46894Y-61211D01*
X46747Y-61123D01*
X46676Y-61194D01*
X46676Y-61052D01*
X46676Y-40947D01*
X46000Y-40270D01*
X45929Y-40341D01*
X45929Y-40200D01*
X45252Y-39523D01*
X45105Y-39611D01*
X44948Y-39998D01*
X44951Y-40416D01*
X45105Y-40788D01*
X45252Y-40876D01*
X45929Y-40200D01*
X45929Y-40341D01*
X45323Y-40947D01*
X45411Y-41094D01*
X45798Y-41251D01*
X46216Y-41248D01*
X46588Y-41094D01*
X46676Y-40947D01*
X46676Y-61052D01*
X46588Y-60905D01*
X46201Y-60748D01*
X45783Y-60751D01*
X45411Y-60905D01*
X45323Y-61052D01*
X46000Y-61729D01*
X46676Y-61052D01*
X46676Y-61194D01*
X46070Y-61800D01*
X46747Y-62476D01*
X46894Y-62388D01*
X47051Y-62001D01*
X47051Y-63230D01*
X46676Y-63230D01*
X46676Y-62547D01*
X46000Y-61870D01*
X45929Y-61941D01*
X45929Y-61800D01*
X45252Y-61123D01*
X45105Y-61211D01*
X44948Y-61598D01*
X44951Y-62016D01*
X45105Y-62388D01*
X45252Y-62476D01*
X45929Y-61800D01*
X45929Y-61941D01*
X45323Y-62547D01*
X45411Y-62694D01*
X45798Y-62851D01*
X46216Y-62848D01*
X46588Y-62694D01*
X46676Y-62547D01*
X46676Y-63230D01*
X41525Y-63230D01*
X41525Y-56896D01*
X41445Y-56703D01*
X41297Y-56555D01*
X41104Y-56475D01*
X40896Y-56474D01*
X40703Y-56554D01*
X40555Y-56702D01*
X40502Y-56828D01*
X40460Y-56727D01*
X40367Y-56702D01*
X40297Y-56773D01*
X40297Y-56632D01*
X40272Y-56539D01*
X40075Y-56470D01*
X39867Y-56481D01*
X39727Y-56539D01*
X39702Y-56632D01*
X40000Y-56929D01*
X40297Y-56632D01*
X40297Y-56773D01*
X40070Y-57000D01*
X40367Y-57297D01*
X40460Y-57272D01*
X40499Y-57162D01*
X40554Y-57297D01*
X40702Y-57444D01*
X40895Y-57524D01*
X41103Y-57525D01*
X41297Y-57445D01*
X41444Y-57297D01*
X41524Y-57104D01*
X41525Y-56896D01*
X41525Y-63230D01*
X40297Y-63230D01*
X40297Y-57367D01*
X40000Y-57070D01*
X39929Y-57141D01*
X39929Y-57000D01*
X39632Y-56702D01*
X39539Y-56727D01*
X39500Y-56837D01*
X39445Y-56703D01*
X39297Y-56555D01*
X39297Y-56554D01*
X39297Y-51617D01*
X39000Y-51320D01*
X38929Y-51391D01*
X38929Y-51250D01*
X38632Y-50952D01*
X38539Y-50977D01*
X38525Y-51017D01*
X38525Y-48646D01*
X38445Y-48453D01*
X38367Y-48374D01*
X38444Y-48297D01*
X38524Y-48104D01*
X38525Y-47896D01*
X38445Y-47703D01*
X38297Y-47555D01*
X38104Y-47475D01*
X37896Y-47474D01*
X37703Y-47554D01*
X37555Y-47702D01*
X37475Y-47895D01*
X37474Y-48103D01*
X37554Y-48297D01*
X37632Y-48375D01*
X37557Y-48450D01*
X37000Y-48450D01*
X36885Y-48472D01*
X36787Y-48537D01*
X35287Y-50037D01*
X35222Y-50135D01*
X35200Y-50250D01*
X35200Y-50746D01*
X35171Y-50758D01*
X35008Y-50921D01*
X35000Y-50941D01*
X34991Y-50921D01*
X34828Y-50758D01*
X34615Y-50670D01*
X34385Y-50669D01*
X34171Y-50758D01*
X34008Y-50921D01*
X33920Y-51134D01*
X33919Y-51364D01*
X34008Y-51578D01*
X34171Y-51741D01*
X34384Y-51829D01*
X34614Y-51830D01*
X34828Y-51741D01*
X34991Y-51578D01*
X34999Y-51558D01*
X35008Y-51578D01*
X35171Y-51741D01*
X35384Y-51829D01*
X35614Y-51830D01*
X35828Y-51741D01*
X35991Y-51578D01*
X36079Y-51365D01*
X36080Y-51135D01*
X35991Y-50921D01*
X35828Y-50758D01*
X35800Y-50746D01*
X35800Y-50374D01*
X37124Y-49050D01*
X37557Y-49050D01*
X37702Y-49194D01*
X37895Y-49274D01*
X38103Y-49275D01*
X38297Y-49195D01*
X38444Y-49047D01*
X38524Y-48854D01*
X38525Y-48646D01*
X38525Y-51017D01*
X38500Y-51087D01*
X38445Y-50953D01*
X38297Y-50805D01*
X38104Y-50725D01*
X37896Y-50724D01*
X37703Y-50804D01*
X37555Y-50952D01*
X37525Y-51024D01*
X37525Y-50925D01*
X37487Y-50833D01*
X37416Y-50763D01*
X37324Y-50725D01*
X37225Y-50724D01*
X36675Y-50724D01*
X36583Y-50762D01*
X36513Y-50833D01*
X36475Y-50925D01*
X36474Y-51024D01*
X36474Y-51574D01*
X36512Y-51666D01*
X36583Y-51736D01*
X36675Y-51774D01*
X36774Y-51775D01*
X37324Y-51775D01*
X37416Y-51737D01*
X37486Y-51666D01*
X37524Y-51574D01*
X37525Y-51475D01*
X37525Y-51475D01*
X37554Y-51547D01*
X37702Y-51694D01*
X37895Y-51774D01*
X38103Y-51775D01*
X38297Y-51695D01*
X38444Y-51547D01*
X38497Y-51421D01*
X38539Y-51522D01*
X38632Y-51547D01*
X38929Y-51250D01*
X38929Y-51391D01*
X38702Y-51617D01*
X38727Y-51710D01*
X38924Y-51779D01*
X39132Y-51768D01*
X39272Y-51710D01*
X39297Y-51617D01*
X39297Y-56554D01*
X39104Y-56475D01*
X38896Y-56474D01*
X38703Y-56554D01*
X38555Y-56702D01*
X38499Y-56835D01*
X38445Y-56703D01*
X38297Y-56555D01*
X38104Y-56475D01*
X37896Y-56474D01*
X37703Y-56554D01*
X37555Y-56702D01*
X37525Y-56774D01*
X37525Y-56675D01*
X37487Y-56583D01*
X37416Y-56513D01*
X37324Y-56475D01*
X37225Y-56474D01*
X36675Y-56474D01*
X36583Y-56512D01*
X36513Y-56583D01*
X36475Y-56675D01*
X36474Y-56774D01*
X36474Y-57324D01*
X36512Y-57416D01*
X36583Y-57486D01*
X36675Y-57524D01*
X36774Y-57525D01*
X37324Y-57525D01*
X37416Y-57487D01*
X37486Y-57416D01*
X37524Y-57324D01*
X37525Y-57225D01*
X37525Y-57225D01*
X37554Y-57297D01*
X37702Y-57444D01*
X37895Y-57524D01*
X38103Y-57525D01*
X38297Y-57445D01*
X38444Y-57297D01*
X38500Y-57164D01*
X38554Y-57297D01*
X38702Y-57444D01*
X38895Y-57524D01*
X39103Y-57525D01*
X39297Y-57445D01*
X39444Y-57297D01*
X39497Y-57171D01*
X39539Y-57272D01*
X39632Y-57297D01*
X39929Y-57000D01*
X39929Y-57141D01*
X39702Y-57367D01*
X39727Y-57460D01*
X39924Y-57529D01*
X40132Y-57518D01*
X40272Y-57460D01*
X40297Y-57367D01*
X40297Y-63230D01*
X31929Y-63230D01*
X31929Y-59075D01*
X31925Y-58986D01*
X31925Y-58225D01*
X31925Y-57675D01*
X31887Y-57583D01*
X31816Y-57513D01*
X31724Y-57475D01*
X31625Y-57474D01*
X31075Y-57474D01*
X30983Y-57512D01*
X30913Y-57583D01*
X30875Y-57675D01*
X30874Y-57774D01*
X30874Y-58324D01*
X30912Y-58416D01*
X30983Y-58486D01*
X31075Y-58524D01*
X31162Y-58525D01*
X31127Y-58539D01*
X31102Y-58632D01*
X31400Y-58929D01*
X31697Y-58632D01*
X31672Y-58539D01*
X31631Y-58525D01*
X31724Y-58525D01*
X31816Y-58487D01*
X31886Y-58416D01*
X31924Y-58324D01*
X31925Y-58225D01*
X31925Y-58986D01*
X31918Y-58867D01*
X31860Y-58727D01*
X31767Y-58702D01*
X31470Y-59000D01*
X31767Y-59297D01*
X31860Y-59272D01*
X31929Y-59075D01*
X31929Y-63230D01*
X31697Y-63230D01*
X31697Y-59367D01*
X31400Y-59070D01*
X31329Y-59141D01*
X31329Y-59000D01*
X31032Y-58702D01*
X30939Y-58727D01*
X30870Y-58924D01*
X30881Y-59132D01*
X30939Y-59272D01*
X31032Y-59297D01*
X31329Y-59000D01*
X31329Y-59141D01*
X31102Y-59367D01*
X31127Y-59460D01*
X31324Y-59529D01*
X31532Y-59518D01*
X31672Y-59460D01*
X31697Y-59367D01*
X31697Y-63230D01*
X27825Y-63230D01*
X27825Y-46896D01*
X27745Y-46703D01*
X27597Y-46555D01*
X27404Y-46475D01*
X27196Y-46474D01*
X27003Y-46554D01*
X26857Y-46700D01*
X26803Y-46700D01*
X26791Y-46671D01*
X26628Y-46508D01*
X26415Y-46420D01*
X26185Y-46419D01*
X26025Y-46486D01*
X26025Y-39896D01*
X25945Y-39703D01*
X25797Y-39555D01*
X25604Y-39475D01*
X25396Y-39474D01*
X25203Y-39554D01*
X25055Y-39702D01*
X24975Y-39895D01*
X24974Y-40103D01*
X25054Y-40297D01*
X25202Y-40444D01*
X25395Y-40524D01*
X25603Y-40525D01*
X25797Y-40445D01*
X25944Y-40297D01*
X26024Y-40104D01*
X26025Y-39896D01*
X26025Y-46486D01*
X25971Y-46508D01*
X25808Y-46671D01*
X25799Y-46692D01*
X25707Y-46663D01*
X25636Y-46733D01*
X25636Y-46592D01*
X25605Y-46493D01*
X25388Y-46415D01*
X25158Y-46425D01*
X24994Y-46493D01*
X24963Y-46592D01*
X25300Y-46929D01*
X25636Y-46592D01*
X25636Y-46733D01*
X25370Y-47000D01*
X25707Y-47336D01*
X25799Y-47307D01*
X25808Y-47328D01*
X25971Y-47491D01*
X26184Y-47579D01*
X26414Y-47580D01*
X26628Y-47491D01*
X26791Y-47328D01*
X26803Y-47300D01*
X26857Y-47300D01*
X27002Y-47444D01*
X27195Y-47524D01*
X27403Y-47525D01*
X27597Y-47445D01*
X27744Y-47297D01*
X27824Y-47104D01*
X27825Y-46896D01*
X27825Y-63230D01*
X25636Y-63230D01*
X25636Y-47407D01*
X25300Y-47070D01*
X25229Y-47141D01*
X25229Y-47000D01*
X24892Y-46663D01*
X24793Y-46694D01*
X24715Y-46911D01*
X24725Y-47141D01*
X24793Y-47305D01*
X24892Y-47336D01*
X25229Y-47000D01*
X25229Y-47141D01*
X24963Y-47407D01*
X24994Y-47506D01*
X25211Y-47584D01*
X25441Y-47574D01*
X25605Y-47506D01*
X25636Y-47407D01*
X25636Y-63230D01*
X25051Y-63230D01*
X24782Y-63230D01*
X24791Y-63220D01*
X24747Y-63176D01*
X24894Y-63088D01*
X25051Y-62701D01*
X25048Y-62283D01*
X24894Y-61911D01*
X24747Y-61823D01*
X24725Y-61845D01*
X24725Y-49325D01*
X24725Y-48775D01*
X24687Y-48683D01*
X24616Y-48613D01*
X24524Y-48575D01*
X24425Y-48574D01*
X23875Y-48574D01*
X23783Y-48612D01*
X23713Y-48683D01*
X23675Y-48775D01*
X23674Y-48874D01*
X23674Y-49424D01*
X23712Y-49516D01*
X23783Y-49586D01*
X23875Y-49624D01*
X23974Y-49625D01*
X24524Y-49625D01*
X24616Y-49587D01*
X24686Y-49516D01*
X24724Y-49424D01*
X24725Y-49325D01*
X24725Y-61845D01*
X24676Y-61894D01*
X24070Y-62500D01*
X24076Y-62505D01*
X24005Y-62576D01*
X24000Y-62570D01*
X23994Y-62576D01*
X23923Y-62505D01*
X23929Y-62500D01*
X23923Y-62494D01*
X23994Y-62423D01*
X24000Y-62429D01*
X24676Y-61752D01*
X24588Y-61605D01*
X24201Y-61448D01*
X23783Y-61451D01*
X23411Y-61605D01*
X23323Y-61752D01*
X23279Y-61708D01*
X23269Y-61717D01*
X23269Y-23032D01*
X23279Y-23041D01*
X23323Y-22997D01*
X23411Y-23144D01*
X23798Y-23301D01*
X24216Y-23298D01*
X24588Y-23144D01*
X24676Y-22997D01*
X24000Y-22320D01*
X23994Y-22326D01*
X23923Y-22255D01*
X23929Y-22250D01*
X23923Y-22244D01*
X23994Y-22173D01*
X24000Y-22179D01*
X24005Y-22173D01*
X24076Y-22244D01*
X24070Y-22250D01*
X24747Y-22926D01*
X24894Y-22838D01*
X25051Y-22451D01*
X25048Y-22033D01*
X24894Y-21661D01*
X24747Y-21573D01*
X24791Y-21529D01*
X24782Y-21519D01*
X82217Y-21519D01*
X82208Y-21529D01*
X82252Y-21573D01*
X82105Y-21661D01*
X81948Y-22048D01*
X81951Y-22466D01*
X82105Y-22838D01*
X82252Y-22926D01*
X82929Y-22250D01*
X82923Y-22244D01*
X82994Y-22173D01*
X83000Y-22179D01*
X83005Y-22173D01*
X83076Y-22244D01*
X83070Y-22250D01*
X83076Y-22255D01*
X83005Y-22326D01*
X83000Y-22320D01*
X82929Y-22391D01*
X82323Y-22997D01*
X82411Y-23144D01*
X82798Y-23301D01*
X83216Y-23298D01*
X83588Y-23144D01*
X83676Y-22997D01*
X83676Y-22997D01*
X83720Y-23041D01*
X83730Y-23032D01*
X83730Y-63230D01*
X83730Y-63230D01*
G37*
G54D19*
X83730Y-63230D02*
X83676Y-63230D01*
X83651Y-63230D01*
X83651Y-62001D01*
X83651Y-40401D01*
X83648Y-39983D01*
X83494Y-39611D01*
X83347Y-39523D01*
X83276Y-39594D01*
X83276Y-39452D01*
X83188Y-39305D01*
X82801Y-39148D01*
X82383Y-39151D01*
X82011Y-39305D01*
X81923Y-39452D01*
X82600Y-40129D01*
X83276Y-39452D01*
X83276Y-39594D01*
X82670Y-40200D01*
X83347Y-40876D01*
X83494Y-40788D01*
X83651Y-40401D01*
X83651Y-62001D01*
X83648Y-61583D01*
X83494Y-61211D01*
X83347Y-61123D01*
X83276Y-61194D01*
X83276Y-61052D01*
X83276Y-40947D01*
X82600Y-40270D01*
X82529Y-40341D01*
X82529Y-40200D01*
X81852Y-39523D01*
X81705Y-39611D01*
X81548Y-39998D01*
X81551Y-40416D01*
X81705Y-40788D01*
X81852Y-40876D01*
X82529Y-40200D01*
X82529Y-40341D01*
X81923Y-40947D01*
X82011Y-41094D01*
X82398Y-41251D01*
X82816Y-41248D01*
X83188Y-41094D01*
X83276Y-40947D01*
X83276Y-61052D01*
X83188Y-60905D01*
X82801Y-60748D01*
X82383Y-60751D01*
X82011Y-60905D01*
X81923Y-61052D01*
X82600Y-61729D01*
X83276Y-61052D01*
X83276Y-61194D01*
X82670Y-61800D01*
X83347Y-62476D01*
X83494Y-62388D01*
X83651Y-62001D01*
X83651Y-63230D01*
X83276Y-63230D01*
X83276Y-62547D01*
X82600Y-61870D01*
X82529Y-61941D01*
X82529Y-61800D01*
X81852Y-61123D01*
X81705Y-61211D01*
X81548Y-61598D01*
X81551Y-62016D01*
X81705Y-62388D01*
X81852Y-62476D01*
X82529Y-61800D01*
X82529Y-61941D01*
X81923Y-62547D01*
X82011Y-62694D01*
X82398Y-62851D01*
X82816Y-62848D01*
X83188Y-62694D01*
X83276Y-62547D01*
X83276Y-63230D01*
X79025Y-63230D01*
X79025Y-33896D01*
X78945Y-33703D01*
X78797Y-33555D01*
X78664Y-33499D01*
X78797Y-33445D01*
X78944Y-33297D01*
X79024Y-33104D01*
X79025Y-32896D01*
X78945Y-32703D01*
X78797Y-32555D01*
X78725Y-32525D01*
X78725Y-32525D01*
X78824Y-32524D01*
X78916Y-32486D01*
X78987Y-32416D01*
X79025Y-32324D01*
X79025Y-31675D01*
X78987Y-31583D01*
X78916Y-31513D01*
X78824Y-31475D01*
X78725Y-31474D01*
X78612Y-31475D01*
X78550Y-31537D01*
X78550Y-31950D01*
X78962Y-31950D01*
X79025Y-31887D01*
X79025Y-31675D01*
X79025Y-32324D01*
X79025Y-32112D01*
X78962Y-32050D01*
X78550Y-32050D01*
X78550Y-32057D01*
X78450Y-32057D01*
X78450Y-32050D01*
X78450Y-31950D01*
X78450Y-31537D01*
X78387Y-31475D01*
X78274Y-31474D01*
X78175Y-31475D01*
X78083Y-31513D01*
X78012Y-31583D01*
X77974Y-31675D01*
X77975Y-31887D01*
X78037Y-31950D01*
X78450Y-31950D01*
X78450Y-32050D01*
X78037Y-32050D01*
X77975Y-32112D01*
X77974Y-32324D01*
X78012Y-32416D01*
X78083Y-32486D01*
X78175Y-32524D01*
X78274Y-32525D01*
X78274Y-32525D01*
X78214Y-32550D01*
X73250Y-32550D01*
X72250Y-32550D01*
X72077Y-32584D01*
X72029Y-32616D01*
X71931Y-32681D01*
X71525Y-33088D01*
X71525Y-27896D01*
X71445Y-27703D01*
X71297Y-27555D01*
X71104Y-27475D01*
X70896Y-27474D01*
X70703Y-27554D01*
X70555Y-27702D01*
X70502Y-27828D01*
X70460Y-27727D01*
X70367Y-27702D01*
X70297Y-27773D01*
X70297Y-27632D01*
X70272Y-27539D01*
X70075Y-27470D01*
X69867Y-27481D01*
X69727Y-27539D01*
X69702Y-27632D01*
X70000Y-27929D01*
X70297Y-27632D01*
X70297Y-27773D01*
X70070Y-28000D01*
X70367Y-28297D01*
X70460Y-28272D01*
X70499Y-28162D01*
X70554Y-28297D01*
X70702Y-28444D01*
X70895Y-28524D01*
X71103Y-28525D01*
X71297Y-28445D01*
X71444Y-28297D01*
X71524Y-28104D01*
X71525Y-27896D01*
X71525Y-33088D01*
X71025Y-33588D01*
X71025Y-33425D01*
X70987Y-33333D01*
X70950Y-33296D01*
X70950Y-33250D01*
X70915Y-33077D01*
X70818Y-32931D01*
X70318Y-32431D01*
X70297Y-32417D01*
X70297Y-28367D01*
X70000Y-28070D01*
X69702Y-28367D01*
X69727Y-28460D01*
X69924Y-28529D01*
X70132Y-28518D01*
X70272Y-28460D01*
X70297Y-28367D01*
X70297Y-32417D01*
X70172Y-32334D01*
X70000Y-32300D01*
X69686Y-32300D01*
X69450Y-32063D01*
X69450Y-28453D01*
X69486Y-28416D01*
X69524Y-28324D01*
X69525Y-28237D01*
X69539Y-28272D01*
X69632Y-28297D01*
X69929Y-28000D01*
X69632Y-27702D01*
X69539Y-27727D01*
X69525Y-27768D01*
X69525Y-27675D01*
X69487Y-27583D01*
X69416Y-27513D01*
X69324Y-27475D01*
X69225Y-27474D01*
X68675Y-27474D01*
X68583Y-27512D01*
X68513Y-27583D01*
X68475Y-27675D01*
X68474Y-27774D01*
X68474Y-28324D01*
X68512Y-28416D01*
X68550Y-28453D01*
X68550Y-32200D01*
X68000Y-32200D01*
X68000Y-28000D01*
X68000Y-26800D01*
X67999Y-26799D01*
X67965Y-26627D01*
X67965Y-26627D01*
X67868Y-26481D01*
X67868Y-26481D01*
X67269Y-25883D01*
X67195Y-25703D01*
X67047Y-25555D01*
X66854Y-25475D01*
X66646Y-25474D01*
X66453Y-25554D01*
X66305Y-25702D01*
X66275Y-25774D01*
X66275Y-25675D01*
X66237Y-25583D01*
X66166Y-25513D01*
X66074Y-25475D01*
X65975Y-25474D01*
X65425Y-25474D01*
X65333Y-25512D01*
X65263Y-25583D01*
X65225Y-25675D01*
X65224Y-25774D01*
X65224Y-26324D01*
X65262Y-26416D01*
X65333Y-26486D01*
X65425Y-26524D01*
X65524Y-26525D01*
X66074Y-26525D01*
X66166Y-26487D01*
X66236Y-26416D01*
X66274Y-26324D01*
X66275Y-26225D01*
X66275Y-26225D01*
X66304Y-26297D01*
X66452Y-26444D01*
X66633Y-26520D01*
X67100Y-26986D01*
X67100Y-27103D01*
X67047Y-27051D01*
X66854Y-26971D01*
X66646Y-26970D01*
X66627Y-26978D01*
X66627Y-26978D01*
X66618Y-26972D01*
X66503Y-26950D01*
X65942Y-26950D01*
X65797Y-26805D01*
X65604Y-26725D01*
X65396Y-26724D01*
X65203Y-26804D01*
X65055Y-26952D01*
X65000Y-27085D01*
X65000Y-26800D01*
X64999Y-26799D01*
X64965Y-26627D01*
X64965Y-26627D01*
X64868Y-26481D01*
X64868Y-26481D01*
X64269Y-25883D01*
X64195Y-25703D01*
X64047Y-25555D01*
X63854Y-25475D01*
X63646Y-25474D01*
X63453Y-25554D01*
X63305Y-25702D01*
X63275Y-25774D01*
X63275Y-25675D01*
X63237Y-25583D01*
X63166Y-25513D01*
X63074Y-25475D01*
X62975Y-25474D01*
X62425Y-25474D01*
X62333Y-25512D01*
X62263Y-25583D01*
X62225Y-25675D01*
X62224Y-25774D01*
X62224Y-26324D01*
X62262Y-26416D01*
X62333Y-26486D01*
X62425Y-26524D01*
X62524Y-26525D01*
X63074Y-26525D01*
X63166Y-26487D01*
X63236Y-26416D01*
X63274Y-26324D01*
X63275Y-26225D01*
X63275Y-26225D01*
X63304Y-26297D01*
X63452Y-26444D01*
X63633Y-26520D01*
X64100Y-26986D01*
X64100Y-27103D01*
X64047Y-27051D01*
X63854Y-26971D01*
X63646Y-26970D01*
X63627Y-26978D01*
X63627Y-26978D01*
X63618Y-26972D01*
X63503Y-26950D01*
X62942Y-26950D01*
X62797Y-26805D01*
X62604Y-26725D01*
X62396Y-26724D01*
X62203Y-26804D01*
X62055Y-26952D01*
X62000Y-27085D01*
X62000Y-26800D01*
X61999Y-26799D01*
X61965Y-26627D01*
X61965Y-26627D01*
X61868Y-26481D01*
X61868Y-26481D01*
X61269Y-25883D01*
X61195Y-25703D01*
X61047Y-25555D01*
X60854Y-25475D01*
X60646Y-25474D01*
X60453Y-25554D01*
X60305Y-25702D01*
X60275Y-25774D01*
X60275Y-25675D01*
X60237Y-25583D01*
X60166Y-25513D01*
X60074Y-25475D01*
X59975Y-25474D01*
X59425Y-25474D01*
X59333Y-25512D01*
X59263Y-25583D01*
X59225Y-25675D01*
X59224Y-25774D01*
X59224Y-26324D01*
X59262Y-26416D01*
X59333Y-26486D01*
X59425Y-26524D01*
X59524Y-26525D01*
X60074Y-26525D01*
X60166Y-26487D01*
X60236Y-26416D01*
X60274Y-26324D01*
X60275Y-26225D01*
X60275Y-26225D01*
X60304Y-26297D01*
X60452Y-26444D01*
X60633Y-26520D01*
X61100Y-26986D01*
X61100Y-27103D01*
X61047Y-27051D01*
X60854Y-26971D01*
X60646Y-26970D01*
X60627Y-26978D01*
X60627Y-26978D01*
X60618Y-26972D01*
X60503Y-26950D01*
X59942Y-26950D01*
X59797Y-26805D01*
X59604Y-26725D01*
X59396Y-26724D01*
X59203Y-26804D01*
X59100Y-26907D01*
X59100Y-26900D01*
X59065Y-26727D01*
X58968Y-26581D01*
X58269Y-25883D01*
X58195Y-25703D01*
X58047Y-25555D01*
X57854Y-25475D01*
X57646Y-25474D01*
X57453Y-25554D01*
X57305Y-25702D01*
X57275Y-25774D01*
X57275Y-25675D01*
X57237Y-25583D01*
X57166Y-25513D01*
X57074Y-25475D01*
X56975Y-25474D01*
X56425Y-25474D01*
X56333Y-25512D01*
X56263Y-25583D01*
X56225Y-25675D01*
X56224Y-25774D01*
X56224Y-26324D01*
X56262Y-26416D01*
X56333Y-26486D01*
X56425Y-26524D01*
X56524Y-26525D01*
X57074Y-26525D01*
X57166Y-26487D01*
X57236Y-26416D01*
X57274Y-26324D01*
X57275Y-26225D01*
X57275Y-26225D01*
X57304Y-26297D01*
X57452Y-26444D01*
X57633Y-26520D01*
X58200Y-27086D01*
X58200Y-27210D01*
X58195Y-27199D01*
X58047Y-27051D01*
X57854Y-26971D01*
X57646Y-26970D01*
X57627Y-26978D01*
X57627Y-26978D01*
X57618Y-26972D01*
X57503Y-26950D01*
X56942Y-26950D01*
X56797Y-26805D01*
X56604Y-26725D01*
X56396Y-26724D01*
X56203Y-26804D01*
X56055Y-26952D01*
X55975Y-27145D01*
X55974Y-27353D01*
X56054Y-27547D01*
X56202Y-27694D01*
X56395Y-27774D01*
X56603Y-27775D01*
X56797Y-27695D01*
X56942Y-27550D01*
X57224Y-27550D01*
X57224Y-27600D01*
X57304Y-27793D01*
X57452Y-27940D01*
X57534Y-27974D01*
X57425Y-27974D01*
X57333Y-28012D01*
X57263Y-28083D01*
X57225Y-28175D01*
X57224Y-28274D01*
X57224Y-28824D01*
X57262Y-28916D01*
X57333Y-28986D01*
X57425Y-29024D01*
X57521Y-29025D01*
X57477Y-29043D01*
X57452Y-29136D01*
X57750Y-29433D01*
X58047Y-29136D01*
X58022Y-29043D01*
X57970Y-29025D01*
X58074Y-29025D01*
X58166Y-28987D01*
X58229Y-28924D01*
X58272Y-28915D01*
X58418Y-28818D01*
X58968Y-28268D01*
X59065Y-28122D01*
X59100Y-27950D01*
X59100Y-27592D01*
X59202Y-27694D01*
X59395Y-27774D01*
X59603Y-27775D01*
X59797Y-27695D01*
X59942Y-27550D01*
X60224Y-27550D01*
X60224Y-27600D01*
X60304Y-27793D01*
X60452Y-27940D01*
X60534Y-27974D01*
X60425Y-27974D01*
X60333Y-28012D01*
X60263Y-28083D01*
X60225Y-28175D01*
X60224Y-28274D01*
X60224Y-28824D01*
X60262Y-28916D01*
X60333Y-28986D01*
X60425Y-29024D01*
X60521Y-29025D01*
X60477Y-29043D01*
X60452Y-29136D01*
X60750Y-29433D01*
X61047Y-29136D01*
X61022Y-29043D01*
X60970Y-29025D01*
X61074Y-29025D01*
X61166Y-28987D01*
X61236Y-28916D01*
X61243Y-28901D01*
X61368Y-28818D01*
X61868Y-28318D01*
X61965Y-28172D01*
X62000Y-28000D01*
X62000Y-27414D01*
X62054Y-27547D01*
X62202Y-27694D01*
X62395Y-27774D01*
X62603Y-27775D01*
X62797Y-27695D01*
X62942Y-27550D01*
X63224Y-27550D01*
X63224Y-27600D01*
X63304Y-27793D01*
X63452Y-27940D01*
X63534Y-27974D01*
X63425Y-27974D01*
X63333Y-28012D01*
X63263Y-28083D01*
X63225Y-28175D01*
X63224Y-28274D01*
X63224Y-28824D01*
X63262Y-28916D01*
X63333Y-28986D01*
X63425Y-29024D01*
X63521Y-29025D01*
X63477Y-29043D01*
X63452Y-29136D01*
X63750Y-29433D01*
X64047Y-29136D01*
X64022Y-29043D01*
X63970Y-29025D01*
X64074Y-29025D01*
X64166Y-28987D01*
X64236Y-28916D01*
X64262Y-28855D01*
X64318Y-28818D01*
X64868Y-28268D01*
X64965Y-28122D01*
X65000Y-27950D01*
X65000Y-27414D01*
X65054Y-27547D01*
X65202Y-27694D01*
X65395Y-27774D01*
X65603Y-27775D01*
X65797Y-27695D01*
X65942Y-27550D01*
X66224Y-27550D01*
X66224Y-27600D01*
X66304Y-27793D01*
X66452Y-27940D01*
X66534Y-27974D01*
X66425Y-27974D01*
X66333Y-28012D01*
X66263Y-28083D01*
X66225Y-28175D01*
X66224Y-28274D01*
X66224Y-28824D01*
X66262Y-28916D01*
X66333Y-28986D01*
X66425Y-29024D01*
X66521Y-29025D01*
X66477Y-29043D01*
X66452Y-29136D01*
X66750Y-29433D01*
X67047Y-29136D01*
X67022Y-29043D01*
X66970Y-29025D01*
X67074Y-29025D01*
X67166Y-28987D01*
X67236Y-28916D01*
X67243Y-28901D01*
X67368Y-28818D01*
X67868Y-28318D01*
X67965Y-28172D01*
X68000Y-28000D01*
X68000Y-32200D01*
X67279Y-32200D01*
X67279Y-29579D01*
X67268Y-29371D01*
X67210Y-29231D01*
X67117Y-29206D01*
X66820Y-29503D01*
X67117Y-29801D01*
X67210Y-29776D01*
X67279Y-29579D01*
X67279Y-32200D01*
X67047Y-32200D01*
X67047Y-29871D01*
X66750Y-29574D01*
X66679Y-29645D01*
X66679Y-29503D01*
X66382Y-29206D01*
X66289Y-29231D01*
X66220Y-29428D01*
X66231Y-29636D01*
X66289Y-29776D01*
X66382Y-29801D01*
X66679Y-29503D01*
X66679Y-29645D01*
X66452Y-29871D01*
X66477Y-29964D01*
X66674Y-30033D01*
X66882Y-30022D01*
X67022Y-29964D01*
X67047Y-29871D01*
X67047Y-32200D01*
X66029Y-32200D01*
X66029Y-30325D01*
X66018Y-30117D01*
X65960Y-29977D01*
X65867Y-29952D01*
X65797Y-30023D01*
X65797Y-29882D01*
X65772Y-29789D01*
X65575Y-29720D01*
X65367Y-29731D01*
X65227Y-29789D01*
X65202Y-29882D01*
X65500Y-30179D01*
X65797Y-29882D01*
X65797Y-30023D01*
X65570Y-30250D01*
X65867Y-30547D01*
X65960Y-30522D01*
X66029Y-30325D01*
X66029Y-32200D01*
X65800Y-32200D01*
X65797Y-32200D01*
X65797Y-30617D01*
X65500Y-30320D01*
X65429Y-30391D01*
X65429Y-30250D01*
X65132Y-29952D01*
X65039Y-29977D01*
X64970Y-30174D01*
X64981Y-30382D01*
X65039Y-30522D01*
X65132Y-30547D01*
X65429Y-30250D01*
X65429Y-30391D01*
X65202Y-30617D01*
X65227Y-30710D01*
X65424Y-30779D01*
X65632Y-30768D01*
X65772Y-30710D01*
X65797Y-30617D01*
X65797Y-32200D01*
X65627Y-32234D01*
X65579Y-32266D01*
X65481Y-32331D01*
X65181Y-32631D01*
X65084Y-32777D01*
X65050Y-32950D01*
X65050Y-32964D01*
X64975Y-33145D01*
X64974Y-33353D01*
X65054Y-33547D01*
X65202Y-33694D01*
X65395Y-33774D01*
X65603Y-33775D01*
X65797Y-33695D01*
X65944Y-33547D01*
X66024Y-33354D01*
X66025Y-33146D01*
X66006Y-33100D01*
X69229Y-33100D01*
X69327Y-33165D01*
X69327Y-33165D01*
X69499Y-33199D01*
X69500Y-33200D01*
X69813Y-33200D01*
X69993Y-33380D01*
X69975Y-33425D01*
X69974Y-33524D01*
X69974Y-34050D01*
X69750Y-34050D01*
X69577Y-34084D01*
X69431Y-34181D01*
X69181Y-34431D01*
X69084Y-34577D01*
X69050Y-34750D01*
X69050Y-34964D01*
X68999Y-35085D01*
X68945Y-34953D01*
X68797Y-34805D01*
X68604Y-34725D01*
X68396Y-34724D01*
X68203Y-34804D01*
X68055Y-34952D01*
X67999Y-35085D01*
X67950Y-34964D01*
X67950Y-34035D01*
X68024Y-33854D01*
X68025Y-33646D01*
X67945Y-33453D01*
X67797Y-33305D01*
X67604Y-33225D01*
X67396Y-33224D01*
X67203Y-33304D01*
X67055Y-33452D01*
X66975Y-33645D01*
X66974Y-33853D01*
X67050Y-34035D01*
X67050Y-34964D01*
X66999Y-35085D01*
X66945Y-34953D01*
X66797Y-34805D01*
X66604Y-34725D01*
X66396Y-34724D01*
X66203Y-34804D01*
X66055Y-34952D01*
X65975Y-35145D01*
X65974Y-35353D01*
X66054Y-35547D01*
X66202Y-35694D01*
X66395Y-35774D01*
X66603Y-35775D01*
X66797Y-35695D01*
X66944Y-35547D01*
X67000Y-35414D01*
X67054Y-35547D01*
X67202Y-35694D01*
X67395Y-35774D01*
X67603Y-35775D01*
X67797Y-35695D01*
X67944Y-35547D01*
X68000Y-35414D01*
X68054Y-35547D01*
X68202Y-35694D01*
X68395Y-35774D01*
X68603Y-35775D01*
X68797Y-35695D01*
X68944Y-35547D01*
X69000Y-35414D01*
X69054Y-35547D01*
X69202Y-35694D01*
X69395Y-35774D01*
X69603Y-35775D01*
X69797Y-35695D01*
X69944Y-35547D01*
X69974Y-35475D01*
X69974Y-35574D01*
X70012Y-35666D01*
X70083Y-35736D01*
X70175Y-35774D01*
X70274Y-35775D01*
X70729Y-35775D01*
X69605Y-36900D01*
X65084Y-36900D01*
X65084Y-35338D01*
X65074Y-35108D01*
X65006Y-34944D01*
X64907Y-34913D01*
X64836Y-34983D01*
X64836Y-34842D01*
X64805Y-34743D01*
X64588Y-34665D01*
X64358Y-34675D01*
X64194Y-34743D01*
X64163Y-34842D01*
X64500Y-35179D01*
X64836Y-34842D01*
X64836Y-34983D01*
X64570Y-35250D01*
X64907Y-35586D01*
X65006Y-35555D01*
X65084Y-35338D01*
X65084Y-36900D01*
X64836Y-36900D01*
X64836Y-35657D01*
X64500Y-35320D01*
X64163Y-35657D01*
X64194Y-35756D01*
X64411Y-35834D01*
X64641Y-35824D01*
X64805Y-35756D01*
X64836Y-35657D01*
X64836Y-36900D01*
X47392Y-36900D01*
X47342Y-36850D01*
X58750Y-36850D01*
X58804Y-36839D01*
X58860Y-36832D01*
X59610Y-36582D01*
X59622Y-36575D01*
X59633Y-36573D01*
X59674Y-36545D01*
X59729Y-36515D01*
X59737Y-36503D01*
X59747Y-36497D01*
X59819Y-36425D01*
X59834Y-36425D01*
X59990Y-36360D01*
X60110Y-36241D01*
X60174Y-36084D01*
X60175Y-35915D01*
X60110Y-35759D01*
X59991Y-35639D01*
X59834Y-35575D01*
X59665Y-35574D01*
X59552Y-35621D01*
X61975Y-33199D01*
X61974Y-33353D01*
X62054Y-33547D01*
X62200Y-33692D01*
X62200Y-34250D01*
X62222Y-34364D01*
X62287Y-34462D01*
X62537Y-34712D01*
X62537Y-34712D01*
X62537Y-34712D01*
X62931Y-35106D01*
X62920Y-35134D01*
X62919Y-35364D01*
X63008Y-35578D01*
X63171Y-35741D01*
X63384Y-35829D01*
X63614Y-35830D01*
X63828Y-35741D01*
X63991Y-35578D01*
X64000Y-35557D01*
X64092Y-35586D01*
X64429Y-35250D01*
X64092Y-34913D01*
X64000Y-34942D01*
X63991Y-34921D01*
X63828Y-34758D01*
X63615Y-34670D01*
X63385Y-34669D01*
X63356Y-34681D01*
X62962Y-34287D01*
X62962Y-34287D01*
X62962Y-34287D01*
X62800Y-34125D01*
X62800Y-33692D01*
X62944Y-33547D01*
X63024Y-33354D01*
X63025Y-33146D01*
X62945Y-32953D01*
X62797Y-32805D01*
X62604Y-32725D01*
X62449Y-32724D01*
X63962Y-31212D01*
X63962Y-31212D01*
X63962Y-31212D01*
X64249Y-30924D01*
X64334Y-30925D01*
X64490Y-30860D01*
X64610Y-30741D01*
X64674Y-30584D01*
X64675Y-30415D01*
X64610Y-30259D01*
X64491Y-30139D01*
X64334Y-30075D01*
X64279Y-30075D01*
X64279Y-29579D01*
X64268Y-29371D01*
X64210Y-29231D01*
X64117Y-29206D01*
X63820Y-29503D01*
X64117Y-29801D01*
X64210Y-29776D01*
X64279Y-29579D01*
X64279Y-30075D01*
X64165Y-30074D01*
X64047Y-30123D01*
X64047Y-29871D01*
X63750Y-29574D01*
X63679Y-29645D01*
X63679Y-29503D01*
X63382Y-29206D01*
X63289Y-29231D01*
X63220Y-29428D01*
X63231Y-29636D01*
X63289Y-29776D01*
X63382Y-29801D01*
X63679Y-29503D01*
X63679Y-29645D01*
X63452Y-29871D01*
X63477Y-29964D01*
X63674Y-30033D01*
X63882Y-30022D01*
X64022Y-29964D01*
X64047Y-29871D01*
X64047Y-30123D01*
X64009Y-30139D01*
X63889Y-30258D01*
X63825Y-30415D01*
X63824Y-30500D01*
X63537Y-30787D01*
X63537Y-30787D01*
X63029Y-31295D01*
X63029Y-30325D01*
X63018Y-30117D01*
X62960Y-29977D01*
X62867Y-29952D01*
X62797Y-30023D01*
X62797Y-29882D01*
X62772Y-29789D01*
X62575Y-29720D01*
X62367Y-29731D01*
X62227Y-29789D01*
X62202Y-29882D01*
X62500Y-30179D01*
X62797Y-29882D01*
X62797Y-30023D01*
X62570Y-30250D01*
X62867Y-30547D01*
X62960Y-30522D01*
X63029Y-30325D01*
X63029Y-31295D01*
X62797Y-31528D01*
X62797Y-30617D01*
X62500Y-30320D01*
X62429Y-30391D01*
X62429Y-30250D01*
X62132Y-29952D01*
X62039Y-29977D01*
X61970Y-30174D01*
X61981Y-30382D01*
X62039Y-30522D01*
X62132Y-30547D01*
X62429Y-30250D01*
X62429Y-30391D01*
X62202Y-30617D01*
X62227Y-30710D01*
X62424Y-30779D01*
X62632Y-30768D01*
X62772Y-30710D01*
X62797Y-30617D01*
X62797Y-31528D01*
X58625Y-35700D01*
X56224Y-35700D01*
X60712Y-31212D01*
X60712Y-31212D01*
X60712Y-31212D01*
X60999Y-30924D01*
X61084Y-30925D01*
X61240Y-30860D01*
X61360Y-30741D01*
X61424Y-30584D01*
X61425Y-30415D01*
X61360Y-30259D01*
X61279Y-30178D01*
X61279Y-29579D01*
X61268Y-29371D01*
X61210Y-29231D01*
X61117Y-29206D01*
X60820Y-29503D01*
X61117Y-29801D01*
X61210Y-29776D01*
X61279Y-29579D01*
X61279Y-30178D01*
X61241Y-30139D01*
X61084Y-30075D01*
X61047Y-30075D01*
X61047Y-29871D01*
X60750Y-29574D01*
X60679Y-29645D01*
X60679Y-29503D01*
X60382Y-29206D01*
X60289Y-29231D01*
X60220Y-29428D01*
X60231Y-29636D01*
X60289Y-29776D01*
X60382Y-29801D01*
X60679Y-29503D01*
X60679Y-29645D01*
X60452Y-29871D01*
X60477Y-29964D01*
X60674Y-30033D01*
X60882Y-30022D01*
X61022Y-29964D01*
X61047Y-29871D01*
X61047Y-30075D01*
X60915Y-30074D01*
X60759Y-30139D01*
X60639Y-30258D01*
X60575Y-30415D01*
X60574Y-30500D01*
X60287Y-30787D01*
X60287Y-30787D01*
X60029Y-31045D01*
X60029Y-30325D01*
X60018Y-30117D01*
X59960Y-29977D01*
X59867Y-29952D01*
X59797Y-30023D01*
X59797Y-29882D01*
X59772Y-29789D01*
X59575Y-29720D01*
X59367Y-29731D01*
X59227Y-29789D01*
X59202Y-29882D01*
X59500Y-30179D01*
X59797Y-29882D01*
X59797Y-30023D01*
X59570Y-30250D01*
X59867Y-30547D01*
X59960Y-30522D01*
X60029Y-30325D01*
X60029Y-31045D01*
X59797Y-31278D01*
X59797Y-30617D01*
X59500Y-30320D01*
X59429Y-30391D01*
X59429Y-30250D01*
X59132Y-29952D01*
X59039Y-29977D01*
X58970Y-30174D01*
X58981Y-30382D01*
X59039Y-30522D01*
X59132Y-30547D01*
X59429Y-30250D01*
X59429Y-30391D01*
X59202Y-30617D01*
X59227Y-30710D01*
X59424Y-30779D01*
X59632Y-30768D01*
X59772Y-30710D01*
X59797Y-30617D01*
X59797Y-31278D01*
X55625Y-35450D01*
X53474Y-35450D01*
X57712Y-31212D01*
X57999Y-30924D01*
X58084Y-30925D01*
X58240Y-30860D01*
X58360Y-30741D01*
X58424Y-30584D01*
X58425Y-30415D01*
X58360Y-30259D01*
X58279Y-30178D01*
X58279Y-29579D01*
X58268Y-29371D01*
X58210Y-29231D01*
X58117Y-29206D01*
X57820Y-29503D01*
X58117Y-29801D01*
X58210Y-29776D01*
X58279Y-29579D01*
X58279Y-30178D01*
X58241Y-30139D01*
X58084Y-30075D01*
X58047Y-30075D01*
X58047Y-29871D01*
X57750Y-29574D01*
X57679Y-29645D01*
X57679Y-29503D01*
X57382Y-29206D01*
X57289Y-29231D01*
X57220Y-29428D01*
X57231Y-29636D01*
X57289Y-29776D01*
X57382Y-29801D01*
X57679Y-29503D01*
X57679Y-29645D01*
X57452Y-29871D01*
X57477Y-29964D01*
X57674Y-30033D01*
X57882Y-30022D01*
X58022Y-29964D01*
X58047Y-29871D01*
X58047Y-30075D01*
X57915Y-30074D01*
X57759Y-30139D01*
X57639Y-30258D01*
X57575Y-30415D01*
X57574Y-30500D01*
X57287Y-30787D01*
X57029Y-31045D01*
X57029Y-30325D01*
X57018Y-30117D01*
X56960Y-29977D01*
X56867Y-29952D01*
X56797Y-30023D01*
X56797Y-29882D01*
X56772Y-29789D01*
X56575Y-29720D01*
X56367Y-29731D01*
X56227Y-29789D01*
X56202Y-29882D01*
X56500Y-30179D01*
X56797Y-29882D01*
X56797Y-30023D01*
X56570Y-30250D01*
X56867Y-30547D01*
X56960Y-30522D01*
X57029Y-30325D01*
X57029Y-31045D01*
X56797Y-31278D01*
X56797Y-30617D01*
X56500Y-30320D01*
X56429Y-30391D01*
X56429Y-30250D01*
X56132Y-29952D01*
X56039Y-29977D01*
X55970Y-30174D01*
X55981Y-30382D01*
X56039Y-30522D01*
X56132Y-30547D01*
X56429Y-30250D01*
X56429Y-30391D01*
X56202Y-30617D01*
X56227Y-30710D01*
X56424Y-30779D01*
X56632Y-30768D01*
X56772Y-30710D01*
X56797Y-30617D01*
X56797Y-31278D01*
X54050Y-34025D01*
X54050Y-28391D01*
X54029Y-28340D01*
X54029Y-25896D01*
X53949Y-25703D01*
X53801Y-25555D01*
X53793Y-25551D01*
X53781Y-25489D01*
X53716Y-25391D01*
X53716Y-25391D01*
X53212Y-24887D01*
X53114Y-24822D01*
X53000Y-24800D01*
X51301Y-24800D01*
X51241Y-24739D01*
X51084Y-24675D01*
X50915Y-24674D01*
X50759Y-24739D01*
X50639Y-24858D01*
X50575Y-25015D01*
X50575Y-25082D01*
X50547Y-25055D01*
X50354Y-24975D01*
X50146Y-24974D01*
X49953Y-25054D01*
X49805Y-25202D01*
X49725Y-25395D01*
X49724Y-25603D01*
X49764Y-25700D01*
X49029Y-25700D01*
X49029Y-25075D01*
X49018Y-24867D01*
X48960Y-24727D01*
X48867Y-24702D01*
X48797Y-24773D01*
X48797Y-24632D01*
X48772Y-24539D01*
X48575Y-24470D01*
X48367Y-24481D01*
X48227Y-24539D01*
X48202Y-24632D01*
X48500Y-24929D01*
X48797Y-24632D01*
X48797Y-24773D01*
X48570Y-25000D01*
X48867Y-25297D01*
X48960Y-25272D01*
X49029Y-25075D01*
X49029Y-25700D01*
X48797Y-25700D01*
X48797Y-25367D01*
X48500Y-25070D01*
X48429Y-25141D01*
X48429Y-25000D01*
X48132Y-24702D01*
X48039Y-24727D01*
X48000Y-24837D01*
X47945Y-24703D01*
X47797Y-24555D01*
X47604Y-24475D01*
X47396Y-24474D01*
X47203Y-24554D01*
X47055Y-24702D01*
X46975Y-24895D01*
X46974Y-25103D01*
X47054Y-25297D01*
X47202Y-25444D01*
X47395Y-25524D01*
X47603Y-25525D01*
X47797Y-25445D01*
X47944Y-25297D01*
X47997Y-25171D01*
X48039Y-25272D01*
X48132Y-25297D01*
X48429Y-25000D01*
X48429Y-25141D01*
X48202Y-25367D01*
X48227Y-25460D01*
X48424Y-25529D01*
X48632Y-25518D01*
X48772Y-25460D01*
X48797Y-25367D01*
X48797Y-25700D01*
X46624Y-25700D01*
X46412Y-25488D01*
X46416Y-25487D01*
X46486Y-25416D01*
X46524Y-25324D01*
X46525Y-25225D01*
X46525Y-24675D01*
X46487Y-24583D01*
X46416Y-24513D01*
X46324Y-24475D01*
X46225Y-24474D01*
X45675Y-24474D01*
X45583Y-24512D01*
X45513Y-24583D01*
X45475Y-24675D01*
X45474Y-24762D01*
X45460Y-24727D01*
X45367Y-24702D01*
X45297Y-24773D01*
X45297Y-24632D01*
X45272Y-24539D01*
X45075Y-24470D01*
X44867Y-24481D01*
X44727Y-24539D01*
X44702Y-24632D01*
X45000Y-24929D01*
X45297Y-24632D01*
X45297Y-24773D01*
X45070Y-25000D01*
X45367Y-25297D01*
X45460Y-25272D01*
X45474Y-25231D01*
X45474Y-25324D01*
X45512Y-25416D01*
X45583Y-25486D01*
X45675Y-25524D01*
X45704Y-25524D01*
X45722Y-25614D01*
X45787Y-25712D01*
X46287Y-26212D01*
X46287Y-26212D01*
X46385Y-26277D01*
X46500Y-26300D01*
X50775Y-26300D01*
X50037Y-27037D01*
X49972Y-27135D01*
X49950Y-27250D01*
X49950Y-28057D01*
X49805Y-28202D01*
X49725Y-28395D01*
X49724Y-28603D01*
X49804Y-28797D01*
X49952Y-28944D01*
X50145Y-29024D01*
X50353Y-29025D01*
X50547Y-28945D01*
X50694Y-28797D01*
X50774Y-28604D01*
X50775Y-28396D01*
X50695Y-28203D01*
X50550Y-28057D01*
X50550Y-27374D01*
X51399Y-26525D01*
X51824Y-26525D01*
X51916Y-26487D01*
X51986Y-26416D01*
X52024Y-26324D01*
X52025Y-26225D01*
X52025Y-26225D01*
X52054Y-26297D01*
X52202Y-26444D01*
X52395Y-26524D01*
X52554Y-26525D01*
X52287Y-26791D01*
X52222Y-26889D01*
X52200Y-27003D01*
X52200Y-27028D01*
X52188Y-27033D01*
X52034Y-27188D01*
X51950Y-27390D01*
X51949Y-27608D01*
X52033Y-27811D01*
X52188Y-27965D01*
X52390Y-28049D01*
X52608Y-28050D01*
X52811Y-27966D01*
X52965Y-27811D01*
X53049Y-27609D01*
X53050Y-27391D01*
X52966Y-27188D01*
X52853Y-27075D01*
X53403Y-26524D01*
X53607Y-26525D01*
X53800Y-26445D01*
X53948Y-26297D01*
X54028Y-26104D01*
X54029Y-25896D01*
X54029Y-28340D01*
X53966Y-28188D01*
X53811Y-28034D01*
X53609Y-27950D01*
X53391Y-27949D01*
X53188Y-28033D01*
X53034Y-28188D01*
X52950Y-28390D01*
X52949Y-28608D01*
X53033Y-28811D01*
X53188Y-28965D01*
X53390Y-29049D01*
X53608Y-29050D01*
X53811Y-28966D01*
X53965Y-28811D01*
X54049Y-28609D01*
X54050Y-28391D01*
X54050Y-34025D01*
X52875Y-35200D01*
X52054Y-35200D01*
X52054Y-28581D01*
X52043Y-28363D01*
X51981Y-28212D01*
X51885Y-28184D01*
X51815Y-28255D01*
X51815Y-28114D01*
X51787Y-28018D01*
X51581Y-27945D01*
X51363Y-27956D01*
X51212Y-28018D01*
X51184Y-28114D01*
X51500Y-28429D01*
X51815Y-28114D01*
X51815Y-28255D01*
X51570Y-28500D01*
X51885Y-28815D01*
X51981Y-28787D01*
X52054Y-28581D01*
X52054Y-35200D01*
X51815Y-35200D01*
X51815Y-28885D01*
X51500Y-28570D01*
X51429Y-28641D01*
X51429Y-28500D01*
X51114Y-28184D01*
X51018Y-28212D01*
X50945Y-28418D01*
X50956Y-28636D01*
X51018Y-28787D01*
X51114Y-28815D01*
X51429Y-28500D01*
X51429Y-28641D01*
X51184Y-28885D01*
X51212Y-28981D01*
X51418Y-29054D01*
X51636Y-29043D01*
X51787Y-28981D01*
X51815Y-28885D01*
X51815Y-35200D01*
X49525Y-35200D01*
X49525Y-34396D01*
X49525Y-26896D01*
X49445Y-26703D01*
X49297Y-26555D01*
X49104Y-26475D01*
X48896Y-26474D01*
X48703Y-26554D01*
X48555Y-26702D01*
X48499Y-26835D01*
X48445Y-26703D01*
X48297Y-26555D01*
X48104Y-26475D01*
X47896Y-26474D01*
X47703Y-26554D01*
X47555Y-26702D01*
X47499Y-26835D01*
X47445Y-26703D01*
X47297Y-26555D01*
X47104Y-26475D01*
X46896Y-26474D01*
X46703Y-26554D01*
X46555Y-26702D01*
X46525Y-26774D01*
X46525Y-26774D01*
X46524Y-26675D01*
X46486Y-26583D01*
X46416Y-26512D01*
X46324Y-26474D01*
X46112Y-26475D01*
X46050Y-26537D01*
X46050Y-26950D01*
X46057Y-26950D01*
X46057Y-27050D01*
X46050Y-27050D01*
X46050Y-27462D01*
X46112Y-27525D01*
X46324Y-27525D01*
X46416Y-27487D01*
X46486Y-27416D01*
X46524Y-27324D01*
X46525Y-27225D01*
X46525Y-27225D01*
X46554Y-27297D01*
X46702Y-27444D01*
X46895Y-27524D01*
X47103Y-27525D01*
X47297Y-27445D01*
X47444Y-27297D01*
X47500Y-27164D01*
X47554Y-27297D01*
X47702Y-27444D01*
X47895Y-27524D01*
X48103Y-27525D01*
X48297Y-27445D01*
X48444Y-27297D01*
X48500Y-27164D01*
X48554Y-27297D01*
X48702Y-27444D01*
X48895Y-27524D01*
X49103Y-27525D01*
X49297Y-27445D01*
X49444Y-27297D01*
X49524Y-27104D01*
X49525Y-26896D01*
X49525Y-34396D01*
X49525Y-34395D01*
X49525Y-28725D01*
X49525Y-28175D01*
X49487Y-28083D01*
X49416Y-28013D01*
X49324Y-27975D01*
X49225Y-27974D01*
X48675Y-27974D01*
X48583Y-28012D01*
X48513Y-28083D01*
X48475Y-28175D01*
X48474Y-28274D01*
X48474Y-28274D01*
X48445Y-28203D01*
X48297Y-28055D01*
X48104Y-27975D01*
X47896Y-27974D01*
X47703Y-28054D01*
X47555Y-28202D01*
X47499Y-28335D01*
X47445Y-28203D01*
X47297Y-28055D01*
X47104Y-27975D01*
X46896Y-27974D01*
X46703Y-28054D01*
X46555Y-28202D01*
X46502Y-28328D01*
X46460Y-28227D01*
X46367Y-28202D01*
X46297Y-28273D01*
X46297Y-28132D01*
X46272Y-28039D01*
X46075Y-27970D01*
X45950Y-27976D01*
X45950Y-27462D01*
X45950Y-27050D01*
X45950Y-26950D01*
X45950Y-26537D01*
X45887Y-26475D01*
X45675Y-26474D01*
X45583Y-26512D01*
X45513Y-26583D01*
X45475Y-26675D01*
X45474Y-26774D01*
X45475Y-26887D01*
X45537Y-26950D01*
X45950Y-26950D01*
X45950Y-27050D01*
X45537Y-27050D01*
X45475Y-27112D01*
X45474Y-27225D01*
X45475Y-27324D01*
X45513Y-27416D01*
X45583Y-27487D01*
X45675Y-27525D01*
X45887Y-27525D01*
X45950Y-27462D01*
X45950Y-27976D01*
X45867Y-27981D01*
X45727Y-28039D01*
X45702Y-28132D01*
X46000Y-28429D01*
X46297Y-28132D01*
X46297Y-28273D01*
X46070Y-28500D01*
X46367Y-28797D01*
X46460Y-28772D01*
X46499Y-28662D01*
X46554Y-28797D01*
X46702Y-28944D01*
X46895Y-29024D01*
X47103Y-29025D01*
X47297Y-28945D01*
X47444Y-28797D01*
X47500Y-28664D01*
X47554Y-28797D01*
X47702Y-28944D01*
X47895Y-29024D01*
X48103Y-29025D01*
X48297Y-28945D01*
X48444Y-28797D01*
X48474Y-28725D01*
X48474Y-28824D01*
X48512Y-28916D01*
X48583Y-28986D01*
X48675Y-29024D01*
X48774Y-29025D01*
X49324Y-29025D01*
X49416Y-28987D01*
X49486Y-28916D01*
X49524Y-28824D01*
X49525Y-28725D01*
X49525Y-34395D01*
X49445Y-34203D01*
X49297Y-34055D01*
X49104Y-33975D01*
X48896Y-33974D01*
X48703Y-34054D01*
X48555Y-34202D01*
X48502Y-34328D01*
X48460Y-34227D01*
X48367Y-34202D01*
X48297Y-34273D01*
X48297Y-34132D01*
X48272Y-34039D01*
X48075Y-33970D01*
X47867Y-33981D01*
X47727Y-34039D01*
X47702Y-34132D01*
X48000Y-34429D01*
X48297Y-34132D01*
X48297Y-34273D01*
X48070Y-34500D01*
X48367Y-34797D01*
X48460Y-34772D01*
X48499Y-34662D01*
X48554Y-34797D01*
X48702Y-34944D01*
X48895Y-35024D01*
X49103Y-35025D01*
X49297Y-34945D01*
X49444Y-34797D01*
X49524Y-34604D01*
X49525Y-34396D01*
X49525Y-35200D01*
X48297Y-35200D01*
X48297Y-34867D01*
X48000Y-34570D01*
X47702Y-34867D01*
X47727Y-34960D01*
X47924Y-35029D01*
X48132Y-35018D01*
X48272Y-34960D01*
X48297Y-34867D01*
X48297Y-35200D01*
X43124Y-35200D01*
X42949Y-35024D01*
X43103Y-35025D01*
X43297Y-34945D01*
X43444Y-34797D01*
X43500Y-34664D01*
X43554Y-34797D01*
X43702Y-34944D01*
X43895Y-35024D01*
X44103Y-35025D01*
X44297Y-34945D01*
X44444Y-34797D01*
X44500Y-34664D01*
X44554Y-34797D01*
X44702Y-34944D01*
X44895Y-35024D01*
X45103Y-35025D01*
X45297Y-34945D01*
X45444Y-34797D01*
X45500Y-34664D01*
X45554Y-34797D01*
X45702Y-34944D01*
X45895Y-35024D01*
X46103Y-35025D01*
X46297Y-34945D01*
X46444Y-34797D01*
X46500Y-34664D01*
X46554Y-34797D01*
X46702Y-34944D01*
X46895Y-35024D01*
X47103Y-35025D01*
X47297Y-34945D01*
X47444Y-34797D01*
X47497Y-34671D01*
X47539Y-34772D01*
X47632Y-34797D01*
X47929Y-34500D01*
X47632Y-34202D01*
X47539Y-34227D01*
X47500Y-34337D01*
X47445Y-34203D01*
X47297Y-34055D01*
X47104Y-33975D01*
X46896Y-33974D01*
X46703Y-34054D01*
X46555Y-34202D01*
X46499Y-34335D01*
X46445Y-34203D01*
X46300Y-34057D01*
X46300Y-34000D01*
X46299Y-33999D01*
X46297Y-33985D01*
X46297Y-28867D01*
X46000Y-28570D01*
X45702Y-28867D01*
X45727Y-28960D01*
X45924Y-29029D01*
X46132Y-29018D01*
X46272Y-28960D01*
X46297Y-28867D01*
X46297Y-33985D01*
X46277Y-33885D01*
X46212Y-33787D01*
X46212Y-33787D01*
X45779Y-33355D01*
X45779Y-31325D01*
X45768Y-31117D01*
X45710Y-30977D01*
X45617Y-30952D01*
X45547Y-31023D01*
X45547Y-30882D01*
X45522Y-30789D01*
X45325Y-30720D01*
X45117Y-30731D01*
X44977Y-30789D01*
X44952Y-30882D01*
X45250Y-31179D01*
X45547Y-30882D01*
X45547Y-31023D01*
X45320Y-31250D01*
X45617Y-31547D01*
X45710Y-31522D01*
X45779Y-31325D01*
X45779Y-33355D01*
X45547Y-33122D01*
X45547Y-31617D01*
X45250Y-31320D01*
X44952Y-31617D01*
X44977Y-31710D01*
X45174Y-31779D01*
X45382Y-31768D01*
X45522Y-31710D01*
X45547Y-31617D01*
X45547Y-33122D01*
X44212Y-31787D01*
X44192Y-31774D01*
X44353Y-31775D01*
X44547Y-31695D01*
X44694Y-31547D01*
X44747Y-31421D01*
X44789Y-31522D01*
X44882Y-31547D01*
X45179Y-31250D01*
X44882Y-30952D01*
X44789Y-30977D01*
X44750Y-31087D01*
X44695Y-30953D01*
X44547Y-30805D01*
X44354Y-30725D01*
X44146Y-30724D01*
X43953Y-30804D01*
X43805Y-30952D01*
X43725Y-31145D01*
X43724Y-31350D01*
X43375Y-31700D01*
X43000Y-31700D01*
X42874Y-31700D01*
X42524Y-31350D01*
X42525Y-31146D01*
X42445Y-30953D01*
X42297Y-30805D01*
X42104Y-30725D01*
X41896Y-30724D01*
X41703Y-30804D01*
X41555Y-30952D01*
X41475Y-31145D01*
X41474Y-31353D01*
X41554Y-31547D01*
X41702Y-31694D01*
X41714Y-31700D01*
X40124Y-31700D01*
X39800Y-31375D01*
X39800Y-28985D01*
X39895Y-29024D01*
X40103Y-29025D01*
X40297Y-28945D01*
X40444Y-28797D01*
X40500Y-28664D01*
X40554Y-28797D01*
X40702Y-28944D01*
X40895Y-29024D01*
X41103Y-29025D01*
X41297Y-28945D01*
X41444Y-28797D01*
X41500Y-28664D01*
X41554Y-28797D01*
X41702Y-28944D01*
X41895Y-29024D01*
X42103Y-29025D01*
X42297Y-28945D01*
X42444Y-28797D01*
X42500Y-28664D01*
X42554Y-28797D01*
X42702Y-28944D01*
X42895Y-29024D01*
X43103Y-29025D01*
X43297Y-28945D01*
X43444Y-28797D01*
X43500Y-28664D01*
X43554Y-28797D01*
X43702Y-28944D01*
X43895Y-29024D01*
X44103Y-29025D01*
X44297Y-28945D01*
X44444Y-28797D01*
X44500Y-28664D01*
X44554Y-28797D01*
X44702Y-28944D01*
X44895Y-29024D01*
X45103Y-29025D01*
X45297Y-28945D01*
X45444Y-28797D01*
X45497Y-28671D01*
X45539Y-28772D01*
X45632Y-28797D01*
X45929Y-28500D01*
X45632Y-28202D01*
X45539Y-28227D01*
X45500Y-28337D01*
X45445Y-28203D01*
X45297Y-28055D01*
X45297Y-28054D01*
X45297Y-25367D01*
X45000Y-25070D01*
X44702Y-25367D01*
X44727Y-25460D01*
X44924Y-25529D01*
X45132Y-25518D01*
X45272Y-25460D01*
X45297Y-25367D01*
X45297Y-28054D01*
X45104Y-27975D01*
X44896Y-27974D01*
X44703Y-28054D01*
X44555Y-28202D01*
X44499Y-28335D01*
X44445Y-28203D01*
X44300Y-28057D01*
X44300Y-25442D01*
X44444Y-25297D01*
X44497Y-25171D01*
X44539Y-25272D01*
X44632Y-25297D01*
X44929Y-25000D01*
X44632Y-24702D01*
X44539Y-24727D01*
X44500Y-24837D01*
X44445Y-24703D01*
X44297Y-24555D01*
X44104Y-24475D01*
X43896Y-24474D01*
X43703Y-24554D01*
X43555Y-24702D01*
X43499Y-24835D01*
X43445Y-24703D01*
X43297Y-24555D01*
X43104Y-24475D01*
X42896Y-24474D01*
X42703Y-24554D01*
X42555Y-24702D01*
X42499Y-24835D01*
X42445Y-24703D01*
X42297Y-24555D01*
X42104Y-24475D01*
X41896Y-24474D01*
X41703Y-24554D01*
X41555Y-24702D01*
X41499Y-24835D01*
X41445Y-24703D01*
X41297Y-24555D01*
X41104Y-24475D01*
X40896Y-24474D01*
X40703Y-24554D01*
X40555Y-24702D01*
X40499Y-24835D01*
X40445Y-24703D01*
X40297Y-24555D01*
X40104Y-24475D01*
X39896Y-24474D01*
X39703Y-24554D01*
X39555Y-24702D01*
X39475Y-24895D01*
X39474Y-25103D01*
X39554Y-25297D01*
X39700Y-25442D01*
X39700Y-27775D01*
X38800Y-26875D01*
X38800Y-25442D01*
X38944Y-25297D01*
X39024Y-25104D01*
X39025Y-24896D01*
X38945Y-24703D01*
X38797Y-24555D01*
X38604Y-24475D01*
X38396Y-24474D01*
X38203Y-24554D01*
X38055Y-24702D01*
X38002Y-24828D01*
X37960Y-24727D01*
X37867Y-24702D01*
X37797Y-24773D01*
X37797Y-24632D01*
X37772Y-24539D01*
X37575Y-24470D01*
X37367Y-24481D01*
X37227Y-24539D01*
X37202Y-24632D01*
X37500Y-24929D01*
X37797Y-24632D01*
X37797Y-24773D01*
X37570Y-25000D01*
X37867Y-25297D01*
X37960Y-25272D01*
X37999Y-25162D01*
X38054Y-25297D01*
X38200Y-25442D01*
X38200Y-26775D01*
X37797Y-26372D01*
X37797Y-25367D01*
X37500Y-25070D01*
X37202Y-25367D01*
X37227Y-25460D01*
X37424Y-25529D01*
X37632Y-25518D01*
X37772Y-25460D01*
X37797Y-25367D01*
X37797Y-26372D01*
X36912Y-25488D01*
X36916Y-25487D01*
X36986Y-25416D01*
X37024Y-25324D01*
X37025Y-25237D01*
X37039Y-25272D01*
X37132Y-25297D01*
X37429Y-25000D01*
X37132Y-24702D01*
X37039Y-24727D01*
X37025Y-24768D01*
X37025Y-24675D01*
X36987Y-24583D01*
X36916Y-24513D01*
X36824Y-24475D01*
X36725Y-24474D01*
X36175Y-24474D01*
X36083Y-24512D01*
X36013Y-24583D01*
X35975Y-24675D01*
X35974Y-24774D01*
X35974Y-25324D01*
X36012Y-25416D01*
X36083Y-25486D01*
X36175Y-25524D01*
X36200Y-25524D01*
X36200Y-25909D01*
X36099Y-25951D01*
X35951Y-26098D01*
X35871Y-26291D01*
X35871Y-26447D01*
X35300Y-25875D01*
X35300Y-25442D01*
X35444Y-25297D01*
X35524Y-25104D01*
X35525Y-24896D01*
X35445Y-24703D01*
X35297Y-24555D01*
X35104Y-24475D01*
X34896Y-24474D01*
X34703Y-24554D01*
X34555Y-24702D01*
X34525Y-24774D01*
X34525Y-24675D01*
X34487Y-24583D01*
X34416Y-24513D01*
X34324Y-24475D01*
X34225Y-24474D01*
X33675Y-24474D01*
X33583Y-24512D01*
X33513Y-24583D01*
X33475Y-24675D01*
X33474Y-24774D01*
X33474Y-25324D01*
X33512Y-25416D01*
X33583Y-25486D01*
X33675Y-25524D01*
X33700Y-25524D01*
X33700Y-26000D01*
X33722Y-26114D01*
X33787Y-26212D01*
X35666Y-28090D01*
X35555Y-28202D01*
X35499Y-28335D01*
X35445Y-28203D01*
X35297Y-28055D01*
X35104Y-27975D01*
X34899Y-27974D01*
X33212Y-26287D01*
X33114Y-26222D01*
X33000Y-26200D01*
X28029Y-26200D01*
X28029Y-25575D01*
X28025Y-25486D01*
X28025Y-24725D01*
X28025Y-24175D01*
X27987Y-24083D01*
X27916Y-24013D01*
X27824Y-23975D01*
X27725Y-23974D01*
X27175Y-23974D01*
X27083Y-24012D01*
X27013Y-24083D01*
X26984Y-24153D01*
X26866Y-24176D01*
X26752Y-24252D01*
X26252Y-24752D01*
X26176Y-24866D01*
X26150Y-25000D01*
X26150Y-33855D01*
X25051Y-34953D01*
X24752Y-35252D01*
X24676Y-35366D01*
X24676Y-35366D01*
X24650Y-35500D01*
X24650Y-36000D01*
X24650Y-38000D01*
X24676Y-38133D01*
X24752Y-38247D01*
X24974Y-38469D01*
X24974Y-38824D01*
X25012Y-38916D01*
X25083Y-38986D01*
X25175Y-39024D01*
X25274Y-39025D01*
X25824Y-39025D01*
X25916Y-38987D01*
X25986Y-38916D01*
X26024Y-38824D01*
X26025Y-38725D01*
X26025Y-38175D01*
X25987Y-38083D01*
X25916Y-38013D01*
X25824Y-37975D01*
X25725Y-37974D01*
X25725Y-37974D01*
X25797Y-37945D01*
X25944Y-37797D01*
X26024Y-37604D01*
X26025Y-37396D01*
X25945Y-37203D01*
X25797Y-37055D01*
X25660Y-36997D01*
X25797Y-36941D01*
X25944Y-36793D01*
X26024Y-36600D01*
X26025Y-36392D01*
X25945Y-36199D01*
X25797Y-36051D01*
X25604Y-35971D01*
X25396Y-35970D01*
X25350Y-35989D01*
X25350Y-35644D01*
X26747Y-34247D01*
X26747Y-34247D01*
X26747Y-34247D01*
X26823Y-34133D01*
X26850Y-34000D01*
X26850Y-25144D01*
X27045Y-24949D01*
X27083Y-24986D01*
X27175Y-25024D01*
X27262Y-25025D01*
X27227Y-25039D01*
X27202Y-25132D01*
X27500Y-25429D01*
X27797Y-25132D01*
X27772Y-25039D01*
X27731Y-25025D01*
X27824Y-25025D01*
X27916Y-24987D01*
X27986Y-24916D01*
X28024Y-24824D01*
X28025Y-24725D01*
X28025Y-25486D01*
X28018Y-25367D01*
X27960Y-25227D01*
X27867Y-25202D01*
X27570Y-25500D01*
X27867Y-25797D01*
X27960Y-25772D01*
X28029Y-25575D01*
X28029Y-26200D01*
X27942Y-26200D01*
X27797Y-26055D01*
X27671Y-26002D01*
X27772Y-25960D01*
X27797Y-25867D01*
X27500Y-25570D01*
X27429Y-25641D01*
X27429Y-25500D01*
X27132Y-25202D01*
X27039Y-25227D01*
X26970Y-25424D01*
X26981Y-25632D01*
X27039Y-25772D01*
X27132Y-25797D01*
X27429Y-25500D01*
X27429Y-25641D01*
X27202Y-25867D01*
X27227Y-25960D01*
X27337Y-25999D01*
X27203Y-26054D01*
X27055Y-26202D01*
X26975Y-26395D01*
X26974Y-26603D01*
X27054Y-26797D01*
X27202Y-26944D01*
X27335Y-27000D01*
X27203Y-27054D01*
X27055Y-27202D01*
X26975Y-27395D01*
X26974Y-27603D01*
X27054Y-27797D01*
X27202Y-27944D01*
X27335Y-28000D01*
X27203Y-28054D01*
X27055Y-28202D01*
X26975Y-28395D01*
X26974Y-28603D01*
X27054Y-28797D01*
X27202Y-28944D01*
X27335Y-29000D01*
X27203Y-29054D01*
X27055Y-29202D01*
X26975Y-29395D01*
X26974Y-29603D01*
X27054Y-29797D01*
X27202Y-29944D01*
X27335Y-30000D01*
X27203Y-30054D01*
X27055Y-30202D01*
X26975Y-30395D01*
X26974Y-30603D01*
X27054Y-30797D01*
X27202Y-30944D01*
X27395Y-31024D01*
X27603Y-31025D01*
X27797Y-30945D01*
X27944Y-30797D01*
X28024Y-30604D01*
X28025Y-30399D01*
X29124Y-29300D01*
X30500Y-29300D01*
X30500Y-29299D01*
X30614Y-29277D01*
X30614Y-29277D01*
X30712Y-29212D01*
X30899Y-29024D01*
X31103Y-29025D01*
X31297Y-28945D01*
X31444Y-28797D01*
X31500Y-28664D01*
X31554Y-28797D01*
X31702Y-28944D01*
X31895Y-29024D01*
X32103Y-29025D01*
X32297Y-28945D01*
X32444Y-28797D01*
X32500Y-28664D01*
X32554Y-28797D01*
X32702Y-28944D01*
X32895Y-29024D01*
X33103Y-29025D01*
X33297Y-28945D01*
X33444Y-28797D01*
X33500Y-28664D01*
X33554Y-28797D01*
X33702Y-28944D01*
X33895Y-29024D01*
X34103Y-29025D01*
X34297Y-28945D01*
X34444Y-28797D01*
X34500Y-28664D01*
X34554Y-28797D01*
X34702Y-28944D01*
X34895Y-29024D01*
X35103Y-29025D01*
X35297Y-28945D01*
X35444Y-28797D01*
X35500Y-28664D01*
X35554Y-28797D01*
X35702Y-28944D01*
X35895Y-29024D01*
X36103Y-29025D01*
X36297Y-28945D01*
X36444Y-28797D01*
X36500Y-28664D01*
X36554Y-28797D01*
X36702Y-28944D01*
X36895Y-29024D01*
X37103Y-29025D01*
X37297Y-28945D01*
X37444Y-28797D01*
X37500Y-28664D01*
X37554Y-28797D01*
X37702Y-28944D01*
X37895Y-29024D01*
X38103Y-29025D01*
X38297Y-28945D01*
X38444Y-28797D01*
X38500Y-28664D01*
X38554Y-28797D01*
X38700Y-28942D01*
X38700Y-30807D01*
X38555Y-30952D01*
X38475Y-31145D01*
X38474Y-31353D01*
X38554Y-31547D01*
X38702Y-31694D01*
X38714Y-31700D01*
X37525Y-31700D01*
X37525Y-29646D01*
X37445Y-29453D01*
X37297Y-29305D01*
X37104Y-29225D01*
X36896Y-29224D01*
X36703Y-29304D01*
X36555Y-29452D01*
X36475Y-29645D01*
X36474Y-29853D01*
X36554Y-30047D01*
X36702Y-30194D01*
X36895Y-30274D01*
X37103Y-30275D01*
X37297Y-30195D01*
X37444Y-30047D01*
X37524Y-29854D01*
X37525Y-29646D01*
X37525Y-31700D01*
X35275Y-31700D01*
X35275Y-29646D01*
X35195Y-29453D01*
X35047Y-29305D01*
X34854Y-29225D01*
X34646Y-29224D01*
X34453Y-29304D01*
X34305Y-29452D01*
X34225Y-29645D01*
X34224Y-29853D01*
X34304Y-30047D01*
X34452Y-30194D01*
X34645Y-30274D01*
X34853Y-30275D01*
X35047Y-30195D01*
X35194Y-30047D01*
X35274Y-29854D01*
X35275Y-29646D01*
X35275Y-31700D01*
X34025Y-31700D01*
X34025Y-30146D01*
X33945Y-29953D01*
X33797Y-29805D01*
X33604Y-29725D01*
X33396Y-29724D01*
X33203Y-29804D01*
X33055Y-29952D01*
X32975Y-30145D01*
X32974Y-30353D01*
X33054Y-30547D01*
X33202Y-30694D01*
X33395Y-30774D01*
X33603Y-30775D01*
X33797Y-30695D01*
X33944Y-30547D01*
X34024Y-30354D01*
X34025Y-30146D01*
X34025Y-31700D01*
X31025Y-31700D01*
X31025Y-30146D01*
X30945Y-29953D01*
X30797Y-29805D01*
X30604Y-29725D01*
X30396Y-29724D01*
X30203Y-29804D01*
X30055Y-29952D01*
X29975Y-30145D01*
X29974Y-30353D01*
X30054Y-30547D01*
X30202Y-30694D01*
X30395Y-30774D01*
X30603Y-30775D01*
X30797Y-30695D01*
X30944Y-30547D01*
X31024Y-30354D01*
X31025Y-30146D01*
X31025Y-31700D01*
X30485Y-31700D01*
X30524Y-31604D01*
X30525Y-31396D01*
X30445Y-31203D01*
X30297Y-31055D01*
X30104Y-30975D01*
X29896Y-30974D01*
X29703Y-31054D01*
X29555Y-31202D01*
X29475Y-31395D01*
X29474Y-31603D01*
X29514Y-31700D01*
X29500Y-31700D01*
X29385Y-31722D01*
X29287Y-31787D01*
X28025Y-33050D01*
X28025Y-32725D01*
X28025Y-32175D01*
X27987Y-32083D01*
X27916Y-32013D01*
X27824Y-31975D01*
X27725Y-31974D01*
X27175Y-31974D01*
X27083Y-32012D01*
X27013Y-32083D01*
X26975Y-32175D01*
X26974Y-32274D01*
X26974Y-32824D01*
X27012Y-32916D01*
X27083Y-32986D01*
X27175Y-33024D01*
X27262Y-33025D01*
X27227Y-33039D01*
X27202Y-33132D01*
X27500Y-33429D01*
X27797Y-33132D01*
X27772Y-33039D01*
X27731Y-33025D01*
X27824Y-33025D01*
X27916Y-32987D01*
X27986Y-32916D01*
X28024Y-32824D01*
X28025Y-32725D01*
X28025Y-33050D01*
X27871Y-33203D01*
X27867Y-33202D01*
X27570Y-33500D01*
X27576Y-33505D01*
X27505Y-33576D01*
X27500Y-33570D01*
X27429Y-33641D01*
X27429Y-33500D01*
X27132Y-33202D01*
X27039Y-33227D01*
X26970Y-33424D01*
X26981Y-33632D01*
X27039Y-33772D01*
X27132Y-33797D01*
X27429Y-33500D01*
X27429Y-33641D01*
X27202Y-33867D01*
X27227Y-33960D01*
X27337Y-33999D01*
X27203Y-34054D01*
X27055Y-34202D01*
X26975Y-34395D01*
X26974Y-34603D01*
X27054Y-34797D01*
X27200Y-34942D01*
X27200Y-35875D01*
X26287Y-36787D01*
X26222Y-36885D01*
X26200Y-37000D01*
X26200Y-39200D01*
X26200Y-39250D01*
X26200Y-40400D01*
X26222Y-40514D01*
X26287Y-40612D01*
X28169Y-42493D01*
X28124Y-42475D01*
X28025Y-42474D01*
X27475Y-42474D01*
X27383Y-42512D01*
X27313Y-42583D01*
X27275Y-42675D01*
X27274Y-42774D01*
X27274Y-43324D01*
X27312Y-43416D01*
X27383Y-43486D01*
X27475Y-43524D01*
X27500Y-43524D01*
X27500Y-44100D01*
X27522Y-44214D01*
X27587Y-44312D01*
X28131Y-44856D01*
X28120Y-44884D01*
X28119Y-45114D01*
X28208Y-45328D01*
X28371Y-45491D01*
X28400Y-45503D01*
X28400Y-47600D01*
X28422Y-47714D01*
X28487Y-47812D01*
X29887Y-49212D01*
X29887Y-49212D01*
X29985Y-49277D01*
X30100Y-49300D01*
X30957Y-49300D01*
X31102Y-49444D01*
X31235Y-49500D01*
X31103Y-49554D01*
X30955Y-49702D01*
X30875Y-49895D01*
X30874Y-50103D01*
X30954Y-50297D01*
X31102Y-50444D01*
X31235Y-50500D01*
X31103Y-50554D01*
X30955Y-50702D01*
X30875Y-50895D01*
X30874Y-51103D01*
X30954Y-51297D01*
X31102Y-51444D01*
X31235Y-51500D01*
X31103Y-51554D01*
X30955Y-51702D01*
X30875Y-51895D01*
X30874Y-52103D01*
X30954Y-52297D01*
X31102Y-52444D01*
X31235Y-52500D01*
X31103Y-52554D01*
X30955Y-52702D01*
X30875Y-52895D01*
X30874Y-53103D01*
X30954Y-53297D01*
X31102Y-53444D01*
X31295Y-53524D01*
X31503Y-53525D01*
X31697Y-53445D01*
X31844Y-53297D01*
X31924Y-53104D01*
X31925Y-52896D01*
X31845Y-52703D01*
X31697Y-52555D01*
X31564Y-52499D01*
X31697Y-52445D01*
X31844Y-52297D01*
X31924Y-52104D01*
X31925Y-51896D01*
X31845Y-51703D01*
X31697Y-51555D01*
X31564Y-51499D01*
X31697Y-51445D01*
X31844Y-51297D01*
X31924Y-51104D01*
X31925Y-50896D01*
X31845Y-50703D01*
X31697Y-50555D01*
X31564Y-50499D01*
X31697Y-50445D01*
X31844Y-50297D01*
X31924Y-50104D01*
X31925Y-49896D01*
X31845Y-49703D01*
X31697Y-49555D01*
X31564Y-49499D01*
X31697Y-49445D01*
X31844Y-49297D01*
X31924Y-49104D01*
X31925Y-48896D01*
X31845Y-48703D01*
X31697Y-48555D01*
X31564Y-48499D01*
X31697Y-48445D01*
X31842Y-48300D01*
X32000Y-48300D01*
X32000Y-48299D01*
X32114Y-48277D01*
X32114Y-48277D01*
X32212Y-48212D01*
X33212Y-47212D01*
X33212Y-47212D01*
X33277Y-47114D01*
X33299Y-47000D01*
X33300Y-47000D01*
X33300Y-39750D01*
X33300Y-39500D01*
X33300Y-34942D01*
X33444Y-34797D01*
X33500Y-34664D01*
X33554Y-34797D01*
X33700Y-34942D01*
X33700Y-38250D01*
X33700Y-43250D01*
X33722Y-43364D01*
X33787Y-43462D01*
X35537Y-45212D01*
X35537Y-45212D01*
X35635Y-45277D01*
X35750Y-45300D01*
X36474Y-45300D01*
X36474Y-45824D01*
X36512Y-45916D01*
X36583Y-45986D01*
X36675Y-46024D01*
X36774Y-46025D01*
X37324Y-46025D01*
X37416Y-45987D01*
X37486Y-45916D01*
X37524Y-45824D01*
X37525Y-45725D01*
X37525Y-45725D01*
X37554Y-45797D01*
X37702Y-45944D01*
X37895Y-46024D01*
X38103Y-46025D01*
X38297Y-45945D01*
X38444Y-45797D01*
X38500Y-45664D01*
X38554Y-45797D01*
X38702Y-45944D01*
X38895Y-46024D01*
X39103Y-46025D01*
X39297Y-45945D01*
X39444Y-45797D01*
X39497Y-45671D01*
X39539Y-45772D01*
X39632Y-45797D01*
X39929Y-45500D01*
X39632Y-45202D01*
X39539Y-45227D01*
X39500Y-45337D01*
X39445Y-45203D01*
X39297Y-45055D01*
X39104Y-44975D01*
X38896Y-44974D01*
X38703Y-45054D01*
X38555Y-45202D01*
X38499Y-45335D01*
X38445Y-45203D01*
X38297Y-45055D01*
X38104Y-44975D01*
X37899Y-44974D01*
X37712Y-44787D01*
X37614Y-44722D01*
X37500Y-44700D01*
X35874Y-44700D01*
X34300Y-43125D01*
X34300Y-38250D01*
X34300Y-34942D01*
X34444Y-34797D01*
X34500Y-34664D01*
X34554Y-34797D01*
X34700Y-34942D01*
X34700Y-37000D01*
X34700Y-38500D01*
X34700Y-43000D01*
X34722Y-43114D01*
X34787Y-43212D01*
X36037Y-44462D01*
X36135Y-44527D01*
X36250Y-44550D01*
X40875Y-44550D01*
X42700Y-46374D01*
X42700Y-46750D01*
X42700Y-47250D01*
X42700Y-48775D01*
X41712Y-47787D01*
X41614Y-47722D01*
X41525Y-47704D01*
X41525Y-45396D01*
X41445Y-45203D01*
X41297Y-45055D01*
X41104Y-44975D01*
X40896Y-44974D01*
X40703Y-45054D01*
X40555Y-45202D01*
X40502Y-45328D01*
X40460Y-45227D01*
X40367Y-45202D01*
X40297Y-45273D01*
X40297Y-45132D01*
X40272Y-45039D01*
X40075Y-44970D01*
X39867Y-44981D01*
X39727Y-45039D01*
X39702Y-45132D01*
X40000Y-45429D01*
X40297Y-45132D01*
X40297Y-45273D01*
X40070Y-45500D01*
X40367Y-45797D01*
X40460Y-45772D01*
X40499Y-45662D01*
X40554Y-45797D01*
X40702Y-45944D01*
X40895Y-46024D01*
X41103Y-46025D01*
X41297Y-45945D01*
X41444Y-45797D01*
X41524Y-45604D01*
X41525Y-45396D01*
X41525Y-47704D01*
X41500Y-47700D01*
X41442Y-47700D01*
X41297Y-47555D01*
X41104Y-47475D01*
X40896Y-47474D01*
X40703Y-47554D01*
X40555Y-47702D01*
X40475Y-47895D01*
X40474Y-48103D01*
X40554Y-48297D01*
X40632Y-48375D01*
X40555Y-48452D01*
X40475Y-48645D01*
X40474Y-48853D01*
X40554Y-49047D01*
X40700Y-49192D01*
X40700Y-49750D01*
X40700Y-50125D01*
X40297Y-50528D01*
X40297Y-45867D01*
X40000Y-45570D01*
X39702Y-45867D01*
X39727Y-45960D01*
X39924Y-46029D01*
X40132Y-46018D01*
X40272Y-45960D01*
X40297Y-45867D01*
X40297Y-50528D01*
X40100Y-50725D01*
X39896Y-50724D01*
X39703Y-50804D01*
X39555Y-50952D01*
X39502Y-51078D01*
X39460Y-50977D01*
X39367Y-50952D01*
X39297Y-51023D01*
X39297Y-50882D01*
X39272Y-50789D01*
X39075Y-50720D01*
X38867Y-50731D01*
X38727Y-50789D01*
X38702Y-50882D01*
X39000Y-51179D01*
X39297Y-50882D01*
X39297Y-51023D01*
X39070Y-51250D01*
X39367Y-51547D01*
X39460Y-51522D01*
X39499Y-51412D01*
X39554Y-51547D01*
X39702Y-51694D01*
X39895Y-51774D01*
X40103Y-51775D01*
X40297Y-51695D01*
X40444Y-51547D01*
X40500Y-51414D01*
X40554Y-51547D01*
X40702Y-51694D01*
X40895Y-51774D01*
X41103Y-51775D01*
X41297Y-51695D01*
X41444Y-51547D01*
X41524Y-51354D01*
X41525Y-51146D01*
X41445Y-50953D01*
X41297Y-50805D01*
X41104Y-50725D01*
X40949Y-50724D01*
X41212Y-50462D01*
X41212Y-50462D01*
X41277Y-50364D01*
X41299Y-50250D01*
X41300Y-50250D01*
X41300Y-49750D01*
X41300Y-49192D01*
X41444Y-49047D01*
X41524Y-48854D01*
X41525Y-48646D01*
X41445Y-48453D01*
X41367Y-48374D01*
X41409Y-48333D01*
X42200Y-49124D01*
X42200Y-49750D01*
X42200Y-53125D01*
X41875Y-53450D01*
X40442Y-53450D01*
X40297Y-53305D01*
X40164Y-53249D01*
X40297Y-53195D01*
X40444Y-53047D01*
X40524Y-52854D01*
X40525Y-52646D01*
X40445Y-52453D01*
X40297Y-52305D01*
X40104Y-52225D01*
X39896Y-52224D01*
X39703Y-52304D01*
X39555Y-52452D01*
X39475Y-52645D01*
X39474Y-52853D01*
X39554Y-53047D01*
X39702Y-53194D01*
X39835Y-53250D01*
X39703Y-53304D01*
X39555Y-53452D01*
X39475Y-53645D01*
X39474Y-53853D01*
X39554Y-54047D01*
X39702Y-54194D01*
X39895Y-54274D01*
X40103Y-54275D01*
X40297Y-54195D01*
X40442Y-54050D01*
X42000Y-54050D01*
X42000Y-54049D01*
X42114Y-54027D01*
X42114Y-54027D01*
X42212Y-53962D01*
X42475Y-53699D01*
X42474Y-53853D01*
X42554Y-54047D01*
X42702Y-54194D01*
X42895Y-54274D01*
X43103Y-54275D01*
X43297Y-54195D01*
X43444Y-54047D01*
X43524Y-53854D01*
X43525Y-53649D01*
X43712Y-53462D01*
X43712Y-53462D01*
X43777Y-53364D01*
X43799Y-53250D01*
X43800Y-53250D01*
X43800Y-47250D01*
X43800Y-46000D01*
X43777Y-45885D01*
X43712Y-45787D01*
X41212Y-43287D01*
X41114Y-43222D01*
X41000Y-43200D01*
X37124Y-43200D01*
X36300Y-42375D01*
X36300Y-38250D01*
X36300Y-38000D01*
X36300Y-37500D01*
X36300Y-36627D01*
X36415Y-36674D01*
X36584Y-36675D01*
X36740Y-36610D01*
X36750Y-36600D01*
X39250Y-36600D01*
X40193Y-36600D01*
X40889Y-36831D01*
X40938Y-36837D01*
X41000Y-36850D01*
X43657Y-36850D01*
X43555Y-36952D01*
X43475Y-37145D01*
X43474Y-37353D01*
X43554Y-37547D01*
X43702Y-37694D01*
X43895Y-37774D01*
X44103Y-37775D01*
X44297Y-37695D01*
X44444Y-37547D01*
X44524Y-37354D01*
X44525Y-37146D01*
X44445Y-36953D01*
X44342Y-36850D01*
X46657Y-36850D01*
X46555Y-36952D01*
X46475Y-37145D01*
X46474Y-37353D01*
X46554Y-37547D01*
X46702Y-37694D01*
X46895Y-37774D01*
X47103Y-37775D01*
X47297Y-37695D01*
X47392Y-37600D01*
X69750Y-37600D01*
X69883Y-37573D01*
X69883Y-37573D01*
X69997Y-37497D01*
X73144Y-34350D01*
X78107Y-34350D01*
X78202Y-34444D01*
X78395Y-34524D01*
X78603Y-34525D01*
X78797Y-34445D01*
X78944Y-34297D01*
X79024Y-34104D01*
X79025Y-33896D01*
X79025Y-63230D01*
X78801Y-63230D01*
X78532Y-63230D01*
X78541Y-63220D01*
X78497Y-63176D01*
X78644Y-63088D01*
X78801Y-62701D01*
X78798Y-62283D01*
X78644Y-61911D01*
X78497Y-61823D01*
X78426Y-61894D01*
X78426Y-61752D01*
X78338Y-61605D01*
X77951Y-61448D01*
X77533Y-61451D01*
X77161Y-61605D01*
X77073Y-61752D01*
X77750Y-62429D01*
X78426Y-61752D01*
X78426Y-61894D01*
X77820Y-62500D01*
X77826Y-62505D01*
X77755Y-62576D01*
X77750Y-62570D01*
X77744Y-62576D01*
X77679Y-62511D01*
X77673Y-62505D01*
X77679Y-62500D01*
X77002Y-61823D01*
X76855Y-61911D01*
X76698Y-62298D01*
X76701Y-62716D01*
X76855Y-63088D01*
X77002Y-63176D01*
X76958Y-63220D01*
X76967Y-63230D01*
X65769Y-63230D01*
X65769Y-50150D01*
X65769Y-39150D01*
X65749Y-39046D01*
X65690Y-38959D01*
X65603Y-38900D01*
X65500Y-38880D01*
X48000Y-38880D01*
X47896Y-38900D01*
X47809Y-38959D01*
X47750Y-39046D01*
X47730Y-39150D01*
X47730Y-50150D01*
X47730Y-50600D01*
X47730Y-50650D01*
X47730Y-52650D01*
X47750Y-52753D01*
X47809Y-52840D01*
X47896Y-52899D01*
X48000Y-52919D01*
X53000Y-52919D01*
X53103Y-52899D01*
X53190Y-52840D01*
X53249Y-52753D01*
X53269Y-52650D01*
X53269Y-50650D01*
X53269Y-50600D01*
X53269Y-50419D01*
X54000Y-50419D01*
X65500Y-50419D01*
X65603Y-50399D01*
X65690Y-50340D01*
X65749Y-50253D01*
X65769Y-50150D01*
X65769Y-63230D01*
X52075Y-63230D01*
X52075Y-54825D01*
X52075Y-54374D01*
X52074Y-54275D01*
X52036Y-54183D01*
X51966Y-54112D01*
X51874Y-54074D01*
X51662Y-54075D01*
X51600Y-54137D01*
X51600Y-54550D01*
X52012Y-54550D01*
X52075Y-54487D01*
X52075Y-54374D01*
X52075Y-54825D01*
X52075Y-54712D01*
X52012Y-54650D01*
X51600Y-54650D01*
X51600Y-55062D01*
X51662Y-55125D01*
X51874Y-55125D01*
X51966Y-55087D01*
X52036Y-55016D01*
X52074Y-54924D01*
X52075Y-54825D01*
X52075Y-63230D01*
X51500Y-63230D01*
X51500Y-55062D01*
X51500Y-54650D01*
X51492Y-54650D01*
X51492Y-54550D01*
X51500Y-54550D01*
X51500Y-54137D01*
X51437Y-54075D01*
X51225Y-54074D01*
X51133Y-54112D01*
X51063Y-54183D01*
X51025Y-54275D01*
X51024Y-54374D01*
X51024Y-54374D01*
X50995Y-54303D01*
X50847Y-54155D01*
X50840Y-54152D01*
X50827Y-54085D01*
X50762Y-53987D01*
X50762Y-53987D01*
X50612Y-53837D01*
X50514Y-53772D01*
X50400Y-53750D01*
X47774Y-53750D01*
X47550Y-53525D01*
X47550Y-39250D01*
X47527Y-39135D01*
X47462Y-39037D01*
X46424Y-38000D01*
X46425Y-37915D01*
X46360Y-37759D01*
X46241Y-37639D01*
X46084Y-37575D01*
X45915Y-37574D01*
X45759Y-37639D01*
X45639Y-37758D01*
X45575Y-37915D01*
X45574Y-38084D01*
X45639Y-38240D01*
X45758Y-38360D01*
X45915Y-38424D01*
X46000Y-38425D01*
X46950Y-39374D01*
X46950Y-39745D01*
X46894Y-39611D01*
X46747Y-39523D01*
X46676Y-39594D01*
X46676Y-39452D01*
X46588Y-39305D01*
X46201Y-39148D01*
X45783Y-39151D01*
X45411Y-39305D01*
X45323Y-39452D01*
X46000Y-40129D01*
X46676Y-39452D01*
X46676Y-39594D01*
X46070Y-40200D01*
X46747Y-40876D01*
X46894Y-40788D01*
X46950Y-40651D01*
X46950Y-53650D01*
X46972Y-53764D01*
X47037Y-53862D01*
X47437Y-54262D01*
X47437Y-54262D01*
X47535Y-54327D01*
X47649Y-54349D01*
X47650Y-54350D01*
X49085Y-54350D01*
X49025Y-54495D01*
X49024Y-54703D01*
X49104Y-54897D01*
X49252Y-55044D01*
X49445Y-55124D01*
X49653Y-55125D01*
X49847Y-55045D01*
X49994Y-54897D01*
X50050Y-54764D01*
X50104Y-54897D01*
X50252Y-55044D01*
X50445Y-55124D01*
X50653Y-55125D01*
X50847Y-55045D01*
X50994Y-54897D01*
X51024Y-54825D01*
X51024Y-54825D01*
X51025Y-54924D01*
X51063Y-55016D01*
X51133Y-55087D01*
X51225Y-55125D01*
X51437Y-55125D01*
X51500Y-55062D01*
X51500Y-63230D01*
X47051Y-63230D01*
X47051Y-62001D01*
X47048Y-61583D01*
X46894Y-61211D01*
X46747Y-61123D01*
X46676Y-61194D01*
X46676Y-61052D01*
X46676Y-40947D01*
X46000Y-40270D01*
X45929Y-40341D01*
X45929Y-40200D01*
X45252Y-39523D01*
X45105Y-39611D01*
X44948Y-39998D01*
X44951Y-40416D01*
X45105Y-40788D01*
X45252Y-40876D01*
X45929Y-40200D01*
X45929Y-40341D01*
X45323Y-40947D01*
X45411Y-41094D01*
X45798Y-41251D01*
X46216Y-41248D01*
X46588Y-41094D01*
X46676Y-40947D01*
X46676Y-61052D01*
X46588Y-60905D01*
X46201Y-60748D01*
X45783Y-60751D01*
X45411Y-60905D01*
X45323Y-61052D01*
X46000Y-61729D01*
X46676Y-61052D01*
X46676Y-61194D01*
X46070Y-61800D01*
X46747Y-62476D01*
X46894Y-62388D01*
X47051Y-62001D01*
X47051Y-63230D01*
X46676Y-63230D01*
X46676Y-62547D01*
X46000Y-61870D01*
X45929Y-61941D01*
X45929Y-61800D01*
X45252Y-61123D01*
X45105Y-61211D01*
X44948Y-61598D01*
X44951Y-62016D01*
X45105Y-62388D01*
X45252Y-62476D01*
X45929Y-61800D01*
X45929Y-61941D01*
X45323Y-62547D01*
X45411Y-62694D01*
X45798Y-62851D01*
X46216Y-62848D01*
X46588Y-62694D01*
X46676Y-62547D01*
X46676Y-63230D01*
X41525Y-63230D01*
X41525Y-56896D01*
X41445Y-56703D01*
X41297Y-56555D01*
X41104Y-56475D01*
X40896Y-56474D01*
X40703Y-56554D01*
X40555Y-56702D01*
X40502Y-56828D01*
X40460Y-56727D01*
X40367Y-56702D01*
X40297Y-56773D01*
X40297Y-56632D01*
X40272Y-56539D01*
X40075Y-56470D01*
X39867Y-56481D01*
X39727Y-56539D01*
X39702Y-56632D01*
X40000Y-56929D01*
X40297Y-56632D01*
X40297Y-56773D01*
X40070Y-57000D01*
X40367Y-57297D01*
X40460Y-57272D01*
X40499Y-57162D01*
X40554Y-57297D01*
X40702Y-57444D01*
X40895Y-57524D01*
X41103Y-57525D01*
X41297Y-57445D01*
X41444Y-57297D01*
X41524Y-57104D01*
X41525Y-56896D01*
X41525Y-63230D01*
X40297Y-63230D01*
X40297Y-57367D01*
X40000Y-57070D01*
X39929Y-57141D01*
X39929Y-57000D01*
X39632Y-56702D01*
X39539Y-56727D01*
X39500Y-56837D01*
X39445Y-56703D01*
X39297Y-56555D01*
X39297Y-56554D01*
X39297Y-51617D01*
X39000Y-51320D01*
X38929Y-51391D01*
X38929Y-51250D01*
X38632Y-50952D01*
X38539Y-50977D01*
X38525Y-51017D01*
X38525Y-48646D01*
X38445Y-48453D01*
X38367Y-48374D01*
X38444Y-48297D01*
X38524Y-48104D01*
X38525Y-47896D01*
X38445Y-47703D01*
X38297Y-47555D01*
X38104Y-47475D01*
X37896Y-47474D01*
X37703Y-47554D01*
X37555Y-47702D01*
X37475Y-47895D01*
X37474Y-48103D01*
X37554Y-48297D01*
X37632Y-48375D01*
X37557Y-48450D01*
X37000Y-48450D01*
X36885Y-48472D01*
X36787Y-48537D01*
X35287Y-50037D01*
X35222Y-50135D01*
X35200Y-50250D01*
X35200Y-50746D01*
X35171Y-50758D01*
X35008Y-50921D01*
X35000Y-50941D01*
X34991Y-50921D01*
X34828Y-50758D01*
X34615Y-50670D01*
X34385Y-50669D01*
X34171Y-50758D01*
X34008Y-50921D01*
X33920Y-51134D01*
X33919Y-51364D01*
X34008Y-51578D01*
X34171Y-51741D01*
X34384Y-51829D01*
X34614Y-51830D01*
X34828Y-51741D01*
X34991Y-51578D01*
X34999Y-51558D01*
X35008Y-51578D01*
X35171Y-51741D01*
X35384Y-51829D01*
X35614Y-51830D01*
X35828Y-51741D01*
X35991Y-51578D01*
X36079Y-51365D01*
X36080Y-51135D01*
X35991Y-50921D01*
X35828Y-50758D01*
X35800Y-50746D01*
X35800Y-50374D01*
X37124Y-49050D01*
X37557Y-49050D01*
X37702Y-49194D01*
X37895Y-49274D01*
X38103Y-49275D01*
X38297Y-49195D01*
X38444Y-49047D01*
X38524Y-48854D01*
X38525Y-48646D01*
X38525Y-51017D01*
X38500Y-51087D01*
X38445Y-50953D01*
X38297Y-50805D01*
X38104Y-50725D01*
X37896Y-50724D01*
X37703Y-50804D01*
X37555Y-50952D01*
X37525Y-51024D01*
X37525Y-50925D01*
X37487Y-50833D01*
X37416Y-50763D01*
X37324Y-50725D01*
X37225Y-50724D01*
X36675Y-50724D01*
X36583Y-50762D01*
X36513Y-50833D01*
X36475Y-50925D01*
X36474Y-51024D01*
X36474Y-51574D01*
X36512Y-51666D01*
X36583Y-51736D01*
X36675Y-51774D01*
X36774Y-51775D01*
X37324Y-51775D01*
X37416Y-51737D01*
X37486Y-51666D01*
X37524Y-51574D01*
X37525Y-51475D01*
X37525Y-51475D01*
X37554Y-51547D01*
X37702Y-51694D01*
X37895Y-51774D01*
X38103Y-51775D01*
X38297Y-51695D01*
X38444Y-51547D01*
X38497Y-51421D01*
X38539Y-51522D01*
X38632Y-51547D01*
X38929Y-51250D01*
X38929Y-51391D01*
X38702Y-51617D01*
X38727Y-51710D01*
X38924Y-51779D01*
X39132Y-51768D01*
X39272Y-51710D01*
X39297Y-51617D01*
X39297Y-56554D01*
X39104Y-56475D01*
X38896Y-56474D01*
X38703Y-56554D01*
X38555Y-56702D01*
X38499Y-56835D01*
X38445Y-56703D01*
X38297Y-56555D01*
X38104Y-56475D01*
X37896Y-56474D01*
X37703Y-56554D01*
X37555Y-56702D01*
X37525Y-56774D01*
X37525Y-56675D01*
X37487Y-56583D01*
X37416Y-56513D01*
X37324Y-56475D01*
X37225Y-56474D01*
X36675Y-56474D01*
X36583Y-56512D01*
X36513Y-56583D01*
X36475Y-56675D01*
X36474Y-56774D01*
X36474Y-57324D01*
X36512Y-57416D01*
X36583Y-57486D01*
X36675Y-57524D01*
X36774Y-57525D01*
X37324Y-57525D01*
X37416Y-57487D01*
X37486Y-57416D01*
X37524Y-57324D01*
X37525Y-57225D01*
X37525Y-57225D01*
X37554Y-57297D01*
X37702Y-57444D01*
X37895Y-57524D01*
X38103Y-57525D01*
X38297Y-57445D01*
X38444Y-57297D01*
X38500Y-57164D01*
X38554Y-57297D01*
X38702Y-57444D01*
X38895Y-57524D01*
X39103Y-57525D01*
X39297Y-57445D01*
X39444Y-57297D01*
X39497Y-57171D01*
X39539Y-57272D01*
X39632Y-57297D01*
X39929Y-57000D01*
X39929Y-57141D01*
X39702Y-57367D01*
X39727Y-57460D01*
X39924Y-57529D01*
X40132Y-57518D01*
X40272Y-57460D01*
X40297Y-57367D01*
X40297Y-63230D01*
X31929Y-63230D01*
X31929Y-59075D01*
X31925Y-58986D01*
X31925Y-58225D01*
X31925Y-57675D01*
X31887Y-57583D01*
X31816Y-57513D01*
X31724Y-57475D01*
X31625Y-57474D01*
X31075Y-57474D01*
X30983Y-57512D01*
X30913Y-57583D01*
X30875Y-57675D01*
X30874Y-57774D01*
X30874Y-58324D01*
X30912Y-58416D01*
X30983Y-58486D01*
X31075Y-58524D01*
X31162Y-58525D01*
X31127Y-58539D01*
X31102Y-58632D01*
X31400Y-58929D01*
X31697Y-58632D01*
X31672Y-58539D01*
X31631Y-58525D01*
X31724Y-58525D01*
X31816Y-58487D01*
X31886Y-58416D01*
X31924Y-58324D01*
X31925Y-58225D01*
X31925Y-58986D01*
X31918Y-58867D01*
X31860Y-58727D01*
X31767Y-58702D01*
X31470Y-59000D01*
X31767Y-59297D01*
X31860Y-59272D01*
X31929Y-59075D01*
X31929Y-63230D01*
X31697Y-63230D01*
X31697Y-59367D01*
X31400Y-59070D01*
X31329Y-59141D01*
X31329Y-59000D01*
X31032Y-58702D01*
X30939Y-58727D01*
X30870Y-58924D01*
X30881Y-59132D01*
X30939Y-59272D01*
X31032Y-59297D01*
X31329Y-59000D01*
X31329Y-59141D01*
X31102Y-59367D01*
X31127Y-59460D01*
X31324Y-59529D01*
X31532Y-59518D01*
X31672Y-59460D01*
X31697Y-59367D01*
X31697Y-63230D01*
X27825Y-63230D01*
X27825Y-46896D01*
X27745Y-46703D01*
X27597Y-46555D01*
X27404Y-46475D01*
X27196Y-46474D01*
X27003Y-46554D01*
X26857Y-46700D01*
X26803Y-46700D01*
X26791Y-46671D01*
X26628Y-46508D01*
X26415Y-46420D01*
X26185Y-46419D01*
X26025Y-46486D01*
X26025Y-39896D01*
X25945Y-39703D01*
X25797Y-39555D01*
X25604Y-39475D01*
X25396Y-39474D01*
X25203Y-39554D01*
X25055Y-39702D01*
X24975Y-39895D01*
X24974Y-40103D01*
X25054Y-40297D01*
X25202Y-40444D01*
X25395Y-40524D01*
X25603Y-40525D01*
X25797Y-40445D01*
X25944Y-40297D01*
X26024Y-40104D01*
X26025Y-39896D01*
X26025Y-46486D01*
X25971Y-46508D01*
X25808Y-46671D01*
X25799Y-46692D01*
X25707Y-46663D01*
X25636Y-46733D01*
X25636Y-46592D01*
X25605Y-46493D01*
X25388Y-46415D01*
X25158Y-46425D01*
X24994Y-46493D01*
X24963Y-46592D01*
X25300Y-46929D01*
X25636Y-46592D01*
X25636Y-46733D01*
X25370Y-47000D01*
X25707Y-47336D01*
X25799Y-47307D01*
X25808Y-47328D01*
X25971Y-47491D01*
X26184Y-47579D01*
X26414Y-47580D01*
X26628Y-47491D01*
X26791Y-47328D01*
X26803Y-47300D01*
X26857Y-47300D01*
X27002Y-47444D01*
X27195Y-47524D01*
X27403Y-47525D01*
X27597Y-47445D01*
X27744Y-47297D01*
X27824Y-47104D01*
X27825Y-46896D01*
X27825Y-63230D01*
X25636Y-63230D01*
X25636Y-47407D01*
X25300Y-47070D01*
X25229Y-47141D01*
X25229Y-47000D01*
X24892Y-46663D01*
X24793Y-46694D01*
X24715Y-46911D01*
X24725Y-47141D01*
X24793Y-47305D01*
X24892Y-47336D01*
X25229Y-47000D01*
X25229Y-47141D01*
X24963Y-47407D01*
X24994Y-47506D01*
X25211Y-47584D01*
X25441Y-47574D01*
X25605Y-47506D01*
X25636Y-47407D01*
X25636Y-63230D01*
X25051Y-63230D01*
X24782Y-63230D01*
X24791Y-63220D01*
X24747Y-63176D01*
X24894Y-63088D01*
X25051Y-62701D01*
X25048Y-62283D01*
X24894Y-61911D01*
X24747Y-61823D01*
X24725Y-61845D01*
X24725Y-49325D01*
X24725Y-48775D01*
X24687Y-48683D01*
X24616Y-48613D01*
X24524Y-48575D01*
X24425Y-48574D01*
X23875Y-48574D01*
X23783Y-48612D01*
X23713Y-48683D01*
X23675Y-48775D01*
X23674Y-48874D01*
X23674Y-49424D01*
X23712Y-49516D01*
X23783Y-49586D01*
X23875Y-49624D01*
X23974Y-49625D01*
X24524Y-49625D01*
X24616Y-49587D01*
X24686Y-49516D01*
X24724Y-49424D01*
X24725Y-49325D01*
X24725Y-61845D01*
X24676Y-61894D01*
X24070Y-62500D01*
X24076Y-62505D01*
X24005Y-62576D01*
X24000Y-62570D01*
X23994Y-62576D01*
X23923Y-62505D01*
X23929Y-62500D01*
X23923Y-62494D01*
X23994Y-62423D01*
X24000Y-62429D01*
X24676Y-61752D01*
X24588Y-61605D01*
X24201Y-61448D01*
X23783Y-61451D01*
X23411Y-61605D01*
X23323Y-61752D01*
X23279Y-61708D01*
X23269Y-61717D01*
X23269Y-23032D01*
X23279Y-23041D01*
X23323Y-22997D01*
X23411Y-23144D01*
X23798Y-23301D01*
X24216Y-23298D01*
X24588Y-23144D01*
X24676Y-22997D01*
X24000Y-22320D01*
X23994Y-22326D01*
X23923Y-22255D01*
X23929Y-22250D01*
X23923Y-22244D01*
X23994Y-22173D01*
X24000Y-22179D01*
X24005Y-22173D01*
X24076Y-22244D01*
X24070Y-22250D01*
X24747Y-22926D01*
X24894Y-22838D01*
X25051Y-22451D01*
X25048Y-22033D01*
X24894Y-21661D01*
X24747Y-21573D01*
X24791Y-21529D01*
X24782Y-21519D01*
X82217Y-21519D01*
X82208Y-21529D01*
X82252Y-21573D01*
X82105Y-21661D01*
X81948Y-22048D01*
X81951Y-22466D01*
X82105Y-22838D01*
X82252Y-22926D01*
X82929Y-22250D01*
X82923Y-22244D01*
X82994Y-22173D01*
X83000Y-22179D01*
X83005Y-22173D01*
X83076Y-22244D01*
X83070Y-22250D01*
X83076Y-22255D01*
X83005Y-22326D01*
X83000Y-22320D01*
X82929Y-22391D01*
X82323Y-22997D01*
X82411Y-23144D01*
X82798Y-23301D01*
X83216Y-23298D01*
X83588Y-23144D01*
X83676Y-22997D01*
X83676Y-22997D01*
X83720Y-23041D01*
X83730Y-23032D01*
X83730Y-63230D01*
M02*
