M48
;DRILL file {Pcbnew (2013-07-07 BZR 4022)-stable} date 12/23/2015 4:52:53 PM
;FORMAT={-:-/ absolute / inch / decimal}
FMAT,2
INCH,TZ
T1C0.025
T2C0.032
T3C0.039
T4C0.120
%
G90
G05
M72
T1
X2.65Y-3.925
X3.65Y-3.625
X4.6Y-3.8
X5.8Y-3.05
X5.975Y-3.6
X6.1Y-3.05
X6.425Y-3.05
T2
X2.475Y-4.3
X2.55Y-3.65
X2.55Y-3.75
X2.55Y-3.85
X2.55Y-4.
X2.575Y-4.3
X2.675Y-4.3
X2.75Y-2.45
X2.75Y-2.55
X2.75Y-2.65
X2.75Y-2.75
X2.75Y-2.85
X2.75Y-2.95
X2.75Y-3.05
X2.75Y-3.25
X2.75Y-3.35
X2.75Y-3.45
X2.775Y-4.3
X2.85Y-4.
X2.875Y-4.3
X2.975Y-4.3
X3.Y-2.85
X3.Y-3.15
X3.Y-3.25
X3.Y-3.45
X3.05Y-3.025
X3.075Y-4.3
X3.1Y-2.85
X3.1Y-3.45
X3.15Y-5.7
X3.175Y-4.3
X3.2Y-2.85
X3.2Y-3.45
X3.25Y-5.7
X3.275Y-4.3
X3.3Y-2.85
X3.3Y-3.45
X3.35Y-3.025
X3.4Y-2.5
X3.4Y-2.85
X3.4Y-3.45
X3.45Y-5.125
X3.475Y-2.975
X3.475Y-3.275
X3.5Y-2.5
X3.5Y-2.85
X3.5Y-3.45
X3.55Y-5.125
X3.6Y-2.85
X3.6Y-3.45
X3.6396Y-2.6396
X3.65Y-2.5
X3.7Y-2.85
X3.7Y-2.975
X3.7Y-3.275
X3.7Y-3.45
X3.7Y-4.55
X3.7Y-5.125
X3.7Y-5.7
X3.7104Y-2.7104
X3.75Y-2.5
X3.8Y-2.85
X3.8Y-3.45
X3.8Y-4.55
X3.8Y-4.8
X3.8Y-4.875
X3.8Y-5.125
X3.8Y-5.7
X3.85Y-2.5
X3.9Y-2.85
X3.9Y-3.125
X3.9Y-3.45
X3.9Y-4.55
X3.9Y-5.125
X3.9Y-5.7
X4.Y-2.5
X4.Y-2.85
X4.Y-3.45
X4.Y-4.55
X4.Y-5.125
X4.Y-5.275
X4.Y-5.375
X4.Y-5.7
X4.1Y-2.5
X4.1Y-2.85
X4.1Y-3.45
X4.1Y-4.55
X4.1Y-4.8
X4.1Y-4.875
X4.1Y-5.125
X4.1Y-5.7
X4.2Y-2.5
X4.2Y-2.85
X4.2Y-3.125
X4.2Y-3.45
X4.3Y-2.5
X4.3Y-2.85
X4.3Y-3.45
X4.3Y-5.275
X4.3Y-5.375
X4.4Y-2.5
X4.4Y-2.85
X4.4Y-3.45
X4.4Y-3.725
X4.425Y-3.125
X4.5Y-2.5
X4.5Y-2.85
X4.5Y-3.45
X4.525Y-3.125
X4.6Y-2.5
X4.6Y-2.7
X4.6Y-2.85
X4.6Y-3.45
X4.7Y-2.7
X4.7Y-2.85
X4.7Y-3.45
X4.7Y-3.725
X4.75Y-2.5
X4.8Y-2.7
X4.8Y-2.85
X4.8Y-3.45
X4.85Y-2.5
X4.9Y-2.7
X4.9Y-2.85
X4.9Y-3.45
X4.95Y-5.165
X5.025Y-2.55
X5.025Y-2.85
X5.05Y-5.165
X5.15Y-2.6
X5.15Y-5.165
X5.25Y-2.6
X5.35Y-2.6
X5.65Y-2.725
X5.65Y-3.025
X5.675Y-2.6
X5.775Y-2.6
X5.95Y-2.725
X5.95Y-3.025
X5.975Y-2.6
X6.075Y-2.6
X6.075Y-2.75
X6.075Y-2.85
X6.075Y-2.95
X6.25Y-2.725
X6.25Y-3.025
X6.25Y-3.325
X6.275Y-2.6
X6.35Y-3.525
X6.375Y-2.6
X6.375Y-2.75
X6.375Y-2.85
X6.375Y-2.95
X6.45Y-3.525
X6.55Y-2.725
X6.55Y-3.025
X6.55Y-3.325
X6.575Y-2.6
X6.65Y-3.525
X6.675Y-2.6
X6.675Y-2.75
X6.675Y-2.85
X6.675Y-2.95
X6.75Y-3.375
X6.75Y-3.525
X6.85Y-3.525
X6.9Y-2.8
X6.95Y-3.525
X7.Y-2.8
X7.05Y-3.375
X7.05Y-3.525
X7.1Y-2.8
X7.85Y-3.2
X7.85Y-3.3
X7.85Y-3.4
T3
X2.7Y-3.75
X2.8Y-3.65
X2.8Y-3.85
X5.15Y-2.85
X5.25Y-2.75
X5.35Y-2.85
X5.775Y-2.75
X5.775Y-2.85
X5.775Y-2.95
T4
X2.4Y-2.225
X2.4Y-6.25
X4.6Y-4.02
X4.6Y-6.18
X7.775Y-6.25
X8.26Y-4.02
X8.26Y-6.18
X8.3Y-2.225
T0
M30
